G04*
G04 #@! TF.GenerationSoftware,Altium Limited,Altium Designer,25.0.2 (28)*
G04*
G04 Layer_Color=32768*
%FSLAX44Y44*%
%MOMM*%
G71*
G04*
G04 #@! TF.SameCoordinates,D3EEB5A3-CD8A-495B-8DC4-06CF7895C722*
G04*
G04*
G04 #@! TF.FilePolarity,Positive*
G04*
G01*
G75*
%ADD35C,0.1000*%
%ADD36C,0.0500*%
%ADD39C,0.0254*%
G36*
X28939Y44924D02*
X7424Y66439D01*
Y96561D01*
X28939Y118076D01*
X59061D01*
X80576Y96561D01*
Y66439D01*
X59061Y44924D01*
X28939D01*
D02*
G37*
G36*
X59007Y301026D02*
D01*
X148923D01*
Y138974D01*
X59007D01*
Y301026D01*
D02*
G37*
G36*
X159009Y280643D02*
X191357Y312991D01*
X236643D01*
X268991Y280643D01*
Y235357D01*
X236643Y203009D01*
X191357D01*
X159009Y235357D01*
Y280643D01*
D02*
G37*
D35*
X195000Y161000D02*
Y171000D01*
X190000Y166000D02*
X200000D01*
D36*
X169000Y155500D02*
X221000D01*
X169000Y176500D02*
X221000D01*
Y155500D02*
Y176500D01*
X169000Y155500D02*
Y176500D01*
X273600Y44350D02*
X292400D01*
X273600Y77650D02*
X292400D01*
Y44350D02*
Y77650D01*
X273600Y44350D02*
Y77650D01*
X230650Y60600D02*
Y79400D01*
X197350Y60600D02*
Y79400D01*
X230650D01*
X197350Y60600D02*
X230650D01*
X238350Y85600D02*
X271650D01*
X238350Y104400D02*
X271650D01*
X238350Y85600D02*
Y104400D01*
X271650Y85600D02*
Y104400D01*
X237920Y31920D02*
X270080D01*
X237920Y78080D02*
X270080D01*
Y31920D02*
Y78080D01*
X237920Y31920D02*
Y78080D01*
D39*
X59007Y138974D02*
Y301026D01*
Y138974D02*
X148923D01*
Y301026D01*
X59007D02*
X148923D01*
X7424Y66439D02*
X28939Y44924D01*
X59061D01*
X80576Y66439D01*
Y96561D01*
X59061Y118076D02*
X80576Y96561D01*
X28939Y118076D02*
X59061D01*
X7424Y96561D02*
X28939Y118076D01*
X7424Y66439D02*
Y96561D01*
X159009Y280643D02*
X191357Y312991D01*
X159009Y235357D02*
Y280643D01*
Y235357D02*
X191357Y203009D01*
X236643D01*
X268991Y235357D01*
Y280643D01*
X236643Y312991D02*
X268991Y280643D01*
X191357Y312991D02*
X236643D01*
M02*
