G04*
G04 #@! TF.GenerationSoftware,Altium Limited,Altium Designer,25.0.2 (28)*
G04*
G04 Layer_Physical_Order=1*
G04 Layer_Color=255*
%FSLAX44Y44*%
%MOMM*%
G71*
G04*
G04 #@! TF.SameCoordinates,D3EEB5A3-CD8A-495B-8DC4-06CF7895C722*
G04*
G04*
G04 #@! TF.FilePolarity,Positive*
G04*
G01*
G75*
%ADD13C,0.2540*%
%ADD14R,1.2000X0.7000*%
%ADD15R,1.3800X0.9200*%
%ADD16R,0.9200X1.3800*%
%ADD17R,2.7200X1.1600*%
%ADD26C,1.6256*%
%ADD27C,1.2700*%
%ADD28C,1.3716*%
%ADD29C,0.3810*%
%ADD30R,1.5240X1.5240*%
%ADD31C,1.5240*%
G04:AMPARAMS|DCode=32|XSize=1.95mm|YSize=1.95mm|CornerRadius=0.4875mm|HoleSize=0mm|Usage=FLASHONLY|Rotation=90.000|XOffset=0mm|YOffset=0mm|HoleType=Round|Shape=RoundedRectangle|*
%AMROUNDEDRECTD32*
21,1,1.9500,0.9750,0,0,90.0*
21,1,0.9750,1.9500,0,0,90.0*
1,1,0.9750,0.4875,0.4875*
1,1,0.9750,0.4875,-0.4875*
1,1,0.9750,-0.4875,-0.4875*
1,1,0.9750,-0.4875,0.4875*
%
%ADD32ROUNDEDRECTD32*%
%ADD33C,1.9500*%
G36*
X348350Y-5240D02*
X-7250D01*
Y324960D01*
X348350D01*
Y-5240D01*
D02*
G37*
%LPC*%
G36*
X190270Y267389D02*
Y259270D01*
X198389D01*
X197757Y261628D01*
X196520Y263771D01*
X194771Y265520D01*
X192628Y266758D01*
X190270Y267389D01*
D02*
G37*
G36*
X187730D02*
X185373Y266758D01*
X183230Y265520D01*
X181480Y263771D01*
X180243Y261628D01*
X179611Y259270D01*
X187730D01*
Y267389D01*
D02*
G37*
G36*
X198389Y256730D02*
X190270D01*
Y248611D01*
X192628Y249242D01*
X194771Y250480D01*
X196520Y252229D01*
X197757Y254373D01*
X198389Y256730D01*
D02*
G37*
G36*
X187730D02*
X179611D01*
X180243Y254373D01*
X181480Y252229D01*
X183230Y250480D01*
X185373Y249242D01*
X187730Y248611D01*
Y256730D01*
D02*
G37*
G36*
X67905Y230668D02*
X65096D01*
X62382Y229941D01*
X59950Y228537D01*
X57964Y226550D01*
X56559Y224118D01*
X55832Y221404D01*
Y218596D01*
X56559Y215882D01*
X57964Y213450D01*
X59950Y211464D01*
X62382Y210059D01*
X65096Y209332D01*
X67905D01*
X70618Y210059D01*
X73050Y211464D01*
X75037Y213450D01*
X76441Y215882D01*
X77168Y218596D01*
Y221404D01*
X76441Y224118D01*
X75037Y226550D01*
X73050Y228537D01*
X70618Y229941D01*
X67905Y230668D01*
D02*
G37*
G36*
X309118Y196290D02*
X308770D01*
Y185270D01*
X319790D01*
Y185618D01*
X318952Y188744D01*
X317334Y191546D01*
X315046Y193834D01*
X312244Y195452D01*
X309118Y196290D01*
D02*
G37*
G36*
X306230D02*
X305882D01*
X302756Y195452D01*
X299954Y193834D01*
X297666Y191546D01*
X296047Y188744D01*
X295210Y185618D01*
Y185270D01*
X306230D01*
Y196290D01*
D02*
G37*
G36*
X319790Y182730D02*
X308770D01*
Y171710D01*
X309118D01*
X312244Y172548D01*
X315046Y174166D01*
X317334Y176454D01*
X318952Y179256D01*
X319790Y182382D01*
Y182730D01*
D02*
G37*
G36*
X306230D02*
X295210D01*
Y182382D01*
X296047Y179256D01*
X297666Y176454D01*
X299954Y174166D01*
X302756Y172548D01*
X305882Y171710D01*
X306230D01*
Y182730D01*
D02*
G37*
G36*
X240237Y267398D02*
X237763D01*
X235373Y266758D01*
X233230Y265520D01*
X231480Y263771D01*
X230243Y261628D01*
X229602Y259237D01*
Y256763D01*
X230243Y254373D01*
X231480Y252229D01*
X233230Y250480D01*
X234468Y249765D01*
Y169601D01*
X233295Y169115D01*
X233205Y169205D01*
X231734Y170187D01*
X230000Y170532D01*
X222040D01*
Y172040D01*
X204960D01*
Y159960D01*
X222040D01*
Y161468D01*
X228123D01*
X234468Y155123D01*
Y138000D01*
X234813Y136266D01*
X235795Y134795D01*
X239795Y130795D01*
X239795Y130795D01*
X241266Y129813D01*
X243000Y129468D01*
X260018D01*
Y104440D01*
X257410D01*
Y86532D01*
X252590D01*
Y104440D01*
X238310D01*
Y91969D01*
X232873Y86532D01*
X193487D01*
X185520Y94499D01*
X186030Y96402D01*
Y99078D01*
X185338Y101662D01*
X184000Y103978D01*
X182108Y105870D01*
X179792Y107208D01*
X177208Y107900D01*
X174532D01*
X171948Y107208D01*
X169632Y105870D01*
X167740Y103978D01*
X166402Y101662D01*
X165710Y99078D01*
Y96402D01*
X166402Y93818D01*
X167740Y91502D01*
X169632Y89610D01*
X171948Y88272D01*
X174532Y87580D01*
X177208D01*
X179111Y88090D01*
X188405Y78795D01*
X189383Y78142D01*
X188998Y76872D01*
X184985D01*
X184000Y78578D01*
X182108Y80470D01*
X179792Y81808D01*
X177208Y82500D01*
X174532D01*
X171948Y81808D01*
X169632Y80470D01*
X167740Y78578D01*
X166402Y76262D01*
X165710Y73678D01*
Y71002D01*
X166402Y68418D01*
X167740Y66102D01*
X169632Y64210D01*
X171948Y62872D01*
X174532Y62180D01*
X177208D01*
X179792Y62872D01*
X182108Y64210D01*
X184000Y66102D01*
X184985Y67808D01*
X197310D01*
Y60560D01*
X211590D01*
Y77468D01*
X216410D01*
Y60560D01*
X230690D01*
Y65468D01*
X237860D01*
Y61410D01*
X270140D01*
Y73041D01*
X271313Y73527D01*
X273560Y71281D01*
Y63410D01*
X292440D01*
Y77690D01*
X279969D01*
X272455Y85205D01*
X271690Y85716D01*
Y104440D01*
X269082D01*
Y127673D01*
X270877Y129468D01*
X295146D01*
Y129125D01*
X295401Y127189D01*
X296148Y125386D01*
X297337Y123837D01*
X298885Y122648D01*
X300689Y121901D01*
X302625Y121646D01*
X312375D01*
X314311Y121901D01*
X316115Y122648D01*
X317663Y123837D01*
X318852Y125386D01*
X319599Y127189D01*
X319854Y129125D01*
Y138875D01*
X319599Y140811D01*
X318852Y142614D01*
X317663Y144163D01*
X316115Y145352D01*
X314311Y146099D01*
X312375Y146354D01*
X302625D01*
X300689Y146099D01*
X298885Y145352D01*
X297337Y144163D01*
X296148Y142614D01*
X295401Y140811D01*
X295146Y138875D01*
Y138532D01*
X244877D01*
X243532Y139877D01*
Y157000D01*
X243532Y157000D01*
X243532Y157000D01*
Y249765D01*
X244771Y250480D01*
X246520Y252229D01*
X247757Y254373D01*
X248398Y256763D01*
Y259237D01*
X247757Y261628D01*
X246520Y263771D01*
X246289Y264002D01*
X245485Y265205D01*
X244015Y266187D01*
X243406Y266308D01*
X242628Y266758D01*
X240237Y267398D01*
D02*
G37*
G36*
X142835Y230668D02*
X140026D01*
X137312Y229941D01*
X134880Y228537D01*
X132893Y226550D01*
X131489Y224118D01*
X130762Y221404D01*
Y218596D01*
X131489Y215882D01*
X132893Y213450D01*
X134880Y211464D01*
X136898Y210298D01*
Y173106D01*
X137243Y171372D01*
X138225Y169902D01*
X151236Y156891D01*
Y148645D01*
X143123Y140532D01*
X78850D01*
X77116Y140187D01*
X75645Y139205D01*
X75645Y139205D01*
X69185Y132745D01*
X68203Y131274D01*
X67858Y129540D01*
Y94540D01*
X68203Y92806D01*
X69185Y91335D01*
X84940Y75581D01*
X84430Y73678D01*
Y71002D01*
X85122Y68418D01*
X86460Y66102D01*
X88352Y64210D01*
X90668Y62872D01*
X93252Y62180D01*
X95928D01*
X98512Y62872D01*
X100828Y64210D01*
X102720Y66102D01*
X104058Y68418D01*
X104750Y71002D01*
Y73678D01*
X104058Y76262D01*
X102720Y78578D01*
X100828Y80470D01*
X98512Y81808D01*
X95928Y82500D01*
X93252D01*
X91349Y81990D01*
X76922Y96417D01*
Y127663D01*
X80727Y131468D01*
X89624D01*
X89964Y130198D01*
X89622Y130000D01*
X87730Y128108D01*
X86392Y125792D01*
X85700Y123208D01*
Y120532D01*
X86392Y117948D01*
X87730Y115632D01*
X89622Y113740D01*
X91938Y112402D01*
X94522Y111710D01*
X97198D01*
X99782Y112402D01*
X102098Y113740D01*
X103990Y115632D01*
X105328Y117948D01*
X106020Y120532D01*
Y123208D01*
X105328Y125792D01*
X103990Y128108D01*
X102098Y130000D01*
X101756Y130198D01*
X102096Y131468D01*
X145000D01*
X146734Y131813D01*
X148205Y132795D01*
X158973Y143563D01*
X159955Y145034D01*
X160300Y146768D01*
X160300Y146768D01*
Y156891D01*
X164877Y161468D01*
X167960D01*
Y159960D01*
X185040D01*
Y172040D01*
X167960D01*
Y170532D01*
X163000D01*
X161266Y170187D01*
X159795Y169205D01*
X155768Y165177D01*
X145962Y174984D01*
Y210298D01*
X147980Y211464D01*
X149967Y213450D01*
X151371Y215882D01*
X152098Y218596D01*
Y221404D01*
X151371Y224118D01*
X149967Y226550D01*
X147980Y228537D01*
X145548Y229941D01*
X142835Y230668D01*
D02*
G37*
G36*
X177208Y132030D02*
X174532D01*
X171948Y131338D01*
X169632Y130000D01*
X167740Y128108D01*
X166402Y125792D01*
X165710Y123208D01*
Y120532D01*
X166402Y117948D01*
X167740Y115632D01*
X169632Y113740D01*
X171948Y112402D01*
X174532Y111710D01*
X177208D01*
X179792Y112402D01*
X182108Y113740D01*
X184000Y115632D01*
X185338Y117948D01*
X186030Y120532D01*
Y123208D01*
X185338Y125792D01*
X184000Y128108D01*
X182108Y130000D01*
X179792Y131338D01*
X177208Y132030D01*
D02*
G37*
G36*
X95928Y107900D02*
X95860D01*
Y99010D01*
X104750D01*
Y99078D01*
X104058Y101662D01*
X102720Y103978D01*
X100828Y105870D01*
X98512Y107208D01*
X95928Y107900D01*
D02*
G37*
G36*
X93320D02*
X93252D01*
X90668Y107208D01*
X88352Y105870D01*
X86460Y103978D01*
X85122Y101662D01*
X84430Y99078D01*
Y99010D01*
X93320D01*
Y107900D01*
D02*
G37*
G36*
X104750Y96470D02*
X95860D01*
Y87580D01*
X95928D01*
X98512Y88272D01*
X100828Y89610D01*
X102720Y91502D01*
X104058Y93818D01*
X104750Y96402D01*
Y96470D01*
D02*
G37*
G36*
X93320D02*
X84430D01*
Y96402D01*
X85122Y93818D01*
X86460Y91502D01*
X88352Y89610D01*
X90668Y88272D01*
X93252Y87580D01*
X93320D01*
Y96470D01*
D02*
G37*
G36*
X45170Y102890D02*
X42830D01*
X40569Y102284D01*
X38541Y101114D01*
X36886Y99459D01*
X35716Y97431D01*
X35110Y95170D01*
Y92830D01*
X35716Y90569D01*
X36886Y88541D01*
X38541Y86886D01*
X40569Y85716D01*
X42830Y85110D01*
X45170D01*
X47431Y85716D01*
X49459Y86886D01*
X51114Y88541D01*
X52284Y90569D01*
X52890Y92830D01*
Y95170D01*
X52284Y97431D01*
X51114Y99459D01*
X49459Y101114D01*
X47431Y102284D01*
X45170Y102890D01*
D02*
G37*
G36*
X45270Y77863D02*
Y70270D01*
X52863D01*
X52284Y72431D01*
X51114Y74459D01*
X49459Y76114D01*
X47431Y77284D01*
X45270Y77863D01*
D02*
G37*
G36*
X42730D02*
X40569Y77284D01*
X38541Y76114D01*
X36886Y74459D01*
X35716Y72431D01*
X35137Y70270D01*
X42730D01*
Y77863D01*
D02*
G37*
G36*
Y67730D02*
X35137D01*
X35716Y65569D01*
X36886Y63541D01*
X38541Y61886D01*
X40569Y60716D01*
X42730Y60137D01*
Y67730D01*
D02*
G37*
G36*
X52863D02*
X45270D01*
Y60137D01*
X47431Y60716D01*
X49459Y61886D01*
X51114Y63541D01*
X52284Y65569D01*
X52863Y67730D01*
D02*
G37*
G36*
X292440Y58590D02*
X284270D01*
Y52720D01*
X292440D01*
Y58590D01*
D02*
G37*
G36*
X281730D02*
X273560D01*
Y52720D01*
X281730D01*
Y58590D01*
D02*
G37*
G36*
X186030Y57100D02*
X177140D01*
Y48210D01*
X186030D01*
Y57100D01*
D02*
G37*
G36*
X174600D02*
X165710D01*
Y48210D01*
X174600D01*
Y57100D01*
D02*
G37*
G36*
X292440Y50180D02*
X284270D01*
Y44310D01*
X292440D01*
Y50180D01*
D02*
G37*
G36*
X281730D02*
X273560D01*
Y44310D01*
X281730D01*
Y50180D01*
D02*
G37*
G36*
X270140Y48590D02*
X255270D01*
Y41520D01*
X270140D01*
Y48590D01*
D02*
G37*
G36*
X252730D02*
X237860D01*
Y41520D01*
X252730D01*
Y48590D01*
D02*
G37*
G36*
X186030Y45670D02*
X177140D01*
Y36780D01*
X186030D01*
Y45670D01*
D02*
G37*
G36*
X174600D02*
X165710D01*
Y36780D01*
X174600D01*
Y45670D01*
D02*
G37*
G36*
X95928Y57100D02*
X93252D01*
X90668Y56408D01*
X88352Y55070D01*
X86460Y53178D01*
X85122Y50862D01*
X84430Y48278D01*
Y45602D01*
X85122Y43018D01*
X86460Y40702D01*
X88352Y38810D01*
X90668Y37472D01*
X93252Y36780D01*
X95928D01*
X98512Y37472D01*
X100828Y38810D01*
X102720Y40702D01*
X104058Y43018D01*
X104750Y45602D01*
Y48278D01*
X104058Y50862D01*
X102720Y53178D01*
X100828Y55070D01*
X98512Y56408D01*
X95928Y57100D01*
D02*
G37*
G36*
X270140Y38980D02*
X255270D01*
Y31910D01*
X270140D01*
Y38980D01*
D02*
G37*
G36*
X252730D02*
X237860D01*
Y31910D01*
X252730D01*
Y38980D01*
D02*
G37*
%LPD*%
D13*
X204450Y70000D02*
G03*
X202110Y72340I-2340J0D01*
G01*
X253750Y70000D02*
X254000Y69750D01*
D14*
X213500Y166000D02*
D03*
X176500D02*
D03*
D15*
X283000Y51450D02*
D03*
Y70550D02*
D03*
D16*
X223550Y70000D02*
D03*
X204450D02*
D03*
X245450Y95000D02*
D03*
X264550D02*
D03*
D17*
X254000Y40250D02*
D03*
Y69750D02*
D03*
D26*
X141430Y220000D02*
D03*
X66500D02*
D03*
D27*
X44000Y94000D02*
D03*
Y69000D02*
D03*
D28*
X239000Y258000D02*
D03*
X189000D02*
D03*
D29*
X72390Y129540D02*
X78850Y136000D01*
X72390Y94540D02*
Y129540D01*
X78850Y136000D02*
X145000D01*
X72390Y94540D02*
X94590Y72340D01*
X141430Y173106D02*
X155768Y158768D01*
X141430Y173106D02*
Y220000D01*
X155768Y146768D02*
Y158768D01*
X145000Y136000D02*
X155768Y146768D01*
Y158768D02*
X163000Y166000D01*
X176500D01*
X239000Y157000D02*
Y258000D01*
Y138000D02*
Y157000D01*
X213500Y166000D02*
X230000D01*
X239000Y157000D01*
X243000Y134000D02*
X269000D01*
X239000Y138000D02*
X243000Y134000D01*
X264550Y95000D02*
Y129550D01*
X269000Y134000D02*
X307500D01*
X264550Y129550D02*
X269000Y134000D01*
X239600Y262000D02*
X242281D01*
X175870Y97740D02*
X191610Y82000D01*
X141430Y220000D02*
X143430Y218000D01*
X175870Y72340D02*
X202110D01*
X223550Y70000D02*
X253750D01*
X234750Y82000D02*
X245450Y92700D01*
Y95000D01*
X234750Y82000D02*
X269250D01*
X280700Y70550D01*
X283000D01*
X191610Y82000D02*
X234750D01*
D30*
X175870Y46940D02*
D03*
D31*
Y72340D02*
D03*
Y97740D02*
D03*
Y121870D02*
D03*
X95860D02*
D03*
X94590Y97740D02*
D03*
Y72340D02*
D03*
Y46940D02*
D03*
D32*
X307500Y134000D02*
D03*
D33*
Y184000D02*
D03*
M02*
