G04*
G04 #@! TF.GenerationSoftware,Altium Limited,Altium Designer,25.0.2 (28)*
G04*
G04 Layer_Physical_Order=2*
G04 Layer_Color=36540*
%FSLAX44Y44*%
%MOMM*%
G71*
G04*
G04 #@! TF.SameCoordinates,783E934D-7247-47A1-8249-FBC8F6F05072*
G04*
G04*
G04 #@! TF.FilePolarity,Positive*
G04*
G01*
G75*
%ADD12C,1.5000*%
%ADD17C,0.5000*%
%ADD74C,1.1000*%
%ADD75C,1.6000*%
%ADD76C,1.0500*%
%ADD77C,1.3000*%
%ADD78R,1.7000X1.7000*%
G04:AMPARAMS|DCode=79|XSize=1.7mm|YSize=1.7mm|CornerRadius=0.85mm|HoleSize=0mm|Usage=FLASHONLY|Rotation=90.000|XOffset=0mm|YOffset=0mm|HoleType=Round|Shape=RoundedRectangle|*
%AMROUNDEDRECTD79*
21,1,1.7000,0.0000,0,0,90.0*
21,1,0.0000,1.7000,0,0,90.0*
1,1,1.7000,0.0000,0.0000*
1,1,1.7000,0.0000,0.0000*
1,1,1.7000,0.0000,0.0000*
1,1,1.7000,0.0000,0.0000*
%
%ADD79ROUNDEDRECTD79*%
%ADD80R,1.5000X1.5000*%
%ADD81C,3.5000*%
%ADD82C,3.2000*%
%ADD83C,0.8000*%
%ADD84C,6.4000*%
%ADD85C,2.3500*%
%ADD86R,1.2000X1.2000*%
%ADD87C,1.2000*%
%ADD88C,3.2500*%
%ADD89C,1.9000*%
%ADD90R,1.9000X1.9000*%
%ADD91C,2.5000*%
%ADD92C,1.1500*%
%ADD93C,1.6500*%
G04:AMPARAMS|DCode=94|XSize=3.3mm|YSize=1.5mm|CornerRadius=0.75mm|HoleSize=0mm|Usage=FLASHONLY|Rotation=270.000|XOffset=0mm|YOffset=0mm|HoleType=Round|Shape=RoundedRectangle|*
%AMROUNDEDRECTD94*
21,1,3.3000,0.0000,0,0,270.0*
21,1,1.8000,1.5000,0,0,270.0*
1,1,1.5000,0.0000,-0.9000*
1,1,1.5000,0.0000,0.9000*
1,1,1.5000,0.0000,0.9000*
1,1,1.5000,0.0000,-0.9000*
%
%ADD94ROUNDEDRECTD94*%
G04:AMPARAMS|DCode=95|XSize=2.3mm|YSize=1.5mm|CornerRadius=0.75mm|HoleSize=0mm|Usage=FLASHONLY|Rotation=270.000|XOffset=0mm|YOffset=0mm|HoleType=Round|Shape=RoundedRectangle|*
%AMROUNDEDRECTD95*
21,1,2.3000,0.0000,0,0,270.0*
21,1,0.8000,1.5000,0,0,270.0*
1,1,1.5000,0.0000,-0.4000*
1,1,1.5000,0.0000,0.4000*
1,1,1.5000,0.0000,0.4000*
1,1,1.5000,0.0000,-0.4000*
%
%ADD95ROUNDEDRECTD95*%
%ADD96C,2.2000*%
G04:AMPARAMS|DCode=97|XSize=1.5mm|YSize=3.7mm|CornerRadius=0.75mm|HoleSize=0mm|Usage=FLASHONLY|Rotation=270.000|XOffset=0mm|YOffset=0mm|HoleType=Round|Shape=RoundedRectangle|*
%AMROUNDEDRECTD97*
21,1,1.5000,2.2000,0,0,270.0*
21,1,0.0000,3.7000,0,0,270.0*
1,1,1.5000,-1.1000,0.0000*
1,1,1.5000,-1.1000,0.0000*
1,1,1.5000,1.1000,0.0000*
1,1,1.5000,1.1000,0.0000*
%
%ADD97ROUNDEDRECTD97*%
G04:AMPARAMS|DCode=98|XSize=1.5mm|YSize=2.7mm|CornerRadius=0.75mm|HoleSize=0mm|Usage=FLASHONLY|Rotation=180.000|XOffset=0mm|YOffset=0mm|HoleType=Round|Shape=RoundedRectangle|*
%AMROUNDEDRECTD98*
21,1,1.5000,1.2000,0,0,180.0*
21,1,0.0000,2.7000,0,0,180.0*
1,1,1.5000,0.0000,0.6000*
1,1,1.5000,0.0000,0.6000*
1,1,1.5000,0.0000,-0.6000*
1,1,1.5000,0.0000,-0.6000*
%
%ADD98ROUNDEDRECTD98*%
%ADD99C,0.6500*%
G04:AMPARAMS|DCode=100|XSize=1mm|YSize=2.1mm|CornerRadius=0.5mm|HoleSize=0mm|Usage=FLASHONLY|Rotation=0.000|XOffset=0mm|YOffset=0mm|HoleType=Round|Shape=RoundedRectangle|*
%AMROUNDEDRECTD100*
21,1,1.0000,1.1000,0,0,0.0*
21,1,0.0000,2.1000,0,0,0.0*
1,1,1.0000,0.0000,-0.5500*
1,1,1.0000,0.0000,-0.5500*
1,1,1.0000,0.0000,0.5500*
1,1,1.0000,0.0000,0.5500*
%
%ADD100ROUNDEDRECTD100*%
G04:AMPARAMS|DCode=101|XSize=1mm|YSize=1.8mm|CornerRadius=0.5mm|HoleSize=0mm|Usage=FLASHONLY|Rotation=0.000|XOffset=0mm|YOffset=0mm|HoleType=Round|Shape=RoundedRectangle|*
%AMROUNDEDRECTD101*
21,1,1.0000,0.8000,0,0,0.0*
21,1,0.0000,1.8000,0,0,0.0*
1,1,1.0000,0.0000,-0.4000*
1,1,1.0000,0.0000,-0.4000*
1,1,1.0000,0.0000,0.4000*
1,1,1.0000,0.0000,0.4000*
%
%ADD101ROUNDEDRECTD101*%
%ADD102C,2.9000*%
G04:AMPARAMS|DCode=103|XSize=1.2mm|YSize=1.75mm|CornerRadius=0.126mm|HoleSize=0mm|Usage=FLASHONLY|Rotation=0.000|XOffset=0mm|YOffset=0mm|HoleType=Round|Shape=RoundedRectangle|*
%AMROUNDEDRECTD103*
21,1,1.2000,1.4980,0,0,0.0*
21,1,0.9480,1.7500,0,0,0.0*
1,1,0.2520,0.4740,-0.7490*
1,1,0.2520,-0.4740,-0.7490*
1,1,0.2520,-0.4740,0.7490*
1,1,0.2520,0.4740,0.7490*
%
%ADD103ROUNDEDRECTD103*%
G04:AMPARAMS|DCode=104|XSize=1.2mm|YSize=1.75mm|CornerRadius=0.6mm|HoleSize=0mm|Usage=FLASHONLY|Rotation=0.000|XOffset=0mm|YOffset=0mm|HoleType=Round|Shape=RoundedRectangle|*
%AMROUNDEDRECTD104*
21,1,1.2000,0.5500,0,0,0.0*
21,1,0.0000,1.7500,0,0,0.0*
1,1,1.2000,0.0000,-0.2750*
1,1,1.2000,0.0000,-0.2750*
1,1,1.2000,0.0000,0.2750*
1,1,1.2000,0.0000,0.2750*
%
%ADD104ROUNDEDRECTD104*%
%ADD105C,0.4000*%
G36*
X-945350Y281897D02*
Y281604D01*
X-946057Y280897D01*
X-952350D01*
Y281897D01*
X-945350D01*
D02*
G37*
G36*
X-943143Y279397D02*
X-942850D01*
Y272397D01*
X-943850D01*
Y278690D01*
X-943143Y279397D01*
D02*
G37*
G36*
X-946057Y309897D02*
X-945350Y309190D01*
Y308897D01*
X-952350D01*
Y309897D01*
X-946057D01*
D02*
G37*
G36*
X-942850Y318397D02*
Y311397D01*
X-943143D01*
X-943850Y312104D01*
Y318397D01*
X-942850D01*
D02*
G37*
G36*
X-915557Y279397D02*
X-914850Y278690D01*
Y272397D01*
X-915850D01*
Y279397D01*
X-915557D01*
D02*
G37*
G36*
X-906350Y281897D02*
Y280897D01*
X-912643D01*
X-913350Y281604D01*
Y281897D01*
X-906350D01*
D02*
G37*
G36*
X-914850Y318397D02*
Y312104D01*
X-915557Y311397D01*
X-915850D01*
Y318397D01*
X-914850D01*
D02*
G37*
G36*
X-912643Y309897D02*
X-906350D01*
Y308897D01*
X-913350D01*
Y309190D01*
X-912643Y309897D01*
D02*
G37*
D12*
X-665000Y87623D02*
D03*
X-645000D02*
D03*
X-620000D02*
D03*
X-690000Y113823D02*
D03*
X-665000D02*
D03*
X-645000D02*
D03*
X-620000D02*
D03*
D17*
X-1283500Y439400D02*
D03*
X-1278000D02*
D03*
X-1272400D02*
D03*
X-1266700Y439500D02*
D03*
X-1261400Y439600D02*
D03*
X-1283400Y444700D02*
D03*
X-1277900D02*
D03*
X-1272300D02*
D03*
X-1266600Y444800D02*
D03*
X-1261300Y444900D02*
D03*
X-1283600Y450000D02*
D03*
X-1278100D02*
D03*
X-1272500D02*
D03*
X-1266800Y450100D02*
D03*
X-1261500Y450200D02*
D03*
X-1283600Y455500D02*
D03*
X-1278100D02*
D03*
X-1272500D02*
D03*
X-1266800Y455600D02*
D03*
X-1261500Y455700D02*
D03*
X-1314000Y598100D02*
D03*
X-1324800D02*
D03*
X-1319300D02*
D03*
X-1329900D02*
D03*
X-1308800D02*
D03*
X-1303500D02*
D03*
X-1298300D02*
D03*
X-1293100D02*
D03*
X-1293000Y603600D02*
D03*
X-1313700Y604100D02*
D03*
X-1319300Y604200D02*
D03*
X-1324800D02*
D03*
X-1330400D02*
D03*
X-1308400D02*
D03*
X-1298100D02*
D03*
X-1303300Y604400D02*
D03*
X-1330200Y609700D02*
D03*
X-1319572D02*
D03*
X-1298314D02*
D03*
X-1324886Y609900D02*
D03*
X-1303629D02*
D03*
X-1308943Y610000D02*
D03*
X-1293000Y609500D02*
D03*
X-1314257Y610200D02*
D03*
X-1214100Y635800D02*
D03*
X-1208500Y635900D02*
D03*
X-1202900Y636100D02*
D03*
X-1214100Y641100D02*
D03*
X-1208500Y641200D02*
D03*
X-1202900Y641400D02*
D03*
X-1214100Y646400D02*
D03*
X-1208500Y646500D02*
D03*
X-1202900Y646700D02*
D03*
X-1214100Y651700D02*
D03*
X-1208500Y651800D02*
D03*
X-1202900Y652000D02*
D03*
X-1186600Y635600D02*
D03*
X-1192000Y635700D02*
D03*
X-1197500Y635900D02*
D03*
X-1186600Y640900D02*
D03*
X-1192000Y641000D02*
D03*
X-1197500Y641200D02*
D03*
X-1186600Y646200D02*
D03*
X-1192000Y646300D02*
D03*
X-1197500Y646500D02*
D03*
X-1186600Y651500D02*
D03*
X-1192000Y651600D02*
D03*
X-1197500Y651800D02*
D03*
D74*
X-1114950Y517600D02*
D03*
X-43900Y368600D02*
D03*
X-1335000Y530500D02*
D03*
X-1315000Y520500D02*
D03*
X-1335000Y510500D02*
D03*
X-1315000Y500500D02*
D03*
X-1335000Y490500D02*
D03*
X-1315000Y480500D02*
D03*
X-1335000Y470500D02*
D03*
X-1315000Y460500D02*
D03*
X-1335000Y450500D02*
D03*
X-1315000Y440500D02*
D03*
X-1335000Y430500D02*
D03*
X-1315000Y400500D02*
D03*
X-1335000Y390500D02*
D03*
X-1315000Y380500D02*
D03*
X-1335000Y370500D02*
D03*
X-1315000Y360500D02*
D03*
X-1335000Y350500D02*
D03*
X-1315000Y340500D02*
D03*
X-1335000Y330500D02*
D03*
X-1315000Y320500D02*
D03*
X-1335000Y310500D02*
D03*
X-1315000Y300500D02*
D03*
X-1335000Y290500D02*
D03*
X-1315000Y280500D02*
D03*
X-1335000Y270500D02*
D03*
X-1315000Y260500D02*
D03*
X-1335000Y250500D02*
D03*
X-1315000Y240500D02*
D03*
X-1335000Y230500D02*
D03*
X-1315000Y220500D02*
D03*
X-1335000Y210500D02*
D03*
X-1315000Y200500D02*
D03*
X-1360000Y530500D02*
D03*
X-1380000Y520500D02*
D03*
X-1360000Y510500D02*
D03*
X-1380000Y500500D02*
D03*
X-1360000Y490500D02*
D03*
X-1380000Y480500D02*
D03*
X-1360000Y470500D02*
D03*
X-1380000Y460500D02*
D03*
X-1360000Y450500D02*
D03*
X-1380000Y440500D02*
D03*
X-1360000Y430500D02*
D03*
X-1380000Y400500D02*
D03*
X-1360000Y390500D02*
D03*
X-1380000Y380500D02*
D03*
X-1360000Y370500D02*
D03*
X-1380000Y360500D02*
D03*
X-1360000Y350500D02*
D03*
X-1380000Y340500D02*
D03*
X-1360000Y330500D02*
D03*
X-1380000Y320500D02*
D03*
X-1360000Y310500D02*
D03*
X-1380000Y300500D02*
D03*
X-1360000Y290500D02*
D03*
X-1380000Y280500D02*
D03*
X-1360000Y270500D02*
D03*
X-1380000Y260500D02*
D03*
X-1360000Y250500D02*
D03*
X-1380000Y240500D02*
D03*
X-1360000Y230500D02*
D03*
X-1380000Y220500D02*
D03*
X-1360000Y210500D02*
D03*
X-1380000Y200500D02*
D03*
D75*
X-1114950Y717600D02*
D03*
X-731900Y368600D02*
D03*
X-235500Y-21400D02*
D03*
D76*
X-1120850Y820700D02*
D03*
D77*
X-1195350D02*
D03*
D78*
X-998500Y768200D02*
D03*
X-779600Y958400D02*
D03*
Y933000D02*
D03*
X-998800Y932900D02*
D03*
Y882100D02*
D03*
Y907500D02*
D03*
Y958300D02*
D03*
X-760700Y161600D02*
D03*
X-779500Y907600D02*
D03*
Y882200D02*
D03*
D79*
X-973100Y768200D02*
D03*
X-947700D02*
D03*
X-805000Y958400D02*
D03*
X-830400D02*
D03*
X-855800D02*
D03*
X-805000Y933000D02*
D03*
X-830400D02*
D03*
X-855800D02*
D03*
X-973400Y932900D02*
D03*
X-948000D02*
D03*
X-973400Y882100D02*
D03*
X-948000D02*
D03*
X-973400Y907500D02*
D03*
X-948000D02*
D03*
X-973400Y958300D02*
D03*
X-948000D02*
D03*
X-786100Y161600D02*
D03*
X-811500D02*
D03*
X-804900Y907600D02*
D03*
X-830300D02*
D03*
X-855700D02*
D03*
X-804900Y882200D02*
D03*
X-830300D02*
D03*
X-855700D02*
D03*
D80*
X-690000Y87623D02*
D03*
D81*
X-720700Y60523D02*
D03*
X-589300D02*
D03*
X-720700Y117323D02*
D03*
X-589300D02*
D03*
X-1248700Y106300D02*
D03*
Y49500D02*
D03*
X-1117300Y106300D02*
D03*
Y49500D02*
D03*
D82*
X-705900Y938600D02*
D03*
X-69900D02*
D03*
D83*
X-1419000Y0D02*
D03*
X-1411971Y16971D02*
D03*
Y-16971D02*
D03*
X-1395000Y24000D02*
D03*
Y-24000D02*
D03*
X-1378029Y16971D02*
D03*
Y-16971D02*
D03*
X-1371000Y0D02*
D03*
X-1414000Y950000D02*
D03*
X-1406971Y966971D02*
D03*
Y933029D02*
D03*
X-1390000Y974000D02*
D03*
Y926000D02*
D03*
X-1373029Y966971D02*
D03*
Y933029D02*
D03*
X-1366000Y950000D02*
D03*
X-24000Y0D02*
D03*
X-16971Y16971D02*
D03*
Y-16971D02*
D03*
X0Y24000D02*
D03*
Y-24000D02*
D03*
X16971Y16971D02*
D03*
Y-16971D02*
D03*
X24000Y0D02*
D03*
X-24000Y950000D02*
D03*
X-16971Y966971D02*
D03*
Y933029D02*
D03*
X0Y974000D02*
D03*
Y926000D02*
D03*
X16971Y966971D02*
D03*
Y933029D02*
D03*
X24000Y950000D02*
D03*
D84*
X-1395000Y0D02*
D03*
X-1390000Y950000D02*
D03*
X0Y0D02*
D03*
Y950000D02*
D03*
D85*
X-1347500Y414000D02*
D03*
Y182500D02*
D03*
D86*
X-1218000Y69500D02*
D03*
D87*
X-1193000D02*
D03*
X-1173000D02*
D03*
X-1148000D02*
D03*
X-1143000Y84500D02*
D03*
X-1163000D02*
D03*
X-1183000D02*
D03*
X-1203000D02*
D03*
X-1223000D02*
D03*
X-1218000Y101500D02*
D03*
X-1193000D02*
D03*
X-1173000D02*
D03*
X-1148000D02*
D03*
X-1143000Y116500D02*
D03*
X-1163000D02*
D03*
X-1183000D02*
D03*
X-1203000D02*
D03*
X-1223000D02*
D03*
D88*
X-991050Y65100D02*
D03*
X-876750D02*
D03*
D89*
X-870650Y31300D02*
D03*
X-896050Y16100D02*
D03*
X-971750Y31300D02*
D03*
X-997150Y16100D02*
D03*
X-978350Y128600D02*
D03*
X-965650Y154000D02*
D03*
X-952950Y128600D02*
D03*
X-940250Y154000D02*
D03*
X-927550Y128600D02*
D03*
X-914850Y154000D02*
D03*
X-902150Y128600D02*
D03*
X-889450Y154000D02*
D03*
X-876750Y128600D02*
D03*
D90*
X-991050Y154000D02*
D03*
D91*
X-1011650Y95600D02*
D03*
X-856150D02*
D03*
D92*
X-1111950Y272800D02*
D03*
D93*
Y472800D02*
D03*
D94*
X-381800Y60450D02*
D03*
X-526800D02*
D03*
D95*
X-381800Y850D02*
D03*
X-526800D02*
D03*
D96*
X-235500Y71100D02*
D03*
D97*
Y11100D02*
D03*
D98*
X-188000Y6100D02*
D03*
Y53100D02*
D03*
X-283000Y6100D02*
D03*
Y52100D02*
D03*
D99*
X-135800Y18350D02*
D03*
X-78000D02*
D03*
D100*
X-150100Y23550D02*
D03*
X-63700D02*
D03*
D101*
X-150100Y-18450D02*
D03*
X-63700D02*
D03*
D102*
X-829200Y372800D02*
D03*
X-832200Y617600D02*
D03*
D103*
X-895500Y782900D02*
D03*
D104*
X-875500D02*
D03*
X-855500D02*
D03*
X-835500D02*
D03*
D105*
X-1205508Y158100D02*
D03*
X-1259500Y170500D02*
D03*
X-1254400Y170600D02*
D03*
X-1254500Y175400D02*
D03*
X-1259500Y175700D02*
D03*
X-1259600Y180000D02*
D03*
X-1254300Y180100D02*
D03*
X-1249400Y180300D02*
D03*
X-1259500Y184400D02*
D03*
X-1254400D02*
D03*
X-1218600Y198800D02*
D03*
X-1250600Y199700D02*
D03*
X-1219200Y202800D02*
D03*
X-1250600Y203700D02*
D03*
X-1219200Y206900D02*
D03*
X-1250500Y208000D02*
D03*
X-1214120Y227730D02*
D03*
X-1214270Y233852D02*
D03*
Y238868D02*
D03*
X-1214230Y245100D02*
D03*
X-1224000Y250994D02*
D03*
Y256010D02*
D03*
X-1223800Y262100D02*
D03*
X-1206000Y275000D02*
D03*
Y281132D02*
D03*
Y286148D02*
D03*
X-1235700Y409700D02*
D03*
X-1245900D02*
D03*
X-1240600D02*
D03*
X-1231000Y410000D02*
D03*
X-1246700Y425100D02*
D03*
X-1226700D02*
D03*
X-1241700D02*
D03*
X-1236700D02*
D03*
X-1231700D02*
D03*
X-1210400Y478700D02*
D03*
X-1205600Y484200D02*
D03*
X-1155900Y150500D02*
D03*
X-1160300Y150800D02*
D03*
X-1157400Y154600D02*
D03*
X-1145308Y154900D02*
D03*
X-1200492Y158100D02*
D03*
X-1155400Y168829D02*
D03*
Y173846D02*
D03*
X-1195500Y180800D02*
D03*
X-1174200Y184500D02*
D03*
X-1154100Y184800D02*
D03*
X-1157800Y186700D02*
D03*
X-1154300Y197692D02*
D03*
Y202708D02*
D03*
X-1153500Y213100D02*
D03*
X-1189300Y216692D02*
D03*
Y221708D02*
D03*
X-1146500Y229200D02*
D03*
X-1180000Y264900D02*
D03*
X-1185200Y265100D02*
D03*
X-1185500Y271800D02*
D03*
X-1039400Y124500D02*
D03*
X-1082200Y125100D02*
D03*
Y131800D02*
D03*
X-1039700D02*
D03*
X-1082000Y138900D02*
D03*
X-1039700Y139400D02*
D03*
X-1063908Y143300D02*
D03*
X-1058892D02*
D03*
X-1140292Y154900D02*
D03*
X-1135300Y160100D02*
D03*
Y182100D02*
D03*
X-1143900Y211200D02*
D03*
X-1138400D02*
D03*
X-969300Y212600D02*
D03*
X-960450Y212700D02*
D03*
X-956500Y243700D02*
D03*
X-1058000Y244900D02*
D03*
X-968700D02*
D03*
X-1009400Y260900D02*
D03*
X-970100Y261300D02*
D03*
X-1180600Y271800D02*
D03*
X-1200600Y290700D02*
D03*
X-1195000Y295132D02*
D03*
Y300148D02*
D03*
X-1194800Y306400D02*
D03*
X-1183300Y345300D02*
D03*
X-1188190Y364730D02*
D03*
X-1123100Y374000D02*
D03*
X-1200500Y379700D02*
D03*
X-1123100Y380292D02*
D03*
X-1116300Y382700D02*
D03*
X-1123100Y385308D02*
D03*
X-1200800Y386632D02*
D03*
X-1123100Y391500D02*
D03*
X-1200800Y391648D02*
D03*
X-1184600Y397800D02*
D03*
X-1200800Y397900D02*
D03*
X-1180300D02*
D03*
X-1181700Y409600D02*
D03*
X-1185600Y409800D02*
D03*
X-1113400Y412000D02*
D03*
X-1180700Y431100D02*
D03*
X-1148500Y445300D02*
D03*
Y451000D02*
D03*
Y456000D02*
D03*
X-1149100Y461400D02*
D03*
X-1195400Y478700D02*
D03*
X-1205400D02*
D03*
X-1200400D02*
D03*
X-1190400D02*
D03*
X-1195600Y484200D02*
D03*
X-1190600D02*
D03*
X-1000600Y274000D02*
D03*
X-1008300Y274800D02*
D03*
X-961200Y288500D02*
D03*
X-1010400Y293200D02*
D03*
X-957500Y303000D02*
D03*
X-961336Y306941D02*
D03*
X-989250Y332800D02*
D03*
X-960750Y357600D02*
D03*
X-967700Y357700D02*
D03*
X-1058400Y377500D02*
D03*
X-1063300Y377600D02*
D03*
X-1063200Y383000D02*
D03*
X-1058100Y383200D02*
D03*
X-1024900Y391400D02*
D03*
X-1030700Y391500D02*
D03*
X-987600Y419100D02*
D03*
X-1108500Y420400D02*
D03*
X-1034100Y420500D02*
D03*
X-987500Y425292D02*
D03*
Y430308D02*
D03*
X-987400Y436500D02*
D03*
X-1007400Y437292D02*
D03*
X-1001900Y439800D02*
D03*
X-1007400Y442308D02*
D03*
X-1043800Y459600D02*
D03*
X-1044000Y474300D02*
D03*
X-1014200Y476600D02*
D03*
X-1063300Y478500D02*
D03*
X-1048200Y482300D02*
D03*
X-1063300Y484200D02*
D03*
X-1210600Y484200D02*
D03*
X-1200600D02*
D03*
X-1210600Y489500D02*
D03*
X-1205600D02*
D03*
X-1200600D02*
D03*
X-1210500Y494900D02*
D03*
X-1205500D02*
D03*
X-1200500D02*
D03*
X-1210500Y500800D02*
D03*
X-1200500D02*
D03*
X-1205500D02*
D03*
X-1210600Y506800D02*
D03*
X-1205600D02*
D03*
X-1200600D02*
D03*
X-1210600Y513600D02*
D03*
X-1205600D02*
D03*
X-1200600D02*
D03*
X-1210600Y520000D02*
D03*
X-1205600D02*
D03*
X-1200600D02*
D03*
X-1210500Y526400D02*
D03*
X-1200500D02*
D03*
X-1205500D02*
D03*
X-1210100Y550200D02*
D03*
X-1205100D02*
D03*
X-1210000Y554900D02*
D03*
X-1205000D02*
D03*
X-1210100Y559500D02*
D03*
X-1205100D02*
D03*
X-1210200Y564300D02*
D03*
X-1205200D02*
D03*
X-1289400Y624500D02*
D03*
X-1314400Y625200D02*
D03*
X-1314100Y629700D02*
D03*
X-1289300D02*
D03*
X-1250800Y632200D02*
D03*
X-1314100Y634100D02*
D03*
X-1294200Y634500D02*
D03*
X-1289400D02*
D03*
X-1309000Y634600D02*
D03*
X-1301500Y634700D02*
D03*
X-1251000Y637800D02*
D03*
X-1267700Y739900D02*
D03*
X-1305300Y861700D02*
D03*
X-1305700Y867600D02*
D03*
Y873700D02*
D03*
X-1345700Y890200D02*
D03*
X-1331900Y890300D02*
D03*
X-1256800Y910100D02*
D03*
X-1251600D02*
D03*
X-1316800Y910900D02*
D03*
X-1260100Y948000D02*
D03*
X-1281900Y948300D02*
D03*
X-1235700Y631900D02*
D03*
X-1230900D02*
D03*
X-1226000Y632000D02*
D03*
X-1241200D02*
D03*
X-1246200Y632100D02*
D03*
X-1230800Y637600D02*
D03*
X-1226200D02*
D03*
X-1245800Y637800D02*
D03*
X-1241100Y637900D02*
D03*
X-1236000D02*
D03*
X-1218300Y667100D02*
D03*
X-1205000Y741500D02*
D03*
X-1229600Y770700D02*
D03*
X-1245900Y874800D02*
D03*
X-1235600Y884300D02*
D03*
X-1247100Y890800D02*
D03*
X-1248100Y898500D02*
D03*
X-1243400Y898600D02*
D03*
X-1246800Y909900D02*
D03*
X-1237000Y947600D02*
D03*
X-1195600Y489500D02*
D03*
X-1190600D02*
D03*
X-1195500Y494900D02*
D03*
X-1190500D02*
D03*
Y500800D02*
D03*
X-1195500D02*
D03*
X-1190600Y506800D02*
D03*
X-1195600D02*
D03*
Y513600D02*
D03*
X-1190600D02*
D03*
Y520000D02*
D03*
X-1195600D02*
D03*
X-1190500Y526400D02*
D03*
X-1195500D02*
D03*
X-1200100Y550200D02*
D03*
X-1190100D02*
D03*
X-1195100D02*
D03*
X-1200000Y554900D02*
D03*
X-1195000D02*
D03*
X-1190000D02*
D03*
X-1200100Y559500D02*
D03*
X-1195100D02*
D03*
X-1190100D02*
D03*
X-1200200Y564300D02*
D03*
X-1195200D02*
D03*
X-1190200D02*
D03*
X-1048100Y488492D02*
D03*
Y493508D02*
D03*
X-1030800Y514300D02*
D03*
X-1039300Y514600D02*
D03*
X-1046700Y514800D02*
D03*
X-1044700Y523300D02*
D03*
X-1150200Y524000D02*
D03*
X-1157800Y525200D02*
D03*
X-1044500Y527900D02*
D03*
X-1150100Y530092D02*
D03*
X-1044500Y532600D02*
D03*
X-1150100Y535108D02*
D03*
X-1157700Y540200D02*
D03*
X-969200Y540700D02*
D03*
X-1150000Y541400D02*
D03*
X-1063000Y543400D02*
D03*
Y547500D02*
D03*
Y551600D02*
D03*
X-1116500Y552700D02*
D03*
X-1075600Y554300D02*
D03*
X-1145500Y556400D02*
D03*
X-1075500Y559100D02*
D03*
X-1075800Y564200D02*
D03*
X-1139100Y564300D02*
D03*
X-1144600Y564400D02*
D03*
X-1150200Y564600D02*
D03*
X-1079500Y567700D02*
D03*
X-1157600Y635200D02*
D03*
X-1070800Y638700D02*
D03*
X-1040000Y638900D02*
D03*
X-1034800Y639100D02*
D03*
X-1118200Y642600D02*
D03*
X-1157800Y650000D02*
D03*
X-1150800Y655100D02*
D03*
X-1155700Y665200D02*
D03*
X-1151400Y674700D02*
D03*
X-1056900Y683200D02*
D03*
X-1061150Y687450D02*
D03*
X-1063000Y692500D02*
D03*
Y696800D02*
D03*
X-1153000Y710100D02*
D03*
X-1051500Y717900D02*
D03*
X-1147700Y742900D02*
D03*
X-1063700Y767200D02*
D03*
X-1110300Y767600D02*
D03*
X-1169600Y768500D02*
D03*
X-1086600Y858900D02*
D03*
X-1056000Y863000D02*
D03*
X-1089400Y874700D02*
D03*
X-1054700Y884600D02*
D03*
X-1109600Y948500D02*
D03*
X-1090500Y948700D02*
D03*
X-1134500D02*
D03*
X-1012100Y642100D02*
D03*
X-1025700Y649200D02*
D03*
X-1041800Y708200D02*
D03*
X-1046500Y708300D02*
D03*
X-1042100Y712600D02*
D03*
X-1046800Y712800D02*
D03*
Y717600D02*
D03*
X-981900Y808700D02*
D03*
X-967200Y816700D02*
D03*
X-1031800Y820900D02*
D03*
X-992100D02*
D03*
X-961768Y821332D02*
D03*
X-1002400Y822100D02*
D03*
X-957000Y843800D02*
D03*
X-987100Y844900D02*
D03*
X-956450Y848250D02*
D03*
X-987100Y849000D02*
D03*
X-967000Y850300D02*
D03*
X-953400Y851300D02*
D03*
X-984250Y854950D02*
D03*
X-1050400Y886600D02*
D03*
X-1048200Y890200D02*
D03*
X-780000Y73600D02*
D03*
X-552350Y83500D02*
D03*
X-555350Y88000D02*
D03*
X-549350D02*
D03*
X-821700Y92600D02*
D03*
X-545350Y102000D02*
D03*
X-814700Y113400D02*
D03*
X-835900Y126400D02*
D03*
X-804700Y126500D02*
D03*
X-778000Y127000D02*
D03*
X-789300Y129800D02*
D03*
X-553350Y135500D02*
D03*
X-324500Y8300D02*
D03*
X-344000Y18200D02*
D03*
X-351600Y27525D02*
D03*
X-351200Y41000D02*
D03*
X-484400Y43700D02*
D03*
X-459300D02*
D03*
X-444300D02*
D03*
X-429300D02*
D03*
X-414300D02*
D03*
X-499850Y46500D02*
D03*
X-351400Y46600D02*
D03*
X-349000Y51100D02*
D03*
X-328100Y58425D02*
D03*
X-318112Y82000D02*
D03*
X-503350Y84000D02*
D03*
X-495060Y90540D02*
D03*
X-490850Y91000D02*
D03*
X-451900Y94700D02*
D03*
X-421800Y95300D02*
D03*
X-516699Y97526D02*
D03*
X-451900Y116100D02*
D03*
X-421800Y116400D02*
D03*
X-309100Y123900D02*
D03*
X-498850Y126500D02*
D03*
X-303188Y137500D02*
D03*
X-307375D02*
D03*
X-319937D02*
D03*
X-328312D02*
D03*
X-324125D02*
D03*
X-647500Y139900D02*
D03*
X-539600Y150000D02*
D03*
X-543400Y152800D02*
D03*
X-529600Y154600D02*
D03*
X-586350Y155500D02*
D03*
X-553600Y155900D02*
D03*
X-708200Y157100D02*
D03*
X-713200Y157200D02*
D03*
X-708200Y161700D02*
D03*
X-713100Y162000D02*
D03*
X-702900Y164500D02*
D03*
X-708500Y167100D02*
D03*
X-713400Y167300D02*
D03*
X-702700Y168800D02*
D03*
X-569800Y171200D02*
D03*
X-844800Y175692D02*
D03*
X-527000Y177400D02*
D03*
X-851200Y178300D02*
D03*
X-844800Y180708D02*
D03*
X-827000Y184300D02*
D03*
X-908100Y184500D02*
D03*
X-530200Y186000D02*
D03*
X-831700Y188492D02*
D03*
X-666900Y189900D02*
D03*
X-673100Y190200D02*
D03*
X-678800Y190300D02*
D03*
X-299000Y137500D02*
D03*
X-294813D02*
D03*
X-311562D02*
D03*
X-315750D02*
D03*
X-509350Y141500D02*
D03*
X-327863Y142400D02*
D03*
X-294762D02*
D03*
X-319587D02*
D03*
X-303037D02*
D03*
X-298900D02*
D03*
X-307175D02*
D03*
X-311313D02*
D03*
X-315450D02*
D03*
X-323725D02*
D03*
X-495000Y151700D02*
D03*
X-495350Y155500D02*
D03*
X-515000Y156200D02*
D03*
X-436840Y159580D02*
D03*
X-411860Y159650D02*
D03*
X-387120Y159690D02*
D03*
X-461900Y159740D02*
D03*
X-482000Y166730D02*
D03*
X-297989Y173600D02*
D03*
X-293478D02*
D03*
X-288967D02*
D03*
X-284456D02*
D03*
X-284300Y178700D02*
D03*
X-298000Y178800D02*
D03*
X-293600Y179000D02*
D03*
X-289000Y179200D02*
D03*
X-522400Y181500D02*
D03*
X-496000Y183200D02*
D03*
X-139400Y39800D02*
D03*
X-143700D02*
D03*
X-152400D02*
D03*
X-135000D02*
D03*
X-130500D02*
D03*
X-148000Y39900D02*
D03*
X-156400Y44000D02*
D03*
X-147500D02*
D03*
X-152000Y44100D02*
D03*
X-142700D02*
D03*
X-133800D02*
D03*
X-138300Y44200D02*
D03*
X-158600Y47500D02*
D03*
X-149700D02*
D03*
X-144800Y47600D02*
D03*
X-154200D02*
D03*
X-135900D02*
D03*
X-140400Y47700D02*
D03*
X-159400Y51900D02*
D03*
X-150500D02*
D03*
X-146000D02*
D03*
X-141600Y52000D02*
D03*
X-155000D02*
D03*
X-63300Y39800D02*
D03*
X-73500Y39900D02*
D03*
X-68800D02*
D03*
X-77900Y40100D02*
D03*
X-82800Y40200D02*
D03*
X-63200Y43900D02*
D03*
X-73300Y44000D02*
D03*
X-68500Y44100D02*
D03*
X-77800Y44300D02*
D03*
X-82750Y44411D02*
D03*
X-73000Y48100D02*
D03*
X-63000Y48200D02*
D03*
X-68200Y48300D02*
D03*
X-77800Y48500D02*
D03*
X-82800Y48800D02*
D03*
X-62900Y52400D02*
D03*
X-72500Y52800D02*
D03*
X-77500Y53000D02*
D03*
X-67900Y53300D02*
D03*
X-89300Y58500D02*
D03*
X-132700Y60900D02*
D03*
X-121200Y66800D02*
D03*
X-155900Y68100D02*
D03*
X-138200Y68400D02*
D03*
X-142500D02*
D03*
X-151400D02*
D03*
X-146700D02*
D03*
X-114700Y68800D02*
D03*
X-127200Y69400D02*
D03*
X-120600Y70900D02*
D03*
X-118500Y74800D02*
D03*
X-100700Y113500D02*
D03*
X-114100Y113700D02*
D03*
X-120000Y122600D02*
D03*
X-95000Y122700D02*
D03*
X-107200Y123100D02*
D03*
X-113800Y130000D02*
D03*
X-100700Y130500D02*
D03*
X-97400Y158000D02*
D03*
X-127600Y162500D02*
D03*
X-126600Y166700D02*
D03*
X-279944Y173600D02*
D03*
X-261900D02*
D03*
X-257389D02*
D03*
X-266411D02*
D03*
X-270922D02*
D03*
X-275433D02*
D03*
X-231500Y181600D02*
D03*
X-232000Y185700D02*
D03*
X-227900Y188800D02*
D03*
X-232200Y191300D02*
D03*
X-6700Y61100D02*
D03*
Y65300D02*
D03*
X-94000Y68800D02*
D03*
X-91400Y72300D02*
D03*
X-72900Y75400D02*
D03*
X-88200Y76100D02*
D03*
X-73100Y80600D02*
D03*
X-73300Y85600D02*
D03*
X-87500Y85700D02*
D03*
Y137900D02*
D03*
X-90100Y165100D02*
D03*
X-79275Y178800D02*
D03*
X-74700D02*
D03*
X-70125D02*
D03*
X-65550D02*
D03*
X-60975D02*
D03*
X-56400D02*
D03*
X-51825D02*
D03*
X-79275Y183400D02*
D03*
X-74700D02*
D03*
X-70125D02*
D03*
X-65550D02*
D03*
X-60975D02*
D03*
X-51825D02*
D03*
X-56400D02*
D03*
X-79075Y188300D02*
D03*
X-74500D02*
D03*
X-69925D02*
D03*
X-65350D02*
D03*
X-60775D02*
D03*
X-56200D02*
D03*
X-51625D02*
D03*
X-938150Y212250D02*
D03*
X-936100Y242800D02*
D03*
Y288300D02*
D03*
X-935350Y261271D02*
D03*
X-928700Y288900D02*
D03*
X-922900D02*
D03*
X-908100Y212200D02*
D03*
X-907350Y261271D02*
D03*
X-905500Y243100D02*
D03*
X-885800Y275428D02*
D03*
X-871300Y275200D02*
D03*
X-866400Y275300D02*
D03*
X-846200Y212300D02*
D03*
X-837100Y197800D02*
D03*
X-831700Y193508D02*
D03*
X-829200Y244600D02*
D03*
X-827300Y198100D02*
D03*
X-810300Y198900D02*
D03*
X-809800Y211600D02*
D03*
X-805000Y207508D02*
D03*
Y202492D02*
D03*
X-800400Y198300D02*
D03*
X-799600Y212300D02*
D03*
X-799300Y226300D02*
D03*
X-795200Y221708D02*
D03*
Y216692D02*
D03*
X-791000Y226500D02*
D03*
X-790900Y212200D02*
D03*
X-784700Y244700D02*
D03*
X-737600Y245000D02*
D03*
X-720900Y260700D02*
D03*
X-709000Y275100D02*
D03*
X-951450Y332900D02*
D03*
X-951300Y358200D02*
D03*
X-944062Y333228D02*
D03*
X-942200Y358200D02*
D03*
X-937550Y333228D02*
D03*
X-936100Y294600D02*
D03*
X-936000Y302500D02*
D03*
X-930800Y302400D02*
D03*
X-928800Y294900D02*
D03*
X-923000Y302600D02*
D03*
X-922300Y295300D02*
D03*
X-919700Y333500D02*
D03*
X-919300Y379500D02*
D03*
X-919200Y384900D02*
D03*
X-914400Y379400D02*
D03*
X-914100Y385100D02*
D03*
X-913800Y361900D02*
D03*
X-911700Y393000D02*
D03*
X-902458Y386400D02*
D03*
X-897442D02*
D03*
X-889500Y379800D02*
D03*
X-888400Y393200D02*
D03*
X-818400Y292200D02*
D03*
X-748470Y300832D02*
D03*
Y305848D02*
D03*
X-721700Y348300D02*
D03*
X-716206Y348183D02*
D03*
X-705000Y348200D02*
D03*
X-700100Y292800D02*
D03*
X-689400Y347900D02*
D03*
X-671600Y201700D02*
D03*
X-666700Y347800D02*
D03*
X-666100Y201500D02*
D03*
X-665800Y207200D02*
D03*
X-651400Y347800D02*
D03*
X-638500Y293000D02*
D03*
X-636600Y347800D02*
D03*
X-631900Y292800D02*
D03*
X-626400D02*
D03*
X-621700Y296900D02*
D03*
X-621500Y288900D02*
D03*
X-616658Y292800D02*
D03*
X-611642D02*
D03*
X-606700Y296800D02*
D03*
X-606600Y289000D02*
D03*
X-601658Y292800D02*
D03*
X-601100Y345000D02*
D03*
X-596642Y292800D02*
D03*
X-591600Y296500D02*
D03*
Y289100D02*
D03*
X-586658Y292800D02*
D03*
X-585300Y344800D02*
D03*
X-581642Y292800D02*
D03*
X-575500Y292700D02*
D03*
X-561700Y341900D02*
D03*
X-555920Y346660D02*
D03*
X-546700Y341900D02*
D03*
X-531700D02*
D03*
X-516700D02*
D03*
X-512200Y294900D02*
D03*
X-501700Y341900D02*
D03*
X-486700D02*
D03*
X-681500Y347800D02*
D03*
X-661658Y373500D02*
D03*
X-656642D02*
D03*
X-651800Y386708D02*
D03*
Y381692D02*
D03*
X-646658Y391600D02*
D03*
X-641642D02*
D03*
X-624158Y363900D02*
D03*
X-621500Y347800D02*
D03*
X-619142Y363900D02*
D03*
X-614100Y392700D02*
D03*
X-614080Y368750D02*
D03*
X-609158Y363900D02*
D03*
X-604142D02*
D03*
X-599110Y368960D02*
D03*
X-599100Y392700D02*
D03*
X-594158Y363900D02*
D03*
X-589142D02*
D03*
X-584140Y369170D02*
D03*
X-584100Y392700D02*
D03*
X-579158Y363900D02*
D03*
X-574142D02*
D03*
X-569100Y392700D02*
D03*
X-568750Y369170D02*
D03*
X-555810Y353702D02*
D03*
Y358718D02*
D03*
X-555690Y364780D02*
D03*
X-554100Y392700D02*
D03*
X-539100D02*
D03*
X-496223Y391223D02*
D03*
X-492677Y387677D02*
D03*
X-487800Y383600D02*
D03*
X-952900Y488000D02*
D03*
X-951363Y820516D02*
D03*
X-944900Y700300D02*
D03*
X-931500Y505400D02*
D03*
X-912200Y781500D02*
D03*
X-903900Y505000D02*
D03*
X-892500Y627600D02*
D03*
X-887367Y621481D02*
D03*
X-875500Y505000D02*
D03*
X-863800Y702600D02*
D03*
Y745900D02*
D03*
X-847900Y505400D02*
D03*
X-844600Y796600D02*
D03*
X-834000Y817200D02*
D03*
X-831250Y813750D02*
D03*
X-829000Y820400D02*
D03*
X-823200Y504200D02*
D03*
X-821200Y820500D02*
D03*
X-816600Y446500D02*
D03*
X-811500Y486100D02*
D03*
X-806408Y446200D02*
D03*
X-804000Y815000D02*
D03*
X-801392Y446200D02*
D03*
X-791415Y743053D02*
D03*
X-790600Y446800D02*
D03*
X-784500Y744100D02*
D03*
X-899500Y840100D02*
D03*
X-899400Y845700D02*
D03*
X-897500Y823000D02*
D03*
X-896500Y830800D02*
D03*
X-849500Y822700D02*
D03*
X-839000Y820600D02*
D03*
X-834100Y850800D02*
D03*
X-834000Y842400D02*
D03*
Y823400D02*
D03*
X-829000Y846700D02*
D03*
X-820700Y845800D02*
D03*
X-804000Y825300D02*
D03*
Y841600D02*
D03*
X-803900Y846100D02*
D03*
X-772600Y541000D02*
D03*
X-768300Y545292D02*
D03*
Y550308D02*
D03*
X-763200Y542000D02*
D03*
X-744500Y486100D02*
D03*
X-744000Y477300D02*
D03*
X-732600Y445700D02*
D03*
X-729700Y452000D02*
D03*
X-711600Y435500D02*
D03*
X-710700Y427600D02*
D03*
X-689100Y398700D02*
D03*
X-674250Y426500D02*
D03*
X-659300Y426700D02*
D03*
X-644200Y420700D02*
D03*
X-639158Y425400D02*
D03*
X-634142D02*
D03*
X-629200Y420600D02*
D03*
X-601900Y479292D02*
D03*
Y484308D02*
D03*
X-601600Y473000D02*
D03*
Y490700D02*
D03*
X-598000Y425600D02*
D03*
X-589700Y431300D02*
D03*
X-569200Y423900D02*
D03*
X-524100Y395300D02*
D03*
X-517700Y464900D02*
D03*
X-517100Y454500D02*
D03*
X-516800Y444000D02*
D03*
X-509100Y395300D02*
D03*
X-494200Y398400D02*
D03*
X-492523Y427877D02*
D03*
X-488977Y431423D02*
D03*
X-776300Y814800D02*
D03*
X-772700Y863800D02*
D03*
X-772400Y825700D02*
D03*
X-772300Y857600D02*
D03*
X-772000Y571400D02*
D03*
X-771300Y555700D02*
D03*
X-769600Y751000D02*
D03*
X-768400Y561092D02*
D03*
Y566108D02*
D03*
X-768200Y611800D02*
D03*
X-764900Y555900D02*
D03*
X-764600Y571300D02*
D03*
X-733000Y826400D02*
D03*
X-731800Y855700D02*
D03*
X-731400Y864600D02*
D03*
Y860400D02*
D03*
X-718000Y750300D02*
D03*
X-714000Y718700D02*
D03*
X-699500Y750300D02*
D03*
X-671600Y611300D02*
D03*
X-646300Y766300D02*
D03*
X-628500Y761500D02*
D03*
X-628400Y724800D02*
D03*
X-602100Y623100D02*
D03*
X-601500Y746100D02*
D03*
X-600100Y760100D02*
D03*
X-590800Y766600D02*
D03*
X-580500Y773500D02*
D03*
X-572000Y615700D02*
D03*
X-283900Y205200D02*
D03*
X-346660Y202434D02*
D03*
X-337260D02*
D03*
X-341860D02*
D03*
X-283900Y200500D02*
D03*
X-279500Y205300D02*
D03*
X-288900Y205200D02*
D03*
X-361860Y202434D02*
D03*
X-275100Y205300D02*
D03*
X-288900Y200600D02*
D03*
X-283800Y195900D02*
D03*
X-351660Y202434D02*
D03*
X-289000Y195900D02*
D03*
X-357260Y202434D02*
D03*
X-270600Y205300D02*
D03*
X-366660Y207291D02*
D03*
Y212348D02*
D03*
Y217206D02*
D03*
Y222063D02*
D03*
X-361860Y207291D02*
D03*
Y217206D02*
D03*
Y212348D02*
D03*
X-361760Y221863D02*
D03*
X-357260Y207291D02*
D03*
Y212348D02*
D03*
Y217206D02*
D03*
Y221863D02*
D03*
X-351660Y207291D02*
D03*
Y222120D02*
D03*
Y212348D02*
D03*
Y217206D02*
D03*
X-346660Y207291D02*
D03*
Y222063D02*
D03*
Y217206D02*
D03*
Y212348D02*
D03*
X-341860Y207291D02*
D03*
Y212348D02*
D03*
Y221863D02*
D03*
Y217206D02*
D03*
X-337260Y207291D02*
D03*
Y217206D02*
D03*
Y221863D02*
D03*
Y212348D02*
D03*
X-288900Y209700D02*
D03*
X-283800Y209800D02*
D03*
X-279700Y209600D02*
D03*
X-275400D02*
D03*
X-271000D02*
D03*
X-266600Y209700D02*
D03*
X-266500Y205000D02*
D03*
X-262300Y209500D02*
D03*
Y205200D02*
D03*
X-258200Y209600D02*
D03*
X-257800Y205200D02*
D03*
X-243800Y210600D02*
D03*
X-178400Y221800D02*
D03*
Y217700D02*
D03*
X-173850D02*
D03*
Y221800D02*
D03*
X-169300D02*
D03*
Y217700D02*
D03*
Y226400D02*
D03*
X-164750Y221800D02*
D03*
Y217700D02*
D03*
X-160200D02*
D03*
Y221800D02*
D03*
X-79150Y198700D02*
D03*
X-79075Y193500D02*
D03*
X-74575Y198700D02*
D03*
X-74500Y193500D02*
D03*
X-70000Y198700D02*
D03*
X-69925Y193500D02*
D03*
X-65425Y198700D02*
D03*
X-65350Y193500D02*
D03*
X-60850Y198700D02*
D03*
X-60775Y193500D02*
D03*
X-56275Y198700D02*
D03*
X-56200Y193500D02*
D03*
X-51700Y198700D02*
D03*
X-51625Y193500D02*
D03*
X-214700Y228000D02*
D03*
X-178400Y226400D02*
D03*
Y230600D02*
D03*
X-173850Y226400D02*
D03*
Y230600D02*
D03*
X-169300D02*
D03*
X-164750Y226400D02*
D03*
Y230600D02*
D03*
X-160200Y226400D02*
D03*
Y230600D02*
D03*
X-127800Y253300D02*
D03*
X-127700Y257600D02*
D03*
Y249100D02*
D03*
X-123000Y257400D02*
D03*
X-122800Y253200D02*
D03*
X-122700Y249200D02*
D03*
X-118500Y261600D02*
D03*
X-118400Y257500D02*
D03*
Y253400D02*
D03*
X-118200Y249200D02*
D03*
X-112700Y250900D02*
D03*
X-108100D02*
D03*
X-104000Y251100D02*
D03*
X-98900Y251300D02*
D03*
X-94800Y251000D02*
D03*
X-90700Y251200D02*
D03*
X-86300Y251000D02*
D03*
X-41800Y255300D02*
D03*
X-41100Y260500D02*
D03*
X-37700Y257900D02*
D03*
X-34000Y243200D02*
D03*
X-30500Y254100D02*
D03*
X-306200Y308100D02*
D03*
X-269400D02*
D03*
X-456700Y314800D02*
D03*
X-471800Y340400D02*
D03*
X-386700Y341900D02*
D03*
X-251700D02*
D03*
X-441700D02*
D03*
X-286700D02*
D03*
X-466700Y345700D02*
D03*
X-320100Y347300D02*
D03*
X-464800Y358692D02*
D03*
X-458800Y361300D02*
D03*
X-464800Y363708D02*
D03*
X-464200Y370200D02*
D03*
X-436700Y373600D02*
D03*
X-396700Y377200D02*
D03*
X-485200Y436400D02*
D03*
X-467700Y714200D02*
D03*
X-463600Y428000D02*
D03*
X-455100Y427600D02*
D03*
X-449200Y423900D02*
D03*
X-449100Y395300D02*
D03*
X-447200Y427600D02*
D03*
X-428200Y393000D02*
D03*
X-419200Y428700D02*
D03*
X-419100Y712800D02*
D03*
X-413900Y630700D02*
D03*
X-408400Y446900D02*
D03*
X-407600Y428000D02*
D03*
X-403600Y620400D02*
D03*
X-401600Y428000D02*
D03*
X-395100Y428300D02*
D03*
X-393900Y388800D02*
D03*
X-389000Y428200D02*
D03*
X-388000Y604800D02*
D03*
X-384100Y395300D02*
D03*
X-366300Y713700D02*
D03*
X-325300Y674100D02*
D03*
X-310200Y649600D02*
D03*
X-309200Y423900D02*
D03*
X-309100Y395300D02*
D03*
X-288100Y606200D02*
D03*
X-279200Y423900D02*
D03*
X-279100Y395300D02*
D03*
X-278500Y463800D02*
D03*
X-258830Y446720D02*
D03*
X-249200Y423900D02*
D03*
X-249100Y395300D02*
D03*
X-246830Y350110D02*
D03*
X-237660Y298710D02*
D03*
X-232200Y393300D02*
D03*
X-229800Y341900D02*
D03*
X-227480Y353450D02*
D03*
X-219100Y395300D02*
D03*
X-216700Y341900D02*
D03*
X-204100Y395300D02*
D03*
X-201700Y341900D02*
D03*
X-151700Y342800D02*
D03*
X-144100Y395300D02*
D03*
X-141700Y341900D02*
D03*
X-129100Y395300D02*
D03*
X-127500Y261600D02*
D03*
X-126700Y341900D02*
D03*
X-123100Y261700D02*
D03*
X-114100Y395300D02*
D03*
X-111700Y341900D02*
D03*
X-99100Y395300D02*
D03*
X-96700Y341900D02*
D03*
X-84100Y395300D02*
D03*
X-81700Y341900D02*
D03*
X-75400Y287300D02*
D03*
X-63900Y279300D02*
D03*
Y274900D02*
D03*
X-63700Y270100D02*
D03*
Y264800D02*
D03*
X-21700Y287200D02*
D03*
X-20800Y266700D02*
D03*
Y270800D02*
D03*
X-20600Y262400D02*
D03*
X-227480Y435870D02*
D03*
X-223900Y645800D02*
D03*
X-222500Y609000D02*
D03*
X-222100Y590700D02*
D03*
X-219200Y423900D02*
D03*
X-204200D02*
D03*
X-159200D02*
D03*
X-152100Y645200D02*
D03*
X-150700Y594800D02*
D03*
Y615500D02*
D03*
X-144200Y423900D02*
D03*
X-129500Y469800D02*
D03*
X-129100Y423907D02*
D03*
X-114200Y423900D02*
D03*
X-99200D02*
D03*
X-84200D02*
D03*
M02*
