M48
;Layer_Color=9474304
;FILE_FORMAT=4:4
METRIC,TZ
;TYPE=PLATED
T03F00S00C0.5000
T05F00S00C0.6500
T06F00S00C0.7000
T07F00S00C0.7500
T09F00S00C0.9000
T11F00S00C0.9200
T12F00S00C1.0000
T13F00S00C1.0500
T14F00S00C1.1000
T15F00S00C1.1500
T16F00S00C1.3000
T17F00S00C1.4000
T18F00S00C1.5000
T19F00S00C1.6000
T20F00S00C1.6500
T21F00S00C2.3000
T22F00S00C2.3500
T23F00S00C2.7500
T24F00S00C3.0500
T25F00S00C3.2000
T26F00S00C3.2500
%
T03
X766030Y216429
X759000Y233400
X766030Y250371
X783000Y257400
Y209400
X799971Y216429
X807000Y233400
X799971Y250371
X2161030
X2154000Y233400
X2161030Y216429
X2178000Y209400
X2194971Y216429
X2202000Y233400
X2194971Y250371
X2178000Y257400
X788000Y1159400
X771029Y1166429
X764000Y1183400
X812000
X804971Y1166429
X2161030
X2154000Y1183400
X2178000Y1159400
X2194971Y1166429
X2202000Y1183400
X2194971Y1200370
X2178000Y1207400
X2161030Y1200370
X804971
X788000Y1207400
X771029Y1200370
T05
X2042200Y251750
X2100000
T06
X960000Y302900
X955000Y317900
X975000
X995000
X1015000
X1035000
X1030000Y302900
X1005000
X985000
Y334900
X1005000
X1015000Y349900
X995000
X975000
X955000
X960000Y334900
X1030000
X1035000Y349900
X863000Y433900
Y453900
Y473900
Y493900
Y513900
Y533900
Y553900
Y573900
Y593900
Y613900
Y633900
X843000Y623900
Y603900
Y583900
Y563900
Y543900
Y523900
Y503900
Y483900
Y463900
Y443900
X818000
Y463900
Y483900
Y503900
Y523900
Y543900
Y563900
Y583900
Y603900
Y623900
X798000Y633900
Y613900
Y593900
Y573900
Y553900
Y533900
Y513900
Y493900
Y473900
Y453900
Y433900
Y673900
Y693900
Y713900
Y733900
Y753900
X818000Y763900
Y743900
Y723900
Y703900
Y683900
Y663900
X843000
Y683900
Y703900
Y723900
Y743900
Y763900
X863000Y753900
Y733900
Y713900
Y693900
Y673900
T07
X1282500Y1016300
X1302500
X1322500
X1342500
T09
X1180850Y249500
X1186950Y387400
X1212350
X1237750
X1263150
X1288550
X1275850Y362000
X1250450
X1225050
X1199650
X1301250
X1307350Y264700
X1281950Y249500
X1206250Y264700
T11
X1488000Y321023
X1513000
X1533000
X1558000
Y347223
X1533000
X1513000
X1488000
T12
X1366500Y395000
X1391900
X1417300
X1179500Y1001600
X1179200Y1115500
Y1140900
Y1166300
X1204600
X1230000
Y1140900
Y1115500
X1204600
Y1140900
X1322300Y1141000
X1347700
X1373100
X1398500
Y1115600
X1373100
X1347700
X1322300
X1322200Y1166400
X1347600
X1373000
X1398400
X1230300Y1001600
X1204900
X1204600Y1191700
X1230000
X1322200Y1191800
X1347600
X1373000
X1398400
X1179200Y1191700
T13
X1057150Y1054100
T14
X2134100Y602000
X1063050Y751000
T15
X1066050Y506200
T16
X982650Y1054100
T17
X1942500Y304500
T18
X1166350Y329000
X1321850
T19
X1942500Y212000
X1446100Y602000
X1063050Y951000
T20
X1066050Y706200
T21
X929300Y282900
Y339700
X1060700
Y282900
X1457300Y293923
Y350723
X1588700
Y293923
T22
X830500Y415900
Y647400
T23
X1348800Y606200
X1345800Y851000
T24
X1472100Y1172000
X2108100
T25
X783000Y233400
X2178000
X788000Y1183400
X2178000
T26
X1186950Y298500
X1301250
M30
