G04*
G04 #@! TF.GenerationSoftware,Altium Limited,Altium Designer,25.0.2 (28)*
G04*
G04 Layer_Color=2752767*
%FSLAX44Y44*%
%MOMM*%
G71*
G04*
G04 #@! TF.SameCoordinates,783E934D-7247-47A1-8249-FBC8F6F05072*
G04*
G04*
G04 #@! TF.FilePolarity,Positive*
G04*
G01*
G75*
%ADD111C,0.1270*%
D111*
X-1205508Y158100D02*
Y170796D01*
X-1201276Y166564D01*
X-1197044Y170796D01*
Y158100D01*
X-1259500Y170500D02*
Y183196D01*
X-1255268Y178964D01*
X-1251036Y183196D01*
Y170500D01*
X-1254400Y170600D02*
Y183296D01*
X-1250168Y179064D01*
X-1245936Y183296D01*
Y170600D01*
X-1254500Y175400D02*
Y188096D01*
X-1250268Y183864D01*
X-1246036Y188096D01*
Y175400D01*
X-1259500Y175700D02*
Y188396D01*
X-1255268Y184164D01*
X-1251036Y188396D01*
Y175700D01*
X-1259600Y180000D02*
Y192696D01*
X-1255368Y188464D01*
X-1251136Y192696D01*
Y180000D01*
X-1254300Y180100D02*
Y192796D01*
X-1250068Y188564D01*
X-1245836Y192796D01*
Y180100D01*
X-1249400Y180300D02*
Y192996D01*
X-1245168Y188764D01*
X-1240936Y192996D01*
Y180300D01*
X-1259500Y184400D02*
Y197096D01*
X-1255268Y192864D01*
X-1251036Y197096D01*
Y184400D01*
X-1254400D02*
Y197096D01*
X-1250168Y192864D01*
X-1245936Y197096D01*
Y184400D01*
X-1218600Y198800D02*
Y211496D01*
X-1214368Y207264D01*
X-1210136Y211496D01*
Y198800D01*
X-1250600Y199700D02*
Y212396D01*
X-1246368Y208164D01*
X-1242136Y212396D01*
Y199700D01*
X-1219200Y202800D02*
Y215496D01*
X-1214968Y211264D01*
X-1210736Y215496D01*
Y202800D01*
X-1250600Y203700D02*
Y216396D01*
X-1246368Y212164D01*
X-1242136Y216396D01*
Y203700D01*
X-1219200Y206900D02*
Y219596D01*
X-1214968Y215364D01*
X-1210736Y219596D01*
Y206900D01*
X-1250500Y208000D02*
Y220696D01*
X-1246268Y216464D01*
X-1242036Y220696D01*
Y208000D01*
X-1214120Y227730D02*
Y240426D01*
X-1209888Y236194D01*
X-1205656Y240426D01*
Y227730D01*
X-1214270Y233852D02*
Y246548D01*
X-1210038Y242316D01*
X-1205806Y246548D01*
Y233852D01*
X-1214270Y238868D02*
Y251564D01*
X-1210038Y247332D01*
X-1205806Y251564D01*
Y238868D01*
X-1214230Y245100D02*
Y257796D01*
X-1209998Y253564D01*
X-1205766Y257796D01*
Y245100D01*
X-1224000Y250994D02*
Y263690D01*
X-1219768Y259458D01*
X-1215536Y263690D01*
Y250994D01*
X-1224000Y256010D02*
Y268706D01*
X-1219768Y264474D01*
X-1215536Y268706D01*
Y256010D01*
X-1223800Y262100D02*
Y274796D01*
X-1219568Y270564D01*
X-1215336Y274796D01*
Y262100D01*
X-1206000Y275000D02*
Y287696D01*
X-1201768Y283464D01*
X-1197536Y287696D01*
Y275000D01*
X-1206000Y281132D02*
Y293828D01*
X-1201768Y289596D01*
X-1197536Y293828D01*
Y281132D01*
X-1206000Y286148D02*
Y298844D01*
X-1201768Y294612D01*
X-1197536Y298844D01*
Y286148D01*
X-1235700Y409700D02*
Y422396D01*
X-1231468Y418164D01*
X-1227236Y422396D01*
Y409700D01*
X-1245900D02*
Y422396D01*
X-1241668Y418164D01*
X-1237436Y422396D01*
Y409700D01*
X-1240600D02*
Y422396D01*
X-1236368Y418164D01*
X-1232136Y422396D01*
Y409700D01*
X-1231000Y410000D02*
Y422696D01*
X-1226768Y418464D01*
X-1222536Y422696D01*
Y410000D01*
X-1246700Y425100D02*
Y437796D01*
X-1242468Y433564D01*
X-1238236Y437796D01*
Y425100D01*
X-1226700D02*
Y437796D01*
X-1222468Y433564D01*
X-1218236Y437796D01*
Y425100D01*
X-1241700D02*
Y437796D01*
X-1237468Y433564D01*
X-1233236Y437796D01*
Y425100D01*
X-1236700D02*
Y437796D01*
X-1232468Y433564D01*
X-1228236Y437796D01*
Y425100D01*
X-1231700D02*
Y437796D01*
X-1227468Y433564D01*
X-1223236Y437796D01*
Y425100D01*
X-1283500Y439400D02*
Y452096D01*
X-1275036Y439400D01*
Y452096D01*
X-1278000Y439400D02*
Y452096D01*
X-1269536Y439400D01*
Y452096D01*
X-1272400Y439400D02*
Y452096D01*
X-1263936Y439400D01*
Y452096D01*
X-1266700Y439500D02*
Y452196D01*
X-1258236Y439500D01*
Y452196D01*
X-1261400Y439600D02*
Y452296D01*
X-1252936Y439600D01*
Y452296D01*
X-1283400Y444700D02*
Y457396D01*
X-1274936Y444700D01*
Y457396D01*
X-1277900Y444700D02*
Y457396D01*
X-1269436Y444700D01*
Y457396D01*
X-1272300Y444700D02*
Y457396D01*
X-1263836Y444700D01*
Y457396D01*
X-1266600Y444800D02*
Y457496D01*
X-1258136Y444800D01*
Y457496D01*
X-1261300Y444900D02*
Y457596D01*
X-1252836Y444900D01*
Y457596D01*
X-1283600Y450000D02*
Y462696D01*
X-1275136Y450000D01*
Y462696D01*
X-1278100Y450000D02*
Y462696D01*
X-1269636Y450000D01*
Y462696D01*
X-1272500Y450000D02*
Y462696D01*
X-1264036Y450000D01*
Y462696D01*
X-1266800Y450100D02*
Y462796D01*
X-1258336Y450100D01*
Y462796D01*
X-1261500Y450200D02*
Y462896D01*
X-1253036Y450200D01*
Y462896D01*
X-1283600Y455500D02*
Y468196D01*
X-1275136Y455500D01*
Y468196D01*
X-1278100Y455500D02*
Y468196D01*
X-1269636Y455500D01*
Y468196D01*
X-1272500Y455500D02*
Y468196D01*
X-1264036Y455500D01*
Y468196D01*
X-1266800Y455600D02*
Y468296D01*
X-1258336Y455600D01*
Y468296D01*
X-1261500Y455700D02*
Y468396D01*
X-1253036Y455700D01*
Y468396D01*
X-1210400Y478700D02*
Y491396D01*
X-1206168Y487164D01*
X-1201936Y491396D01*
Y478700D01*
X-1205600Y484200D02*
Y496896D01*
X-1201368Y492664D01*
X-1197136Y496896D01*
Y484200D01*
X-1155900Y150500D02*
Y163196D01*
X-1151668Y158964D01*
X-1147436Y163196D01*
Y150500D01*
X-1160300Y150800D02*
Y163496D01*
X-1156068Y159264D01*
X-1151836Y163496D01*
Y150800D01*
X-1157400Y154600D02*
Y167296D01*
X-1153168Y163064D01*
X-1148936Y167296D01*
Y154600D01*
X-1145308Y154900D02*
Y167596D01*
X-1141076Y163364D01*
X-1136844Y167596D01*
Y154900D01*
X-1200492Y158100D02*
Y170796D01*
X-1196260Y166564D01*
X-1192028Y170796D01*
Y158100D01*
X-1155400Y168829D02*
Y181525D01*
X-1151168Y177293D01*
X-1146936Y181525D01*
Y168829D01*
X-1155400Y173846D02*
Y186541D01*
X-1151168Y182309D01*
X-1146936Y186541D01*
Y173846D01*
X-1195500Y180800D02*
Y193496D01*
X-1191268Y189264D01*
X-1187036Y193496D01*
Y180800D01*
X-1174200Y184500D02*
Y197196D01*
X-1169968Y192964D01*
X-1165736Y197196D01*
Y184500D01*
X-1154100Y184800D02*
Y197496D01*
X-1149868Y193264D01*
X-1145636Y197496D01*
Y184800D01*
X-1157800Y186700D02*
Y199396D01*
X-1153568Y195164D01*
X-1149336Y199396D01*
Y186700D01*
X-1154300Y197692D02*
Y210388D01*
X-1150068Y206156D01*
X-1145836Y210388D01*
Y197692D01*
X-1154300Y202708D02*
Y215404D01*
X-1150068Y211172D01*
X-1145836Y215404D01*
Y202708D01*
X-1153500Y213100D02*
Y225796D01*
X-1149268Y221564D01*
X-1145036Y225796D01*
Y213100D01*
X-1189300Y216692D02*
Y229388D01*
X-1185068Y225156D01*
X-1180836Y229388D01*
Y216692D01*
X-1189300Y221708D02*
Y234404D01*
X-1185068Y230172D01*
X-1180836Y234404D01*
Y221708D01*
X-1146500Y229200D02*
Y241896D01*
X-1142268Y237664D01*
X-1138036Y241896D01*
Y229200D01*
X-1180000Y264900D02*
Y277596D01*
X-1175768Y273364D01*
X-1171536Y277596D01*
Y264900D01*
X-1185200Y265100D02*
Y277796D01*
X-1180968Y273564D01*
X-1176736Y277796D01*
Y265100D01*
X-1185500Y271800D02*
Y284496D01*
X-1181268Y280264D01*
X-1177036Y284496D01*
Y271800D01*
X-1039400Y124500D02*
Y137196D01*
X-1035168Y132964D01*
X-1030936Y137196D01*
Y124500D01*
X-1082200Y125100D02*
Y137796D01*
X-1077968Y133564D01*
X-1073736Y137796D01*
Y125100D01*
X-1082200Y131800D02*
Y144496D01*
X-1077968Y140264D01*
X-1073736Y144496D01*
Y131800D01*
X-1039700D02*
Y144496D01*
X-1035468Y140264D01*
X-1031236Y144496D01*
Y131800D01*
X-1082000Y138900D02*
Y151596D01*
X-1077768Y147364D01*
X-1073536Y151596D01*
Y138900D01*
X-1039700Y139400D02*
Y152096D01*
X-1035468Y147864D01*
X-1031236Y152096D01*
Y139400D01*
X-1063908Y143300D02*
Y155996D01*
X-1059676Y151764D01*
X-1055444Y155996D01*
Y143300D01*
X-1058892D02*
Y155996D01*
X-1054660Y151764D01*
X-1050428Y155996D01*
Y143300D01*
X-1140292Y154900D02*
Y167596D01*
X-1136060Y163364D01*
X-1131828Y167596D01*
Y154900D01*
X-1135300Y160100D02*
Y172796D01*
X-1131068Y168564D01*
X-1126836Y172796D01*
Y160100D01*
X-1135300Y182100D02*
Y194796D01*
X-1131068Y190564D01*
X-1126836Y194796D01*
Y182100D01*
X-1143900Y211200D02*
Y223896D01*
X-1139668Y219664D01*
X-1135436Y223896D01*
Y211200D01*
X-1138400D02*
Y223896D01*
X-1134168Y219664D01*
X-1129936Y223896D01*
Y211200D01*
X-969300Y212600D02*
Y225296D01*
X-965068Y221064D01*
X-960836Y225296D01*
Y212600D01*
X-960450Y212700D02*
Y225396D01*
X-956218Y221164D01*
X-951986Y225396D01*
Y212700D01*
X-956500Y243700D02*
Y256396D01*
X-952268Y252164D01*
X-948036Y256396D01*
Y243700D01*
X-1058000Y244900D02*
Y257596D01*
X-1053768Y253364D01*
X-1049536Y257596D01*
Y244900D01*
X-968700D02*
Y257596D01*
X-964468Y253364D01*
X-960236Y257596D01*
Y244900D01*
X-1009400Y260900D02*
Y273596D01*
X-1005168Y269364D01*
X-1000936Y273596D01*
Y260900D01*
X-970100Y261300D02*
Y273996D01*
X-965868Y269764D01*
X-961636Y273996D01*
Y261300D01*
X-1180600Y271800D02*
Y284496D01*
X-1176368Y280264D01*
X-1172136Y284496D01*
Y271800D01*
X-1200600Y290700D02*
Y303396D01*
X-1196368Y299164D01*
X-1192136Y303396D01*
Y290700D01*
X-1195000Y295132D02*
Y307828D01*
X-1190768Y303596D01*
X-1186536Y307828D01*
Y295132D01*
X-1195000Y300148D02*
Y312844D01*
X-1190768Y308612D01*
X-1186536Y312844D01*
Y300148D01*
X-1194800Y306400D02*
Y319096D01*
X-1190568Y314864D01*
X-1186336Y319096D01*
Y306400D01*
X-1183300Y345300D02*
Y357996D01*
X-1179068Y353764D01*
X-1174836Y357996D01*
Y345300D01*
X-1188190Y364730D02*
Y377426D01*
X-1183958Y373194D01*
X-1179726Y377426D01*
Y364730D01*
X-1123100Y374000D02*
Y386696D01*
X-1118868Y382464D01*
X-1114636Y386696D01*
Y374000D01*
X-1200500Y379700D02*
Y392396D01*
X-1196268Y388164D01*
X-1192036Y392396D01*
Y379700D01*
X-1123100Y380292D02*
Y392988D01*
X-1118868Y388756D01*
X-1114636Y392988D01*
Y380292D01*
X-1116300Y382700D02*
Y395396D01*
X-1112068Y391164D01*
X-1107836Y395396D01*
Y382700D01*
X-1123100Y385308D02*
Y398004D01*
X-1118868Y393772D01*
X-1114636Y398004D01*
Y385308D01*
X-1200800Y386632D02*
Y399328D01*
X-1196568Y395096D01*
X-1192336Y399328D01*
Y386632D01*
X-1123100Y391500D02*
Y404196D01*
X-1118868Y399964D01*
X-1114636Y404196D01*
Y391500D01*
X-1200800Y391648D02*
Y404344D01*
X-1196568Y400112D01*
X-1192336Y404344D01*
Y391648D01*
X-1184600Y397800D02*
Y410496D01*
X-1180368Y406264D01*
X-1176136Y410496D01*
Y397800D01*
X-1200800Y397900D02*
Y410596D01*
X-1196568Y406364D01*
X-1192336Y410596D01*
Y397900D01*
X-1180300D02*
Y410596D01*
X-1176068Y406364D01*
X-1171836Y410596D01*
Y397900D01*
X-1181700Y409600D02*
Y422296D01*
X-1177468Y418064D01*
X-1173236Y422296D01*
Y409600D01*
X-1185600Y409800D02*
Y422496D01*
X-1181368Y418264D01*
X-1177136Y422496D01*
Y409800D01*
X-1113400Y412000D02*
Y424696D01*
X-1109168Y420464D01*
X-1104936Y424696D01*
Y412000D01*
X-1180700Y431100D02*
Y443796D01*
X-1176468Y439564D01*
X-1172236Y443796D01*
Y431100D01*
X-1148500Y445300D02*
Y457996D01*
X-1144268Y453764D01*
X-1140036Y457996D01*
Y445300D01*
X-1148500Y451000D02*
Y463696D01*
X-1144268Y459464D01*
X-1140036Y463696D01*
Y451000D01*
X-1148500Y456000D02*
Y468696D01*
X-1144268Y464464D01*
X-1140036Y468696D01*
Y456000D01*
X-1149100Y461400D02*
Y474096D01*
X-1144868Y469864D01*
X-1140636Y474096D01*
Y461400D01*
X-1195400Y478700D02*
Y491396D01*
X-1191168Y487164D01*
X-1186936Y491396D01*
Y478700D01*
X-1205400D02*
Y491396D01*
X-1201168Y487164D01*
X-1196936Y491396D01*
Y478700D01*
X-1200400D02*
Y491396D01*
X-1196168Y487164D01*
X-1191936Y491396D01*
Y478700D01*
X-1190400D02*
Y491396D01*
X-1186168Y487164D01*
X-1181936Y491396D01*
Y478700D01*
X-1195600Y484200D02*
Y496896D01*
X-1191368Y492664D01*
X-1187136Y496896D01*
Y484200D01*
X-1190600D02*
Y496896D01*
X-1186368Y492664D01*
X-1182136Y496896D01*
Y484200D01*
X-1000600Y274000D02*
Y286696D01*
X-996368Y282464D01*
X-992136Y286696D01*
Y274000D01*
X-1008300Y274800D02*
Y287496D01*
X-1004068Y283264D01*
X-999836Y287496D01*
Y274800D01*
X-961200Y288500D02*
Y301196D01*
X-956968Y296964D01*
X-952736Y301196D01*
Y288500D01*
X-1010400Y293200D02*
Y305896D01*
X-1006168Y301664D01*
X-1001936Y305896D01*
Y293200D01*
X-957500Y303000D02*
Y315696D01*
X-953268Y311464D01*
X-949036Y315696D01*
Y303000D01*
X-961336Y306941D02*
Y319637D01*
X-957104Y315405D01*
X-952872Y319637D01*
Y306941D01*
X-989250Y332800D02*
Y345496D01*
X-985018Y341264D01*
X-980786Y345496D01*
Y332800D01*
X-960750Y357600D02*
Y370296D01*
X-956518Y366064D01*
X-952286Y370296D01*
Y357600D01*
X-967700Y357700D02*
Y370396D01*
X-963468Y366164D01*
X-959236Y370396D01*
Y357700D01*
X-1058400Y377500D02*
Y390196D01*
X-1054168Y385964D01*
X-1049936Y390196D01*
Y377500D01*
X-1063300Y377600D02*
Y390296D01*
X-1059068Y386064D01*
X-1054836Y390296D01*
Y377600D01*
X-1063200Y383000D02*
Y395696D01*
X-1058968Y391464D01*
X-1054736Y395696D01*
Y383000D01*
X-1058100Y383200D02*
Y395896D01*
X-1053868Y391664D01*
X-1049636Y395896D01*
Y383200D01*
X-1024900Y391400D02*
Y404096D01*
X-1020668Y399864D01*
X-1016436Y404096D01*
Y391400D01*
X-1030700Y391500D02*
Y404196D01*
X-1026468Y399964D01*
X-1022236Y404196D01*
Y391500D01*
X-987600Y419100D02*
Y431796D01*
X-983368Y427564D01*
X-979136Y431796D01*
Y419100D01*
X-1108500Y420400D02*
Y433096D01*
X-1104268Y428864D01*
X-1100036Y433096D01*
Y420400D01*
X-1034100Y420500D02*
Y433196D01*
X-1029868Y428964D01*
X-1025636Y433196D01*
Y420500D01*
X-987500Y425292D02*
Y437988D01*
X-983268Y433756D01*
X-979036Y437988D01*
Y425292D01*
X-987500Y430308D02*
Y443004D01*
X-983268Y438772D01*
X-979036Y443004D01*
Y430308D01*
X-987400Y436500D02*
Y449196D01*
X-983168Y444964D01*
X-978936Y449196D01*
Y436500D01*
X-1007400Y437292D02*
Y449988D01*
X-1003168Y445756D01*
X-998936Y449988D01*
Y437292D01*
X-1001900Y439800D02*
Y452496D01*
X-997668Y448264D01*
X-993436Y452496D01*
Y439800D01*
X-1007400Y442308D02*
Y455004D01*
X-1003168Y450772D01*
X-998936Y455004D01*
Y442308D01*
X-1043800Y459600D02*
Y472296D01*
X-1039568Y468064D01*
X-1035336Y472296D01*
Y459600D01*
X-1044000Y474300D02*
Y486996D01*
X-1039768Y482764D01*
X-1035536Y486996D01*
Y474300D01*
X-1014200Y476600D02*
Y489296D01*
X-1009968Y485064D01*
X-1005736Y489296D01*
Y476600D01*
X-1063300Y478500D02*
Y491196D01*
X-1059068Y486964D01*
X-1054836Y491196D01*
Y478500D01*
X-1048200Y482300D02*
Y494996D01*
X-1043968Y490764D01*
X-1039736Y494996D01*
Y482300D01*
X-1063300Y484200D02*
Y496896D01*
X-1059068Y492664D01*
X-1054836Y496896D01*
Y484200D01*
X-1314000Y598100D02*
Y610796D01*
X-1305536Y598100D01*
Y610796D01*
X-1324800Y598100D02*
Y610796D01*
X-1316336Y598100D01*
Y610796D01*
X-1319300Y598100D02*
Y610796D01*
X-1310836Y598100D01*
Y610796D01*
X-1329900Y598100D02*
Y610796D01*
X-1321436Y598100D01*
Y610796D01*
X-1308800Y598100D02*
Y610796D01*
X-1300336Y598100D01*
Y610796D01*
X-1303500Y598100D02*
Y610796D01*
X-1295036Y598100D01*
Y610796D01*
X-1298300Y598100D02*
Y610796D01*
X-1289836Y598100D01*
Y610796D01*
X-1293100Y598100D02*
Y610796D01*
X-1284636Y598100D01*
Y610796D01*
X-1293000Y603600D02*
Y616296D01*
X-1284536Y603600D01*
Y616296D01*
X-1313700Y604100D02*
Y616796D01*
X-1305236Y604100D01*
Y616796D01*
X-1319300Y604200D02*
Y616896D01*
X-1310836Y604200D01*
Y616896D01*
X-1324800Y604200D02*
Y616896D01*
X-1316336Y604200D01*
Y616896D01*
X-1330400Y604200D02*
Y616896D01*
X-1321936Y604200D01*
Y616896D01*
X-1308400Y604200D02*
Y616896D01*
X-1299936Y604200D01*
Y616896D01*
X-1298100Y604200D02*
Y616896D01*
X-1289636Y604200D01*
Y616896D01*
X-1303300Y604400D02*
Y617096D01*
X-1294836Y604400D01*
Y617096D01*
X-1330200Y609700D02*
Y622396D01*
X-1321736Y609700D01*
Y622396D01*
X-1319572Y609700D02*
Y622396D01*
X-1311107Y609700D01*
Y622396D01*
X-1298314Y609700D02*
Y622396D01*
X-1289850Y609700D01*
Y622396D01*
X-1324886Y609900D02*
Y622596D01*
X-1316422Y609900D01*
Y622596D01*
X-1303629Y609900D02*
Y622596D01*
X-1295165Y609900D01*
Y622596D01*
X-1308943Y610000D02*
Y622696D01*
X-1300479Y610000D01*
Y622696D01*
X-1210600Y484200D02*
Y496896D01*
X-1206368Y492664D01*
X-1202136Y496896D01*
Y484200D01*
X-1200600D02*
Y496896D01*
X-1196368Y492664D01*
X-1192136Y496896D01*
Y484200D01*
X-1210600Y489500D02*
Y502196D01*
X-1206368Y497964D01*
X-1202136Y502196D01*
Y489500D01*
X-1205600D02*
Y502196D01*
X-1201368Y497964D01*
X-1197136Y502196D01*
Y489500D01*
X-1200600D02*
Y502196D01*
X-1196368Y497964D01*
X-1192136Y502196D01*
Y489500D01*
X-1210500Y494900D02*
Y507596D01*
X-1206268Y503364D01*
X-1202036Y507596D01*
Y494900D01*
X-1205500D02*
Y507596D01*
X-1201268Y503364D01*
X-1197036Y507596D01*
Y494900D01*
X-1200500D02*
Y507596D01*
X-1196268Y503364D01*
X-1192036Y507596D01*
Y494900D01*
X-1210500Y500800D02*
Y513496D01*
X-1206268Y509264D01*
X-1202036Y513496D01*
Y500800D01*
X-1200500D02*
Y513496D01*
X-1196268Y509264D01*
X-1192036Y513496D01*
Y500800D01*
X-1205500D02*
Y513496D01*
X-1201268Y509264D01*
X-1197036Y513496D01*
Y500800D01*
X-1210600Y506800D02*
Y519496D01*
X-1206368Y515264D01*
X-1202136Y519496D01*
Y506800D01*
X-1205600D02*
Y519496D01*
X-1201368Y515264D01*
X-1197136Y519496D01*
Y506800D01*
X-1200600D02*
Y519496D01*
X-1196368Y515264D01*
X-1192136Y519496D01*
Y506800D01*
X-1210600Y513600D02*
Y526296D01*
X-1206368Y522064D01*
X-1202136Y526296D01*
Y513600D01*
X-1205600D02*
Y526296D01*
X-1201368Y522064D01*
X-1197136Y526296D01*
Y513600D01*
X-1200600D02*
Y526296D01*
X-1196368Y522064D01*
X-1192136Y526296D01*
Y513600D01*
X-1210600Y520000D02*
Y532696D01*
X-1206368Y528464D01*
X-1202136Y532696D01*
Y520000D01*
X-1205600D02*
Y532696D01*
X-1201368Y528464D01*
X-1197136Y532696D01*
Y520000D01*
X-1200600D02*
Y532696D01*
X-1196368Y528464D01*
X-1192136Y532696D01*
Y520000D01*
X-1210500Y526400D02*
Y539096D01*
X-1206268Y534864D01*
X-1202036Y539096D01*
Y526400D01*
X-1200500D02*
Y539096D01*
X-1196268Y534864D01*
X-1192036Y539096D01*
Y526400D01*
X-1205500D02*
Y539096D01*
X-1201268Y534864D01*
X-1197036Y539096D01*
Y526400D01*
X-1210100Y550200D02*
Y562896D01*
X-1205868Y558664D01*
X-1201636Y562896D01*
Y550200D01*
X-1205100D02*
Y562896D01*
X-1200868Y558664D01*
X-1196636Y562896D01*
Y550200D01*
X-1210000Y554900D02*
Y567596D01*
X-1205768Y563364D01*
X-1201536Y567596D01*
Y554900D01*
X-1205000D02*
Y567596D01*
X-1200768Y563364D01*
X-1196536Y567596D01*
Y554900D01*
X-1210100Y559500D02*
Y572196D01*
X-1205868Y567964D01*
X-1201636Y572196D01*
Y559500D01*
X-1205100D02*
Y572196D01*
X-1200868Y567964D01*
X-1196636Y572196D01*
Y559500D01*
X-1210200Y564300D02*
Y576996D01*
X-1205968Y572764D01*
X-1201736Y576996D01*
Y564300D01*
X-1205200D02*
Y576996D01*
X-1200968Y572764D01*
X-1196736Y576996D01*
Y564300D01*
X-1293000Y609500D02*
Y622196D01*
X-1284536Y609500D01*
Y622196D01*
X-1314257Y610200D02*
Y622896D01*
X-1305793Y610200D01*
Y622896D01*
X-1289400Y624500D02*
Y637196D01*
X-1285168Y632964D01*
X-1280936Y637196D01*
Y624500D01*
X-1314400Y625200D02*
Y637896D01*
X-1310168Y633664D01*
X-1305936Y637896D01*
Y625200D01*
X-1314100Y629700D02*
Y642396D01*
X-1309868Y638164D01*
X-1305636Y642396D01*
Y629700D01*
X-1289300D02*
Y642396D01*
X-1285068Y638164D01*
X-1280836Y642396D01*
Y629700D01*
X-1250800Y632200D02*
Y644896D01*
X-1246568Y640664D01*
X-1242336Y644896D01*
Y632200D01*
X-1314100Y634100D02*
Y646796D01*
X-1309868Y642564D01*
X-1305636Y646796D01*
Y634100D01*
X-1294200Y634500D02*
Y647196D01*
X-1289968Y642964D01*
X-1285736Y647196D01*
Y634500D01*
X-1289400D02*
Y647196D01*
X-1285168Y642964D01*
X-1280936Y647196D01*
Y634500D01*
X-1309000Y634600D02*
Y647296D01*
X-1304768Y643064D01*
X-1300536Y647296D01*
Y634600D01*
X-1301500Y634700D02*
Y647396D01*
X-1297268Y643164D01*
X-1293036Y647396D01*
Y634700D01*
X-1251000Y637800D02*
Y650496D01*
X-1246768Y646264D01*
X-1242536Y650496D01*
Y637800D01*
X-1267700Y739900D02*
Y752596D01*
X-1263468Y748364D01*
X-1259236Y752596D01*
Y739900D01*
X-1305300Y861700D02*
Y874396D01*
X-1301068Y870164D01*
X-1296836Y874396D01*
Y861700D01*
X-1305700Y867600D02*
Y880296D01*
X-1301468Y876064D01*
X-1297236Y880296D01*
Y867600D01*
X-1305700Y873700D02*
Y886396D01*
X-1301468Y882164D01*
X-1297236Y886396D01*
Y873700D01*
X-1345700Y890200D02*
Y902896D01*
X-1341468Y898664D01*
X-1337236Y902896D01*
Y890200D01*
X-1331900Y890300D02*
Y902996D01*
X-1327668Y898764D01*
X-1323436Y902996D01*
Y890300D01*
X-1256800Y910100D02*
Y922796D01*
X-1252568Y918564D01*
X-1248336Y922796D01*
Y910100D01*
X-1251600D02*
Y922796D01*
X-1247368Y918564D01*
X-1243136Y922796D01*
Y910100D01*
X-1316800Y910900D02*
Y923596D01*
X-1312568Y919364D01*
X-1308336Y923596D01*
Y910900D01*
X-1260100Y948000D02*
Y960696D01*
X-1255868Y956464D01*
X-1251636Y960696D01*
Y948000D01*
X-1281900Y948300D02*
Y960996D01*
X-1277668Y956764D01*
X-1273436Y960996D01*
Y948300D01*
X-1235700Y631900D02*
Y644596D01*
X-1231468Y640364D01*
X-1227236Y644596D01*
Y631900D01*
X-1230900D02*
Y644596D01*
X-1226668Y640364D01*
X-1222436Y644596D01*
Y631900D01*
X-1226000Y632000D02*
Y644696D01*
X-1221768Y640464D01*
X-1217536Y644696D01*
Y632000D01*
X-1241200D02*
Y644696D01*
X-1236968Y640464D01*
X-1232736Y644696D01*
Y632000D01*
X-1246200Y632100D02*
Y644796D01*
X-1241968Y640564D01*
X-1237736Y644796D01*
Y632100D01*
X-1214100Y635800D02*
Y648496D01*
X-1205636Y635800D01*
Y648496D01*
X-1208500Y635900D02*
Y648596D01*
X-1200036Y635900D01*
Y648596D01*
X-1202900Y636100D02*
Y648796D01*
X-1194436Y636100D01*
Y648796D01*
X-1230800Y637600D02*
Y650296D01*
X-1226568Y646064D01*
X-1222336Y650296D01*
Y637600D01*
X-1226200D02*
Y650296D01*
X-1221968Y646064D01*
X-1217736Y650296D01*
Y637600D01*
X-1245800Y637800D02*
Y650496D01*
X-1241568Y646264D01*
X-1237336Y650496D01*
Y637800D01*
X-1241100Y637900D02*
Y650596D01*
X-1236868Y646364D01*
X-1232636Y650596D01*
Y637900D01*
X-1236000D02*
Y650596D01*
X-1231768Y646364D01*
X-1227536Y650596D01*
Y637900D01*
X-1214100Y641100D02*
Y653796D01*
X-1205636Y641100D01*
Y653796D01*
X-1208500Y641200D02*
Y653896D01*
X-1200036Y641200D01*
Y653896D01*
X-1202900Y641400D02*
Y654096D01*
X-1194436Y641400D01*
Y654096D01*
X-1214100Y646400D02*
Y659096D01*
X-1205636Y646400D01*
Y659096D01*
X-1208500Y646500D02*
Y659196D01*
X-1200036Y646500D01*
Y659196D01*
X-1202900Y646700D02*
Y659396D01*
X-1194436Y646700D01*
Y659396D01*
X-1214100Y651700D02*
Y664396D01*
X-1205636Y651700D01*
Y664396D01*
X-1208500Y651800D02*
Y664496D01*
X-1200036Y651800D01*
Y664496D01*
X-1202900Y652000D02*
Y664696D01*
X-1194436Y652000D01*
Y664696D01*
X-1218300Y667100D02*
Y679796D01*
X-1214068Y675564D01*
X-1209836Y679796D01*
Y667100D01*
X-1205000Y741500D02*
Y754196D01*
X-1200768Y749964D01*
X-1196536Y754196D01*
Y741500D01*
X-1229600Y770700D02*
Y783396D01*
X-1225368Y779164D01*
X-1221136Y783396D01*
Y770700D01*
X-1245900Y874800D02*
Y887496D01*
X-1241668Y883264D01*
X-1237436Y887496D01*
Y874800D01*
X-1235600Y884300D02*
Y896996D01*
X-1231368Y892764D01*
X-1227136Y896996D01*
Y884300D01*
X-1247100Y890800D02*
Y903496D01*
X-1242868Y899264D01*
X-1238636Y903496D01*
Y890800D01*
X-1248100Y898500D02*
Y911196D01*
X-1243868Y906964D01*
X-1239636Y911196D01*
Y898500D01*
X-1243400Y898600D02*
Y911296D01*
X-1239168Y907064D01*
X-1234936Y911296D01*
Y898600D01*
X-1246800Y909900D02*
Y922596D01*
X-1242568Y918364D01*
X-1238336Y922596D01*
Y909900D01*
X-1237000Y947600D02*
Y960296D01*
X-1232768Y956064D01*
X-1228536Y960296D01*
Y947600D01*
X-1195600Y489500D02*
Y502196D01*
X-1191368Y497964D01*
X-1187136Y502196D01*
Y489500D01*
X-1190600D02*
Y502196D01*
X-1186368Y497964D01*
X-1182136Y502196D01*
Y489500D01*
X-1195500Y494900D02*
Y507596D01*
X-1191268Y503364D01*
X-1187036Y507596D01*
Y494900D01*
X-1190500D02*
Y507596D01*
X-1186268Y503364D01*
X-1182036Y507596D01*
Y494900D01*
X-1190500Y500800D02*
Y513496D01*
X-1186268Y509264D01*
X-1182036Y513496D01*
Y500800D01*
X-1195500D02*
Y513496D01*
X-1191268Y509264D01*
X-1187036Y513496D01*
Y500800D01*
X-1190600Y506800D02*
Y519496D01*
X-1186368Y515264D01*
X-1182136Y519496D01*
Y506800D01*
X-1195600D02*
Y519496D01*
X-1191368Y515264D01*
X-1187136Y519496D01*
Y506800D01*
X-1195600Y513600D02*
Y526296D01*
X-1191368Y522064D01*
X-1187136Y526296D01*
Y513600D01*
X-1190600D02*
Y526296D01*
X-1186368Y522064D01*
X-1182136Y526296D01*
Y513600D01*
X-1190600Y520000D02*
Y532696D01*
X-1186368Y528464D01*
X-1182136Y532696D01*
Y520000D01*
X-1195600D02*
Y532696D01*
X-1191368Y528464D01*
X-1187136Y532696D01*
Y520000D01*
X-1190500Y526400D02*
Y539096D01*
X-1186268Y534864D01*
X-1182036Y539096D01*
Y526400D01*
X-1195500D02*
Y539096D01*
X-1191268Y534864D01*
X-1187036Y539096D01*
Y526400D01*
X-1200100Y550200D02*
Y562896D01*
X-1195868Y558664D01*
X-1191636Y562896D01*
Y550200D01*
X-1190100D02*
Y562896D01*
X-1185868Y558664D01*
X-1181636Y562896D01*
Y550200D01*
X-1195100D02*
Y562896D01*
X-1190868Y558664D01*
X-1186636Y562896D01*
Y550200D01*
X-1200000Y554900D02*
Y567596D01*
X-1195768Y563364D01*
X-1191536Y567596D01*
Y554900D01*
X-1195000D02*
Y567596D01*
X-1190768Y563364D01*
X-1186536Y567596D01*
Y554900D01*
X-1190000D02*
Y567596D01*
X-1185768Y563364D01*
X-1181536Y567596D01*
Y554900D01*
X-1200100Y559500D02*
Y572196D01*
X-1195868Y567964D01*
X-1191636Y572196D01*
Y559500D01*
X-1195100D02*
Y572196D01*
X-1190868Y567964D01*
X-1186636Y572196D01*
Y559500D01*
X-1190100D02*
Y572196D01*
X-1185868Y567964D01*
X-1181636Y572196D01*
Y559500D01*
X-1200200Y564300D02*
Y576996D01*
X-1195968Y572764D01*
X-1191736Y576996D01*
Y564300D01*
X-1195200D02*
Y576996D01*
X-1190968Y572764D01*
X-1186736Y576996D01*
Y564300D01*
X-1190200D02*
Y576996D01*
X-1185968Y572764D01*
X-1181736Y576996D01*
Y564300D01*
X-1186600Y635600D02*
Y648296D01*
X-1178136Y635600D01*
Y648296D01*
X-1192000Y635700D02*
Y648396D01*
X-1183536Y635700D01*
Y648396D01*
X-1197500Y635900D02*
Y648596D01*
X-1189036Y635900D01*
Y648596D01*
X-1186600Y640900D02*
Y653596D01*
X-1178136Y640900D01*
Y653596D01*
X-1192000Y641000D02*
Y653696D01*
X-1183536Y641000D01*
Y653696D01*
X-1048100Y488492D02*
Y501188D01*
X-1043868Y496956D01*
X-1039636Y501188D01*
Y488492D01*
X-1048100Y493508D02*
Y506204D01*
X-1043868Y501972D01*
X-1039636Y506204D01*
Y493508D01*
X-1030800Y514300D02*
Y526996D01*
X-1026568Y522764D01*
X-1022336Y526996D01*
Y514300D01*
X-1039300Y514600D02*
Y527296D01*
X-1035068Y523064D01*
X-1030836Y527296D01*
Y514600D01*
X-1046700Y514800D02*
Y527496D01*
X-1042468Y523264D01*
X-1038236Y527496D01*
Y514800D01*
X-1044700Y523300D02*
Y535996D01*
X-1040468Y531764D01*
X-1036236Y535996D01*
Y523300D01*
X-1150200Y524000D02*
Y536696D01*
X-1145968Y532464D01*
X-1141736Y536696D01*
Y524000D01*
X-1157800Y525200D02*
Y537896D01*
X-1153568Y533664D01*
X-1149336Y537896D01*
Y525200D01*
X-1044500Y527900D02*
Y540596D01*
X-1040268Y536364D01*
X-1036036Y540596D01*
Y527900D01*
X-1150100Y530092D02*
Y542788D01*
X-1145868Y538556D01*
X-1141636Y542788D01*
Y530092D01*
X-1044500Y532600D02*
Y545296D01*
X-1040268Y541064D01*
X-1036036Y545296D01*
Y532600D01*
X-1150100Y535108D02*
Y547804D01*
X-1145868Y543572D01*
X-1141636Y547804D01*
Y535108D01*
X-1157700Y540200D02*
Y552896D01*
X-1153468Y548664D01*
X-1149236Y552896D01*
Y540200D01*
X-969200Y540700D02*
Y553396D01*
X-964968Y549164D01*
X-960736Y553396D01*
Y540700D01*
X-1150000Y541400D02*
Y554096D01*
X-1145768Y549864D01*
X-1141536Y554096D01*
Y541400D01*
X-1063000Y543400D02*
Y556096D01*
X-1058768Y551864D01*
X-1054536Y556096D01*
Y543400D01*
X-1063000Y547500D02*
Y560196D01*
X-1058768Y555964D01*
X-1054536Y560196D01*
Y547500D01*
X-1063000Y551600D02*
Y564296D01*
X-1058768Y560064D01*
X-1054536Y564296D01*
Y551600D01*
X-1116500Y552700D02*
Y565396D01*
X-1112268Y561164D01*
X-1108036Y565396D01*
Y552700D01*
X-1075600Y554300D02*
Y566996D01*
X-1071368Y562764D01*
X-1067136Y566996D01*
Y554300D01*
X-1145500Y556400D02*
Y569096D01*
X-1141268Y564864D01*
X-1137036Y569096D01*
Y556400D01*
X-1075500Y559100D02*
Y571796D01*
X-1071268Y567564D01*
X-1067036Y571796D01*
Y559100D01*
X-1075800Y564200D02*
Y576896D01*
X-1071568Y572664D01*
X-1067336Y576896D01*
Y564200D01*
X-1139100Y564300D02*
Y576996D01*
X-1134868Y572764D01*
X-1130636Y576996D01*
Y564300D01*
X-1144600Y564400D02*
Y577096D01*
X-1140368Y572864D01*
X-1136136Y577096D01*
Y564400D01*
X-1150200Y564600D02*
Y577296D01*
X-1145968Y573064D01*
X-1141736Y577296D01*
Y564600D01*
X-1079500Y567700D02*
Y580396D01*
X-1075268Y576164D01*
X-1071036Y580396D01*
Y567700D01*
X-1157600Y635200D02*
Y647896D01*
X-1153368Y643664D01*
X-1149136Y647896D01*
Y635200D01*
X-1070800Y638700D02*
Y651396D01*
X-1066568Y647164D01*
X-1062336Y651396D01*
Y638700D01*
X-1040000Y638900D02*
Y651596D01*
X-1035768Y647364D01*
X-1031536Y651596D01*
Y638900D01*
X-1034800Y639100D02*
Y651796D01*
X-1030568Y647564D01*
X-1026336Y651796D01*
Y639100D01*
X-1197500Y641200D02*
Y653896D01*
X-1189036Y641200D01*
Y653896D01*
X-1118200Y642600D02*
Y655296D01*
X-1113968Y651064D01*
X-1109736Y655296D01*
Y642600D01*
X-1186600Y646200D02*
Y658896D01*
X-1178136Y646200D01*
Y658896D01*
X-1192000Y646300D02*
Y658996D01*
X-1183536Y646300D01*
Y658996D01*
X-1197500Y646500D02*
Y659196D01*
X-1189036Y646500D01*
Y659196D01*
X-1157800Y650000D02*
Y662696D01*
X-1153568Y658464D01*
X-1149336Y662696D01*
Y650000D01*
X-1186600Y651500D02*
Y664196D01*
X-1178136Y651500D01*
Y664196D01*
X-1192000Y651600D02*
Y664296D01*
X-1183536Y651600D01*
Y664296D01*
X-1197500Y651800D02*
Y664496D01*
X-1189036Y651800D01*
Y664496D01*
X-1150800Y655100D02*
Y667796D01*
X-1146568Y663564D01*
X-1142336Y667796D01*
Y655100D01*
X-1155700Y665200D02*
Y677896D01*
X-1151468Y673664D01*
X-1147236Y677896D01*
Y665200D01*
X-1151400Y674700D02*
Y687396D01*
X-1147168Y683164D01*
X-1142936Y687396D01*
Y674700D01*
X-1056900Y683200D02*
Y695896D01*
X-1052668Y691664D01*
X-1048436Y695896D01*
Y683200D01*
X-1061150Y687450D02*
Y700146D01*
X-1056918Y695914D01*
X-1052686Y700146D01*
Y687450D01*
X-1063000Y692500D02*
Y705196D01*
X-1058768Y700964D01*
X-1054536Y705196D01*
Y692500D01*
X-1063000Y696800D02*
Y709496D01*
X-1058768Y705264D01*
X-1054536Y709496D01*
Y696800D01*
X-1153000Y710100D02*
Y722796D01*
X-1148768Y718564D01*
X-1144536Y722796D01*
Y710100D01*
X-1051500Y717900D02*
Y730596D01*
X-1047268Y726364D01*
X-1043036Y730596D01*
Y717900D01*
X-1147700Y742900D02*
Y755596D01*
X-1143468Y751364D01*
X-1139236Y755596D01*
Y742900D01*
X-1063700Y767200D02*
Y779896D01*
X-1059468Y775664D01*
X-1055236Y779896D01*
Y767200D01*
X-1110300Y767600D02*
Y780296D01*
X-1106068Y776064D01*
X-1101836Y780296D01*
Y767600D01*
X-1169600Y768500D02*
Y781196D01*
X-1165368Y776964D01*
X-1161136Y781196D01*
Y768500D01*
X-1086600Y858900D02*
Y871596D01*
X-1082368Y867364D01*
X-1078136Y871596D01*
Y858900D01*
X-1056000Y863000D02*
Y875696D01*
X-1051768Y871464D01*
X-1047536Y875696D01*
Y863000D01*
X-1089400Y874700D02*
Y887396D01*
X-1085168Y883164D01*
X-1080936Y887396D01*
Y874700D01*
X-1054700Y884600D02*
Y897296D01*
X-1050468Y893064D01*
X-1046236Y897296D01*
Y884600D01*
X-1109600Y948500D02*
Y961196D01*
X-1105368Y956964D01*
X-1101136Y961196D01*
Y948500D01*
X-1090500Y948700D02*
Y961396D01*
X-1086268Y957164D01*
X-1082036Y961396D01*
Y948700D01*
X-1134500D02*
Y961396D01*
X-1130268Y957164D01*
X-1126036Y961396D01*
Y948700D01*
X-1012100Y642100D02*
Y654796D01*
X-1007868Y650564D01*
X-1003636Y654796D01*
Y642100D01*
X-1025700Y649200D02*
Y661896D01*
X-1021468Y657664D01*
X-1017236Y661896D01*
Y649200D01*
X-1041800Y708200D02*
Y720896D01*
X-1037568Y716664D01*
X-1033336Y720896D01*
Y708200D01*
X-1046500Y708300D02*
Y720996D01*
X-1042268Y716764D01*
X-1038036Y720996D01*
Y708300D01*
X-1042100Y712600D02*
Y725296D01*
X-1037868Y721064D01*
X-1033636Y725296D01*
Y712600D01*
X-1046800Y712800D02*
Y725496D01*
X-1042568Y721264D01*
X-1038336Y725496D01*
Y712800D01*
X-1046800Y717600D02*
Y730296D01*
X-1042568Y726064D01*
X-1038336Y730296D01*
Y717600D01*
X-981900Y808700D02*
Y821396D01*
X-977668Y817164D01*
X-973436Y821396D01*
Y808700D01*
X-967200Y816700D02*
Y829396D01*
X-962968Y825164D01*
X-958736Y829396D01*
Y816700D01*
X-1031800Y820900D02*
Y833596D01*
X-1027568Y829364D01*
X-1023336Y833596D01*
Y820900D01*
X-992100D02*
Y833596D01*
X-987868Y829364D01*
X-983636Y833596D01*
Y820900D01*
X-961768Y821332D02*
Y834028D01*
X-957536Y829796D01*
X-953304Y834028D01*
Y821332D01*
X-1002400Y822100D02*
Y834796D01*
X-998168Y830564D01*
X-993936Y834796D01*
Y822100D01*
X-957000Y843800D02*
Y856496D01*
X-952768Y852264D01*
X-948536Y856496D01*
Y843800D01*
X-987100Y844900D02*
Y857596D01*
X-982868Y853364D01*
X-978636Y857596D01*
Y844900D01*
X-956450Y848250D02*
Y860946D01*
X-952218Y856714D01*
X-947986Y860946D01*
Y848250D01*
X-987100Y849000D02*
Y861696D01*
X-982868Y857464D01*
X-978636Y861696D01*
Y849000D01*
X-967000Y850300D02*
Y862996D01*
X-962768Y858764D01*
X-958536Y862996D01*
Y850300D01*
X-953400Y851300D02*
Y863996D01*
X-949168Y859764D01*
X-944936Y863996D01*
Y851300D01*
X-984250Y854950D02*
Y867646D01*
X-980018Y863414D01*
X-975786Y867646D01*
Y854950D01*
X-1050400Y886600D02*
Y899296D01*
X-1046168Y895064D01*
X-1041936Y899296D01*
Y886600D01*
X-1048200Y890200D02*
Y902896D01*
X-1043968Y898664D01*
X-1039736Y902896D01*
Y890200D01*
X-780000Y73600D02*
Y86296D01*
X-775768Y82064D01*
X-771536Y86296D01*
Y73600D01*
X-552350Y83500D02*
Y96196D01*
X-548118Y91964D01*
X-543886Y96196D01*
Y83500D01*
X-555350Y88000D02*
Y100696D01*
X-551118Y96464D01*
X-546886Y100696D01*
Y88000D01*
X-549350D02*
Y100696D01*
X-545118Y96464D01*
X-540886Y100696D01*
Y88000D01*
X-821700Y92600D02*
Y105296D01*
X-817468Y101064D01*
X-813236Y105296D01*
Y92600D01*
X-545350Y102000D02*
Y114696D01*
X-541118Y110464D01*
X-536886Y114696D01*
Y102000D01*
X-814700Y113400D02*
Y126096D01*
X-810468Y121864D01*
X-806236Y126096D01*
Y113400D01*
X-835900Y126400D02*
Y139096D01*
X-831668Y134864D01*
X-827436Y139096D01*
Y126400D01*
X-804700Y126500D02*
Y139196D01*
X-800468Y134964D01*
X-796236Y139196D01*
Y126500D01*
X-778000Y127000D02*
Y139696D01*
X-773768Y135464D01*
X-769536Y139696D01*
Y127000D01*
X-789300Y129800D02*
Y142496D01*
X-785068Y138264D01*
X-780836Y142496D01*
Y129800D01*
X-553350Y135500D02*
Y148196D01*
X-549118Y143964D01*
X-544886Y148196D01*
Y135500D01*
X-324500Y8300D02*
Y20996D01*
X-320268Y16764D01*
X-316036Y20996D01*
Y8300D01*
X-344000Y18200D02*
Y30896D01*
X-339768Y26664D01*
X-335536Y30896D01*
Y18200D01*
X-351600Y27525D02*
Y40221D01*
X-347368Y35989D01*
X-343136Y40221D01*
Y27525D01*
X-351200Y41000D02*
Y53696D01*
X-346968Y49464D01*
X-342736Y53696D01*
Y41000D01*
X-484400Y43700D02*
Y56396D01*
X-480168Y52164D01*
X-475936Y56396D01*
Y43700D01*
X-459300D02*
Y56396D01*
X-455068Y52164D01*
X-450836Y56396D01*
Y43700D01*
X-444300D02*
Y56396D01*
X-440068Y52164D01*
X-435836Y56396D01*
Y43700D01*
X-429300D02*
Y56396D01*
X-425068Y52164D01*
X-420836Y56396D01*
Y43700D01*
X-414300D02*
Y56396D01*
X-410068Y52164D01*
X-405836Y56396D01*
Y43700D01*
X-499850Y46500D02*
Y59196D01*
X-495618Y54964D01*
X-491386Y59196D01*
Y46500D01*
X-351400Y46600D02*
Y59296D01*
X-347168Y55064D01*
X-342936Y59296D01*
Y46600D01*
X-349000Y51100D02*
Y63796D01*
X-344768Y59564D01*
X-340536Y63796D01*
Y51100D01*
X-328100Y58425D02*
Y71121D01*
X-323868Y66889D01*
X-319636Y71121D01*
Y58425D01*
X-318112Y82000D02*
Y94696D01*
X-313880Y90464D01*
X-309648Y94696D01*
Y82000D01*
X-503350Y84000D02*
Y96696D01*
X-499118Y92464D01*
X-494886Y96696D01*
Y84000D01*
X-495060Y90540D02*
Y103236D01*
X-490828Y99004D01*
X-486596Y103236D01*
Y90540D01*
X-490850Y91000D02*
Y103696D01*
X-486618Y99464D01*
X-482386Y103696D01*
Y91000D01*
X-451900Y94700D02*
Y107396D01*
X-447668Y103164D01*
X-443436Y107396D01*
Y94700D01*
X-421800Y95300D02*
Y107996D01*
X-417568Y103764D01*
X-413336Y107996D01*
Y95300D01*
X-516699Y97526D02*
Y110222D01*
X-512467Y105990D01*
X-508236Y110222D01*
Y97526D01*
X-451900Y116100D02*
Y128796D01*
X-447668Y124564D01*
X-443436Y128796D01*
Y116100D01*
X-421800Y116400D02*
Y129096D01*
X-417568Y124864D01*
X-413336Y129096D01*
Y116400D01*
X-309100Y123900D02*
Y136596D01*
X-304868Y132364D01*
X-300636Y136596D01*
Y123900D01*
X-498850Y126500D02*
Y139196D01*
X-494618Y134964D01*
X-490386Y139196D01*
Y126500D01*
X-303188Y137500D02*
Y150196D01*
X-298955Y145964D01*
X-294724Y150196D01*
Y137500D01*
X-307375D02*
Y150196D01*
X-303143Y145964D01*
X-298911Y150196D01*
Y137500D01*
X-319937D02*
Y150196D01*
X-315706Y145964D01*
X-311474Y150196D01*
Y137500D01*
X-328312D02*
Y150196D01*
X-324081Y145964D01*
X-319849Y150196D01*
Y137500D01*
X-324125D02*
Y150196D01*
X-319893Y145964D01*
X-315661Y150196D01*
Y137500D01*
X-647500Y139900D02*
Y152596D01*
X-643268Y148364D01*
X-639036Y152596D01*
Y139900D01*
X-539600Y150000D02*
Y162696D01*
X-535368Y158464D01*
X-531136Y162696D01*
Y150000D01*
X-543400Y152800D02*
Y165496D01*
X-539168Y161264D01*
X-534936Y165496D01*
Y152800D01*
X-529600Y154600D02*
Y167296D01*
X-525368Y163064D01*
X-521136Y167296D01*
Y154600D01*
X-586350Y155500D02*
Y168196D01*
X-582118Y163964D01*
X-577886Y168196D01*
Y155500D01*
X-553600Y155900D02*
Y168596D01*
X-549368Y164364D01*
X-545136Y168596D01*
Y155900D01*
X-708200Y157100D02*
Y169796D01*
X-703968Y165564D01*
X-699736Y169796D01*
Y157100D01*
X-713200Y157200D02*
Y169896D01*
X-708968Y165664D01*
X-704736Y169896D01*
Y157200D01*
X-708200Y161700D02*
Y174396D01*
X-703968Y170164D01*
X-699736Y174396D01*
Y161700D01*
X-713100Y162000D02*
Y174696D01*
X-708868Y170464D01*
X-704636Y174696D01*
Y162000D01*
X-702900Y164500D02*
Y177196D01*
X-698668Y172964D01*
X-694436Y177196D01*
Y164500D01*
X-708500Y167100D02*
Y179796D01*
X-704268Y175564D01*
X-700036Y179796D01*
Y167100D01*
X-713400Y167300D02*
Y179996D01*
X-709168Y175764D01*
X-704936Y179996D01*
Y167300D01*
X-702700Y168800D02*
Y181496D01*
X-698468Y177264D01*
X-694236Y181496D01*
Y168800D01*
X-569800Y171200D02*
Y183896D01*
X-565568Y179664D01*
X-561336Y183896D01*
Y171200D01*
X-844800Y175692D02*
Y188388D01*
X-840568Y184156D01*
X-836336Y188388D01*
Y175692D01*
X-527000Y177400D02*
Y190096D01*
X-522768Y185864D01*
X-518536Y190096D01*
Y177400D01*
X-851200Y178300D02*
Y190996D01*
X-846968Y186764D01*
X-842736Y190996D01*
Y178300D01*
X-844800Y180708D02*
Y193404D01*
X-840568Y189172D01*
X-836336Y193404D01*
Y180708D01*
X-827000Y184300D02*
Y196996D01*
X-822768Y192764D01*
X-818536Y196996D01*
Y184300D01*
X-908100Y184500D02*
Y197196D01*
X-903868Y192964D01*
X-899636Y197196D01*
Y184500D01*
X-530200Y186000D02*
Y198696D01*
X-525968Y194464D01*
X-521736Y198696D01*
Y186000D01*
X-831700Y188492D02*
Y201188D01*
X-827468Y196956D01*
X-823236Y201188D01*
Y188492D01*
X-666900Y189900D02*
Y202596D01*
X-662668Y198364D01*
X-658436Y202596D01*
Y189900D01*
X-673100Y190200D02*
Y202896D01*
X-668868Y198664D01*
X-664636Y202896D01*
Y190200D01*
X-678800Y190300D02*
Y202996D01*
X-674568Y198764D01*
X-670336Y202996D01*
Y190300D01*
X-299000Y137500D02*
Y150196D01*
X-294768Y145964D01*
X-290536Y150196D01*
Y137500D01*
X-294813D02*
Y150196D01*
X-290581Y145964D01*
X-286349Y150196D01*
Y137500D01*
X-311562D02*
Y150196D01*
X-307330Y145964D01*
X-303099Y150196D01*
Y137500D01*
X-315750D02*
Y150196D01*
X-311518Y145964D01*
X-307286Y150196D01*
Y137500D01*
X-509350Y141500D02*
Y154196D01*
X-505118Y149964D01*
X-500886Y154196D01*
Y141500D01*
X-327863Y142400D02*
Y155096D01*
X-323630Y150864D01*
X-319399Y155096D01*
Y142400D01*
X-294762D02*
Y155096D01*
X-290530Y150864D01*
X-286299Y155096D01*
Y142400D01*
X-319587D02*
Y155096D01*
X-315355Y150864D01*
X-311124Y155096D01*
Y142400D01*
X-303037D02*
Y155096D01*
X-298806Y150864D01*
X-294574Y155096D01*
Y142400D01*
X-298900D02*
Y155096D01*
X-294668Y150864D01*
X-290436Y155096D01*
Y142400D01*
X-307175D02*
Y155096D01*
X-302943Y150864D01*
X-298711Y155096D01*
Y142400D01*
X-311313D02*
Y155096D01*
X-307080Y150864D01*
X-302849Y155096D01*
Y142400D01*
X-315450D02*
Y155096D01*
X-311218Y150864D01*
X-306986Y155096D01*
Y142400D01*
X-323725D02*
Y155096D01*
X-319493Y150864D01*
X-315261Y155096D01*
Y142400D01*
X-495000Y151700D02*
Y164396D01*
X-490768Y160164D01*
X-486536Y164396D01*
Y151700D01*
X-495350Y155500D02*
Y168196D01*
X-491118Y163964D01*
X-486886Y168196D01*
Y155500D01*
X-515000Y156200D02*
Y168896D01*
X-510768Y164664D01*
X-506536Y168896D01*
Y156200D01*
X-436840Y159580D02*
Y172276D01*
X-432608Y168044D01*
X-428376Y172276D01*
Y159580D01*
X-411860Y159650D02*
Y172346D01*
X-407628Y168114D01*
X-403396Y172346D01*
Y159650D01*
X-387120Y159690D02*
Y172386D01*
X-382888Y168154D01*
X-378656Y172386D01*
Y159690D01*
X-461900Y159740D02*
Y172436D01*
X-457668Y168204D01*
X-453436Y172436D01*
Y159740D01*
X-482000Y166730D02*
Y179426D01*
X-477768Y175194D01*
X-473536Y179426D01*
Y166730D01*
X-297989Y173600D02*
Y186296D01*
X-293757Y182064D01*
X-289525Y186296D01*
Y173600D01*
X-293478D02*
Y186296D01*
X-289246Y182064D01*
X-285014Y186296D01*
Y173600D01*
X-288967D02*
Y186296D01*
X-284735Y182064D01*
X-280503Y186296D01*
Y173600D01*
X-284456D02*
Y186296D01*
X-280224Y182064D01*
X-275992Y186296D01*
Y173600D01*
X-284300Y178700D02*
Y191396D01*
X-280068Y187164D01*
X-275836Y191396D01*
Y178700D01*
X-298000Y178800D02*
Y191496D01*
X-293768Y187264D01*
X-289536Y191496D01*
Y178800D01*
X-293600Y179000D02*
Y191696D01*
X-289368Y187464D01*
X-285136Y191696D01*
Y179000D01*
X-289000Y179200D02*
Y191896D01*
X-284768Y187664D01*
X-280536Y191896D01*
Y179200D01*
X-522400Y181500D02*
Y194196D01*
X-518168Y189964D01*
X-513936Y194196D01*
Y181500D01*
X-496000Y183200D02*
Y195896D01*
X-491768Y191664D01*
X-487536Y195896D01*
Y183200D01*
X-139400Y39800D02*
Y52496D01*
X-135168Y48264D01*
X-130936Y52496D01*
Y39800D01*
X-143700D02*
Y52496D01*
X-139468Y48264D01*
X-135236Y52496D01*
Y39800D01*
X-152400D02*
Y52496D01*
X-148168Y48264D01*
X-143936Y52496D01*
Y39800D01*
X-135000D02*
Y52496D01*
X-130768Y48264D01*
X-126536Y52496D01*
Y39800D01*
X-130500D02*
Y52496D01*
X-126268Y48264D01*
X-122036Y52496D01*
Y39800D01*
X-148000Y39900D02*
Y52596D01*
X-143768Y48364D01*
X-139536Y52596D01*
Y39900D01*
X-156400Y44000D02*
Y56696D01*
X-152168Y52464D01*
X-147936Y56696D01*
Y44000D01*
X-147500D02*
Y56696D01*
X-143268Y52464D01*
X-139036Y56696D01*
Y44000D01*
X-152000Y44100D02*
Y56796D01*
X-147768Y52564D01*
X-143536Y56796D01*
Y44100D01*
X-142700D02*
Y56796D01*
X-138468Y52564D01*
X-134236Y56796D01*
Y44100D01*
X-133800D02*
Y56796D01*
X-129568Y52564D01*
X-125336Y56796D01*
Y44100D01*
X-138300Y44200D02*
Y56896D01*
X-134068Y52664D01*
X-129836Y56896D01*
Y44200D01*
X-158600Y47500D02*
Y60196D01*
X-154368Y55964D01*
X-150136Y60196D01*
Y47500D01*
X-149700D02*
Y60196D01*
X-145468Y55964D01*
X-141236Y60196D01*
Y47500D01*
X-144800Y47600D02*
Y60296D01*
X-140568Y56064D01*
X-136336Y60296D01*
Y47600D01*
X-154200D02*
Y60296D01*
X-149968Y56064D01*
X-145736Y60296D01*
Y47600D01*
X-135900D02*
Y60296D01*
X-131668Y56064D01*
X-127436Y60296D01*
Y47600D01*
X-140400Y47700D02*
Y60396D01*
X-136168Y56164D01*
X-131936Y60396D01*
Y47700D01*
X-159400Y51900D02*
Y64596D01*
X-155168Y60364D01*
X-150936Y64596D01*
Y51900D01*
X-150500D02*
Y64596D01*
X-146268Y60364D01*
X-142036Y64596D01*
Y51900D01*
X-146000D02*
Y64596D01*
X-141768Y60364D01*
X-137536Y64596D01*
Y51900D01*
X-141600Y52000D02*
Y64696D01*
X-137368Y60464D01*
X-133136Y64696D01*
Y52000D01*
X-155000D02*
Y64696D01*
X-150768Y60464D01*
X-146536Y64696D01*
Y52000D01*
X-63300Y39800D02*
Y52496D01*
X-59068Y48264D01*
X-54836Y52496D01*
Y39800D01*
X-73500Y39900D02*
Y52596D01*
X-69268Y48364D01*
X-65036Y52596D01*
Y39900D01*
X-68800D02*
Y52596D01*
X-64568Y48364D01*
X-60336Y52596D01*
Y39900D01*
X-77900Y40100D02*
Y52796D01*
X-73668Y48564D01*
X-69436Y52796D01*
Y40100D01*
X-82800Y40200D02*
Y52896D01*
X-78568Y48664D01*
X-74336Y52896D01*
Y40200D01*
X-63200Y43900D02*
Y56596D01*
X-58968Y52364D01*
X-54736Y56596D01*
Y43900D01*
X-73300Y44000D02*
Y56696D01*
X-69068Y52464D01*
X-64836Y56696D01*
Y44000D01*
X-68500Y44100D02*
Y56796D01*
X-64268Y52564D01*
X-60036Y56796D01*
Y44100D01*
X-77800Y44300D02*
Y56996D01*
X-73568Y52764D01*
X-69336Y56996D01*
Y44300D01*
X-82750Y44411D02*
Y57106D01*
X-78517Y52875D01*
X-74286Y57106D01*
Y44411D01*
X-73000Y48100D02*
Y60796D01*
X-68768Y56564D01*
X-64536Y60796D01*
Y48100D01*
X-63000Y48200D02*
Y60896D01*
X-58768Y56664D01*
X-54536Y60896D01*
Y48200D01*
X-68200Y48300D02*
Y60996D01*
X-63968Y56764D01*
X-59736Y60996D01*
Y48300D01*
X-77800Y48500D02*
Y61196D01*
X-73568Y56964D01*
X-69336Y61196D01*
Y48500D01*
X-82800Y48800D02*
Y61496D01*
X-78568Y57264D01*
X-74336Y61496D01*
Y48800D01*
X-62900Y52400D02*
Y65096D01*
X-58668Y60864D01*
X-54436Y65096D01*
Y52400D01*
X-72500Y52800D02*
Y65496D01*
X-68268Y61264D01*
X-64036Y65496D01*
Y52800D01*
X-77500Y53000D02*
Y65696D01*
X-73268Y61464D01*
X-69036Y65696D01*
Y53000D01*
X-67900Y53300D02*
Y65996D01*
X-63668Y61764D01*
X-59436Y65996D01*
Y53300D01*
X-89300Y58500D02*
Y71196D01*
X-85068Y66964D01*
X-80836Y71196D01*
Y58500D01*
X-132700Y60900D02*
Y73596D01*
X-128468Y69364D01*
X-124236Y73596D01*
Y60900D01*
X-121200Y66800D02*
Y79496D01*
X-116968Y75264D01*
X-112736Y79496D01*
Y66800D01*
X-155900Y68100D02*
Y80796D01*
X-151668Y76564D01*
X-147436Y80796D01*
Y68100D01*
X-138200Y68400D02*
Y81096D01*
X-133968Y76864D01*
X-129736Y81096D01*
Y68400D01*
X-142500D02*
Y81096D01*
X-138268Y76864D01*
X-134036Y81096D01*
Y68400D01*
X-151400D02*
Y81096D01*
X-147168Y76864D01*
X-142936Y81096D01*
Y68400D01*
X-146700D02*
Y81096D01*
X-142468Y76864D01*
X-138236Y81096D01*
Y68400D01*
X-114700Y68800D02*
Y81496D01*
X-110468Y77264D01*
X-106236Y81496D01*
Y68800D01*
X-127200Y69400D02*
Y82096D01*
X-122968Y77864D01*
X-118736Y82096D01*
Y69400D01*
X-120600Y70900D02*
Y83596D01*
X-116368Y79364D01*
X-112136Y83596D01*
Y70900D01*
X-118500Y74800D02*
Y87496D01*
X-114268Y83264D01*
X-110036Y87496D01*
Y74800D01*
X-100700Y113500D02*
Y126196D01*
X-96468Y121964D01*
X-92236Y126196D01*
Y113500D01*
X-114100Y113700D02*
Y126396D01*
X-109868Y122164D01*
X-105636Y126396D01*
Y113700D01*
X-120000Y122600D02*
Y135296D01*
X-115768Y131064D01*
X-111536Y135296D01*
Y122600D01*
X-95000Y122700D02*
Y135396D01*
X-90768Y131164D01*
X-86536Y135396D01*
Y122700D01*
X-107200Y123100D02*
Y135796D01*
X-102968Y131564D01*
X-98736Y135796D01*
Y123100D01*
X-113800Y130000D02*
Y142696D01*
X-109568Y138464D01*
X-105336Y142696D01*
Y130000D01*
X-100700Y130500D02*
Y143196D01*
X-96468Y138964D01*
X-92236Y143196D01*
Y130500D01*
X-97400Y158000D02*
Y170696D01*
X-93168Y166464D01*
X-88936Y170696D01*
Y158000D01*
X-127600Y162500D02*
Y175196D01*
X-123368Y170964D01*
X-119136Y175196D01*
Y162500D01*
X-126600Y166700D02*
Y179396D01*
X-122368Y175164D01*
X-118136Y179396D01*
Y166700D01*
X-279944Y173600D02*
Y186296D01*
X-275713Y182064D01*
X-271481Y186296D01*
Y173600D01*
X-261900D02*
Y186296D01*
X-257668Y182064D01*
X-253436Y186296D01*
Y173600D01*
X-257389D02*
Y186296D01*
X-253157Y182064D01*
X-248925Y186296D01*
Y173600D01*
X-266411D02*
Y186296D01*
X-262179Y182064D01*
X-257947Y186296D01*
Y173600D01*
X-270922D02*
Y186296D01*
X-266690Y182064D01*
X-262458Y186296D01*
Y173600D01*
X-275433D02*
Y186296D01*
X-271201Y182064D01*
X-266969Y186296D01*
Y173600D01*
X-231500Y181600D02*
Y194296D01*
X-227268Y190064D01*
X-223036Y194296D01*
Y181600D01*
X-232000Y185700D02*
Y198396D01*
X-227768Y194164D01*
X-223536Y198396D01*
Y185700D01*
X-227900Y188800D02*
Y201496D01*
X-223668Y197264D01*
X-219436Y201496D01*
Y188800D01*
X-232200Y191300D02*
Y203996D01*
X-227968Y199764D01*
X-223736Y203996D01*
Y191300D01*
X-6700Y61100D02*
Y73796D01*
X-2468Y69564D01*
X1764Y73796D01*
Y61100D01*
X-6700Y65300D02*
Y77996D01*
X-2468Y73764D01*
X1764Y77996D01*
Y65300D01*
X-94000Y68800D02*
Y81496D01*
X-89768Y77264D01*
X-85536Y81496D01*
Y68800D01*
X-91400Y72300D02*
Y84996D01*
X-87168Y80764D01*
X-82936Y84996D01*
Y72300D01*
X-72900Y75400D02*
Y88096D01*
X-68668Y83864D01*
X-64436Y88096D01*
Y75400D01*
X-88200Y76100D02*
Y88796D01*
X-83968Y84564D01*
X-79736Y88796D01*
Y76100D01*
X-73100Y80600D02*
Y93296D01*
X-68868Y89064D01*
X-64636Y93296D01*
Y80600D01*
X-73300Y85600D02*
Y98296D01*
X-69068Y94064D01*
X-64836Y98296D01*
Y85600D01*
X-87500Y85700D02*
Y98396D01*
X-83268Y94164D01*
X-79036Y98396D01*
Y85700D01*
X-87500Y137900D02*
Y150596D01*
X-83268Y146364D01*
X-79036Y150596D01*
Y137900D01*
X-90100Y165100D02*
Y177796D01*
X-85868Y173564D01*
X-81636Y177796D01*
Y165100D01*
X-79275Y178800D02*
Y191496D01*
X-75043Y187264D01*
X-70811Y191496D01*
Y178800D01*
X-74700D02*
Y191496D01*
X-70468Y187264D01*
X-66236Y191496D01*
Y178800D01*
X-70125D02*
Y191496D01*
X-65893Y187264D01*
X-61661Y191496D01*
Y178800D01*
X-65550D02*
Y191496D01*
X-61318Y187264D01*
X-57086Y191496D01*
Y178800D01*
X-60975D02*
Y191496D01*
X-56743Y187264D01*
X-52511Y191496D01*
Y178800D01*
X-56400D02*
Y191496D01*
X-52168Y187264D01*
X-47936Y191496D01*
Y178800D01*
X-51825D02*
Y191496D01*
X-47593Y187264D01*
X-43361Y191496D01*
Y178800D01*
X-79275Y183400D02*
Y196096D01*
X-75043Y191864D01*
X-70811Y196096D01*
Y183400D01*
X-74700D02*
Y196096D01*
X-70468Y191864D01*
X-66236Y196096D01*
Y183400D01*
X-70125D02*
Y196096D01*
X-65893Y191864D01*
X-61661Y196096D01*
Y183400D01*
X-65550D02*
Y196096D01*
X-61318Y191864D01*
X-57086Y196096D01*
Y183400D01*
X-60975D02*
Y196096D01*
X-56743Y191864D01*
X-52511Y196096D01*
Y183400D01*
X-51825D02*
Y196096D01*
X-47593Y191864D01*
X-43361Y196096D01*
Y183400D01*
X-56400D02*
Y196096D01*
X-52168Y191864D01*
X-47936Y196096D01*
Y183400D01*
X-79075Y188300D02*
Y200996D01*
X-74843Y196764D01*
X-70611Y200996D01*
Y188300D01*
X-74500D02*
Y200996D01*
X-70268Y196764D01*
X-66036Y200996D01*
Y188300D01*
X-69925D02*
Y200996D01*
X-65693Y196764D01*
X-61461Y200996D01*
Y188300D01*
X-65350D02*
Y200996D01*
X-61118Y196764D01*
X-56886Y200996D01*
Y188300D01*
X-60775D02*
Y200996D01*
X-56543Y196764D01*
X-52311Y200996D01*
Y188300D01*
X-56200D02*
Y200996D01*
X-51968Y196764D01*
X-47736Y200996D01*
Y188300D01*
X-51625D02*
Y200996D01*
X-47393Y196764D01*
X-43161Y200996D01*
Y188300D01*
X-938150Y212250D02*
Y224946D01*
X-933918Y220714D01*
X-929686Y224946D01*
Y212250D01*
X-936100Y242800D02*
Y255496D01*
X-931868Y251264D01*
X-927636Y255496D01*
Y242800D01*
X-936100Y288300D02*
Y300996D01*
X-931868Y296764D01*
X-927636Y300996D01*
Y288300D01*
X-935350Y261271D02*
Y273966D01*
X-931118Y269734D01*
X-926886Y273966D01*
Y261271D01*
X-928700Y288900D02*
Y301596D01*
X-924468Y297364D01*
X-920236Y301596D01*
Y288900D01*
X-922900D02*
Y301596D01*
X-918668Y297364D01*
X-914436Y301596D01*
Y288900D01*
X-908100Y212200D02*
Y224896D01*
X-903868Y220664D01*
X-899636Y224896D01*
Y212200D01*
X-907350Y261271D02*
Y273966D01*
X-903118Y269734D01*
X-898886Y273966D01*
Y261271D01*
X-905500Y243100D02*
Y255796D01*
X-901268Y251564D01*
X-897036Y255796D01*
Y243100D01*
X-885800Y275428D02*
Y288124D01*
X-881568Y283892D01*
X-877336Y288124D01*
Y275428D01*
X-871300Y275200D02*
Y287896D01*
X-867068Y283664D01*
X-862836Y287896D01*
Y275200D01*
X-866400Y275300D02*
Y287996D01*
X-862168Y283764D01*
X-857936Y287996D01*
Y275300D01*
X-846200Y212300D02*
Y224996D01*
X-841968Y220764D01*
X-837736Y224996D01*
Y212300D01*
X-837100Y197800D02*
Y210496D01*
X-832868Y206264D01*
X-828636Y210496D01*
Y197800D01*
X-831700Y193508D02*
Y206204D01*
X-827468Y201972D01*
X-823236Y206204D01*
Y193508D01*
X-829200Y244600D02*
Y257296D01*
X-824968Y253064D01*
X-820736Y257296D01*
Y244600D01*
X-827300Y198100D02*
Y210796D01*
X-823068Y206564D01*
X-818836Y210796D01*
Y198100D01*
X-810300Y198900D02*
Y211596D01*
X-806068Y207364D01*
X-801836Y211596D01*
Y198900D01*
X-809800Y211600D02*
Y224296D01*
X-805568Y220064D01*
X-801336Y224296D01*
Y211600D01*
X-805000Y207508D02*
Y220204D01*
X-800768Y215972D01*
X-796536Y220204D01*
Y207508D01*
X-805000Y202492D02*
Y215188D01*
X-800768Y210956D01*
X-796536Y215188D01*
Y202492D01*
X-800400Y198300D02*
Y210996D01*
X-796168Y206764D01*
X-791936Y210996D01*
Y198300D01*
X-799600Y212300D02*
Y224996D01*
X-795368Y220764D01*
X-791136Y224996D01*
Y212300D01*
X-799300Y226300D02*
Y238996D01*
X-795068Y234764D01*
X-790836Y238996D01*
Y226300D01*
X-795200Y221708D02*
Y234404D01*
X-790968Y230172D01*
X-786736Y234404D01*
Y221708D01*
X-795200Y216692D02*
Y229388D01*
X-790968Y225156D01*
X-786736Y229388D01*
Y216692D01*
X-791000Y226500D02*
Y239196D01*
X-786768Y234964D01*
X-782536Y239196D01*
Y226500D01*
X-790900Y212200D02*
Y224896D01*
X-786668Y220664D01*
X-782436Y224896D01*
Y212200D01*
X-784700Y244700D02*
Y257396D01*
X-780468Y253164D01*
X-776236Y257396D01*
Y244700D01*
X-737600Y245000D02*
Y257696D01*
X-733368Y253464D01*
X-729136Y257696D01*
Y245000D01*
X-720900Y260700D02*
Y273396D01*
X-716668Y269164D01*
X-712436Y273396D01*
Y260700D01*
X-709000Y275100D02*
Y287796D01*
X-704768Y283564D01*
X-700536Y287796D01*
Y275100D01*
X-951450Y332900D02*
Y345596D01*
X-947218Y341364D01*
X-942986Y345596D01*
Y332900D01*
X-951300Y358200D02*
Y370896D01*
X-947068Y366664D01*
X-942836Y370896D01*
Y358200D01*
X-944062Y333228D02*
Y345924D01*
X-939830Y341692D01*
X-935599Y345924D01*
Y333228D01*
X-942200Y358200D02*
Y370896D01*
X-937968Y366664D01*
X-933736Y370896D01*
Y358200D01*
X-937550Y333228D02*
Y345924D01*
X-933318Y341692D01*
X-929086Y345924D01*
Y333228D01*
X-936100Y294600D02*
Y307296D01*
X-931868Y303064D01*
X-927636Y307296D01*
Y294600D01*
X-936000Y302500D02*
Y315196D01*
X-931768Y310964D01*
X-927536Y315196D01*
Y302500D01*
X-930800Y302400D02*
Y315096D01*
X-926568Y310864D01*
X-922336Y315096D01*
Y302400D01*
X-928800Y294900D02*
Y307596D01*
X-924568Y303364D01*
X-920336Y307596D01*
Y294900D01*
X-923000Y302600D02*
Y315296D01*
X-918768Y311064D01*
X-914536Y315296D01*
Y302600D01*
X-922300Y295300D02*
Y307996D01*
X-918068Y303764D01*
X-913836Y307996D01*
Y295300D01*
X-919700Y333500D02*
Y346196D01*
X-915468Y341964D01*
X-911236Y346196D01*
Y333500D01*
X-919300Y379500D02*
Y392196D01*
X-915068Y387964D01*
X-910836Y392196D01*
Y379500D01*
X-919200Y384900D02*
Y397596D01*
X-914968Y393364D01*
X-910736Y397596D01*
Y384900D01*
X-914400Y379400D02*
Y392096D01*
X-910168Y387864D01*
X-905936Y392096D01*
Y379400D01*
X-914100Y385100D02*
Y397796D01*
X-909868Y393564D01*
X-905636Y397796D01*
Y385100D01*
X-913800Y361900D02*
Y374596D01*
X-909568Y370364D01*
X-905336Y374596D01*
Y361900D01*
X-911700Y393000D02*
Y405696D01*
X-907468Y401464D01*
X-903236Y405696D01*
Y393000D01*
X-902458Y386400D02*
Y399096D01*
X-898226Y394864D01*
X-893994Y399096D01*
Y386400D01*
X-897442D02*
Y399096D01*
X-893210Y394864D01*
X-888978Y399096D01*
Y386400D01*
X-889500Y379800D02*
Y392496D01*
X-885268Y388264D01*
X-881036Y392496D01*
Y379800D01*
X-888400Y393200D02*
Y405896D01*
X-884168Y401664D01*
X-879936Y405896D01*
Y393200D01*
X-818400Y292200D02*
Y304896D01*
X-814168Y300664D01*
X-809936Y304896D01*
Y292200D01*
X-748470Y300832D02*
Y313528D01*
X-744238Y309296D01*
X-740006Y313528D01*
Y300832D01*
X-748470Y305848D02*
Y318544D01*
X-744238Y314312D01*
X-740006Y318544D01*
Y305848D01*
X-721700Y348300D02*
Y360996D01*
X-717468Y356764D01*
X-713236Y360996D01*
Y348300D01*
X-716206Y348183D02*
Y360879D01*
X-711974Y356647D01*
X-707742Y360879D01*
Y348183D01*
X-705000Y348200D02*
Y360896D01*
X-700768Y356664D01*
X-696536Y360896D01*
Y348200D01*
X-700100Y292800D02*
Y305496D01*
X-695868Y301264D01*
X-691636Y305496D01*
Y292800D01*
X-689400Y347900D02*
Y360596D01*
X-685168Y356364D01*
X-680936Y360596D01*
Y347900D01*
X-671600Y201700D02*
Y214396D01*
X-667368Y210164D01*
X-663136Y214396D01*
Y201700D01*
X-666700Y347800D02*
Y360496D01*
X-662468Y356264D01*
X-658236Y360496D01*
Y347800D01*
X-666100Y201500D02*
Y214196D01*
X-661868Y209964D01*
X-657636Y214196D01*
Y201500D01*
X-665800Y207200D02*
Y219896D01*
X-661568Y215664D01*
X-657336Y219896D01*
Y207200D01*
X-651400Y347800D02*
Y360496D01*
X-647168Y356264D01*
X-642936Y360496D01*
Y347800D01*
X-638500Y293000D02*
Y305696D01*
X-634268Y301464D01*
X-630036Y305696D01*
Y293000D01*
X-636600Y347800D02*
Y360496D01*
X-632368Y356264D01*
X-628136Y360496D01*
Y347800D01*
X-631900Y292800D02*
Y305496D01*
X-627668Y301264D01*
X-623436Y305496D01*
Y292800D01*
X-626400D02*
Y305496D01*
X-622168Y301264D01*
X-617936Y305496D01*
Y292800D01*
X-621700Y296900D02*
Y309596D01*
X-617468Y305364D01*
X-613236Y309596D01*
Y296900D01*
X-621500Y288900D02*
Y301596D01*
X-617268Y297364D01*
X-613036Y301596D01*
Y288900D01*
X-616658Y292800D02*
Y305496D01*
X-612426Y301264D01*
X-608194Y305496D01*
Y292800D01*
X-611642D02*
Y305496D01*
X-607410Y301264D01*
X-603178Y305496D01*
Y292800D01*
X-606700Y296800D02*
Y309496D01*
X-602468Y305264D01*
X-598236Y309496D01*
Y296800D01*
X-606600Y289000D02*
Y301696D01*
X-602368Y297464D01*
X-598136Y301696D01*
Y289000D01*
X-601658Y292800D02*
Y305496D01*
X-597426Y301264D01*
X-593194Y305496D01*
Y292800D01*
X-601100Y345000D02*
Y357696D01*
X-596868Y353464D01*
X-592636Y357696D01*
Y345000D01*
X-596642Y292800D02*
Y305496D01*
X-592410Y301264D01*
X-588178Y305496D01*
Y292800D01*
X-591600Y296500D02*
Y309196D01*
X-587368Y304964D01*
X-583136Y309196D01*
Y296500D01*
X-591600Y289100D02*
Y301796D01*
X-587368Y297564D01*
X-583136Y301796D01*
Y289100D01*
X-586658Y292800D02*
Y305496D01*
X-582426Y301264D01*
X-578194Y305496D01*
Y292800D01*
X-585300Y344800D02*
Y357496D01*
X-581068Y353264D01*
X-576836Y357496D01*
Y344800D01*
X-581642Y292800D02*
Y305496D01*
X-577410Y301264D01*
X-573178Y305496D01*
Y292800D01*
X-575500Y292700D02*
Y305396D01*
X-571268Y301164D01*
X-567036Y305396D01*
Y292700D01*
X-561700Y341900D02*
Y354596D01*
X-557468Y350364D01*
X-553236Y354596D01*
Y341900D01*
X-555920Y346660D02*
Y359356D01*
X-551688Y355124D01*
X-547456Y359356D01*
Y346660D01*
X-546700Y341900D02*
Y354596D01*
X-542468Y350364D01*
X-538236Y354596D01*
Y341900D01*
X-531700D02*
Y354596D01*
X-527468Y350364D01*
X-523236Y354596D01*
Y341900D01*
X-516700D02*
Y354596D01*
X-512468Y350364D01*
X-508236Y354596D01*
Y341900D01*
X-512200Y294900D02*
Y307596D01*
X-507968Y303364D01*
X-503736Y307596D01*
Y294900D01*
X-501700Y341900D02*
Y354596D01*
X-497468Y350364D01*
X-493236Y354596D01*
Y341900D01*
X-486700D02*
Y354596D01*
X-482468Y350364D01*
X-478236Y354596D01*
Y341900D01*
X-681500Y347800D02*
Y360496D01*
X-677268Y356264D01*
X-673036Y360496D01*
Y347800D01*
X-661658Y373500D02*
Y386196D01*
X-657426Y381964D01*
X-653194Y386196D01*
Y373500D01*
X-656642D02*
Y386196D01*
X-652410Y381964D01*
X-648178Y386196D01*
Y373500D01*
X-651800Y386708D02*
Y399404D01*
X-647568Y395172D01*
X-643336Y399404D01*
Y386708D01*
X-651800Y381692D02*
Y394388D01*
X-647568Y390156D01*
X-643336Y394388D01*
Y381692D01*
X-646658Y391600D02*
Y404296D01*
X-642426Y400064D01*
X-638194Y404296D01*
Y391600D01*
X-641642D02*
Y404296D01*
X-637410Y400064D01*
X-633178Y404296D01*
Y391600D01*
X-624158Y363900D02*
Y376596D01*
X-619926Y372364D01*
X-615694Y376596D01*
Y363900D01*
X-621500Y347800D02*
Y360496D01*
X-617268Y356264D01*
X-613036Y360496D01*
Y347800D01*
X-619142Y363900D02*
Y376596D01*
X-614910Y372364D01*
X-610678Y376596D01*
Y363900D01*
X-614100Y392700D02*
Y405396D01*
X-609868Y401164D01*
X-605636Y405396D01*
Y392700D01*
X-614080Y368750D02*
Y381446D01*
X-609848Y377214D01*
X-605616Y381446D01*
Y368750D01*
X-609158Y363900D02*
Y376596D01*
X-604926Y372364D01*
X-600694Y376596D01*
Y363900D01*
X-604142D02*
Y376596D01*
X-599910Y372364D01*
X-595678Y376596D01*
Y363900D01*
X-599110Y368960D02*
Y381656D01*
X-594878Y377424D01*
X-590646Y381656D01*
Y368960D01*
X-599100Y392700D02*
Y405396D01*
X-594868Y401164D01*
X-590636Y405396D01*
Y392700D01*
X-594158Y363900D02*
Y376596D01*
X-589926Y372364D01*
X-585694Y376596D01*
Y363900D01*
X-589142D02*
Y376596D01*
X-584910Y372364D01*
X-580678Y376596D01*
Y363900D01*
X-584140Y369170D02*
Y381866D01*
X-579908Y377634D01*
X-575676Y381866D01*
Y369170D01*
X-584100Y392700D02*
Y405396D01*
X-579868Y401164D01*
X-575636Y405396D01*
Y392700D01*
X-579158Y363900D02*
Y376596D01*
X-574926Y372364D01*
X-570694Y376596D01*
Y363900D01*
X-574142D02*
Y376596D01*
X-569910Y372364D01*
X-565678Y376596D01*
Y363900D01*
X-569100Y392700D02*
Y405396D01*
X-564868Y401164D01*
X-560636Y405396D01*
Y392700D01*
X-568750Y369170D02*
Y381866D01*
X-564518Y377634D01*
X-560286Y381866D01*
Y369170D01*
X-555810Y353702D02*
Y366398D01*
X-551578Y362166D01*
X-547346Y366398D01*
Y353702D01*
X-555810Y358718D02*
Y371414D01*
X-551578Y367182D01*
X-547346Y371414D01*
Y358718D01*
X-555690Y364780D02*
Y377476D01*
X-551458Y373244D01*
X-547226Y377476D01*
Y364780D01*
X-554100Y392700D02*
Y405396D01*
X-549868Y401164D01*
X-545636Y405396D01*
Y392700D01*
X-539100D02*
Y405396D01*
X-534868Y401164D01*
X-530636Y405396D01*
Y392700D01*
X-496223Y391223D02*
Y403919D01*
X-491992Y399687D01*
X-487760Y403919D01*
Y391223D01*
X-492677Y387677D02*
Y400373D01*
X-488445Y396141D01*
X-484213Y400373D01*
Y387677D01*
X-487800Y383600D02*
Y396296D01*
X-483568Y392064D01*
X-479336Y396296D01*
Y383600D01*
X-952900Y488000D02*
Y500696D01*
X-948668Y496464D01*
X-944436Y500696D01*
Y488000D01*
X-951363Y820516D02*
Y833212D01*
X-947131Y828980D01*
X-942899Y833212D01*
Y820516D01*
X-944900Y700300D02*
Y712996D01*
X-940668Y708764D01*
X-936436Y712996D01*
Y700300D01*
X-931500Y505400D02*
Y518096D01*
X-927268Y513864D01*
X-923036Y518096D01*
Y505400D01*
X-912200Y781500D02*
Y794196D01*
X-907968Y789964D01*
X-903736Y794196D01*
Y781500D01*
X-903900Y505000D02*
Y517696D01*
X-899668Y513464D01*
X-895436Y517696D01*
Y505000D01*
X-892500Y627600D02*
Y640296D01*
X-888268Y636064D01*
X-884036Y640296D01*
Y627600D01*
X-887367Y621481D02*
Y634177D01*
X-883135Y629945D01*
X-878903Y634177D01*
Y621481D01*
X-875500Y505000D02*
Y517696D01*
X-871268Y513464D01*
X-867036Y517696D01*
Y505000D01*
X-863800Y702600D02*
Y715296D01*
X-859568Y711064D01*
X-855336Y715296D01*
Y702600D01*
X-863800Y745900D02*
Y758596D01*
X-859568Y754364D01*
X-855336Y758596D01*
Y745900D01*
X-847900Y505400D02*
Y518096D01*
X-843668Y513864D01*
X-839436Y518096D01*
Y505400D01*
X-844600Y796600D02*
Y809296D01*
X-840368Y805064D01*
X-836136Y809296D01*
Y796600D01*
X-834000Y817200D02*
Y829896D01*
X-829768Y825664D01*
X-825536Y829896D01*
Y817200D01*
X-831250Y813750D02*
Y826446D01*
X-827018Y822214D01*
X-822786Y826446D01*
Y813750D01*
X-829000Y820400D02*
Y833096D01*
X-824768Y828864D01*
X-820536Y833096D01*
Y820400D01*
X-823200Y504200D02*
Y516896D01*
X-818968Y512664D01*
X-814736Y516896D01*
Y504200D01*
X-821200Y820500D02*
Y833196D01*
X-816968Y828964D01*
X-812736Y833196D01*
Y820500D01*
X-816600Y446500D02*
Y459196D01*
X-812368Y454964D01*
X-808136Y459196D01*
Y446500D01*
X-811500Y486100D02*
Y498796D01*
X-807268Y494564D01*
X-803036Y498796D01*
Y486100D01*
X-806408Y446200D02*
Y458896D01*
X-802176Y454664D01*
X-797944Y458896D01*
Y446200D01*
X-804000Y815000D02*
Y827696D01*
X-799768Y823464D01*
X-795536Y827696D01*
Y815000D01*
X-801392Y446200D02*
Y458896D01*
X-797160Y454664D01*
X-792928Y458896D01*
Y446200D01*
X-791415Y743053D02*
Y755748D01*
X-787183Y751516D01*
X-782951Y755748D01*
Y743053D01*
X-790600Y446800D02*
Y459496D01*
X-786368Y455264D01*
X-782136Y459496D01*
Y446800D01*
X-784500Y744100D02*
Y756796D01*
X-780268Y752564D01*
X-776036Y756796D01*
Y744100D01*
X-899500Y840100D02*
Y852796D01*
X-895268Y848564D01*
X-891036Y852796D01*
Y840100D01*
X-899400Y845700D02*
Y858396D01*
X-895168Y854164D01*
X-890936Y858396D01*
Y845700D01*
X-897500Y823000D02*
Y835696D01*
X-893268Y831464D01*
X-889036Y835696D01*
Y823000D01*
X-896500Y830800D02*
Y843496D01*
X-892268Y839264D01*
X-888036Y843496D01*
Y830800D01*
X-849500Y822700D02*
Y835396D01*
X-845268Y831164D01*
X-841036Y835396D01*
Y822700D01*
X-839000Y820600D02*
Y833296D01*
X-834768Y829064D01*
X-830536Y833296D01*
Y820600D01*
X-834100Y850800D02*
Y863496D01*
X-829868Y859264D01*
X-825636Y863496D01*
Y850800D01*
X-834000Y842400D02*
Y855096D01*
X-829768Y850864D01*
X-825536Y855096D01*
Y842400D01*
X-834000Y823400D02*
Y836096D01*
X-829768Y831864D01*
X-825536Y836096D01*
Y823400D01*
X-829000Y846700D02*
Y859396D01*
X-824768Y855164D01*
X-820536Y859396D01*
Y846700D01*
X-820700Y845800D02*
Y858496D01*
X-816468Y854264D01*
X-812236Y858496D01*
Y845800D01*
X-804000Y825300D02*
Y837996D01*
X-799768Y833764D01*
X-795536Y837996D01*
Y825300D01*
X-804000Y841600D02*
Y854296D01*
X-799768Y850064D01*
X-795536Y854296D01*
Y841600D01*
X-803900Y846100D02*
Y858796D01*
X-799668Y854564D01*
X-795436Y858796D01*
Y846100D01*
X-772600Y541000D02*
Y553696D01*
X-768368Y549464D01*
X-764136Y553696D01*
Y541000D01*
X-768300Y545292D02*
Y557988D01*
X-764068Y553756D01*
X-759836Y557988D01*
Y545292D01*
X-768300Y550308D02*
Y563004D01*
X-764068Y558772D01*
X-759836Y563004D01*
Y550308D01*
X-763200Y542000D02*
Y554696D01*
X-758968Y550464D01*
X-754736Y554696D01*
Y542000D01*
X-744500Y486100D02*
Y498796D01*
X-740268Y494564D01*
X-736036Y498796D01*
Y486100D01*
X-744000Y477300D02*
Y489996D01*
X-739768Y485764D01*
X-735536Y489996D01*
Y477300D01*
X-732600Y445700D02*
Y458396D01*
X-728368Y454164D01*
X-724136Y458396D01*
Y445700D01*
X-729700Y452000D02*
Y464696D01*
X-725468Y460464D01*
X-721236Y464696D01*
Y452000D01*
X-711600Y435500D02*
Y448196D01*
X-707368Y443964D01*
X-703136Y448196D01*
Y435500D01*
X-710700Y427600D02*
Y440296D01*
X-706468Y436064D01*
X-702236Y440296D01*
Y427600D01*
X-689100Y398700D02*
Y411396D01*
X-684868Y407164D01*
X-680636Y411396D01*
Y398700D01*
X-674250Y426500D02*
Y439196D01*
X-670018Y434964D01*
X-665786Y439196D01*
Y426500D01*
X-659300Y426700D02*
Y439396D01*
X-655068Y435164D01*
X-650836Y439396D01*
Y426700D01*
X-644200Y420700D02*
Y433396D01*
X-639968Y429164D01*
X-635736Y433396D01*
Y420700D01*
X-639158Y425400D02*
Y438096D01*
X-634926Y433864D01*
X-630694Y438096D01*
Y425400D01*
X-634142D02*
Y438096D01*
X-629910Y433864D01*
X-625678Y438096D01*
Y425400D01*
X-629200Y420600D02*
Y433296D01*
X-624968Y429064D01*
X-620736Y433296D01*
Y420600D01*
X-601900Y479292D02*
Y491988D01*
X-597668Y487756D01*
X-593436Y491988D01*
Y479292D01*
X-601900Y484308D02*
Y497004D01*
X-597668Y492772D01*
X-593436Y497004D01*
Y484308D01*
X-601600Y473000D02*
Y485696D01*
X-597368Y481464D01*
X-593136Y485696D01*
Y473000D01*
X-601600Y490700D02*
Y503396D01*
X-597368Y499164D01*
X-593136Y503396D01*
Y490700D01*
X-598000Y425600D02*
Y438296D01*
X-593768Y434064D01*
X-589536Y438296D01*
Y425600D01*
X-589700Y431300D02*
Y443996D01*
X-585468Y439764D01*
X-581236Y443996D01*
Y431300D01*
X-569200Y423900D02*
Y436596D01*
X-564968Y432364D01*
X-560736Y436596D01*
Y423900D01*
X-524100Y395300D02*
Y407996D01*
X-519868Y403764D01*
X-515636Y407996D01*
Y395300D01*
X-517700Y464900D02*
Y477596D01*
X-513468Y473364D01*
X-509236Y477596D01*
Y464900D01*
X-517100Y454500D02*
Y467196D01*
X-512868Y462964D01*
X-508636Y467196D01*
Y454500D01*
X-516800Y444000D02*
Y456696D01*
X-512568Y452464D01*
X-508336Y456696D01*
Y444000D01*
X-509100Y395300D02*
Y407996D01*
X-504868Y403764D01*
X-500636Y407996D01*
Y395300D01*
X-494200Y398400D02*
Y411096D01*
X-489968Y406864D01*
X-485736Y411096D01*
Y398400D01*
X-492523Y427877D02*
Y440572D01*
X-488292Y436340D01*
X-484059Y440572D01*
Y427877D01*
X-488977Y431423D02*
Y444119D01*
X-484745Y439887D01*
X-480513Y444119D01*
Y431423D01*
X-776300Y814800D02*
Y827496D01*
X-772068Y823264D01*
X-767836Y827496D01*
Y814800D01*
X-772700Y863800D02*
Y876496D01*
X-768468Y872264D01*
X-764236Y876496D01*
Y863800D01*
X-772400Y825700D02*
Y838396D01*
X-768168Y834164D01*
X-763936Y838396D01*
Y825700D01*
X-772300Y857600D02*
Y870296D01*
X-768068Y866064D01*
X-763836Y870296D01*
Y857600D01*
X-772000Y571400D02*
Y584096D01*
X-767768Y579864D01*
X-763536Y584096D01*
Y571400D01*
X-771300Y555700D02*
Y568396D01*
X-767068Y564164D01*
X-762836Y568396D01*
Y555700D01*
X-769600Y751000D02*
Y763696D01*
X-765368Y759464D01*
X-761136Y763696D01*
Y751000D01*
X-768400Y561092D02*
Y573788D01*
X-764168Y569556D01*
X-759936Y573788D01*
Y561092D01*
X-768400Y566108D02*
Y578804D01*
X-764168Y574572D01*
X-759936Y578804D01*
Y566108D01*
X-768200Y611800D02*
Y624496D01*
X-763968Y620264D01*
X-759736Y624496D01*
Y611800D01*
X-764900Y555900D02*
Y568596D01*
X-760668Y564364D01*
X-756436Y568596D01*
Y555900D01*
X-764600Y571300D02*
Y583996D01*
X-760368Y579764D01*
X-756136Y583996D01*
Y571300D01*
X-733000Y826400D02*
Y839096D01*
X-728768Y834864D01*
X-724536Y839096D01*
Y826400D01*
X-731800Y855700D02*
Y868396D01*
X-727568Y864164D01*
X-723336Y868396D01*
Y855700D01*
X-731400Y864600D02*
Y877296D01*
X-727168Y873064D01*
X-722936Y877296D01*
Y864600D01*
X-731400Y860400D02*
Y873096D01*
X-727168Y868864D01*
X-722936Y873096D01*
Y860400D01*
X-718000Y750300D02*
Y762996D01*
X-713768Y758764D01*
X-709536Y762996D01*
Y750300D01*
X-714000Y718700D02*
Y731396D01*
X-709768Y727164D01*
X-705536Y731396D01*
Y718700D01*
X-699500Y750300D02*
Y762996D01*
X-695268Y758764D01*
X-691036Y762996D01*
Y750300D01*
X-671600Y611300D02*
Y623996D01*
X-667368Y619764D01*
X-663136Y623996D01*
Y611300D01*
X-646300Y766300D02*
Y778996D01*
X-642068Y774764D01*
X-637836Y778996D01*
Y766300D01*
X-628500Y761500D02*
Y774196D01*
X-624268Y769964D01*
X-620036Y774196D01*
Y761500D01*
X-628400Y724800D02*
Y737496D01*
X-624168Y733264D01*
X-619936Y737496D01*
Y724800D01*
X-602100Y623100D02*
Y635796D01*
X-597868Y631564D01*
X-593636Y635796D01*
Y623100D01*
X-601500Y746100D02*
Y758796D01*
X-597268Y754564D01*
X-593036Y758796D01*
Y746100D01*
X-600100Y760100D02*
Y772796D01*
X-595868Y768564D01*
X-591636Y772796D01*
Y760100D01*
X-590800Y766600D02*
Y779296D01*
X-586568Y775064D01*
X-582336Y779296D01*
Y766600D01*
X-580500Y773500D02*
Y786196D01*
X-576268Y781964D01*
X-572036Y786196D01*
Y773500D01*
X-572000Y615700D02*
Y628396D01*
X-567768Y624164D01*
X-563536Y628396D01*
Y615700D01*
X-283900Y205200D02*
Y217896D01*
X-279668Y213664D01*
X-275436Y217896D01*
Y205200D01*
X-346660Y202434D02*
Y215130D01*
X-342428Y210898D01*
X-338196Y215130D01*
Y202434D01*
X-337260D02*
Y215130D01*
X-333028Y210898D01*
X-328796Y215130D01*
Y202434D01*
X-341860D02*
Y215130D01*
X-337628Y210898D01*
X-333396Y215130D01*
Y202434D01*
X-283900Y200500D02*
Y213196D01*
X-279668Y208964D01*
X-275436Y213196D01*
Y200500D01*
X-279500Y205300D02*
Y217996D01*
X-275268Y213764D01*
X-271036Y217996D01*
Y205300D01*
X-288900Y205200D02*
Y217896D01*
X-284668Y213664D01*
X-280436Y217896D01*
Y205200D01*
X-361860Y202434D02*
Y215130D01*
X-357628Y210898D01*
X-353396Y215130D01*
Y202434D01*
X-275100Y205300D02*
Y217996D01*
X-270868Y213764D01*
X-266636Y217996D01*
Y205300D01*
X-288900Y200600D02*
Y213296D01*
X-284668Y209064D01*
X-280436Y213296D01*
Y200600D01*
X-283800Y195900D02*
Y208596D01*
X-279568Y204364D01*
X-275336Y208596D01*
Y195900D01*
X-351660Y202434D02*
Y215130D01*
X-347428Y210898D01*
X-343196Y215130D01*
Y202434D01*
X-289000Y195900D02*
Y208596D01*
X-284768Y204364D01*
X-280536Y208596D01*
Y195900D01*
X-357260Y202434D02*
Y215130D01*
X-353028Y210898D01*
X-348796Y215130D01*
Y202434D01*
X-270600Y205300D02*
Y217996D01*
X-266368Y213764D01*
X-262136Y217996D01*
Y205300D01*
X-366660Y207291D02*
Y219987D01*
X-362428Y215755D01*
X-358196Y219987D01*
Y207291D01*
X-366660Y212348D02*
Y225044D01*
X-362428Y220812D01*
X-358196Y225044D01*
Y212348D01*
X-366660Y217206D02*
Y229902D01*
X-362428Y225670D01*
X-358196Y229902D01*
Y217206D01*
X-366660Y222063D02*
Y234759D01*
X-362428Y230527D01*
X-358196Y234759D01*
Y222063D01*
X-361860Y207291D02*
Y219987D01*
X-357628Y215755D01*
X-353396Y219987D01*
Y207291D01*
X-361860Y217206D02*
Y229902D01*
X-357628Y225670D01*
X-353396Y229902D01*
Y217206D01*
X-361860Y212348D02*
Y225044D01*
X-357628Y220812D01*
X-353396Y225044D01*
Y212348D01*
X-361760Y221863D02*
Y234559D01*
X-357528Y230327D01*
X-353296Y234559D01*
Y221863D01*
X-357260Y207291D02*
Y219987D01*
X-353028Y215755D01*
X-348796Y219987D01*
Y207291D01*
X-357260Y212348D02*
Y225044D01*
X-353028Y220812D01*
X-348796Y225044D01*
Y212348D01*
X-357260Y217206D02*
Y229902D01*
X-353028Y225670D01*
X-348796Y229902D01*
Y217206D01*
X-357260Y221863D02*
Y234559D01*
X-353028Y230327D01*
X-348796Y234559D01*
Y221863D01*
X-351660Y207291D02*
Y219987D01*
X-347428Y215755D01*
X-343196Y219987D01*
Y207291D01*
X-351660Y222120D02*
Y234816D01*
X-347428Y230584D01*
X-343196Y234816D01*
Y222120D01*
X-351660Y212348D02*
Y225044D01*
X-347428Y220812D01*
X-343196Y225044D01*
Y212348D01*
X-351660Y217206D02*
Y229902D01*
X-347428Y225670D01*
X-343196Y229902D01*
Y217206D01*
X-346660Y207291D02*
Y219987D01*
X-342428Y215755D01*
X-338196Y219987D01*
Y207291D01*
X-346660Y222063D02*
Y234759D01*
X-342428Y230527D01*
X-338196Y234759D01*
Y222063D01*
X-346660Y217206D02*
Y229902D01*
X-342428Y225670D01*
X-338196Y229902D01*
Y217206D01*
X-346660Y212348D02*
Y225044D01*
X-342428Y220812D01*
X-338196Y225044D01*
Y212348D01*
X-341860Y207291D02*
Y219987D01*
X-337628Y215755D01*
X-333396Y219987D01*
Y207291D01*
X-341860Y212348D02*
Y225044D01*
X-337628Y220812D01*
X-333396Y225044D01*
Y212348D01*
X-341860Y221863D02*
Y234559D01*
X-337628Y230327D01*
X-333396Y234559D01*
Y221863D01*
X-341860Y217206D02*
Y229902D01*
X-337628Y225670D01*
X-333396Y229902D01*
Y217206D01*
X-337260Y207291D02*
Y219987D01*
X-333028Y215755D01*
X-328796Y219987D01*
Y207291D01*
X-337260Y217206D02*
Y229902D01*
X-333028Y225670D01*
X-328796Y229902D01*
Y217206D01*
X-337260Y221863D02*
Y234559D01*
X-333028Y230327D01*
X-328796Y234559D01*
Y221863D01*
X-337260Y212348D02*
Y225044D01*
X-333028Y220812D01*
X-328796Y225044D01*
Y212348D01*
X-288900Y209700D02*
Y222396D01*
X-284668Y218164D01*
X-280436Y222396D01*
Y209700D01*
X-283800Y209800D02*
Y222496D01*
X-279568Y218264D01*
X-275336Y222496D01*
Y209800D01*
X-279700Y209600D02*
Y222296D01*
X-275468Y218064D01*
X-271236Y222296D01*
Y209600D01*
X-275400D02*
Y222296D01*
X-271168Y218064D01*
X-266936Y222296D01*
Y209600D01*
X-271000D02*
Y222296D01*
X-266768Y218064D01*
X-262536Y222296D01*
Y209600D01*
X-266600Y209700D02*
Y222396D01*
X-262368Y218164D01*
X-258136Y222396D01*
Y209700D01*
X-266500Y205000D02*
Y217696D01*
X-262268Y213464D01*
X-258036Y217696D01*
Y205000D01*
X-262300Y209500D02*
Y222196D01*
X-258068Y217964D01*
X-253836Y222196D01*
Y209500D01*
X-262300Y205200D02*
Y217896D01*
X-258068Y213664D01*
X-253836Y217896D01*
Y205200D01*
X-258200Y209600D02*
Y222296D01*
X-253968Y218064D01*
X-249736Y222296D01*
Y209600D01*
X-257800Y205200D02*
Y217896D01*
X-253568Y213664D01*
X-249336Y217896D01*
Y205200D01*
X-243800Y210600D02*
Y223296D01*
X-239568Y219064D01*
X-235336Y223296D01*
Y210600D01*
X-178400Y221800D02*
Y234496D01*
X-174168Y230264D01*
X-169936Y234496D01*
Y221800D01*
X-178400Y217700D02*
Y230396D01*
X-174168Y226164D01*
X-169936Y230396D01*
Y217700D01*
X-173850D02*
Y230396D01*
X-169618Y226164D01*
X-165386Y230396D01*
Y217700D01*
X-173850Y221800D02*
Y234496D01*
X-169618Y230264D01*
X-165386Y234496D01*
Y221800D01*
X-169300D02*
Y234496D01*
X-165068Y230264D01*
X-160836Y234496D01*
Y221800D01*
X-169300Y217700D02*
Y230396D01*
X-165068Y226164D01*
X-160836Y230396D01*
Y217700D01*
X-169300Y226400D02*
Y239096D01*
X-165068Y234864D01*
X-160836Y239096D01*
Y226400D01*
X-164750Y221800D02*
Y234496D01*
X-160518Y230264D01*
X-156286Y234496D01*
Y221800D01*
X-164750Y217700D02*
Y230396D01*
X-160518Y226164D01*
X-156286Y230396D01*
Y217700D01*
X-160200D02*
Y230396D01*
X-155968Y226164D01*
X-151736Y230396D01*
Y217700D01*
X-160200Y221800D02*
Y234496D01*
X-155968Y230264D01*
X-151736Y234496D01*
Y221800D01*
X-79150Y198700D02*
Y211396D01*
X-74918Y207164D01*
X-70686Y211396D01*
Y198700D01*
X-79075Y193500D02*
Y206196D01*
X-74843Y201964D01*
X-70611Y206196D01*
Y193500D01*
X-74575Y198700D02*
Y211396D01*
X-70343Y207164D01*
X-66111Y211396D01*
Y198700D01*
X-74500Y193500D02*
Y206196D01*
X-70268Y201964D01*
X-66036Y206196D01*
Y193500D01*
X-70000Y198700D02*
Y211396D01*
X-65768Y207164D01*
X-61536Y211396D01*
Y198700D01*
X-69925Y193500D02*
Y206196D01*
X-65693Y201964D01*
X-61461Y206196D01*
Y193500D01*
X-65425Y198700D02*
Y211396D01*
X-61193Y207164D01*
X-56961Y211396D01*
Y198700D01*
X-65350Y193500D02*
Y206196D01*
X-61118Y201964D01*
X-56886Y206196D01*
Y193500D01*
X-60850Y198700D02*
Y211396D01*
X-56618Y207164D01*
X-52386Y211396D01*
Y198700D01*
X-60775Y193500D02*
Y206196D01*
X-56543Y201964D01*
X-52311Y206196D01*
Y193500D01*
X-56275Y198700D02*
Y211396D01*
X-52043Y207164D01*
X-47811Y211396D01*
Y198700D01*
X-56200Y193500D02*
Y206196D01*
X-51968Y201964D01*
X-47736Y206196D01*
Y193500D01*
X-51700Y198700D02*
Y211396D01*
X-47468Y207164D01*
X-43236Y211396D01*
Y198700D01*
X-51625Y193500D02*
Y206196D01*
X-47393Y201964D01*
X-43161Y206196D01*
Y193500D01*
X-214700Y228000D02*
Y240696D01*
X-210468Y236464D01*
X-206236Y240696D01*
Y228000D01*
X-178400Y226400D02*
Y239096D01*
X-174168Y234864D01*
X-169936Y239096D01*
Y226400D01*
X-178400Y230600D02*
Y243296D01*
X-174168Y239064D01*
X-169936Y243296D01*
Y230600D01*
X-173850Y226400D02*
Y239096D01*
X-169618Y234864D01*
X-165386Y239096D01*
Y226400D01*
X-173850Y230600D02*
Y243296D01*
X-169618Y239064D01*
X-165386Y243296D01*
Y230600D01*
X-169300D02*
Y243296D01*
X-165068Y239064D01*
X-160836Y243296D01*
Y230600D01*
X-164750Y226400D02*
Y239096D01*
X-160518Y234864D01*
X-156286Y239096D01*
Y226400D01*
X-164750Y230600D02*
Y243296D01*
X-160518Y239064D01*
X-156286Y243296D01*
Y230600D01*
X-160200Y226400D02*
Y239096D01*
X-155968Y234864D01*
X-151736Y239096D01*
Y226400D01*
X-160200Y230600D02*
Y243296D01*
X-155968Y239064D01*
X-151736Y243296D01*
Y230600D01*
X-127800Y253300D02*
Y265996D01*
X-123568Y261764D01*
X-119336Y265996D01*
Y253300D01*
X-127700Y257600D02*
Y270296D01*
X-123468Y266064D01*
X-119236Y270296D01*
Y257600D01*
X-127700Y249100D02*
Y261796D01*
X-123468Y257564D01*
X-119236Y261796D01*
Y249100D01*
X-123000Y257400D02*
Y270096D01*
X-118768Y265864D01*
X-114536Y270096D01*
Y257400D01*
X-122800Y253200D02*
Y265896D01*
X-118568Y261664D01*
X-114336Y265896D01*
Y253200D01*
X-122700Y249200D02*
Y261896D01*
X-118468Y257664D01*
X-114236Y261896D01*
Y249200D01*
X-118500Y261600D02*
Y274296D01*
X-114268Y270064D01*
X-110036Y274296D01*
Y261600D01*
X-118400Y257500D02*
Y270196D01*
X-114168Y265964D01*
X-109936Y270196D01*
Y257500D01*
X-118400Y253400D02*
Y266096D01*
X-114168Y261864D01*
X-109936Y266096D01*
Y253400D01*
X-118200Y249200D02*
Y261896D01*
X-113968Y257664D01*
X-109736Y261896D01*
Y249200D01*
X-112700Y250900D02*
Y263596D01*
X-108468Y259364D01*
X-104236Y263596D01*
Y250900D01*
X-108100D02*
Y263596D01*
X-103868Y259364D01*
X-99636Y263596D01*
Y250900D01*
X-104000Y251100D02*
Y263796D01*
X-99768Y259564D01*
X-95536Y263796D01*
Y251100D01*
X-98900Y251300D02*
Y263996D01*
X-94668Y259764D01*
X-90436Y263996D01*
Y251300D01*
X-94800Y251000D02*
Y263696D01*
X-90568Y259464D01*
X-86336Y263696D01*
Y251000D01*
X-90700Y251200D02*
Y263896D01*
X-86468Y259664D01*
X-82236Y263896D01*
Y251200D01*
X-86300Y251000D02*
Y263696D01*
X-82068Y259464D01*
X-77836Y263696D01*
Y251000D01*
X-41800Y255300D02*
Y267996D01*
X-37568Y263764D01*
X-33336Y267996D01*
Y255300D01*
X-41100Y260500D02*
Y273196D01*
X-36868Y268964D01*
X-32636Y273196D01*
Y260500D01*
X-37700Y257900D02*
Y270596D01*
X-33468Y266364D01*
X-29236Y270596D01*
Y257900D01*
X-34000Y243200D02*
Y255896D01*
X-29768Y251664D01*
X-25536Y255896D01*
Y243200D01*
X-30500Y254100D02*
Y266796D01*
X-26268Y262564D01*
X-22036Y266796D01*
Y254100D01*
X-306200Y308100D02*
Y320796D01*
X-301968Y316564D01*
X-297736Y320796D01*
Y308100D01*
X-269400D02*
Y320796D01*
X-265168Y316564D01*
X-260936Y320796D01*
Y308100D01*
X-456700Y314800D02*
Y327496D01*
X-452468Y323264D01*
X-448236Y327496D01*
Y314800D01*
X-471800Y340400D02*
Y353096D01*
X-467568Y348864D01*
X-463336Y353096D01*
Y340400D01*
X-386700Y341900D02*
Y354596D01*
X-382468Y350364D01*
X-378236Y354596D01*
Y341900D01*
X-251700D02*
Y354596D01*
X-247468Y350364D01*
X-243236Y354596D01*
Y341900D01*
X-441700D02*
Y354596D01*
X-437468Y350364D01*
X-433236Y354596D01*
Y341900D01*
X-286700D02*
Y354596D01*
X-282468Y350364D01*
X-278236Y354596D01*
Y341900D01*
X-466700Y345700D02*
Y358396D01*
X-462468Y354164D01*
X-458236Y358396D01*
Y345700D01*
X-320100Y347300D02*
Y359996D01*
X-315868Y355764D01*
X-311636Y359996D01*
Y347300D01*
X-464800Y358692D02*
Y371388D01*
X-460568Y367156D01*
X-456336Y371388D01*
Y358692D01*
X-458800Y361300D02*
Y373996D01*
X-454568Y369764D01*
X-450336Y373996D01*
Y361300D01*
X-464800Y363708D02*
Y376404D01*
X-460568Y372172D01*
X-456336Y376404D01*
Y363708D01*
X-464200Y370200D02*
Y382896D01*
X-459968Y378664D01*
X-455736Y382896D01*
Y370200D01*
X-436700Y373600D02*
Y386296D01*
X-432468Y382064D01*
X-428236Y386296D01*
Y373600D01*
X-396700Y377200D02*
Y389896D01*
X-392468Y385664D01*
X-388236Y389896D01*
Y377200D01*
X-485200Y436400D02*
Y449096D01*
X-480968Y444864D01*
X-476736Y449096D01*
Y436400D01*
X-467700Y714200D02*
Y726896D01*
X-463468Y722664D01*
X-459236Y726896D01*
Y714200D01*
X-463600Y428000D02*
Y440696D01*
X-459368Y436464D01*
X-455136Y440696D01*
Y428000D01*
X-455100Y427600D02*
Y440296D01*
X-450868Y436064D01*
X-446636Y440296D01*
Y427600D01*
X-449200Y423900D02*
Y436596D01*
X-444968Y432364D01*
X-440736Y436596D01*
Y423900D01*
X-449100Y395300D02*
Y407996D01*
X-444868Y403764D01*
X-440636Y407996D01*
Y395300D01*
X-447200Y427600D02*
Y440296D01*
X-442968Y436064D01*
X-438736Y440296D01*
Y427600D01*
X-428200Y393000D02*
Y405696D01*
X-423968Y401464D01*
X-419736Y405696D01*
Y393000D01*
X-419200Y428700D02*
Y441396D01*
X-414968Y437164D01*
X-410736Y441396D01*
Y428700D01*
X-419100Y712800D02*
Y725496D01*
X-414868Y721264D01*
X-410636Y725496D01*
Y712800D01*
X-413900Y630700D02*
Y643396D01*
X-409668Y639164D01*
X-405436Y643396D01*
Y630700D01*
X-408400Y446900D02*
Y459596D01*
X-404168Y455364D01*
X-399936Y459596D01*
Y446900D01*
X-407600Y428000D02*
Y440696D01*
X-403368Y436464D01*
X-399136Y440696D01*
Y428000D01*
X-403600Y620400D02*
Y633096D01*
X-399368Y628864D01*
X-395136Y633096D01*
Y620400D01*
X-401600Y428000D02*
Y440696D01*
X-397368Y436464D01*
X-393136Y440696D01*
Y428000D01*
X-395100Y428300D02*
Y440996D01*
X-390868Y436764D01*
X-386636Y440996D01*
Y428300D01*
X-393900Y388800D02*
Y401496D01*
X-389668Y397264D01*
X-385436Y401496D01*
Y388800D01*
X-389000Y428200D02*
Y440896D01*
X-384768Y436664D01*
X-380536Y440896D01*
Y428200D01*
X-388000Y604800D02*
Y617496D01*
X-383768Y613264D01*
X-379536Y617496D01*
Y604800D01*
X-384100Y395300D02*
Y407996D01*
X-379868Y403764D01*
X-375636Y407996D01*
Y395300D01*
X-366300Y713700D02*
Y726396D01*
X-362068Y722164D01*
X-357836Y726396D01*
Y713700D01*
X-325300Y674100D02*
Y686796D01*
X-321068Y682564D01*
X-316836Y686796D01*
Y674100D01*
X-310200Y649600D02*
Y662296D01*
X-305968Y658064D01*
X-301736Y662296D01*
Y649600D01*
X-309200Y423900D02*
Y436596D01*
X-304968Y432364D01*
X-300736Y436596D01*
Y423900D01*
X-309100Y395300D02*
Y407996D01*
X-304868Y403764D01*
X-300636Y407996D01*
Y395300D01*
X-288100Y606200D02*
Y618896D01*
X-283868Y614664D01*
X-279636Y618896D01*
Y606200D01*
X-279200Y423900D02*
Y436596D01*
X-274968Y432364D01*
X-270736Y436596D01*
Y423900D01*
X-279100Y395300D02*
Y407996D01*
X-274868Y403764D01*
X-270636Y407996D01*
Y395300D01*
X-278500Y463800D02*
Y476496D01*
X-274268Y472264D01*
X-270036Y476496D01*
Y463800D01*
X-258830Y446720D02*
Y459416D01*
X-254598Y455184D01*
X-250366Y459416D01*
Y446720D01*
X-249200Y423900D02*
Y436596D01*
X-244968Y432364D01*
X-240736Y436596D01*
Y423900D01*
X-249100Y395300D02*
Y407996D01*
X-244868Y403764D01*
X-240636Y407996D01*
Y395300D01*
X-246830Y350110D02*
Y362806D01*
X-242598Y358574D01*
X-238366Y362806D01*
Y350110D01*
X-237660Y298710D02*
Y311406D01*
X-233428Y307174D01*
X-229196Y311406D01*
Y298710D01*
X-232200Y393300D02*
Y405996D01*
X-227968Y401764D01*
X-223736Y405996D01*
Y393300D01*
X-229800Y341900D02*
Y354596D01*
X-225568Y350364D01*
X-221336Y354596D01*
Y341900D01*
X-227480Y353450D02*
Y366146D01*
X-223248Y361914D01*
X-219016Y366146D01*
Y353450D01*
X-219100Y395300D02*
Y407996D01*
X-214868Y403764D01*
X-210636Y407996D01*
Y395300D01*
X-216700Y341900D02*
Y354596D01*
X-212468Y350364D01*
X-208236Y354596D01*
Y341900D01*
X-204100Y395300D02*
Y407996D01*
X-199868Y403764D01*
X-195636Y407996D01*
Y395300D01*
X-201700Y341900D02*
Y354596D01*
X-197468Y350364D01*
X-193236Y354596D01*
Y341900D01*
X-151700Y342800D02*
Y355496D01*
X-147468Y351264D01*
X-143236Y355496D01*
Y342800D01*
X-144100Y395300D02*
Y407996D01*
X-139868Y403764D01*
X-135636Y407996D01*
Y395300D01*
X-141700Y341900D02*
Y354596D01*
X-137468Y350364D01*
X-133236Y354596D01*
Y341900D01*
X-129100Y395300D02*
Y407996D01*
X-124868Y403764D01*
X-120636Y407996D01*
Y395300D01*
X-127500Y261600D02*
Y274296D01*
X-123268Y270064D01*
X-119036Y274296D01*
Y261600D01*
X-126700Y341900D02*
Y354596D01*
X-122468Y350364D01*
X-118236Y354596D01*
Y341900D01*
X-123100Y261700D02*
Y274396D01*
X-118868Y270164D01*
X-114636Y274396D01*
Y261700D01*
X-114100Y395300D02*
Y407996D01*
X-109868Y403764D01*
X-105636Y407996D01*
Y395300D01*
X-111700Y341900D02*
Y354596D01*
X-107468Y350364D01*
X-103236Y354596D01*
Y341900D01*
X-99100Y395300D02*
Y407996D01*
X-94868Y403764D01*
X-90636Y407996D01*
Y395300D01*
X-96700Y341900D02*
Y354596D01*
X-92468Y350364D01*
X-88236Y354596D01*
Y341900D01*
X-84100Y395300D02*
Y407996D01*
X-79868Y403764D01*
X-75636Y407996D01*
Y395300D01*
X-81700Y341900D02*
Y354596D01*
X-77468Y350364D01*
X-73236Y354596D01*
Y341900D01*
X-75400Y287300D02*
Y299996D01*
X-71168Y295764D01*
X-66936Y299996D01*
Y287300D01*
X-63900Y279300D02*
Y291996D01*
X-59668Y287764D01*
X-55436Y291996D01*
Y279300D01*
X-63900Y274900D02*
Y287596D01*
X-59668Y283364D01*
X-55436Y287596D01*
Y274900D01*
X-63700Y270100D02*
Y282796D01*
X-59468Y278564D01*
X-55236Y282796D01*
Y270100D01*
X-63700Y264800D02*
Y277496D01*
X-59468Y273264D01*
X-55236Y277496D01*
Y264800D01*
X-21700Y287200D02*
Y299896D01*
X-17468Y295664D01*
X-13236Y299896D01*
Y287200D01*
X-20800Y266700D02*
Y279396D01*
X-16568Y275164D01*
X-12336Y279396D01*
Y266700D01*
X-20800Y270800D02*
Y283496D01*
X-16568Y279264D01*
X-12336Y283496D01*
Y270800D01*
X-20600Y262400D02*
Y275096D01*
X-16368Y270864D01*
X-12136Y275096D01*
Y262400D01*
X-227480Y435870D02*
Y448566D01*
X-223248Y444334D01*
X-219016Y448566D01*
Y435870D01*
X-223900Y645800D02*
Y658496D01*
X-219668Y654264D01*
X-215436Y658496D01*
Y645800D01*
X-222500Y609000D02*
Y621696D01*
X-218268Y617464D01*
X-214036Y621696D01*
Y609000D01*
X-222100Y590700D02*
Y603396D01*
X-217868Y599164D01*
X-213636Y603396D01*
Y590700D01*
X-219200Y423900D02*
Y436596D01*
X-214968Y432364D01*
X-210736Y436596D01*
Y423900D01*
X-204200D02*
Y436596D01*
X-199968Y432364D01*
X-195736Y436596D01*
Y423900D01*
X-159200D02*
Y436596D01*
X-154968Y432364D01*
X-150736Y436596D01*
Y423900D01*
X-152100Y645200D02*
Y657896D01*
X-147868Y653664D01*
X-143636Y657896D01*
Y645200D01*
X-150700Y594800D02*
Y607496D01*
X-146468Y603264D01*
X-142236Y607496D01*
Y594800D01*
X-150700Y615500D02*
Y628196D01*
X-146468Y623964D01*
X-142236Y628196D01*
Y615500D01*
X-144200Y423900D02*
Y436596D01*
X-139968Y432364D01*
X-135736Y436596D01*
Y423900D01*
X-129500Y469800D02*
Y482496D01*
X-125268Y478264D01*
X-121036Y482496D01*
Y469800D01*
X-129100Y423907D02*
Y436603D01*
X-124868Y432371D01*
X-120636Y436603D01*
Y423907D01*
X-114200Y423900D02*
Y436596D01*
X-109968Y432364D01*
X-105736Y436596D01*
Y423900D01*
X-99200D02*
Y436596D01*
X-94968Y432364D01*
X-90736Y436596D01*
Y423900D01*
X-84200D02*
Y436596D01*
X-79968Y432364D01*
X-75736Y436596D01*
Y423900D01*
M02*
