G04*
G04 #@! TF.GenerationSoftware,Altium Limited,Altium Designer,25.0.2 (28)*
G04*
G04 Layer_Color=128*
%FSLAX44Y44*%
%MOMM*%
G71*
G04*
G04 #@! TF.SameCoordinates,783E934D-7247-47A1-8249-FBC8F6F05072*
G04*
G04*
G04 #@! TF.FilePolarity,Positive*
G04*
G01*
G75*
%ADD111C,0.1270*%
D111*
X-1120450Y517600D02*
X-1109450D01*
X-1114950Y512100D02*
Y523100D01*
X-1122950Y717600D02*
X-1106950D01*
X-1114950Y709600D02*
Y725600D01*
X-1126100Y820700D02*
X-1115600D01*
X-1120850Y815450D02*
Y825950D01*
X-1201850Y820700D02*
X-1188850D01*
X-1195350Y814200D02*
Y827200D01*
X-1003500Y768200D02*
X-993500D01*
X-998500Y763200D02*
Y773200D01*
X-978100Y768200D02*
X-968100D01*
X-973100Y763200D02*
Y773200D01*
X-952700Y768200D02*
X-942700D01*
X-947700Y763200D02*
Y773200D01*
X-694600Y87623D02*
X-685400D01*
X-690000Y83023D02*
Y92223D01*
X-669600Y87623D02*
X-660400D01*
X-665000Y83023D02*
Y92223D01*
X-649600Y87623D02*
X-640400D01*
X-645000Y83023D02*
Y92223D01*
X-624600Y87623D02*
X-615400D01*
X-620000Y83023D02*
Y92223D01*
X-694600Y113823D02*
X-685400D01*
X-690000Y109223D02*
Y118423D01*
X-669600Y113823D02*
X-660400D01*
X-665000Y109223D02*
Y118423D01*
X-649600Y113823D02*
X-640400D01*
X-645000Y109223D02*
Y118423D01*
X-624600Y113823D02*
X-615400D01*
X-620000Y109223D02*
Y118423D01*
X-732200Y60523D02*
X-709200D01*
X-720700Y49023D02*
Y72023D01*
X-600800Y60523D02*
X-577800D01*
X-589300Y49023D02*
Y72023D01*
X-732200Y117323D02*
X-709200D01*
X-720700Y105823D02*
Y128823D01*
X-600800Y117323D02*
X-577800D01*
X-589300Y105823D02*
Y128823D01*
X-784600Y958400D02*
X-774600D01*
X-779600Y953400D02*
Y963400D01*
X-810000Y958400D02*
X-800000D01*
X-805000Y953400D02*
Y963400D01*
X-835400Y958400D02*
X-825400D01*
X-830400Y953400D02*
Y963400D01*
X-860800Y958400D02*
X-850800D01*
X-855800Y953400D02*
Y963400D01*
X-784600Y933000D02*
X-774600D01*
X-779600Y928000D02*
Y938000D01*
X-810000Y933000D02*
X-800000D01*
X-805000Y928000D02*
Y938000D01*
X-835400Y933000D02*
X-825400D01*
X-830400Y928000D02*
Y938000D01*
X-860800Y933000D02*
X-850800D01*
X-855800Y928000D02*
Y938000D01*
X-721150Y938600D02*
X-690650D01*
X-705900Y923350D02*
Y953850D01*
X-1003800Y932900D02*
X-993800D01*
X-998800Y927900D02*
Y937900D01*
X-978400Y932900D02*
X-968400D01*
X-973400Y927900D02*
Y937900D01*
X-953000Y932900D02*
X-943000D01*
X-948000Y927900D02*
Y937900D01*
X-49400Y368600D02*
X-38400D01*
X-43900Y363100D02*
Y374100D01*
X-739900Y368600D02*
X-723900D01*
X-731900Y360600D02*
Y376600D01*
X-85150Y938600D02*
X-54650D01*
X-69900Y923350D02*
Y953850D01*
X-1421500Y0D02*
X-1416500D01*
X-1419000Y-2500D02*
Y2500D01*
X-1414471Y16971D02*
X-1409471D01*
X-1411971Y14471D02*
Y19470D01*
X-1414471Y-16971D02*
X-1409471D01*
X-1411971Y-19470D02*
Y-14471D01*
X-1397500Y24000D02*
X-1392500D01*
X-1395000Y21500D02*
Y26500D01*
X-1411000Y0D02*
X-1379000D01*
X-1395000Y-16000D02*
Y16000D01*
X-1397500Y-24000D02*
X-1392500D01*
X-1395000Y-26500D02*
Y-21500D01*
X-1380529Y16971D02*
X-1375529D01*
X-1378029Y14471D02*
Y19470D01*
X-1380529Y-16971D02*
X-1375529D01*
X-1378029Y-19470D02*
Y-14471D01*
X-1373500Y0D02*
X-1368500D01*
X-1371000Y-2500D02*
Y2500D01*
X-1359250Y414000D02*
X-1335750D01*
X-1347500Y402250D02*
Y425750D01*
X-1359250Y182500D02*
X-1335750D01*
X-1347500Y170750D02*
Y194250D01*
X-1338500Y530500D02*
X-1331500D01*
X-1335000Y527000D02*
Y534000D01*
X-1318500Y520500D02*
X-1311500D01*
X-1315000Y517000D02*
Y524000D01*
X-1338500Y510500D02*
X-1331500D01*
X-1335000Y507000D02*
Y514000D01*
X-1318500Y500500D02*
X-1311500D01*
X-1315000Y497000D02*
Y504000D01*
X-1338500Y490500D02*
X-1331500D01*
X-1335000Y487000D02*
Y494000D01*
X-1318500Y480500D02*
X-1311500D01*
X-1315000Y477000D02*
Y484000D01*
X-1338500Y470500D02*
X-1331500D01*
X-1335000Y467000D02*
Y474000D01*
X-1318500Y460500D02*
X-1311500D01*
X-1315000Y457000D02*
Y464000D01*
X-1338500Y450500D02*
X-1331500D01*
X-1335000Y447000D02*
Y454000D01*
X-1318500Y440500D02*
X-1311500D01*
X-1315000Y437000D02*
Y444000D01*
X-1338500Y430500D02*
X-1331500D01*
X-1335000Y427000D02*
Y434000D01*
X-1318500Y400500D02*
X-1311500D01*
X-1315000Y397000D02*
Y404000D01*
X-1338500Y390500D02*
X-1331500D01*
X-1335000Y387000D02*
Y394000D01*
X-1318500Y380500D02*
X-1311500D01*
X-1315000Y377000D02*
Y384000D01*
X-1338500Y370500D02*
X-1331500D01*
X-1335000Y367000D02*
Y374000D01*
X-1318500Y360500D02*
X-1311500D01*
X-1315000Y357000D02*
Y364000D01*
X-1338500Y350500D02*
X-1331500D01*
X-1335000Y347000D02*
Y354000D01*
X-1318500Y340500D02*
X-1311500D01*
X-1315000Y337000D02*
Y344000D01*
X-1338500Y330500D02*
X-1331500D01*
X-1335000Y327000D02*
Y334000D01*
X-1318500Y320500D02*
X-1311500D01*
X-1315000Y317000D02*
Y324000D01*
X-1338500Y310500D02*
X-1331500D01*
X-1335000Y307000D02*
Y314000D01*
X-1318500Y300500D02*
X-1311500D01*
X-1315000Y297000D02*
Y304000D01*
X-1338500Y290500D02*
X-1331500D01*
X-1335000Y287000D02*
Y294000D01*
X-1318500Y280500D02*
X-1311500D01*
X-1315000Y277000D02*
Y284000D01*
X-1338500Y270500D02*
X-1331500D01*
X-1335000Y267000D02*
Y274000D01*
X-1318500Y260500D02*
X-1311500D01*
X-1315000Y257000D02*
Y264000D01*
X-1338500Y250500D02*
X-1331500D01*
X-1335000Y247000D02*
Y254000D01*
X-1318500Y240500D02*
X-1311500D01*
X-1315000Y237000D02*
Y244000D01*
X-1338500Y230500D02*
X-1331500D01*
X-1335000Y227000D02*
Y234000D01*
X-1318500Y220500D02*
X-1311500D01*
X-1315000Y217000D02*
Y224000D01*
X-1338500Y210500D02*
X-1331500D01*
X-1335000Y207000D02*
Y214000D01*
X-1318500Y200500D02*
X-1311500D01*
X-1315000Y197000D02*
Y204000D01*
X-1363500Y530500D02*
X-1356500D01*
X-1360000Y527000D02*
Y534000D01*
X-1383500Y520500D02*
X-1376500D01*
X-1380000Y517000D02*
Y524000D01*
X-1363500Y510500D02*
X-1356500D01*
X-1360000Y507000D02*
Y514000D01*
X-1383500Y500500D02*
X-1376500D01*
X-1380000Y497000D02*
Y504000D01*
X-1363500Y490500D02*
X-1356500D01*
X-1360000Y487000D02*
Y494000D01*
X-1383500Y480500D02*
X-1376500D01*
X-1380000Y477000D02*
Y484000D01*
X-1363500Y470500D02*
X-1356500D01*
X-1360000Y467000D02*
Y474000D01*
X-1383500Y460500D02*
X-1376500D01*
X-1380000Y457000D02*
Y464000D01*
X-1363500Y450500D02*
X-1356500D01*
X-1360000Y447000D02*
Y454000D01*
X-1383500Y440500D02*
X-1376500D01*
X-1380000Y437000D02*
Y444000D01*
X-1363500Y430500D02*
X-1356500D01*
X-1360000Y427000D02*
Y434000D01*
X-1383500Y400500D02*
X-1376500D01*
X-1380000Y397000D02*
Y404000D01*
X-1363500Y390500D02*
X-1356500D01*
X-1360000Y387000D02*
Y394000D01*
X-1383500Y380500D02*
X-1376500D01*
X-1380000Y377000D02*
Y384000D01*
X-1363500Y370500D02*
X-1356500D01*
X-1360000Y367000D02*
Y374000D01*
X-1383500Y360500D02*
X-1376500D01*
X-1380000Y357000D02*
Y364000D01*
X-1363500Y350500D02*
X-1356500D01*
X-1360000Y347000D02*
Y354000D01*
X-1383500Y340500D02*
X-1376500D01*
X-1380000Y337000D02*
Y344000D01*
X-1363500Y330500D02*
X-1356500D01*
X-1360000Y327000D02*
Y334000D01*
X-1383500Y320500D02*
X-1376500D01*
X-1380000Y317000D02*
Y324000D01*
X-1363500Y310500D02*
X-1356500D01*
X-1360000Y307000D02*
Y314000D01*
X-1383500Y300500D02*
X-1376500D01*
X-1380000Y297000D02*
Y304000D01*
X-1363500Y290500D02*
X-1356500D01*
X-1360000Y287000D02*
Y294000D01*
X-1383500Y280500D02*
X-1376500D01*
X-1380000Y277000D02*
Y284000D01*
X-1363500Y270500D02*
X-1356500D01*
X-1360000Y267000D02*
Y274000D01*
X-1383500Y260500D02*
X-1376500D01*
X-1380000Y257000D02*
Y264000D01*
X-1363500Y250500D02*
X-1356500D01*
X-1360000Y247000D02*
Y254000D01*
X-1383500Y240500D02*
X-1376500D01*
X-1380000Y237000D02*
Y244000D01*
X-1363500Y230500D02*
X-1356500D01*
X-1360000Y227000D02*
Y234000D01*
X-1383500Y220500D02*
X-1376500D01*
X-1380000Y217000D02*
Y224000D01*
X-1363500Y210500D02*
X-1356500D01*
X-1360000Y207000D02*
Y214000D01*
X-1383500Y200500D02*
X-1376500D01*
X-1380000Y197000D02*
Y204000D01*
X-1221500Y69500D02*
X-1214500D01*
X-1218000Y66000D02*
Y73000D01*
X-1196500Y69500D02*
X-1189500D01*
X-1193000Y66000D02*
Y73000D01*
X-1176500Y69500D02*
X-1169500D01*
X-1173000Y66000D02*
Y73000D01*
X-1151500Y69500D02*
X-1144500D01*
X-1148000Y66000D02*
Y73000D01*
X-1146500Y84500D02*
X-1139500D01*
X-1143000Y81000D02*
Y88000D01*
X-1166500Y84500D02*
X-1159500D01*
X-1163000Y81000D02*
Y88000D01*
X-1186500Y84500D02*
X-1179500D01*
X-1183000Y81000D02*
Y88000D01*
X-1206500Y84500D02*
X-1199500D01*
X-1203000Y81000D02*
Y88000D01*
X-1226500Y84500D02*
X-1219500D01*
X-1223000Y81000D02*
Y88000D01*
X-1221500Y101500D02*
X-1214500D01*
X-1218000Y98000D02*
Y105000D01*
X-1196500Y101500D02*
X-1189500D01*
X-1193000Y98000D02*
Y105000D01*
X-1176500Y101500D02*
X-1169500D01*
X-1173000Y98000D02*
Y105000D01*
X-1151500Y101500D02*
X-1144500D01*
X-1148000Y98000D02*
Y105000D01*
X-1146500Y116500D02*
X-1139500D01*
X-1143000Y113000D02*
Y120000D01*
X-1166500Y116500D02*
X-1159500D01*
X-1163000Y113000D02*
Y120000D01*
X-1186500Y116500D02*
X-1179500D01*
X-1183000Y113000D02*
Y120000D01*
X-1206500Y116500D02*
X-1199500D01*
X-1203000Y113000D02*
Y120000D01*
X-1226500Y116500D02*
X-1219500D01*
X-1223000Y113000D02*
Y120000D01*
X-1260200Y106300D02*
X-1237200D01*
X-1248700Y94800D02*
Y117800D01*
X-1260200Y49500D02*
X-1237200D01*
X-1248700Y38000D02*
Y61000D01*
X-1128800Y106300D02*
X-1105800D01*
X-1117300Y94800D02*
Y117800D01*
X-1128800Y49500D02*
X-1105800D01*
X-1117300Y38000D02*
Y61000D01*
X-1007300Y65100D02*
X-974800D01*
X-991050Y48850D02*
Y81350D01*
X-893000Y65100D02*
X-860500D01*
X-876750Y48850D02*
Y81350D01*
X-875150Y31300D02*
X-866150D01*
X-870650Y26800D02*
Y35800D01*
X-900550Y16100D02*
X-891550D01*
X-896050Y11600D02*
Y20600D01*
X-976250Y31300D02*
X-967250D01*
X-971750Y26800D02*
Y35800D01*
X-1001650Y16100D02*
X-992650D01*
X-997150Y11600D02*
Y20600D01*
X-995550Y154000D02*
X-986550D01*
X-991050Y149500D02*
Y158500D01*
X-982850Y128600D02*
X-973850D01*
X-978350Y124100D02*
Y133100D01*
X-970150Y154000D02*
X-961150D01*
X-965650Y149500D02*
Y158500D01*
X-957450Y128600D02*
X-948450D01*
X-952950Y124100D02*
Y133100D01*
X-944750Y154000D02*
X-935750D01*
X-940250Y149500D02*
Y158500D01*
X-932050Y128600D02*
X-923050D01*
X-927550Y124100D02*
Y133100D01*
X-919350Y154000D02*
X-910350D01*
X-914850Y149500D02*
Y158500D01*
X-906650Y128600D02*
X-897650D01*
X-902150Y124100D02*
Y133100D01*
X-893950Y154000D02*
X-884950D01*
X-889450Y149500D02*
Y158500D01*
X-881250Y128600D02*
X-872250D01*
X-876750Y124100D02*
Y133100D01*
X-1019150Y95600D02*
X-1004150D01*
X-1011650Y88100D02*
Y103100D01*
X-863650Y95600D02*
X-848650D01*
X-856150Y88100D02*
Y103100D01*
X-1117700Y272800D02*
X-1106200D01*
X-1111950Y267050D02*
Y278550D01*
X-1120200Y472800D02*
X-1103700D01*
X-1111950Y464550D02*
Y481050D01*
X-1416500Y950000D02*
X-1411500D01*
X-1414000Y947500D02*
Y952500D01*
X-1409471Y966971D02*
X-1404471D01*
X-1406971Y964471D02*
Y969471D01*
X-1409471Y933029D02*
X-1404471D01*
X-1406971Y930529D02*
Y935529D01*
X-1392500Y974000D02*
X-1387500D01*
X-1390000Y971500D02*
Y976500D01*
X-1406000Y950000D02*
X-1374000D01*
X-1390000Y934000D02*
Y966000D01*
X-1392500Y926000D02*
X-1387500D01*
X-1390000Y923500D02*
Y928500D01*
X-1375529Y966971D02*
X-1370529D01*
X-1373029Y964471D02*
Y969471D01*
X-1375529Y933029D02*
X-1370529D01*
X-1373029Y930529D02*
Y935529D01*
X-1368500Y950000D02*
X-1363500D01*
X-1366000Y947500D02*
Y952500D01*
X-1003800Y882100D02*
X-993800D01*
X-998800Y877100D02*
Y887100D01*
X-978400Y882100D02*
X-968400D01*
X-973400Y877100D02*
Y887100D01*
X-953000Y882100D02*
X-943000D01*
X-948000Y877100D02*
Y887100D01*
X-1003800Y907500D02*
X-993800D01*
X-998800Y902500D02*
Y912500D01*
X-978400Y907500D02*
X-968400D01*
X-973400Y902500D02*
Y912500D01*
X-953000Y907500D02*
X-943000D01*
X-948000Y902500D02*
Y912500D01*
X-1003800Y958300D02*
X-993800D01*
X-998800Y953300D02*
Y963300D01*
X-978400Y958300D02*
X-968400D01*
X-973400Y953300D02*
Y963300D01*
X-953000Y958300D02*
X-943000D01*
X-948000Y953300D02*
Y963300D01*
X-386300Y60450D02*
X-377300D01*
X-381800Y55950D02*
Y64950D01*
X-531300Y60450D02*
X-522300D01*
X-526800Y55950D02*
Y64950D01*
X-386300Y850D02*
X-377300D01*
X-381800Y-3650D02*
Y5350D01*
X-531300Y850D02*
X-522300D01*
X-526800Y-3650D02*
Y5350D01*
X-765700Y161600D02*
X-755700D01*
X-760700Y156600D02*
Y166600D01*
X-791100Y161600D02*
X-781100D01*
X-786100Y156600D02*
Y166600D01*
X-816500Y161600D02*
X-806500D01*
X-811500Y156600D02*
Y166600D01*
X-243500Y-21400D02*
X-227500D01*
X-235500Y-29400D02*
Y-13400D01*
X-242500Y71100D02*
X-228500D01*
X-235500Y64100D02*
Y78100D01*
X-250500Y11100D02*
X-220500D01*
X-235500Y-3900D02*
Y26100D01*
X-198000Y6100D02*
X-178000D01*
X-188000Y-3900D02*
Y16100D01*
X-198000Y53100D02*
X-178000D01*
X-188000Y43100D02*
Y63100D01*
X-293000Y6100D02*
X-273000D01*
X-283000Y-3900D02*
Y16100D01*
X-293000Y52100D02*
X-273000D01*
X-283000Y42100D02*
Y62100D01*
X-139050Y18350D02*
X-132550D01*
X-135800Y15100D02*
Y21600D01*
X-81250Y18350D02*
X-74750D01*
X-78000Y15100D02*
Y21600D01*
X-158600Y23550D02*
X-141600D01*
X-150100Y15050D02*
Y32050D01*
X-157100Y-18450D02*
X-143100D01*
X-150100Y-25450D02*
Y-11450D01*
X-72200Y23550D02*
X-55200D01*
X-63700Y15050D02*
Y32050D01*
X-70700Y-18450D02*
X-56700D01*
X-63700Y-25450D02*
Y-11450D01*
X-26500Y0D02*
X-21500D01*
X-24000Y-2500D02*
Y2500D01*
X-19470Y16971D02*
X-14471D01*
X-16971Y14471D02*
Y19470D01*
X-19470Y-16971D02*
X-14471D01*
X-16971Y-19470D02*
Y-14471D01*
X-2500Y24000D02*
X2500D01*
X0Y21500D02*
Y26500D01*
X-16000Y0D02*
X16000D01*
X0Y-16000D02*
Y16000D01*
X-2500Y-24000D02*
X2500D01*
X0Y-26500D02*
Y-21500D01*
X14471Y16971D02*
X19470D01*
X16971Y14471D02*
Y19470D01*
X14471Y-16971D02*
X19470D01*
X16971Y-19470D02*
Y-14471D01*
X21500Y0D02*
X26500D01*
X24000Y-2500D02*
Y2500D01*
X-842950Y372800D02*
X-815450D01*
X-829200Y359050D02*
Y386550D01*
X-899250Y782900D02*
X-891750D01*
X-895500Y779150D02*
Y786650D01*
X-879250Y782900D02*
X-871750D01*
X-875500Y779150D02*
Y786650D01*
X-859250Y782900D02*
X-851750D01*
X-855500Y779150D02*
Y786650D01*
X-839250Y782900D02*
X-831750D01*
X-835500Y779150D02*
Y786650D01*
X-845950Y617600D02*
X-818450D01*
X-832200Y603850D02*
Y631350D01*
X-784500Y907600D02*
X-774500D01*
X-779500Y902600D02*
Y912600D01*
X-809900Y907600D02*
X-799900D01*
X-804900Y902600D02*
Y912600D01*
X-835300Y907600D02*
X-825300D01*
X-830300Y902600D02*
Y912600D01*
X-860700Y907600D02*
X-850700D01*
X-855700Y902600D02*
Y912600D01*
X-784500Y882200D02*
X-774500D01*
X-779500Y877200D02*
Y887200D01*
X-809900Y882200D02*
X-799900D01*
X-804900Y877200D02*
Y887200D01*
X-835300Y882200D02*
X-825300D01*
X-830300Y877200D02*
Y887200D01*
X-860700Y882200D02*
X-850700D01*
X-855700Y877200D02*
Y887200D01*
X-26500Y950000D02*
X-21500D01*
X-24000Y947500D02*
Y952500D01*
X-19470Y966971D02*
X-14471D01*
X-16971Y964471D02*
Y969471D01*
X-19470Y933029D02*
X-14471D01*
X-16971Y930529D02*
Y935529D01*
X-2500Y974000D02*
X2500D01*
X0Y971500D02*
Y976500D01*
X-16000Y950000D02*
X16000D01*
X0Y934000D02*
Y966000D01*
X-2500Y926000D02*
X2500D01*
X0Y923500D02*
Y928500D01*
X14471Y966971D02*
X19470D01*
X16971Y964471D02*
Y969471D01*
X14471Y933029D02*
X19470D01*
X16971Y930529D02*
Y935529D01*
X21500Y950000D02*
X26500D01*
X24000Y947500D02*
Y952500D01*
M02*
