M48
;Layer_Color=9474304
;FILE_FORMAT=4:4
METRIC,TZ
;TYPE=PLATED
T04F00S00C0.6000
T08F00S00C0.8000
T10F00S00C0.9000
%
G90
G05
T04
G00X2027900Y210950
M15
G01Y218950
M16
G00X2027900Y251450
M15
G01Y262450
M16
G00X2114300Y251450
M15
G01Y262450
M16
G00X2114300Y210950
M15
G01Y218950
M16
T08
G00X1895000Y245500
M15
G01Y233500
M16
G00X1895000Y291500
M15
G01Y279500
M16
G00X1931500Y244500
M15
G01X1953500
M16
G00X1990000Y245500
M15
G01Y233500
M16
G00X1990000Y292500
M15
G01Y280500
M16
T10
G00X1651200Y238250
M15
G01Y230250
M16
G00X1651200Y302850
M15
G01Y284850
M16
G00X1796200Y302850
M15
G01Y284850
M16
G00X1796200Y238250
M15
G01Y230250
M16
M17
M30
