G04*
G04 #@! TF.GenerationSoftware,Altium Limited,Altium Designer,25.0.2 (28)*
G04*
G04 Layer_Physical_Order=5*
G04 Layer_Color=16737945*
%FSLAX44Y44*%
%MOMM*%
G71*
G04*
G04 #@! TF.SameCoordinates,783E934D-7247-47A1-8249-FBC8F6F05072*
G04*
G04*
G04 #@! TF.FilePolarity,Positive*
G04*
G01*
G75*
%ADD12C,1.5000*%
%ADD63C,0.2000*%
%ADD74C,1.1000*%
%ADD75C,1.6000*%
%ADD76C,1.0500*%
%ADD77C,1.3000*%
%ADD78R,1.7000X1.7000*%
G04:AMPARAMS|DCode=79|XSize=1.7mm|YSize=1.7mm|CornerRadius=0.85mm|HoleSize=0mm|Usage=FLASHONLY|Rotation=90.000|XOffset=0mm|YOffset=0mm|HoleType=Round|Shape=RoundedRectangle|*
%AMROUNDEDRECTD79*
21,1,1.7000,0.0000,0,0,90.0*
21,1,0.0000,1.7000,0,0,90.0*
1,1,1.7000,0.0000,0.0000*
1,1,1.7000,0.0000,0.0000*
1,1,1.7000,0.0000,0.0000*
1,1,1.7000,0.0000,0.0000*
%
%ADD79ROUNDEDRECTD79*%
%ADD80R,1.5000X1.5000*%
%ADD81C,3.5000*%
%ADD82C,3.2000*%
%ADD83C,0.8000*%
%ADD84C,6.4000*%
%ADD85C,2.3500*%
%ADD86R,1.2000X1.2000*%
%ADD87C,1.2000*%
%ADD88C,3.2500*%
%ADD89C,1.9000*%
%ADD90R,1.9000X1.9000*%
%ADD91C,2.5000*%
%ADD92C,1.1500*%
%ADD93C,1.6500*%
G04:AMPARAMS|DCode=94|XSize=3.3mm|YSize=1.5mm|CornerRadius=0.75mm|HoleSize=0mm|Usage=FLASHONLY|Rotation=270.000|XOffset=0mm|YOffset=0mm|HoleType=Round|Shape=RoundedRectangle|*
%AMROUNDEDRECTD94*
21,1,3.3000,0.0000,0,0,270.0*
21,1,1.8000,1.5000,0,0,270.0*
1,1,1.5000,0.0000,-0.9000*
1,1,1.5000,0.0000,0.9000*
1,1,1.5000,0.0000,0.9000*
1,1,1.5000,0.0000,-0.9000*
%
%ADD94ROUNDEDRECTD94*%
G04:AMPARAMS|DCode=95|XSize=2.3mm|YSize=1.5mm|CornerRadius=0.75mm|HoleSize=0mm|Usage=FLASHONLY|Rotation=270.000|XOffset=0mm|YOffset=0mm|HoleType=Round|Shape=RoundedRectangle|*
%AMROUNDEDRECTD95*
21,1,2.3000,0.0000,0,0,270.0*
21,1,0.8000,1.5000,0,0,270.0*
1,1,1.5000,0.0000,-0.4000*
1,1,1.5000,0.0000,0.4000*
1,1,1.5000,0.0000,0.4000*
1,1,1.5000,0.0000,-0.4000*
%
%ADD95ROUNDEDRECTD95*%
%ADD96C,2.2000*%
G04:AMPARAMS|DCode=97|XSize=1.5mm|YSize=3.7mm|CornerRadius=0.75mm|HoleSize=0mm|Usage=FLASHONLY|Rotation=270.000|XOffset=0mm|YOffset=0mm|HoleType=Round|Shape=RoundedRectangle|*
%AMROUNDEDRECTD97*
21,1,1.5000,2.2000,0,0,270.0*
21,1,0.0000,3.7000,0,0,270.0*
1,1,1.5000,-1.1000,0.0000*
1,1,1.5000,-1.1000,0.0000*
1,1,1.5000,1.1000,0.0000*
1,1,1.5000,1.1000,0.0000*
%
%ADD97ROUNDEDRECTD97*%
G04:AMPARAMS|DCode=98|XSize=1.5mm|YSize=2.7mm|CornerRadius=0.75mm|HoleSize=0mm|Usage=FLASHONLY|Rotation=180.000|XOffset=0mm|YOffset=0mm|HoleType=Round|Shape=RoundedRectangle|*
%AMROUNDEDRECTD98*
21,1,1.5000,1.2000,0,0,180.0*
21,1,0.0000,2.7000,0,0,180.0*
1,1,1.5000,0.0000,0.6000*
1,1,1.5000,0.0000,0.6000*
1,1,1.5000,0.0000,-0.6000*
1,1,1.5000,0.0000,-0.6000*
%
%ADD98ROUNDEDRECTD98*%
%ADD99C,0.6500*%
G04:AMPARAMS|DCode=100|XSize=1mm|YSize=2.1mm|CornerRadius=0.5mm|HoleSize=0mm|Usage=FLASHONLY|Rotation=0.000|XOffset=0mm|YOffset=0mm|HoleType=Round|Shape=RoundedRectangle|*
%AMROUNDEDRECTD100*
21,1,1.0000,1.1000,0,0,0.0*
21,1,0.0000,2.1000,0,0,0.0*
1,1,1.0000,0.0000,-0.5500*
1,1,1.0000,0.0000,-0.5500*
1,1,1.0000,0.0000,0.5500*
1,1,1.0000,0.0000,0.5500*
%
%ADD100ROUNDEDRECTD100*%
G04:AMPARAMS|DCode=101|XSize=1mm|YSize=1.8mm|CornerRadius=0.5mm|HoleSize=0mm|Usage=FLASHONLY|Rotation=0.000|XOffset=0mm|YOffset=0mm|HoleType=Round|Shape=RoundedRectangle|*
%AMROUNDEDRECTD101*
21,1,1.0000,0.8000,0,0,0.0*
21,1,0.0000,1.8000,0,0,0.0*
1,1,1.0000,0.0000,-0.4000*
1,1,1.0000,0.0000,-0.4000*
1,1,1.0000,0.0000,0.4000*
1,1,1.0000,0.0000,0.4000*
%
%ADD101ROUNDEDRECTD101*%
%ADD102C,2.9000*%
G04:AMPARAMS|DCode=103|XSize=1.2mm|YSize=1.75mm|CornerRadius=0.126mm|HoleSize=0mm|Usage=FLASHONLY|Rotation=0.000|XOffset=0mm|YOffset=0mm|HoleType=Round|Shape=RoundedRectangle|*
%AMROUNDEDRECTD103*
21,1,1.2000,1.4980,0,0,0.0*
21,1,0.9480,1.7500,0,0,0.0*
1,1,0.2520,0.4740,-0.7490*
1,1,0.2520,-0.4740,-0.7490*
1,1,0.2520,-0.4740,0.7490*
1,1,0.2520,0.4740,0.7490*
%
%ADD103ROUNDEDRECTD103*%
G04:AMPARAMS|DCode=104|XSize=1.2mm|YSize=1.75mm|CornerRadius=0.6mm|HoleSize=0mm|Usage=FLASHONLY|Rotation=0.000|XOffset=0mm|YOffset=0mm|HoleType=Round|Shape=RoundedRectangle|*
%AMROUNDEDRECTD104*
21,1,1.2000,0.5500,0,0,0.0*
21,1,0.0000,1.7500,0,0,0.0*
1,1,1.2000,0.0000,-0.2750*
1,1,1.2000,0.0000,-0.2750*
1,1,1.2000,0.0000,0.2750*
1,1,1.2000,0.0000,0.2750*
%
%ADD104ROUNDEDRECTD104*%
G36*
X34355Y968579D02*
X32355Y968015D01*
X30026Y971815D01*
X27873Y974337D01*
X3535Y950000D01*
X27873Y925663D01*
X30026Y928185D01*
X32359Y931991D01*
X34359Y931427D01*
X34448Y18427D01*
X32448Y17863D01*
X30026Y21815D01*
X27873Y24337D01*
X3535Y0D01*
X27873Y-24337D01*
X30026Y-21815D01*
X32452Y-17857D01*
X34452Y-18421D01*
X34453Y-34610D01*
X18157Y-34614D01*
X17593Y-32614D01*
X21815Y-30026D01*
X24337Y-27873D01*
X0Y-3535D01*
X-24337Y-27873D01*
X-21815Y-30026D01*
X-17581Y-32621D01*
X-18145Y-34621D01*
X-1376119Y-34900D01*
X-1376541Y-34429D01*
X-1376164Y-31852D01*
X-1373185Y-30026D01*
X-1370663Y-27873D01*
X-1395000Y-3535D01*
X-1419337Y-27873D01*
X-1416815Y-30026D01*
X-1413815Y-31865D01*
X-1413403Y-34463D01*
X-1413782Y-34908D01*
X-1424947Y-34910D01*
X-1424953Y-24791D01*
X-1423076Y-24098D01*
X-1422872Y-24337D01*
X-1398535Y0D01*
X-1422872Y24337D01*
X-1423105Y24065D01*
X-1424982Y24756D01*
X-1425516Y933832D01*
X-1423517Y934230D01*
X-1423069Y933150D01*
X-1420026Y928185D01*
X-1417872Y925663D01*
X-1393535Y950000D01*
X-1417872Y974337D01*
X-1420026Y971815D01*
X-1423069Y966850D01*
X-1423535Y965725D01*
X-1425535Y966122D01*
X-1425546Y983975D01*
X-1424132Y985390D01*
X-1406474D01*
X-1406076Y983390D01*
X-1406850Y983069D01*
X-1411815Y980026D01*
X-1414337Y977872D01*
X-1390000Y953536D01*
X-1365663Y977872D01*
X-1368185Y980026D01*
X-1373150Y983069D01*
X-1373924Y983390D01*
X-1373526Y985390D01*
X-16474D01*
X-16076Y983390D01*
X-16850Y983069D01*
X-21815Y980026D01*
X-24337Y977872D01*
X0Y953536D01*
X24337Y977872D01*
X21815Y980026D01*
X16850Y983069D01*
X16076Y983390D01*
X16474Y985390D01*
X34353D01*
X34355Y968579D01*
D02*
G37*
%LPC*%
G36*
X-69900Y959702D02*
X-74017Y959296D01*
X-77975Y958095D01*
X-81623Y956145D01*
X-82879Y955115D01*
X-69900Y942135D01*
X-56921Y955115D01*
X-58177Y956145D01*
X-61825Y958095D01*
X-65783Y959296D01*
X-69900Y959702D01*
D02*
G37*
G36*
X-705900D02*
X-710017Y959296D01*
X-713975Y958095D01*
X-717623Y956145D01*
X-718879Y955115D01*
X-705900Y942135D01*
X-692921Y955115D01*
X-694177Y956145D01*
X-697825Y958095D01*
X-701783Y959296D01*
X-705900Y959702D01*
D02*
G37*
G36*
X-805000Y968991D02*
X-807741Y968630D01*
X-810295Y967572D01*
X-812489Y965889D01*
X-814172Y963695D01*
X-815230Y961141D01*
X-815591Y958400D01*
X-815230Y955659D01*
X-814172Y953105D01*
X-812489Y950911D01*
X-810295Y949228D01*
X-807929Y948248D01*
X-807868Y948079D01*
X-808524Y946152D01*
X-811808Y944792D01*
X-814628Y942628D01*
X-816565Y940104D01*
X-817700Y939940D01*
X-818835Y940104D01*
X-820772Y942628D01*
X-823592Y944792D01*
X-826876Y946152D01*
X-827532Y948079D01*
X-827471Y948248D01*
X-825105Y949228D01*
X-822911Y950911D01*
X-821228Y953105D01*
X-820170Y955659D01*
X-819809Y958400D01*
X-820170Y961141D01*
X-821228Y963695D01*
X-822911Y965889D01*
X-825105Y967572D01*
X-827659Y968630D01*
X-830400Y968991D01*
X-833141Y968630D01*
X-835695Y967572D01*
X-837889Y965889D01*
X-839572Y963695D01*
X-840630Y961141D01*
X-840991Y958400D01*
X-840630Y955659D01*
X-839572Y953105D01*
X-837889Y950911D01*
X-835695Y949228D01*
X-833329Y948248D01*
X-833268Y948079D01*
X-833924Y946152D01*
X-837208Y944792D01*
X-840028Y942628D01*
X-841965Y940104D01*
X-843100Y939940D01*
X-844235Y940104D01*
X-846172Y942628D01*
X-848992Y944792D01*
X-852276Y946152D01*
X-852932Y948079D01*
X-852871Y948248D01*
X-850505Y949228D01*
X-848311Y950911D01*
X-846628Y953105D01*
X-845570Y955659D01*
X-845209Y958400D01*
X-845570Y961141D01*
X-846628Y963695D01*
X-848311Y965889D01*
X-850505Y967572D01*
X-853059Y968630D01*
X-855800Y968991D01*
X-858541Y968630D01*
X-861095Y967572D01*
X-863289Y965889D01*
X-864972Y963695D01*
X-866030Y961141D01*
X-866391Y958400D01*
X-866030Y955659D01*
X-864972Y953105D01*
X-863289Y950911D01*
X-861095Y949228D01*
X-858729Y948248D01*
X-858668Y948079D01*
X-859324Y946152D01*
X-862608Y944792D01*
X-865428Y942628D01*
X-867592Y939808D01*
X-868952Y936524D01*
X-869087Y935500D01*
X-855800D01*
Y930500D01*
X-869087D01*
X-868952Y929476D01*
X-867592Y926192D01*
X-865428Y923372D01*
X-862608Y921208D01*
X-859324Y919847D01*
X-858600Y917906D01*
X-858653Y917742D01*
X-860995Y916772D01*
X-863189Y915089D01*
X-864872Y912895D01*
X-865930Y910341D01*
X-866291Y907600D01*
X-865930Y904859D01*
X-864872Y902305D01*
X-863189Y900111D01*
X-860995Y898428D01*
X-858441Y897370D01*
X-855700Y897009D01*
X-852959Y897370D01*
X-850405Y898428D01*
X-848211Y900111D01*
X-846528Y902305D01*
X-845470Y904859D01*
X-845109Y907600D01*
X-845470Y910341D01*
X-846528Y912895D01*
X-848211Y915089D01*
X-850405Y916772D01*
X-852795Y917762D01*
X-852865Y917935D01*
X-852276Y919847D01*
X-848992Y921208D01*
X-846172Y923372D01*
X-844235Y925896D01*
X-843100Y926060D01*
X-841965Y925896D01*
X-840028Y923372D01*
X-837208Y921208D01*
X-833924Y919847D01*
X-833200Y917906D01*
X-833253Y917742D01*
X-835595Y916772D01*
X-837789Y915089D01*
X-839472Y912895D01*
X-840530Y910341D01*
X-840891Y907600D01*
X-840530Y904859D01*
X-839472Y902305D01*
X-837789Y900111D01*
X-835595Y898428D01*
X-833041Y897370D01*
X-830300Y897009D01*
X-827559Y897370D01*
X-825005Y898428D01*
X-822811Y900111D01*
X-821128Y902305D01*
X-820070Y904859D01*
X-819709Y907600D01*
X-820070Y910341D01*
X-821128Y912895D01*
X-822811Y915089D01*
X-825005Y916772D01*
X-827395Y917762D01*
X-827465Y917935D01*
X-826876Y919847D01*
X-823592Y921208D01*
X-820772Y923372D01*
X-818835Y925896D01*
X-817700Y926060D01*
X-816565Y925896D01*
X-814628Y923372D01*
X-811808Y921208D01*
X-808524Y919847D01*
X-807800Y917906D01*
X-807853Y917742D01*
X-810195Y916772D01*
X-812389Y915089D01*
X-814072Y912895D01*
X-815130Y910341D01*
X-815491Y907600D01*
X-815130Y904859D01*
X-814072Y902305D01*
X-812389Y900111D01*
X-810195Y898428D01*
X-807641Y897370D01*
X-804900Y897009D01*
X-802159Y897370D01*
X-799605Y898428D01*
X-797411Y900111D01*
X-795728Y902305D01*
X-794670Y904859D01*
X-794309Y907600D01*
X-794670Y910341D01*
X-795728Y912895D01*
X-797411Y915089D01*
X-799605Y916772D01*
X-801995Y917762D01*
X-802065Y917935D01*
X-801476Y919847D01*
X-798192Y921208D01*
X-795372Y923372D01*
X-795100Y923726D01*
X-793100Y923047D01*
Y919500D01*
X-791420D01*
X-790000Y918100D01*
X-790000Y917500D01*
Y897100D01*
X-769000D01*
Y917500D01*
X-769000Y918100D01*
X-767580Y919500D01*
X-766100D01*
Y930500D01*
X-779600D01*
Y935500D01*
X-766100D01*
Y946500D01*
X-767680D01*
X-769100Y947900D01*
X-769100Y948500D01*
Y968900D01*
X-790100D01*
Y948500D01*
X-790100Y947900D01*
X-791520Y946500D01*
X-793100D01*
Y942953D01*
X-795100Y942274D01*
X-795372Y942628D01*
X-798192Y944792D01*
X-801476Y946152D01*
X-802132Y948079D01*
X-802071Y948248D01*
X-799705Y949228D01*
X-797511Y950911D01*
X-795828Y953105D01*
X-794770Y955659D01*
X-794409Y958400D01*
X-794770Y961141D01*
X-795828Y963695D01*
X-797511Y965889D01*
X-799705Y967572D01*
X-802259Y968630D01*
X-805000Y968991D01*
D02*
G37*
G36*
X-948000Y968891D02*
X-950741Y968530D01*
X-953295Y967472D01*
X-955489Y965789D01*
X-957172Y963595D01*
X-958230Y961041D01*
X-958591Y958300D01*
X-958230Y955559D01*
X-957172Y953005D01*
X-955489Y950811D01*
X-953295Y949128D01*
X-950929Y948148D01*
X-950868Y947979D01*
X-951524Y946052D01*
X-954808Y944692D01*
X-957628Y942528D01*
X-959565Y940004D01*
X-960700Y939840D01*
X-961835Y940004D01*
X-963772Y942528D01*
X-966592Y944692D01*
X-969876Y946052D01*
X-970532Y947979D01*
X-970471Y948148D01*
X-968105Y949128D01*
X-965911Y950811D01*
X-964228Y953005D01*
X-963170Y955559D01*
X-962809Y958300D01*
X-963170Y961041D01*
X-964228Y963595D01*
X-965911Y965789D01*
X-968105Y967472D01*
X-970659Y968530D01*
X-973400Y968891D01*
X-976141Y968530D01*
X-978695Y967472D01*
X-980889Y965789D01*
X-982572Y963595D01*
X-983630Y961041D01*
X-983991Y958300D01*
X-983630Y955559D01*
X-982572Y953005D01*
X-980889Y950811D01*
X-978695Y949128D01*
X-976329Y948148D01*
X-976268Y947979D01*
X-976924Y946052D01*
X-980208Y944692D01*
X-983028Y942528D01*
X-983300Y942174D01*
X-985300Y942853D01*
Y946400D01*
X-986880D01*
X-988300Y947800D01*
X-988300Y948400D01*
Y968800D01*
X-1009300D01*
Y948400D01*
X-1009300Y947800D01*
X-1010720Y946400D01*
X-1012300D01*
Y935400D01*
X-998800D01*
Y930400D01*
X-1012300D01*
Y919400D01*
X-1010720D01*
X-1009300Y918000D01*
X-1009300Y917400D01*
Y897000D01*
X-988300D01*
Y917400D01*
X-988300Y918000D01*
X-986880Y919400D01*
X-985300D01*
Y922947D01*
X-983300Y923626D01*
X-983028Y923272D01*
X-980208Y921108D01*
X-976924Y919747D01*
X-976268Y917821D01*
X-976329Y917652D01*
X-978695Y916672D01*
X-980889Y914989D01*
X-982572Y912795D01*
X-983630Y910241D01*
X-983991Y907500D01*
X-983630Y904759D01*
X-982572Y902205D01*
X-980889Y900011D01*
X-978695Y898328D01*
X-976141Y897270D01*
X-973400Y896909D01*
X-970659Y897270D01*
X-968105Y898328D01*
X-965911Y900011D01*
X-964228Y902205D01*
X-963170Y904759D01*
X-962809Y907500D01*
X-963170Y910241D01*
X-964228Y912795D01*
X-965911Y914989D01*
X-968105Y916672D01*
X-970471Y917652D01*
X-970532Y917821D01*
X-969876Y919747D01*
X-966592Y921108D01*
X-963772Y923272D01*
X-961835Y925796D01*
X-960700Y925960D01*
X-959565Y925796D01*
X-957628Y923272D01*
X-954808Y921108D01*
X-951524Y919747D01*
X-950868Y917821D01*
X-950929Y917652D01*
X-953295Y916672D01*
X-955489Y914989D01*
X-957172Y912795D01*
X-958230Y910241D01*
X-958591Y907500D01*
X-958230Y904759D01*
X-957172Y902205D01*
X-955489Y900011D01*
X-953295Y898328D01*
X-950741Y897270D01*
X-948000Y896909D01*
X-945259Y897270D01*
X-942705Y898328D01*
X-940511Y900011D01*
X-938828Y902205D01*
X-937770Y904759D01*
X-937409Y907500D01*
X-937770Y910241D01*
X-938828Y912795D01*
X-940511Y914989D01*
X-942705Y916672D01*
X-945071Y917652D01*
X-945132Y917821D01*
X-944476Y919747D01*
X-941192Y921108D01*
X-938372Y923272D01*
X-936208Y926092D01*
X-934847Y929376D01*
X-934713Y930400D01*
X-948000D01*
Y935400D01*
X-934713D01*
X-934847Y936424D01*
X-936208Y939708D01*
X-938372Y942528D01*
X-941192Y944692D01*
X-944476Y946052D01*
X-945132Y947979D01*
X-945071Y948148D01*
X-942705Y949128D01*
X-940511Y950811D01*
X-938828Y953005D01*
X-937770Y955559D01*
X-937409Y958300D01*
X-937770Y961041D01*
X-938828Y963595D01*
X-940511Y965789D01*
X-942705Y967472D01*
X-945259Y968530D01*
X-948000Y968891D01*
D02*
G37*
G36*
X-1362128Y974337D02*
X-1386465Y950000D01*
X-1362128Y925663D01*
X-1359974Y928185D01*
X-1356931Y933150D01*
X-1354702Y938531D01*
X-1353343Y944194D01*
X-1352886Y950000D01*
X-1353343Y955806D01*
X-1354702Y961469D01*
X-1356931Y966850D01*
X-1359974Y971815D01*
X-1362128Y974337D01*
D02*
G37*
G36*
X-27873Y974337D02*
X-30026Y971815D01*
X-33069Y966850D01*
X-35298Y961469D01*
X-36657Y955806D01*
X-37114Y950000D01*
X-36657Y944194D01*
X-35298Y938531D01*
X-33069Y933150D01*
X-30026Y928185D01*
X-27873Y925663D01*
X-3535Y950000D01*
X-27873Y974337D01*
D02*
G37*
G36*
X-722415Y951579D02*
X-723445Y950323D01*
X-725395Y946675D01*
X-726596Y942717D01*
X-727002Y938600D01*
X-726596Y934483D01*
X-725395Y930525D01*
X-723445Y926877D01*
X-722415Y925621D01*
X-709436Y938600D01*
X-722415Y951579D01*
D02*
G37*
G36*
X-53385D02*
X-66364Y938600D01*
X-53385Y925621D01*
X-52355Y926877D01*
X-50405Y930525D01*
X-49204Y934483D01*
X-48798Y938600D01*
X-49204Y942717D01*
X-50405Y946675D01*
X-52355Y950323D01*
X-53385Y951579D01*
D02*
G37*
G36*
X-86415Y951579D02*
X-87445Y950323D01*
X-89395Y946675D01*
X-90596Y942717D01*
X-91002Y938600D01*
X-90596Y934483D01*
X-89395Y930525D01*
X-87445Y926877D01*
X-86415Y925621D01*
X-73436Y938600D01*
X-86415Y951579D01*
D02*
G37*
G36*
X-689385D02*
X-702365Y938600D01*
X-689385Y925621D01*
X-688355Y926877D01*
X-686405Y930525D01*
X-685204Y934483D01*
X-684798Y938600D01*
X-685204Y942717D01*
X-686405Y946675D01*
X-688355Y950323D01*
X-689385Y951579D01*
D02*
G37*
G36*
X-69900Y935064D02*
X-82879Y922085D01*
X-81623Y921055D01*
X-77975Y919105D01*
X-74017Y917904D01*
X-69900Y917498D01*
X-65783Y917904D01*
X-61825Y919105D01*
X-58177Y921055D01*
X-56921Y922085D01*
X-69900Y935064D01*
D02*
G37*
G36*
X-705900D02*
X-718879Y922085D01*
X-717623Y921055D01*
X-713975Y919105D01*
X-710017Y917904D01*
X-705900Y917498D01*
X-701783Y917904D01*
X-697825Y919105D01*
X-694177Y921055D01*
X-692921Y922085D01*
X-705900Y935064D01*
D02*
G37*
G36*
X0Y946464D02*
X-24337Y922128D01*
X-21815Y919974D01*
X-16850Y916931D01*
X-11469Y914702D01*
X-5806Y913343D01*
X0Y912886D01*
X5806Y913343D01*
X11469Y914702D01*
X16850Y916931D01*
X21815Y919974D01*
X24337Y922128D01*
X0Y946464D01*
D02*
G37*
G36*
X-1390000D02*
X-1414337Y922128D01*
X-1411815Y919974D01*
X-1406850Y916931D01*
X-1401469Y914702D01*
X-1395806Y913343D01*
X-1390000Y912886D01*
X-1384194Y913343D01*
X-1378531Y914702D01*
X-1373150Y916931D01*
X-1368185Y919974D01*
X-1365663Y922128D01*
X-1390000Y946464D01*
D02*
G37*
G36*
X-769000Y892700D02*
X-790000D01*
Y871700D01*
X-769000D01*
Y892700D01*
D02*
G37*
G36*
X-804900Y892791D02*
X-807641Y892430D01*
X-810195Y891372D01*
X-812389Y889689D01*
X-814072Y887495D01*
X-815130Y884941D01*
X-815491Y882200D01*
X-815130Y879459D01*
X-814072Y876905D01*
X-812389Y874711D01*
X-810195Y873028D01*
X-807641Y871970D01*
X-804900Y871609D01*
X-802159Y871970D01*
X-799605Y873028D01*
X-797411Y874711D01*
X-795728Y876905D01*
X-794670Y879459D01*
X-794309Y882200D01*
X-794670Y884941D01*
X-795728Y887495D01*
X-797411Y889689D01*
X-799605Y891372D01*
X-802159Y892430D01*
X-804900Y892791D01*
D02*
G37*
G36*
X-830300D02*
X-833041Y892430D01*
X-835595Y891372D01*
X-837789Y889689D01*
X-839472Y887495D01*
X-840530Y884941D01*
X-840891Y882200D01*
X-840530Y879459D01*
X-839472Y876905D01*
X-837789Y874711D01*
X-835595Y873028D01*
X-833041Y871970D01*
X-830300Y871609D01*
X-827559Y871970D01*
X-825005Y873028D01*
X-822811Y874711D01*
X-821128Y876905D01*
X-820070Y879459D01*
X-819709Y882200D01*
X-820070Y884941D01*
X-821128Y887495D01*
X-822811Y889689D01*
X-825005Y891372D01*
X-827559Y892430D01*
X-830300Y892791D01*
D02*
G37*
G36*
X-855700D02*
X-858441Y892430D01*
X-860995Y891372D01*
X-863189Y889689D01*
X-864872Y887495D01*
X-865930Y884941D01*
X-866291Y882200D01*
X-865930Y879459D01*
X-864872Y876905D01*
X-863189Y874711D01*
X-860995Y873028D01*
X-858441Y871970D01*
X-855700Y871609D01*
X-852959Y871970D01*
X-850405Y873028D01*
X-848211Y874711D01*
X-846528Y876905D01*
X-845470Y879459D01*
X-845109Y882200D01*
X-845470Y884941D01*
X-846528Y887495D01*
X-848211Y889689D01*
X-850405Y891372D01*
X-852959Y892430D01*
X-855700Y892791D01*
D02*
G37*
G36*
X-988300Y892600D02*
X-1009300D01*
Y871600D01*
X-988300D01*
Y892600D01*
D02*
G37*
G36*
X-948000Y892691D02*
X-950741Y892330D01*
X-953295Y891272D01*
X-955489Y889589D01*
X-957172Y887395D01*
X-958230Y884841D01*
X-958591Y882100D01*
X-958230Y879359D01*
X-957172Y876805D01*
X-955489Y874611D01*
X-953295Y872928D01*
X-950741Y871870D01*
X-948000Y871509D01*
X-945259Y871870D01*
X-942705Y872928D01*
X-940511Y874611D01*
X-938828Y876805D01*
X-937770Y879359D01*
X-937409Y882100D01*
X-937770Y884841D01*
X-938828Y887395D01*
X-940511Y889589D01*
X-942705Y891272D01*
X-945259Y892330D01*
X-948000Y892691D01*
D02*
G37*
G36*
X-973400D02*
X-976141Y892330D01*
X-978695Y891272D01*
X-980889Y889589D01*
X-982572Y887395D01*
X-983630Y884841D01*
X-983991Y882100D01*
X-983630Y879359D01*
X-982572Y876805D01*
X-980889Y874611D01*
X-978695Y872928D01*
X-976141Y871870D01*
X-973400Y871509D01*
X-970659Y871870D01*
X-968105Y872928D01*
X-965911Y874611D01*
X-964228Y876805D01*
X-963170Y879359D01*
X-962809Y882100D01*
X-963170Y884841D01*
X-964228Y887395D01*
X-965911Y889589D01*
X-968105Y891272D01*
X-970659Y892330D01*
X-973400Y892691D01*
D02*
G37*
G36*
X-1120850Y828013D02*
X-1122743Y827763D01*
X-1124506Y827033D01*
X-1126021Y825871D01*
X-1127183Y824356D01*
X-1127913Y822593D01*
X-1128163Y820700D01*
X-1127913Y818807D01*
X-1127183Y817044D01*
X-1126021Y815529D01*
X-1124506Y814367D01*
X-1122743Y813637D01*
X-1120850Y813388D01*
X-1118957Y813637D01*
X-1117194Y814367D01*
X-1115679Y815529D01*
X-1114517Y817044D01*
X-1113787Y818807D01*
X-1113537Y820700D01*
X-1113787Y822593D01*
X-1114517Y824356D01*
X-1115679Y825871D01*
X-1117194Y827033D01*
X-1118957Y827763D01*
X-1120850Y828013D01*
D02*
G37*
G36*
X-1195350Y829273D02*
X-1197569Y828981D01*
X-1199637Y828125D01*
X-1201412Y826762D01*
X-1202775Y824987D01*
X-1203631Y822919D01*
X-1203923Y820700D01*
X-1203631Y818481D01*
X-1202775Y816413D01*
X-1201412Y814638D01*
X-1199637Y813275D01*
X-1197569Y812419D01*
X-1195350Y812127D01*
X-1193131Y812419D01*
X-1191063Y813275D01*
X-1189288Y814638D01*
X-1187925Y816413D01*
X-1187069Y818481D01*
X-1186777Y820700D01*
X-1187069Y822919D01*
X-1187925Y824987D01*
X-1189288Y826762D01*
X-1191063Y828125D01*
X-1193131Y828981D01*
X-1195350Y829273D01*
D02*
G37*
G36*
X-898000Y796773D02*
X-900240D01*
X-902682Y796287D01*
X-904753Y794903D01*
X-906137Y792832D01*
X-906623Y790390D01*
Y785400D01*
X-898000D01*
Y796773D01*
D02*
G37*
G36*
X-835500Y793719D02*
X-837588Y793444D01*
X-839535Y792638D01*
X-841206Y791356D01*
X-842488Y789685D01*
X-843294Y787738D01*
X-843569Y785650D01*
Y780150D01*
X-843294Y778062D01*
X-842488Y776115D01*
X-841206Y774444D01*
X-839535Y773162D01*
X-837588Y772356D01*
X-835500Y772081D01*
X-833412Y772356D01*
X-831466Y773162D01*
X-829794Y774444D01*
X-828512Y776115D01*
X-827706Y778062D01*
X-827431Y780150D01*
Y785650D01*
X-827706Y787738D01*
X-828512Y789685D01*
X-829794Y791356D01*
X-831466Y792638D01*
X-833412Y793444D01*
X-835500Y793719D01*
D02*
G37*
G36*
X-855500D02*
X-857588Y793444D01*
X-859535Y792638D01*
X-861206Y791356D01*
X-862488Y789685D01*
X-863294Y787738D01*
X-863569Y785650D01*
Y780150D01*
X-863294Y778062D01*
X-862488Y776115D01*
X-861206Y774444D01*
X-859535Y773162D01*
X-857588Y772356D01*
X-855500Y772081D01*
X-853412Y772356D01*
X-851466Y773162D01*
X-849794Y774444D01*
X-848512Y776115D01*
X-847706Y778062D01*
X-847431Y780150D01*
Y785650D01*
X-847706Y787738D01*
X-848512Y789685D01*
X-849794Y791356D01*
X-851466Y792638D01*
X-853412Y793444D01*
X-855500Y793719D01*
D02*
G37*
G36*
X-890760Y796773D02*
X-893000D01*
Y782900D01*
Y769027D01*
X-890760D01*
X-888317Y769513D01*
X-886247Y770897D01*
X-884863Y772968D01*
X-884377Y775410D01*
X-882596Y775977D01*
X-882377Y775971D01*
X-881206Y774444D01*
X-879535Y773162D01*
X-877588Y772356D01*
X-875500Y772081D01*
X-873412Y772356D01*
X-871466Y773162D01*
X-869794Y774444D01*
X-868512Y776115D01*
X-867706Y778062D01*
X-867431Y780150D01*
Y785650D01*
X-867706Y787738D01*
X-868512Y789685D01*
X-869794Y791356D01*
X-871466Y792638D01*
X-873412Y793444D01*
X-875500Y793719D01*
X-877588Y793444D01*
X-879535Y792638D01*
X-881206Y791356D01*
X-882377Y789829D01*
X-882596Y789822D01*
X-884377Y790390D01*
X-884863Y792832D01*
X-886247Y794903D01*
X-888317Y796287D01*
X-890760Y796773D01*
D02*
G37*
G36*
X-950200Y781487D02*
X-951224Y781352D01*
X-954508Y779992D01*
X-957328Y777828D01*
X-959492Y775008D01*
X-960853Y771724D01*
X-962779Y771068D01*
X-962948Y771129D01*
X-963928Y773495D01*
X-965611Y775689D01*
X-967805Y777372D01*
X-970359Y778430D01*
X-973100Y778791D01*
X-975841Y778430D01*
X-978395Y777372D01*
X-980589Y775689D01*
X-982272Y773495D01*
X-983330Y770941D01*
X-983691Y768200D01*
X-983330Y765459D01*
X-982272Y762905D01*
X-980589Y760711D01*
X-978395Y759028D01*
X-975841Y757970D01*
X-973100Y757609D01*
X-970359Y757970D01*
X-967805Y759028D01*
X-965611Y760711D01*
X-963928Y762905D01*
X-962948Y765271D01*
X-962779Y765332D01*
X-960853Y764676D01*
X-959492Y761392D01*
X-957328Y758572D01*
X-954508Y756408D01*
X-951224Y755048D01*
X-950200Y754913D01*
Y768200D01*
Y781487D01*
D02*
G37*
G36*
X-945200D02*
Y770700D01*
X-934413D01*
X-934548Y771724D01*
X-935908Y775008D01*
X-938072Y777828D01*
X-940892Y779992D01*
X-944176Y781352D01*
X-945200Y781487D01*
D02*
G37*
G36*
X-898000Y780400D02*
X-906623D01*
Y775410D01*
X-906137Y772968D01*
X-904753Y770897D01*
X-902682Y769513D01*
X-900240Y769027D01*
X-898000D01*
Y780400D01*
D02*
G37*
G36*
X-988000Y778700D02*
X-1009000D01*
Y757700D01*
X-988000D01*
Y778700D01*
D02*
G37*
G36*
X-934413Y765700D02*
X-945200D01*
Y754913D01*
X-944176Y755048D01*
X-940892Y756408D01*
X-938072Y758572D01*
X-935908Y761392D01*
X-934548Y764676D01*
X-934413Y765700D01*
D02*
G37*
G36*
X-1114950Y727686D02*
X-1117561Y727343D01*
X-1119993Y726335D01*
X-1122082Y724732D01*
X-1123685Y722643D01*
X-1124693Y720210D01*
X-1125036Y717600D01*
X-1124693Y714989D01*
X-1123685Y712557D01*
X-1122082Y710468D01*
X-1119993Y708865D01*
X-1117561Y707857D01*
X-1114950Y707514D01*
X-1112339Y707857D01*
X-1109907Y708865D01*
X-1107818Y710468D01*
X-1106215Y712557D01*
X-1105207Y714989D01*
X-1104864Y717600D01*
X-1105207Y720210D01*
X-1106215Y722643D01*
X-1107818Y724732D01*
X-1109907Y726335D01*
X-1112339Y727343D01*
X-1114950Y727686D01*
D02*
G37*
G36*
X-832200Y637194D02*
X-836023Y636818D01*
X-839698Y635703D01*
X-843086Y633892D01*
X-844113Y633049D01*
X-832200Y621135D01*
X-820287Y633049D01*
X-821314Y633892D01*
X-824702Y635703D01*
X-828377Y636818D01*
X-832200Y637194D01*
D02*
G37*
G36*
X-847649Y629513D02*
X-848492Y628486D01*
X-850303Y625098D01*
X-851418Y621423D01*
X-851794Y617600D01*
X-851418Y613777D01*
X-850303Y610102D01*
X-848492Y606714D01*
X-847649Y605687D01*
X-835736Y617600D01*
X-847649Y629513D01*
D02*
G37*
G36*
X-816751Y629513D02*
X-828664Y617600D01*
X-816751Y605687D01*
X-815908Y606714D01*
X-814097Y610102D01*
X-812982Y613777D01*
X-812606Y617600D01*
X-812982Y621423D01*
X-814097Y625098D01*
X-815908Y628486D01*
X-816751Y629513D01*
D02*
G37*
G36*
X-832200Y614064D02*
X-844113Y602151D01*
X-843086Y601308D01*
X-839698Y599497D01*
X-836023Y598382D01*
X-832200Y598006D01*
X-828377Y598382D01*
X-824702Y599497D01*
X-821314Y601308D01*
X-820287Y602151D01*
X-832200Y614064D01*
D02*
G37*
G36*
X-1335000Y541091D02*
X-1337741Y540730D01*
X-1340295Y539672D01*
X-1340488Y539524D01*
X-1335000Y534035D01*
X-1329512Y539524D01*
X-1329705Y539672D01*
X-1332259Y540730D01*
X-1335000Y541091D01*
D02*
G37*
G36*
X-1344024Y535988D02*
X-1344172Y535795D01*
X-1345230Y533241D01*
X-1345591Y530500D01*
X-1345230Y527759D01*
X-1344172Y525205D01*
X-1344024Y525012D01*
X-1338536Y530500D01*
X-1344024Y535988D01*
D02*
G37*
G36*
X-1325976Y535988D02*
X-1331465Y530500D01*
X-1325976Y525012D01*
X-1325828Y525205D01*
X-1324770Y527759D01*
X-1324409Y530500D01*
X-1324770Y533241D01*
X-1325828Y535795D01*
X-1325976Y535988D01*
D02*
G37*
G36*
X-1360000Y538065D02*
X-1361958Y537807D01*
X-1363782Y537051D01*
X-1365349Y535849D01*
X-1366551Y534282D01*
X-1367307Y532458D01*
X-1367565Y530500D01*
X-1367307Y528542D01*
X-1366551Y526718D01*
X-1365349Y525151D01*
X-1363782Y523949D01*
X-1361958Y523193D01*
X-1360000Y522935D01*
X-1358042Y523193D01*
X-1356218Y523949D01*
X-1354651Y525151D01*
X-1353449Y526718D01*
X-1352693Y528542D01*
X-1352435Y530500D01*
X-1352693Y532458D01*
X-1353449Y534282D01*
X-1354651Y535849D01*
X-1356218Y537051D01*
X-1358042Y537807D01*
X-1360000Y538065D01*
D02*
G37*
G36*
X-1114950Y525165D02*
X-1116908Y524907D01*
X-1118732Y524151D01*
X-1120299Y522949D01*
X-1121501Y521382D01*
X-1122257Y519558D01*
X-1122515Y517600D01*
X-1122257Y515642D01*
X-1121501Y513818D01*
X-1120299Y512251D01*
X-1118732Y511049D01*
X-1116908Y510293D01*
X-1114950Y510035D01*
X-1112992Y510293D01*
X-1111168Y511049D01*
X-1109601Y512251D01*
X-1108399Y513818D01*
X-1107643Y515642D01*
X-1107385Y517600D01*
X-1107643Y519558D01*
X-1108399Y521382D01*
X-1109601Y522949D01*
X-1111168Y524151D01*
X-1112992Y524907D01*
X-1114950Y525165D01*
D02*
G37*
G36*
X-1380000Y528065D02*
X-1381958Y527807D01*
X-1383782Y527051D01*
X-1385349Y525849D01*
X-1386551Y524282D01*
X-1387307Y522458D01*
X-1387565Y520500D01*
X-1387307Y518542D01*
X-1386551Y516718D01*
X-1385349Y515151D01*
X-1383782Y513949D01*
X-1381958Y513193D01*
X-1380655Y513022D01*
Y511004D01*
X-1381309Y510918D01*
X-1382741Y510730D01*
X-1385295Y509672D01*
X-1385488Y509524D01*
X-1380000Y504035D01*
X-1374512Y509524D01*
X-1374705Y509672D01*
X-1377259Y510730D01*
X-1378691Y510918D01*
X-1379345Y511004D01*
Y513022D01*
X-1378042Y513193D01*
X-1376218Y513949D01*
X-1374651Y515151D01*
X-1373449Y516718D01*
X-1372693Y518542D01*
X-1372435Y520500D01*
X-1372693Y522458D01*
X-1373449Y524282D01*
X-1374651Y525849D01*
X-1376218Y527051D01*
X-1378042Y527807D01*
X-1380000Y528065D01*
D02*
G37*
G36*
X-1315000D02*
X-1316958Y527807D01*
X-1318782Y527051D01*
X-1320349Y525849D01*
X-1321551Y524282D01*
X-1322307Y522458D01*
X-1322565Y520500D01*
X-1322307Y518542D01*
X-1321551Y516718D01*
X-1320349Y515151D01*
X-1318782Y513949D01*
X-1316958Y513193D01*
X-1315655Y513022D01*
Y511004D01*
X-1316309Y510918D01*
X-1317741Y510730D01*
X-1320295Y509672D01*
X-1320488Y509524D01*
X-1315000Y504035D01*
X-1309512Y509524D01*
X-1309705Y509672D01*
X-1312259Y510730D01*
X-1313691Y510918D01*
X-1314345Y511004D01*
Y513022D01*
X-1313042Y513193D01*
X-1311218Y513949D01*
X-1309651Y515151D01*
X-1308449Y516718D01*
X-1307693Y518542D01*
X-1307435Y520500D01*
X-1307693Y522458D01*
X-1308449Y524282D01*
X-1309651Y525849D01*
X-1311218Y527051D01*
X-1313042Y527807D01*
X-1315000Y528065D01*
D02*
G37*
G36*
X-1335000Y526964D02*
X-1340488Y521476D01*
X-1340295Y521328D01*
X-1337741Y520270D01*
X-1336309Y520082D01*
X-1335655Y519996D01*
Y517979D01*
X-1336958Y517807D01*
X-1338782Y517051D01*
X-1340349Y515849D01*
X-1341551Y514282D01*
X-1342307Y512458D01*
X-1342565Y510500D01*
X-1342307Y508542D01*
X-1341551Y506718D01*
X-1340349Y505151D01*
X-1338782Y503949D01*
X-1336958Y503193D01*
X-1335000Y502935D01*
X-1333042Y503193D01*
X-1331218Y503949D01*
X-1329651Y505151D01*
X-1328449Y506718D01*
X-1327693Y508542D01*
X-1327435Y510500D01*
X-1327693Y512458D01*
X-1328449Y514282D01*
X-1329651Y515849D01*
X-1331218Y517051D01*
X-1333042Y517807D01*
X-1334345Y517979D01*
Y519996D01*
X-1333691Y520082D01*
X-1332259Y520270D01*
X-1329705Y521328D01*
X-1329512Y521476D01*
X-1335000Y526964D01*
D02*
G37*
G36*
X-1360000Y518065D02*
X-1361958Y517807D01*
X-1363782Y517051D01*
X-1365349Y515849D01*
X-1366551Y514282D01*
X-1367307Y512458D01*
X-1367565Y510500D01*
X-1367307Y508542D01*
X-1366551Y506718D01*
X-1365349Y505151D01*
X-1363782Y503949D01*
X-1361958Y503193D01*
X-1360000Y502935D01*
X-1358042Y503193D01*
X-1356218Y503949D01*
X-1354651Y505151D01*
X-1353449Y506718D01*
X-1352693Y508542D01*
X-1352435Y510500D01*
X-1352693Y512458D01*
X-1353449Y514282D01*
X-1354651Y515849D01*
X-1356218Y517051D01*
X-1358042Y517807D01*
X-1360000Y518065D01*
D02*
G37*
G36*
X-1370976Y505988D02*
X-1376464Y500500D01*
X-1370976Y495012D01*
X-1370828Y495205D01*
X-1369770Y497759D01*
X-1369409Y500500D01*
X-1369770Y503241D01*
X-1370828Y505795D01*
X-1370976Y505988D01*
D02*
G37*
G36*
X-1305976D02*
X-1311464Y500500D01*
X-1305976Y495012D01*
X-1305828Y495205D01*
X-1304770Y497759D01*
X-1304409Y500500D01*
X-1304770Y503241D01*
X-1305828Y505795D01*
X-1305976Y505988D01*
D02*
G37*
G36*
X-1324024Y505988D02*
X-1324172Y505795D01*
X-1325230Y503241D01*
X-1325591Y500500D01*
X-1325230Y497759D01*
X-1324172Y495205D01*
X-1324024Y495012D01*
X-1318535Y500500D01*
X-1324024Y505988D01*
D02*
G37*
G36*
X-1389024D02*
X-1389172Y505795D01*
X-1390230Y503241D01*
X-1390591Y500500D01*
X-1390230Y497759D01*
X-1389172Y495205D01*
X-1389024Y495012D01*
X-1383535Y500500D01*
X-1389024Y505988D01*
D02*
G37*
G36*
X-1335000Y498065D02*
X-1336958Y497807D01*
X-1338782Y497051D01*
X-1340349Y495849D01*
X-1341551Y494282D01*
X-1342307Y492458D01*
X-1342565Y490500D01*
X-1342307Y488542D01*
X-1341551Y486718D01*
X-1340349Y485151D01*
X-1338782Y483949D01*
X-1336958Y483193D01*
X-1335000Y482935D01*
X-1333042Y483193D01*
X-1331218Y483949D01*
X-1329651Y485151D01*
X-1328449Y486718D01*
X-1327693Y488542D01*
X-1327435Y490500D01*
X-1327693Y492458D01*
X-1328449Y494282D01*
X-1329651Y495849D01*
X-1331218Y497051D01*
X-1333042Y497807D01*
X-1335000Y498065D01*
D02*
G37*
G36*
X-1360000D02*
X-1361958Y497807D01*
X-1363782Y497051D01*
X-1365349Y495849D01*
X-1366551Y494282D01*
X-1367307Y492458D01*
X-1367565Y490500D01*
X-1367307Y488542D01*
X-1366551Y486718D01*
X-1365349Y485151D01*
X-1363782Y483949D01*
X-1361958Y483193D01*
X-1360655Y483022D01*
Y481004D01*
X-1361309Y480918D01*
X-1362741Y480730D01*
X-1365295Y479672D01*
X-1365488Y479524D01*
X-1360000Y474035D01*
X-1354512Y479524D01*
X-1354705Y479672D01*
X-1357259Y480730D01*
X-1358691Y480918D01*
X-1359345Y481004D01*
Y483022D01*
X-1358042Y483193D01*
X-1356218Y483949D01*
X-1354651Y485151D01*
X-1353449Y486718D01*
X-1352693Y488542D01*
X-1352435Y490500D01*
X-1352693Y492458D01*
X-1353449Y494282D01*
X-1354651Y495849D01*
X-1356218Y497051D01*
X-1358042Y497807D01*
X-1360000Y498065D01*
D02*
G37*
G36*
X-1315000Y496964D02*
X-1320488Y491476D01*
X-1320295Y491328D01*
X-1317741Y490270D01*
X-1316309Y490082D01*
X-1315655Y489996D01*
Y487979D01*
X-1316958Y487807D01*
X-1318782Y487051D01*
X-1320349Y485849D01*
X-1321551Y484282D01*
X-1322307Y482458D01*
X-1322565Y480500D01*
X-1322307Y478542D01*
X-1321551Y476718D01*
X-1320349Y475151D01*
X-1318782Y473949D01*
X-1316958Y473193D01*
X-1315000Y472935D01*
X-1313042Y473193D01*
X-1311218Y473949D01*
X-1309651Y475151D01*
X-1308449Y476718D01*
X-1307693Y478542D01*
X-1307435Y480500D01*
X-1307693Y482458D01*
X-1308449Y484282D01*
X-1309651Y485849D01*
X-1311218Y487051D01*
X-1313042Y487807D01*
X-1314345Y487979D01*
Y489996D01*
X-1313691Y490082D01*
X-1312259Y490270D01*
X-1309705Y491328D01*
X-1309512Y491476D01*
X-1315000Y496964D01*
D02*
G37*
G36*
X-1380000D02*
X-1385488Y491476D01*
X-1385295Y491328D01*
X-1382741Y490270D01*
X-1381309Y490082D01*
X-1380655Y489996D01*
Y487979D01*
X-1381958Y487807D01*
X-1383782Y487051D01*
X-1385349Y485849D01*
X-1386551Y484282D01*
X-1387307Y482458D01*
X-1387565Y480500D01*
X-1387307Y478542D01*
X-1386551Y476718D01*
X-1385349Y475151D01*
X-1383782Y473949D01*
X-1381958Y473193D01*
X-1380000Y472935D01*
X-1378042Y473193D01*
X-1376218Y473949D01*
X-1374651Y475151D01*
X-1373449Y476718D01*
X-1372693Y478542D01*
X-1372435Y480500D01*
X-1372693Y482458D01*
X-1373449Y484282D01*
X-1374651Y485849D01*
X-1376218Y487051D01*
X-1378042Y487807D01*
X-1379345Y487979D01*
Y489996D01*
X-1378691Y490082D01*
X-1377259Y490270D01*
X-1374705Y491328D01*
X-1374512Y491476D01*
X-1380000Y496964D01*
D02*
G37*
G36*
X-1369024Y475988D02*
X-1369172Y475795D01*
X-1370230Y473241D01*
X-1370591Y470500D01*
X-1370230Y467759D01*
X-1369172Y465205D01*
X-1369024Y465012D01*
X-1363536Y470500D01*
X-1369024Y475988D01*
D02*
G37*
G36*
X-1350976Y475988D02*
X-1356465Y470500D01*
X-1350976Y465012D01*
X-1350828Y465205D01*
X-1349770Y467759D01*
X-1349409Y470500D01*
X-1349770Y473241D01*
X-1350828Y475795D01*
X-1350976Y475988D01*
D02*
G37*
G36*
X-1335000Y478065D02*
X-1336958Y477807D01*
X-1338782Y477051D01*
X-1340349Y475849D01*
X-1341551Y474282D01*
X-1342307Y472458D01*
X-1342565Y470500D01*
X-1342307Y468542D01*
X-1341551Y466718D01*
X-1340349Y465151D01*
X-1338782Y463949D01*
X-1336958Y463193D01*
X-1335000Y462935D01*
X-1333042Y463193D01*
X-1331218Y463949D01*
X-1329651Y465151D01*
X-1328449Y466718D01*
X-1327693Y468542D01*
X-1327435Y470500D01*
X-1327693Y472458D01*
X-1328449Y474282D01*
X-1329651Y475849D01*
X-1331218Y477051D01*
X-1333042Y477807D01*
X-1335000Y478065D01*
D02*
G37*
G36*
X-1111950Y483138D02*
X-1114626Y482786D01*
X-1117119Y481753D01*
X-1119260Y480110D01*
X-1120903Y477969D01*
X-1121936Y475476D01*
X-1122289Y472800D01*
X-1121936Y470124D01*
X-1120903Y467631D01*
X-1119260Y465490D01*
X-1117119Y463847D01*
X-1114626Y462814D01*
X-1111950Y462462D01*
X-1109274Y462814D01*
X-1106781Y463847D01*
X-1104640Y465490D01*
X-1102997Y467631D01*
X-1101964Y470124D01*
X-1101612Y472800D01*
X-1101964Y475476D01*
X-1102997Y477969D01*
X-1104640Y480110D01*
X-1106781Y481753D01*
X-1109274Y482786D01*
X-1111950Y483138D01*
D02*
G37*
G36*
X-1315000Y468065D02*
X-1316958Y467807D01*
X-1318782Y467051D01*
X-1320349Y465849D01*
X-1321551Y464282D01*
X-1322307Y462458D01*
X-1322565Y460500D01*
X-1322307Y458542D01*
X-1321551Y456718D01*
X-1320349Y455151D01*
X-1318782Y453949D01*
X-1316958Y453193D01*
X-1315000Y452935D01*
X-1313042Y453193D01*
X-1311218Y453949D01*
X-1309651Y455151D01*
X-1308449Y456718D01*
X-1307693Y458542D01*
X-1307435Y460500D01*
X-1307693Y462458D01*
X-1308449Y464282D01*
X-1309651Y465849D01*
X-1311218Y467051D01*
X-1313042Y467807D01*
X-1315000Y468065D01*
D02*
G37*
G36*
X-1380000D02*
X-1381958Y467807D01*
X-1383782Y467051D01*
X-1385349Y465849D01*
X-1386551Y464282D01*
X-1387307Y462458D01*
X-1387565Y460500D01*
X-1387307Y458542D01*
X-1386551Y456718D01*
X-1385349Y455151D01*
X-1383782Y453949D01*
X-1381958Y453193D01*
X-1380000Y452935D01*
X-1378042Y453193D01*
X-1376218Y453949D01*
X-1374651Y455151D01*
X-1373449Y456718D01*
X-1372693Y458542D01*
X-1372435Y460500D01*
X-1372693Y462458D01*
X-1373449Y464282D01*
X-1374651Y465849D01*
X-1376218Y467051D01*
X-1378042Y467807D01*
X-1380000Y468065D01*
D02*
G37*
G36*
X-1335000Y458065D02*
X-1336958Y457807D01*
X-1338782Y457051D01*
X-1340349Y455849D01*
X-1341551Y454282D01*
X-1342307Y452458D01*
X-1342565Y450500D01*
X-1342307Y448542D01*
X-1341551Y446718D01*
X-1340349Y445151D01*
X-1338782Y443949D01*
X-1336958Y443193D01*
X-1335000Y442935D01*
X-1333042Y443193D01*
X-1331218Y443949D01*
X-1329651Y445151D01*
X-1328449Y446718D01*
X-1327693Y448542D01*
X-1327435Y450500D01*
X-1327693Y452458D01*
X-1328449Y454282D01*
X-1329651Y455849D01*
X-1331218Y457051D01*
X-1333042Y457807D01*
X-1335000Y458065D01*
D02*
G37*
G36*
X-1360000Y466964D02*
X-1365488Y461476D01*
X-1365295Y461328D01*
X-1362741Y460270D01*
X-1361309Y460082D01*
X-1360655Y459996D01*
Y457979D01*
X-1361958Y457807D01*
X-1363782Y457051D01*
X-1365349Y455849D01*
X-1366551Y454282D01*
X-1367307Y452458D01*
X-1367565Y450500D01*
X-1367307Y448542D01*
X-1366551Y446718D01*
X-1365349Y445151D01*
X-1363782Y443949D01*
X-1361958Y443193D01*
X-1360000Y442935D01*
X-1358042Y443193D01*
X-1356218Y443949D01*
X-1354651Y445151D01*
X-1353449Y446718D01*
X-1352693Y448542D01*
X-1352435Y450500D01*
X-1352693Y452458D01*
X-1353449Y454282D01*
X-1354651Y455849D01*
X-1356218Y457051D01*
X-1358042Y457807D01*
X-1359345Y457979D01*
Y459996D01*
X-1358691Y460082D01*
X-1357259Y460270D01*
X-1354705Y461328D01*
X-1354512Y461476D01*
X-1360000Y466964D01*
D02*
G37*
G36*
X-1315000Y448065D02*
X-1316958Y447807D01*
X-1318782Y447051D01*
X-1320349Y445849D01*
X-1321551Y444282D01*
X-1322307Y442458D01*
X-1322565Y440500D01*
X-1322307Y438542D01*
X-1321551Y436718D01*
X-1320349Y435151D01*
X-1318782Y433949D01*
X-1316958Y433193D01*
X-1315000Y432935D01*
X-1313042Y433193D01*
X-1311218Y433949D01*
X-1309651Y435151D01*
X-1308449Y436718D01*
X-1307693Y438542D01*
X-1307435Y440500D01*
X-1307693Y442458D01*
X-1308449Y444282D01*
X-1309651Y445849D01*
X-1311218Y447051D01*
X-1313042Y447807D01*
X-1315000Y448065D01*
D02*
G37*
G36*
X-1380000D02*
X-1381958Y447807D01*
X-1383782Y447051D01*
X-1385349Y445849D01*
X-1386551Y444282D01*
X-1387307Y442458D01*
X-1387565Y440500D01*
X-1387307Y438542D01*
X-1386551Y436718D01*
X-1385349Y435151D01*
X-1383782Y433949D01*
X-1381958Y433193D01*
X-1380000Y432935D01*
X-1378042Y433193D01*
X-1376218Y433949D01*
X-1374651Y435151D01*
X-1373449Y436718D01*
X-1372693Y438542D01*
X-1372435Y440500D01*
X-1372693Y442458D01*
X-1373449Y444282D01*
X-1374651Y445849D01*
X-1376218Y447051D01*
X-1378042Y447807D01*
X-1380000Y448065D01*
D02*
G37*
G36*
X-1335000Y438065D02*
X-1336958Y437807D01*
X-1338782Y437051D01*
X-1340349Y435849D01*
X-1341551Y434282D01*
X-1342307Y432458D01*
X-1342565Y430500D01*
X-1342356Y428917D01*
X-1343199Y427945D01*
X-1344002Y427408D01*
X-1347500Y427869D01*
X-1350998Y427408D01*
X-1351801Y427945D01*
X-1352644Y428917D01*
X-1352435Y430500D01*
X-1352693Y432458D01*
X-1353449Y434282D01*
X-1354651Y435849D01*
X-1356218Y437051D01*
X-1358042Y437807D01*
X-1360000Y438065D01*
X-1361958Y437807D01*
X-1363782Y437051D01*
X-1365349Y435849D01*
X-1366551Y434282D01*
X-1367307Y432458D01*
X-1367565Y430500D01*
X-1367307Y428542D01*
X-1366551Y426718D01*
X-1365349Y425151D01*
X-1363782Y423949D01*
X-1361958Y423193D01*
X-1360451Y422995D01*
X-1359699Y421830D01*
X-1359469Y420988D01*
X-1359511Y420934D01*
X-1360896Y417589D01*
X-1361369Y414000D01*
X-1360896Y410410D01*
X-1359511Y407066D01*
X-1357307Y404193D01*
X-1354434Y401989D01*
X-1351089Y400604D01*
X-1347500Y400131D01*
X-1343911Y400604D01*
X-1340566Y401989D01*
X-1337693Y404193D01*
X-1335489Y407066D01*
X-1334104Y410410D01*
X-1333631Y414000D01*
X-1334104Y417589D01*
X-1335489Y420934D01*
X-1335531Y420988D01*
X-1335301Y421830D01*
X-1334549Y422995D01*
X-1333042Y423193D01*
X-1331218Y423949D01*
X-1329651Y425151D01*
X-1328449Y426718D01*
X-1327693Y428542D01*
X-1327435Y430500D01*
X-1327693Y432458D01*
X-1328449Y434282D01*
X-1329651Y435849D01*
X-1331218Y437051D01*
X-1333042Y437807D01*
X-1335000Y438065D01*
D02*
G37*
G36*
X-1315000Y411091D02*
X-1317741Y410730D01*
X-1320295Y409672D01*
X-1320488Y409524D01*
X-1315000Y404035D01*
X-1309512Y409524D01*
X-1309705Y409672D01*
X-1312259Y410730D01*
X-1315000Y411091D01*
D02*
G37*
G36*
X-1305976Y405988D02*
X-1311464Y400500D01*
X-1305976Y395012D01*
X-1305828Y395205D01*
X-1304770Y397759D01*
X-1304409Y400500D01*
X-1304770Y403241D01*
X-1305828Y405795D01*
X-1305976Y405988D01*
D02*
G37*
G36*
X-1324024Y405988D02*
X-1324172Y405795D01*
X-1325230Y403241D01*
X-1325591Y400500D01*
X-1325230Y397759D01*
X-1324172Y395205D01*
X-1324024Y395012D01*
X-1318535Y400500D01*
X-1324024Y405988D01*
D02*
G37*
G36*
X-1360000Y401091D02*
X-1362741Y400730D01*
X-1365295Y399672D01*
X-1365488Y399524D01*
X-1360000Y394035D01*
X-1354512Y399524D01*
X-1354705Y399672D01*
X-1357259Y400730D01*
X-1360000Y401091D01*
D02*
G37*
G36*
X-1380000Y408065D02*
X-1381958Y407807D01*
X-1383782Y407051D01*
X-1385349Y405849D01*
X-1386551Y404282D01*
X-1387307Y402458D01*
X-1387565Y400500D01*
X-1387307Y398542D01*
X-1386551Y396718D01*
X-1385349Y395151D01*
X-1383782Y393949D01*
X-1381958Y393193D01*
X-1380000Y392935D01*
X-1378042Y393193D01*
X-1376218Y393949D01*
X-1374651Y395151D01*
X-1373449Y396718D01*
X-1372693Y398542D01*
X-1372435Y400500D01*
X-1372693Y402458D01*
X-1373449Y404282D01*
X-1374651Y405849D01*
X-1376218Y407051D01*
X-1378042Y407807D01*
X-1380000Y408065D01*
D02*
G37*
G36*
X-1369024Y395988D02*
X-1369172Y395795D01*
X-1370230Y393241D01*
X-1370591Y390500D01*
X-1370230Y387759D01*
X-1369172Y385205D01*
X-1369024Y385012D01*
X-1363536Y390500D01*
X-1369024Y395988D01*
D02*
G37*
G36*
X-1350976Y395988D02*
X-1356465Y390500D01*
X-1350976Y385012D01*
X-1350828Y385205D01*
X-1349770Y387759D01*
X-1349409Y390500D01*
X-1349770Y393241D01*
X-1350828Y395795D01*
X-1350976Y395988D01*
D02*
G37*
G36*
X-829200Y392394D02*
X-833023Y392018D01*
X-836698Y390903D01*
X-840086Y389092D01*
X-841113Y388249D01*
X-829200Y376335D01*
X-817287Y388249D01*
X-818314Y389092D01*
X-821702Y390903D01*
X-825377Y392018D01*
X-829200Y392394D01*
D02*
G37*
G36*
X-1335000Y398065D02*
X-1336958Y397807D01*
X-1338782Y397051D01*
X-1340349Y395849D01*
X-1341551Y394282D01*
X-1342307Y392458D01*
X-1342565Y390500D01*
X-1342307Y388542D01*
X-1341551Y386718D01*
X-1340349Y385151D01*
X-1338782Y383949D01*
X-1336958Y383193D01*
X-1335655Y383022D01*
Y381004D01*
X-1336309Y380918D01*
X-1337741Y380730D01*
X-1340295Y379672D01*
X-1340488Y379524D01*
X-1335000Y374035D01*
X-1329512Y379524D01*
X-1329705Y379672D01*
X-1332259Y380730D01*
X-1333691Y380918D01*
X-1334345Y381004D01*
Y383022D01*
X-1333042Y383193D01*
X-1331218Y383949D01*
X-1329651Y385151D01*
X-1328449Y386718D01*
X-1327693Y388542D01*
X-1327435Y390500D01*
X-1327693Y392458D01*
X-1328449Y394282D01*
X-1329651Y395849D01*
X-1331218Y397051D01*
X-1333042Y397807D01*
X-1335000Y398065D01*
D02*
G37*
G36*
X-1315000Y396964D02*
X-1320488Y391476D01*
X-1320295Y391328D01*
X-1317741Y390270D01*
X-1316309Y390082D01*
X-1315655Y389996D01*
Y387979D01*
X-1316958Y387807D01*
X-1318782Y387051D01*
X-1320349Y385849D01*
X-1321551Y384282D01*
X-1322307Y382458D01*
X-1322565Y380500D01*
X-1322307Y378542D01*
X-1321551Y376718D01*
X-1320349Y375151D01*
X-1318782Y373949D01*
X-1316958Y373193D01*
X-1315000Y372935D01*
X-1313042Y373193D01*
X-1311218Y373949D01*
X-1309651Y375151D01*
X-1308449Y376718D01*
X-1307693Y378542D01*
X-1307435Y380500D01*
X-1307693Y382458D01*
X-1308449Y384282D01*
X-1309651Y385849D01*
X-1311218Y387051D01*
X-1313042Y387807D01*
X-1314345Y387979D01*
Y389996D01*
X-1313691Y390082D01*
X-1312259Y390270D01*
X-1309705Y391328D01*
X-1309512Y391476D01*
X-1315000Y396964D01*
D02*
G37*
G36*
X-1344024Y375988D02*
X-1344172Y375795D01*
X-1345230Y373241D01*
X-1345591Y370500D01*
X-1345230Y367759D01*
X-1344172Y365205D01*
X-1344024Y365012D01*
X-1338536Y370500D01*
X-1344024Y375988D01*
D02*
G37*
G36*
X-1325976Y375988D02*
X-1331465Y370500D01*
X-1325976Y365012D01*
X-1325828Y365205D01*
X-1324770Y367759D01*
X-1324409Y370500D01*
X-1324770Y373241D01*
X-1325828Y375795D01*
X-1325976Y375988D01*
D02*
G37*
G36*
X-1380000Y388065D02*
X-1381958Y387807D01*
X-1383782Y387051D01*
X-1385349Y385849D01*
X-1386551Y384282D01*
X-1387307Y382458D01*
X-1387565Y380500D01*
X-1387307Y378542D01*
X-1386551Y376718D01*
X-1385349Y375151D01*
X-1383782Y373949D01*
X-1381958Y373193D01*
X-1380655Y373022D01*
Y371004D01*
X-1381309Y370918D01*
X-1382741Y370730D01*
X-1385295Y369672D01*
X-1385488Y369524D01*
X-1380000Y364036D01*
X-1374512Y369524D01*
X-1374705Y369672D01*
X-1377259Y370730D01*
X-1378691Y370918D01*
X-1379345Y371004D01*
Y373022D01*
X-1378042Y373193D01*
X-1376218Y373949D01*
X-1374651Y375151D01*
X-1373449Y376718D01*
X-1372693Y378542D01*
X-1372435Y380500D01*
X-1372693Y382458D01*
X-1373449Y384282D01*
X-1374651Y385849D01*
X-1376218Y387051D01*
X-1378042Y387807D01*
X-1380000Y388065D01*
D02*
G37*
G36*
X-43900Y376165D02*
X-45858Y375907D01*
X-47682Y375151D01*
X-49249Y373949D01*
X-50451Y372382D01*
X-51207Y370558D01*
X-51465Y368600D01*
X-51207Y366642D01*
X-50451Y364818D01*
X-49249Y363251D01*
X-47682Y362049D01*
X-45858Y361293D01*
X-43900Y361035D01*
X-41942Y361293D01*
X-40118Y362049D01*
X-38551Y363251D01*
X-37349Y364818D01*
X-36593Y366642D01*
X-36335Y368600D01*
X-36593Y370558D01*
X-37349Y372382D01*
X-38551Y373949D01*
X-40118Y375151D01*
X-41942Y375907D01*
X-43900Y376165D01*
D02*
G37*
G36*
X-844649Y384713D02*
X-845492Y383686D01*
X-847303Y380298D01*
X-848418Y376623D01*
X-848794Y372800D01*
X-848418Y368977D01*
X-847303Y365302D01*
X-845492Y361914D01*
X-844649Y360887D01*
X-832736Y372800D01*
X-844649Y384713D01*
D02*
G37*
G36*
X-813751Y384713D02*
X-825665Y372800D01*
X-813751Y360887D01*
X-812908Y361914D01*
X-811097Y365302D01*
X-809982Y368977D01*
X-809606Y372800D01*
X-809982Y376623D01*
X-811097Y380298D01*
X-812908Y383686D01*
X-813751Y384713D01*
D02*
G37*
G36*
X-731900Y378686D02*
X-734510Y378343D01*
X-736943Y377335D01*
X-739032Y375732D01*
X-740635Y373643D01*
X-741643Y371211D01*
X-741986Y368600D01*
X-741643Y365989D01*
X-740635Y363557D01*
X-739032Y361468D01*
X-736943Y359865D01*
X-734510Y358857D01*
X-731900Y358514D01*
X-729289Y358857D01*
X-726857Y359865D01*
X-724768Y361468D01*
X-723165Y363557D01*
X-722157Y365989D01*
X-721814Y368600D01*
X-722157Y371211D01*
X-723165Y373643D01*
X-724768Y375732D01*
X-726857Y377335D01*
X-729289Y378343D01*
X-731900Y378686D01*
D02*
G37*
G36*
X-1360000Y386964D02*
X-1365488Y381476D01*
X-1365295Y381328D01*
X-1362741Y380270D01*
X-1361309Y380082D01*
X-1360655Y379996D01*
Y377979D01*
X-1361958Y377807D01*
X-1363782Y377051D01*
X-1365349Y375849D01*
X-1366551Y374282D01*
X-1367307Y372458D01*
X-1367565Y370500D01*
X-1367307Y368542D01*
X-1366551Y366718D01*
X-1365349Y365151D01*
X-1363782Y363949D01*
X-1361958Y363193D01*
X-1360655Y363022D01*
Y361004D01*
X-1361309Y360918D01*
X-1362741Y360730D01*
X-1365295Y359672D01*
X-1367489Y357989D01*
X-1367771Y357620D01*
X-1369684Y358413D01*
X-1369409Y360500D01*
X-1369770Y363241D01*
X-1370828Y365795D01*
X-1370976Y365988D01*
X-1378232Y358732D01*
X-1385651Y351314D01*
X-1385543Y350815D01*
Y350185D01*
X-1385651Y349686D01*
X-1378232Y342268D01*
X-1370976Y335012D01*
X-1370828Y335205D01*
X-1369770Y337759D01*
X-1369409Y340500D01*
X-1369684Y342587D01*
X-1367771Y343380D01*
X-1367489Y343011D01*
X-1365295Y341328D01*
X-1362741Y340270D01*
X-1361309Y340082D01*
X-1360655Y339996D01*
Y337979D01*
X-1361958Y337807D01*
X-1363782Y337051D01*
X-1365349Y335849D01*
X-1366551Y334282D01*
X-1367307Y332458D01*
X-1367565Y330500D01*
X-1367307Y328542D01*
X-1366551Y326718D01*
X-1365349Y325151D01*
X-1363782Y323949D01*
X-1361958Y323193D01*
X-1360655Y323022D01*
Y321004D01*
X-1361309Y320918D01*
X-1362741Y320730D01*
X-1365295Y319672D01*
X-1365488Y319524D01*
X-1360000Y314035D01*
X-1354512Y319524D01*
X-1354705Y319672D01*
X-1357259Y320730D01*
X-1358691Y320918D01*
X-1359345Y321004D01*
Y323022D01*
X-1358042Y323193D01*
X-1356218Y323949D01*
X-1354651Y325151D01*
X-1353449Y326718D01*
X-1352693Y328542D01*
X-1352435Y330500D01*
X-1352693Y332458D01*
X-1353449Y334282D01*
X-1354651Y335849D01*
X-1356218Y337051D01*
X-1358042Y337807D01*
X-1359345Y337979D01*
Y339996D01*
X-1358691Y340082D01*
X-1357259Y340270D01*
X-1354705Y341328D01*
X-1354512Y341476D01*
X-1361768Y348732D01*
X-1360000Y350500D01*
X-1361768Y352268D01*
X-1354512Y359524D01*
X-1354705Y359672D01*
X-1357259Y360730D01*
X-1358691Y360918D01*
X-1359345Y361004D01*
Y363022D01*
X-1358042Y363193D01*
X-1356218Y363949D01*
X-1354651Y365151D01*
X-1353449Y366718D01*
X-1352693Y368542D01*
X-1352435Y370500D01*
X-1352693Y372458D01*
X-1353449Y374282D01*
X-1354651Y375849D01*
X-1356218Y377051D01*
X-1358042Y377807D01*
X-1359345Y377979D01*
Y379996D01*
X-1358691Y380082D01*
X-1357259Y380270D01*
X-1354705Y381328D01*
X-1354512Y381476D01*
X-1360000Y386964D01*
D02*
G37*
G36*
X-1389024Y365988D02*
X-1389172Y365795D01*
X-1390230Y363241D01*
X-1390591Y360500D01*
X-1390230Y357759D01*
X-1389172Y355205D01*
X-1389024Y355012D01*
X-1383535Y360500D01*
X-1389024Y365988D01*
D02*
G37*
G36*
X-829200Y369264D02*
X-841113Y357351D01*
X-840086Y356508D01*
X-836698Y354697D01*
X-833023Y353582D01*
X-829200Y353206D01*
X-825377Y353582D01*
X-821702Y354697D01*
X-818314Y356508D01*
X-817287Y357351D01*
X-829200Y369264D01*
D02*
G37*
G36*
X-1350976Y355988D02*
X-1356465Y350500D01*
X-1350976Y345012D01*
X-1350828Y345205D01*
X-1349770Y347759D01*
X-1349409Y350500D01*
X-1349770Y353241D01*
X-1350828Y355795D01*
X-1350976Y355988D01*
D02*
G37*
G36*
X-1315000Y368065D02*
X-1316958Y367807D01*
X-1318782Y367051D01*
X-1320349Y365849D01*
X-1321551Y364282D01*
X-1322307Y362458D01*
X-1322565Y360500D01*
X-1322307Y358542D01*
X-1321551Y356718D01*
X-1320349Y355151D01*
X-1318782Y353949D01*
X-1316958Y353193D01*
X-1315655Y353022D01*
Y351004D01*
X-1316309Y350918D01*
X-1317741Y350730D01*
X-1320295Y349672D01*
X-1320488Y349524D01*
X-1315000Y344036D01*
X-1309512Y349524D01*
X-1309705Y349672D01*
X-1312259Y350730D01*
X-1313691Y350918D01*
X-1314345Y351004D01*
Y353022D01*
X-1313042Y353193D01*
X-1311218Y353949D01*
X-1309651Y355151D01*
X-1308449Y356718D01*
X-1307693Y358542D01*
X-1307435Y360500D01*
X-1307693Y362458D01*
X-1308449Y364282D01*
X-1309651Y365849D01*
X-1311218Y367051D01*
X-1313042Y367807D01*
X-1315000Y368065D01*
D02*
G37*
G36*
X-1335000Y366964D02*
X-1340488Y361476D01*
X-1340295Y361328D01*
X-1337741Y360270D01*
X-1336309Y360082D01*
X-1335655Y359996D01*
Y357979D01*
X-1336958Y357807D01*
X-1338782Y357051D01*
X-1340349Y355849D01*
X-1341551Y354282D01*
X-1342307Y352458D01*
X-1342565Y350500D01*
X-1342307Y348542D01*
X-1341551Y346718D01*
X-1340349Y345151D01*
X-1338782Y343949D01*
X-1336958Y343193D01*
X-1335000Y342935D01*
X-1333042Y343193D01*
X-1331218Y343949D01*
X-1329651Y345151D01*
X-1328449Y346718D01*
X-1327693Y348542D01*
X-1327435Y350500D01*
X-1327693Y352458D01*
X-1328449Y354282D01*
X-1329651Y355849D01*
X-1331218Y357051D01*
X-1333042Y357807D01*
X-1334345Y357979D01*
Y359996D01*
X-1333691Y360082D01*
X-1332259Y360270D01*
X-1329705Y361328D01*
X-1329512Y361476D01*
X-1335000Y366964D01*
D02*
G37*
G36*
X-1305976Y345988D02*
X-1311464Y340500D01*
X-1305976Y335012D01*
X-1305828Y335205D01*
X-1304770Y337759D01*
X-1304409Y340500D01*
X-1304770Y343241D01*
X-1305828Y345795D01*
X-1305976Y345988D01*
D02*
G37*
G36*
X-1324024Y345988D02*
X-1324172Y345795D01*
X-1325230Y343241D01*
X-1325591Y340500D01*
X-1325230Y337759D01*
X-1324172Y335205D01*
X-1324024Y335012D01*
X-1318535Y340500D01*
X-1324024Y345988D01*
D02*
G37*
G36*
X-1389024D02*
X-1389172Y345795D01*
X-1390230Y343241D01*
X-1390591Y340500D01*
X-1390230Y337759D01*
X-1389172Y335205D01*
X-1389024Y335012D01*
X-1383535Y340500D01*
X-1389024Y345988D01*
D02*
G37*
G36*
X-1315000Y336964D02*
X-1320651Y331314D01*
X-1320543Y330815D01*
Y330185D01*
X-1320651Y329686D01*
X-1315000Y324035D01*
X-1309349Y329686D01*
X-1309457Y330185D01*
Y330815D01*
X-1309349Y331314D01*
X-1315000Y336964D01*
D02*
G37*
G36*
X-1335000Y338065D02*
X-1336958Y337807D01*
X-1338782Y337051D01*
X-1340349Y335849D01*
X-1341551Y334282D01*
X-1342307Y332458D01*
X-1342565Y330500D01*
X-1342307Y328542D01*
X-1341551Y326718D01*
X-1340349Y325151D01*
X-1338782Y323949D01*
X-1336958Y323193D01*
X-1335000Y322935D01*
X-1333042Y323193D01*
X-1331218Y323949D01*
X-1329651Y325151D01*
X-1328449Y326718D01*
X-1327693Y328542D01*
X-1327435Y330500D01*
X-1327693Y332458D01*
X-1328449Y334282D01*
X-1329651Y335849D01*
X-1331218Y337051D01*
X-1333042Y337807D01*
X-1335000Y338065D01*
D02*
G37*
G36*
X-1305976Y325988D02*
X-1311464Y320500D01*
X-1305976Y315012D01*
X-1305828Y315205D01*
X-1304770Y317759D01*
X-1304409Y320500D01*
X-1304770Y323241D01*
X-1305828Y325795D01*
X-1305976Y325988D01*
D02*
G37*
G36*
X-1324024Y325988D02*
X-1324172Y325795D01*
X-1325230Y323241D01*
X-1325591Y320500D01*
X-1325230Y317759D01*
X-1324172Y315205D01*
X-1324024Y315012D01*
X-1318535Y320500D01*
X-1324024Y325988D01*
D02*
G37*
G36*
X-1350976Y315988D02*
X-1356465Y310500D01*
X-1350976Y305012D01*
X-1350828Y305205D01*
X-1349770Y307759D01*
X-1349409Y310500D01*
X-1349770Y313241D01*
X-1350828Y315795D01*
X-1350976Y315988D01*
D02*
G37*
G36*
X-1389024Y305988D02*
X-1389172Y305795D01*
X-1390230Y303241D01*
X-1390591Y300500D01*
X-1390230Y297759D01*
X-1389172Y295205D01*
X-1389024Y295012D01*
X-1383535Y300500D01*
X-1389024Y305988D01*
D02*
G37*
G36*
X-1335000Y318065D02*
X-1336958Y317807D01*
X-1338782Y317051D01*
X-1340349Y315849D01*
X-1341551Y314282D01*
X-1342307Y312458D01*
X-1342565Y310500D01*
X-1342307Y308542D01*
X-1341551Y306718D01*
X-1340349Y305151D01*
X-1338782Y303949D01*
X-1336958Y303193D01*
X-1335655Y303022D01*
Y301004D01*
X-1336309Y300918D01*
X-1337741Y300730D01*
X-1340295Y299672D01*
X-1340488Y299524D01*
X-1335000Y294035D01*
X-1329512Y299524D01*
X-1329705Y299672D01*
X-1332259Y300730D01*
X-1333691Y300918D01*
X-1334345Y301004D01*
Y303022D01*
X-1333042Y303193D01*
X-1331218Y303949D01*
X-1329651Y305151D01*
X-1328449Y306718D01*
X-1327693Y308542D01*
X-1327435Y310500D01*
X-1327693Y312458D01*
X-1328449Y314282D01*
X-1329651Y315849D01*
X-1331218Y317051D01*
X-1333042Y317807D01*
X-1335000Y318065D01*
D02*
G37*
G36*
X-1315000Y316964D02*
X-1320488Y311476D01*
X-1320295Y311328D01*
X-1317741Y310270D01*
X-1316309Y310082D01*
X-1315655Y309996D01*
Y307978D01*
X-1316958Y307807D01*
X-1318782Y307051D01*
X-1320349Y305849D01*
X-1321551Y304282D01*
X-1322307Y302458D01*
X-1322565Y300500D01*
X-1322307Y298542D01*
X-1321551Y296718D01*
X-1320349Y295151D01*
X-1318782Y293949D01*
X-1316958Y293193D01*
X-1315655Y293022D01*
Y291004D01*
X-1316309Y290918D01*
X-1317741Y290730D01*
X-1320295Y289672D01*
X-1322489Y287989D01*
X-1322771Y287620D01*
X-1324684Y288413D01*
X-1324409Y290500D01*
X-1324770Y293241D01*
X-1325828Y295795D01*
X-1325976Y295988D01*
X-1333232Y288732D01*
X-1340488Y281476D01*
X-1340295Y281328D01*
X-1337741Y280270D01*
X-1336309Y280082D01*
X-1335655Y279996D01*
Y277978D01*
X-1336958Y277807D01*
X-1338782Y277051D01*
X-1340349Y275849D01*
X-1341551Y274282D01*
X-1342307Y272458D01*
X-1342565Y270500D01*
X-1342307Y268542D01*
X-1341551Y266718D01*
X-1340349Y265151D01*
X-1338782Y263949D01*
X-1336958Y263193D01*
X-1335655Y263022D01*
Y261004D01*
X-1336309Y260918D01*
X-1337741Y260730D01*
X-1340295Y259672D01*
X-1340488Y259524D01*
X-1335000Y254035D01*
X-1329512Y259524D01*
X-1329705Y259672D01*
X-1332259Y260730D01*
X-1333691Y260918D01*
X-1334345Y261004D01*
Y263022D01*
X-1333042Y263193D01*
X-1331218Y263949D01*
X-1329651Y265151D01*
X-1328449Y266718D01*
X-1327693Y268542D01*
X-1327435Y270500D01*
X-1327693Y272458D01*
X-1328449Y274282D01*
X-1329651Y275849D01*
X-1331218Y277051D01*
X-1333042Y277807D01*
X-1334345Y277978D01*
Y279996D01*
X-1333691Y280082D01*
X-1332259Y280270D01*
X-1329705Y281328D01*
X-1327511Y283011D01*
X-1327229Y283380D01*
X-1325316Y282587D01*
X-1325591Y280500D01*
X-1325230Y277759D01*
X-1324172Y275205D01*
X-1324024Y275012D01*
X-1316768Y282268D01*
X-1309512Y289524D01*
X-1309705Y289672D01*
X-1312259Y290730D01*
X-1313691Y290918D01*
X-1314345Y291004D01*
Y293022D01*
X-1313042Y293193D01*
X-1311218Y293949D01*
X-1309651Y295151D01*
X-1308449Y296718D01*
X-1307693Y298542D01*
X-1307435Y300500D01*
X-1307693Y302458D01*
X-1308449Y304282D01*
X-1309651Y305849D01*
X-1311218Y307051D01*
X-1313042Y307807D01*
X-1314345Y307978D01*
Y309996D01*
X-1313691Y310082D01*
X-1312259Y310270D01*
X-1309705Y311328D01*
X-1309512Y311476D01*
X-1315000Y316964D01*
D02*
G37*
G36*
X-1344024Y295988D02*
X-1344172Y295795D01*
X-1345230Y293241D01*
X-1345591Y290500D01*
X-1345230Y287759D01*
X-1344172Y285205D01*
X-1344024Y285012D01*
X-1338536Y290500D01*
X-1344024Y295988D01*
D02*
G37*
G36*
X-1305976Y285988D02*
X-1311465Y280500D01*
X-1305976Y275012D01*
X-1305828Y275205D01*
X-1304770Y277759D01*
X-1304409Y280500D01*
X-1304770Y283241D01*
X-1305828Y285795D01*
X-1305976Y285988D01*
D02*
G37*
G36*
X-1380000Y336964D02*
X-1385488Y331476D01*
X-1385295Y331328D01*
X-1382741Y330270D01*
X-1381309Y330082D01*
X-1380655Y329996D01*
Y327979D01*
X-1381958Y327807D01*
X-1383782Y327051D01*
X-1385349Y325849D01*
X-1386551Y324282D01*
X-1387307Y322458D01*
X-1387565Y320500D01*
X-1387307Y318542D01*
X-1386551Y316718D01*
X-1385349Y315151D01*
X-1383782Y313949D01*
X-1381958Y313193D01*
X-1380655Y313022D01*
Y311004D01*
X-1381309Y310918D01*
X-1382741Y310730D01*
X-1385295Y309672D01*
X-1385488Y309524D01*
X-1378232Y302268D01*
X-1370976Y295012D01*
X-1370828Y295205D01*
X-1369770Y297759D01*
X-1369409Y300500D01*
X-1369684Y302587D01*
X-1367771Y303380D01*
X-1367489Y303011D01*
X-1365295Y301328D01*
X-1362741Y300270D01*
X-1361309Y300082D01*
X-1360655Y299996D01*
Y297978D01*
X-1361958Y297807D01*
X-1363782Y297051D01*
X-1365349Y295849D01*
X-1366551Y294282D01*
X-1367307Y292458D01*
X-1367565Y290500D01*
X-1367307Y288542D01*
X-1366551Y286718D01*
X-1365349Y285151D01*
X-1363782Y283949D01*
X-1361958Y283193D01*
X-1360655Y283022D01*
Y281004D01*
X-1361309Y280918D01*
X-1362741Y280730D01*
X-1365295Y279672D01*
X-1365488Y279524D01*
X-1360000Y274035D01*
X-1354512Y279524D01*
X-1354705Y279672D01*
X-1357259Y280730D01*
X-1358691Y280918D01*
X-1359345Y281004D01*
Y283022D01*
X-1358042Y283193D01*
X-1356218Y283949D01*
X-1354651Y285151D01*
X-1353449Y286718D01*
X-1352693Y288542D01*
X-1352435Y290500D01*
X-1352693Y292458D01*
X-1353449Y294282D01*
X-1354651Y295849D01*
X-1356218Y297051D01*
X-1358042Y297807D01*
X-1359345Y297978D01*
Y299996D01*
X-1358691Y300082D01*
X-1357259Y300270D01*
X-1354705Y301328D01*
X-1354512Y301476D01*
X-1361768Y308732D01*
X-1369024Y315988D01*
X-1369172Y315795D01*
X-1370230Y313241D01*
X-1370591Y310500D01*
X-1370316Y308413D01*
X-1372229Y307620D01*
X-1372511Y307989D01*
X-1374705Y309672D01*
X-1377259Y310730D01*
X-1378691Y310918D01*
X-1379345Y311004D01*
Y313022D01*
X-1378042Y313193D01*
X-1376218Y313949D01*
X-1374651Y315151D01*
X-1373449Y316718D01*
X-1372693Y318542D01*
X-1372435Y320500D01*
X-1372693Y322458D01*
X-1373449Y324282D01*
X-1374651Y325849D01*
X-1376218Y327051D01*
X-1378042Y327807D01*
X-1379345Y327979D01*
Y329996D01*
X-1378691Y330082D01*
X-1377259Y330270D01*
X-1374705Y331328D01*
X-1374512Y331476D01*
X-1380000Y336964D01*
D02*
G37*
G36*
X-1350976Y275988D02*
X-1356465Y270500D01*
X-1350976Y265012D01*
X-1350828Y265205D01*
X-1349770Y267759D01*
X-1349409Y270500D01*
X-1349770Y273241D01*
X-1350828Y275795D01*
X-1350976Y275988D01*
D02*
G37*
G36*
X-1111950Y280617D02*
X-1113973Y280350D01*
X-1115858Y279570D01*
X-1117477Y278327D01*
X-1118720Y276708D01*
X-1119501Y274823D01*
X-1119767Y272800D01*
X-1119501Y270777D01*
X-1118720Y268892D01*
X-1117477Y267273D01*
X-1115858Y266030D01*
X-1113973Y265250D01*
X-1111950Y264983D01*
X-1109927Y265250D01*
X-1108042Y266030D01*
X-1106423Y267273D01*
X-1105180Y268892D01*
X-1104399Y270777D01*
X-1104133Y272800D01*
X-1104399Y274823D01*
X-1105180Y276708D01*
X-1106423Y278327D01*
X-1108042Y279570D01*
X-1109927Y280350D01*
X-1111950Y280617D01*
D02*
G37*
G36*
X-1389024Y265988D02*
X-1389172Y265795D01*
X-1390230Y263241D01*
X-1390591Y260500D01*
X-1390230Y257759D01*
X-1389172Y255205D01*
X-1389024Y255012D01*
X-1383535Y260500D01*
X-1389024Y265988D01*
D02*
G37*
G36*
X-1315000Y276964D02*
X-1320488Y271476D01*
X-1320295Y271328D01*
X-1317741Y270270D01*
X-1316309Y270082D01*
X-1315655Y269996D01*
Y267978D01*
X-1316958Y267807D01*
X-1318782Y267051D01*
X-1320349Y265849D01*
X-1321551Y264282D01*
X-1322307Y262458D01*
X-1322565Y260500D01*
X-1322307Y258542D01*
X-1321551Y256718D01*
X-1320349Y255151D01*
X-1318782Y253949D01*
X-1316958Y253193D01*
X-1315655Y253022D01*
Y251004D01*
X-1316309Y250918D01*
X-1317741Y250730D01*
X-1320295Y249672D01*
X-1322489Y247989D01*
X-1322771Y247620D01*
X-1324684Y248413D01*
X-1324409Y250500D01*
X-1324770Y253241D01*
X-1325828Y255795D01*
X-1325976Y255988D01*
X-1333232Y248732D01*
X-1340488Y241476D01*
X-1340295Y241328D01*
X-1337741Y240270D01*
X-1336309Y240082D01*
X-1335655Y239996D01*
Y237978D01*
X-1336958Y237807D01*
X-1338782Y237051D01*
X-1340349Y235849D01*
X-1341551Y234282D01*
X-1342307Y232458D01*
X-1342565Y230500D01*
X-1342307Y228542D01*
X-1341551Y226718D01*
X-1340349Y225151D01*
X-1338782Y223949D01*
X-1336958Y223193D01*
X-1335655Y223022D01*
Y221004D01*
X-1336309Y220918D01*
X-1337741Y220730D01*
X-1340295Y219672D01*
X-1340488Y219524D01*
X-1335000Y214035D01*
X-1329512Y219524D01*
X-1329705Y219672D01*
X-1332259Y220730D01*
X-1333691Y220918D01*
X-1334345Y221004D01*
Y223022D01*
X-1333042Y223193D01*
X-1331218Y223949D01*
X-1329651Y225151D01*
X-1328449Y226718D01*
X-1327693Y228542D01*
X-1327435Y230500D01*
X-1327693Y232458D01*
X-1328449Y234282D01*
X-1329651Y235849D01*
X-1331218Y237051D01*
X-1333042Y237807D01*
X-1334345Y237978D01*
Y239996D01*
X-1333691Y240082D01*
X-1332259Y240270D01*
X-1329705Y241328D01*
X-1327511Y243011D01*
X-1327229Y243380D01*
X-1325316Y242587D01*
X-1325591Y240500D01*
X-1325230Y237759D01*
X-1324172Y235205D01*
X-1324024Y235012D01*
X-1316768Y242268D01*
X-1309512Y249524D01*
X-1309705Y249672D01*
X-1312259Y250730D01*
X-1313691Y250918D01*
X-1314345Y251004D01*
Y253022D01*
X-1313042Y253193D01*
X-1311218Y253949D01*
X-1309651Y255151D01*
X-1308449Y256718D01*
X-1307693Y258542D01*
X-1307435Y260500D01*
X-1307693Y262458D01*
X-1308449Y264282D01*
X-1309651Y265849D01*
X-1311218Y267051D01*
X-1313042Y267807D01*
X-1314345Y267978D01*
Y269996D01*
X-1313691Y270082D01*
X-1312259Y270270D01*
X-1309705Y271328D01*
X-1309512Y271476D01*
X-1315000Y276964D01*
D02*
G37*
G36*
X-1344024Y255988D02*
X-1344172Y255795D01*
X-1345230Y253241D01*
X-1345591Y250500D01*
X-1345230Y247759D01*
X-1344172Y245205D01*
X-1344024Y245012D01*
X-1338535Y250500D01*
X-1344024Y255988D01*
D02*
G37*
G36*
X-1305976Y245988D02*
X-1311464Y240500D01*
X-1305976Y235012D01*
X-1305828Y235205D01*
X-1304770Y237759D01*
X-1304409Y240500D01*
X-1304770Y243241D01*
X-1305828Y245795D01*
X-1305976Y245988D01*
D02*
G37*
G36*
X-1380000Y296964D02*
X-1385488Y291476D01*
X-1385295Y291328D01*
X-1382741Y290270D01*
X-1381309Y290082D01*
X-1380655Y289996D01*
Y287978D01*
X-1381958Y287807D01*
X-1383782Y287051D01*
X-1385349Y285849D01*
X-1386551Y284282D01*
X-1387307Y282458D01*
X-1387565Y280500D01*
X-1387307Y278542D01*
X-1386551Y276718D01*
X-1385349Y275151D01*
X-1383782Y273949D01*
X-1381958Y273193D01*
X-1380655Y273022D01*
Y271004D01*
X-1381309Y270918D01*
X-1382741Y270730D01*
X-1385295Y269672D01*
X-1385488Y269524D01*
X-1378232Y262268D01*
X-1370976Y255012D01*
X-1370828Y255205D01*
X-1369770Y257759D01*
X-1369409Y260500D01*
X-1369684Y262587D01*
X-1367771Y263380D01*
X-1367489Y263011D01*
X-1365295Y261328D01*
X-1362741Y260270D01*
X-1361309Y260082D01*
X-1360655Y259996D01*
Y257978D01*
X-1361958Y257807D01*
X-1363782Y257051D01*
X-1365349Y255849D01*
X-1366551Y254282D01*
X-1367307Y252458D01*
X-1367565Y250500D01*
X-1367307Y248542D01*
X-1366551Y246718D01*
X-1365349Y245151D01*
X-1363782Y243949D01*
X-1361958Y243193D01*
X-1360655Y243022D01*
Y241004D01*
X-1361309Y240918D01*
X-1362741Y240730D01*
X-1365295Y239672D01*
X-1365488Y239524D01*
X-1360000Y234035D01*
X-1354512Y239524D01*
X-1354705Y239672D01*
X-1357259Y240730D01*
X-1358691Y240918D01*
X-1359345Y241004D01*
Y243022D01*
X-1358042Y243193D01*
X-1356218Y243949D01*
X-1354651Y245151D01*
X-1353449Y246718D01*
X-1352693Y248542D01*
X-1352435Y250500D01*
X-1352693Y252458D01*
X-1353449Y254282D01*
X-1354651Y255849D01*
X-1356218Y257051D01*
X-1358042Y257807D01*
X-1359345Y257978D01*
Y259996D01*
X-1358691Y260082D01*
X-1357259Y260270D01*
X-1354705Y261328D01*
X-1354512Y261476D01*
X-1361768Y268732D01*
X-1369024Y275988D01*
X-1369172Y275795D01*
X-1370230Y273241D01*
X-1370591Y270500D01*
X-1370316Y268413D01*
X-1372229Y267620D01*
X-1372511Y267989D01*
X-1374705Y269672D01*
X-1377259Y270730D01*
X-1378691Y270918D01*
X-1379345Y271004D01*
Y273022D01*
X-1378042Y273193D01*
X-1376218Y273949D01*
X-1374651Y275151D01*
X-1373449Y276718D01*
X-1372693Y278542D01*
X-1372435Y280500D01*
X-1372693Y282458D01*
X-1373449Y284282D01*
X-1374651Y285849D01*
X-1376218Y287051D01*
X-1378042Y287807D01*
X-1379345Y287978D01*
Y289996D01*
X-1378691Y290082D01*
X-1377259Y290270D01*
X-1374705Y291328D01*
X-1374512Y291476D01*
X-1380000Y296964D01*
D02*
G37*
G36*
X-1380000Y256964D02*
X-1385488Y251476D01*
X-1385295Y251328D01*
X-1382741Y250270D01*
X-1381309Y250082D01*
X-1380655Y249996D01*
Y247978D01*
X-1381958Y247807D01*
X-1383782Y247051D01*
X-1385349Y245849D01*
X-1386551Y244282D01*
X-1387307Y242458D01*
X-1387565Y240500D01*
X-1387307Y238542D01*
X-1386551Y236718D01*
X-1385349Y235151D01*
X-1383782Y233949D01*
X-1381958Y233193D01*
X-1380000Y232935D01*
X-1378042Y233193D01*
X-1376218Y233949D01*
X-1374651Y235151D01*
X-1373449Y236718D01*
X-1372693Y238542D01*
X-1372435Y240500D01*
X-1372693Y242458D01*
X-1373449Y244282D01*
X-1374651Y245849D01*
X-1376218Y247051D01*
X-1378042Y247807D01*
X-1379345Y247978D01*
Y249996D01*
X-1378691Y250082D01*
X-1377259Y250270D01*
X-1374705Y251328D01*
X-1374512Y251476D01*
X-1380000Y256964D01*
D02*
G37*
G36*
X-1369024Y235988D02*
X-1369172Y235795D01*
X-1370230Y233241D01*
X-1370591Y230500D01*
X-1370230Y227759D01*
X-1369172Y225205D01*
X-1369024Y225012D01*
X-1363536Y230500D01*
X-1369024Y235988D01*
D02*
G37*
G36*
X-1350976Y235988D02*
X-1356465Y230500D01*
X-1350976Y225012D01*
X-1350828Y225205D01*
X-1349770Y227759D01*
X-1349409Y230500D01*
X-1349770Y233241D01*
X-1350828Y235795D01*
X-1350976Y235988D01*
D02*
G37*
G36*
X-1360000Y226964D02*
X-1365651Y221314D01*
X-1365543Y220816D01*
Y220184D01*
X-1365651Y219686D01*
X-1360000Y214035D01*
X-1354349Y219686D01*
X-1354457Y220184D01*
Y220816D01*
X-1354349Y221314D01*
X-1360000Y226964D01*
D02*
G37*
G36*
X-1315000Y236964D02*
X-1320488Y231476D01*
X-1320295Y231328D01*
X-1317741Y230270D01*
X-1316309Y230082D01*
X-1315655Y229996D01*
Y227978D01*
X-1316958Y227807D01*
X-1318782Y227051D01*
X-1320349Y225849D01*
X-1321551Y224282D01*
X-1322307Y222458D01*
X-1322565Y220500D01*
X-1322307Y218542D01*
X-1321551Y216718D01*
X-1320349Y215151D01*
X-1318782Y213949D01*
X-1316958Y213193D01*
X-1315000Y212935D01*
X-1313042Y213193D01*
X-1311218Y213949D01*
X-1309651Y215151D01*
X-1308449Y216718D01*
X-1307693Y218542D01*
X-1307435Y220500D01*
X-1307693Y222458D01*
X-1308449Y224282D01*
X-1309651Y225849D01*
X-1311218Y227051D01*
X-1313042Y227807D01*
X-1314345Y227978D01*
Y229996D01*
X-1313691Y230082D01*
X-1312259Y230270D01*
X-1309705Y231328D01*
X-1309512Y231476D01*
X-1315000Y236964D01*
D02*
G37*
G36*
X-1344024Y215988D02*
X-1344172Y215795D01*
X-1345230Y213241D01*
X-1345591Y210500D01*
X-1345230Y207759D01*
X-1344172Y205205D01*
X-1344024Y205012D01*
X-1338536Y210500D01*
X-1344024Y215988D01*
D02*
G37*
G36*
X-1325976Y215988D02*
X-1331465Y210500D01*
X-1325976Y205012D01*
X-1325828Y205205D01*
X-1324770Y207759D01*
X-1324409Y210500D01*
X-1324770Y213241D01*
X-1325828Y215795D01*
X-1325976Y215988D01*
D02*
G37*
G36*
X-1350976D02*
X-1356465Y210500D01*
X-1350976Y205012D01*
X-1350828Y205205D01*
X-1349770Y207759D01*
X-1349409Y210500D01*
X-1349770Y213241D01*
X-1350828Y215795D01*
X-1350976Y215988D01*
D02*
G37*
G36*
X-1335000Y206964D02*
X-1340488Y201476D01*
X-1340295Y201328D01*
X-1337741Y200270D01*
X-1335000Y199909D01*
X-1332259Y200270D01*
X-1329705Y201328D01*
X-1329512Y201476D01*
X-1335000Y206964D01*
D02*
G37*
G36*
X-1380000Y228065D02*
X-1381958Y227807D01*
X-1383782Y227051D01*
X-1385349Y225849D01*
X-1386551Y224282D01*
X-1387307Y222458D01*
X-1387565Y220500D01*
X-1387307Y218542D01*
X-1386551Y216718D01*
X-1385349Y215151D01*
X-1383782Y213949D01*
X-1381958Y213193D01*
X-1380655Y213022D01*
Y211004D01*
X-1381309Y210918D01*
X-1382741Y210730D01*
X-1385295Y209672D01*
X-1385488Y209524D01*
X-1378232Y202268D01*
X-1370976Y195012D01*
X-1370828Y195205D01*
X-1369770Y197759D01*
X-1369409Y200500D01*
X-1369684Y202587D01*
X-1367771Y203380D01*
X-1367489Y203011D01*
X-1365295Y201328D01*
X-1362741Y200270D01*
X-1360000Y199909D01*
X-1357259Y200270D01*
X-1354705Y201328D01*
X-1354512Y201476D01*
X-1361768Y208732D01*
X-1369024Y215988D01*
X-1369172Y215795D01*
X-1370230Y213241D01*
X-1370591Y210500D01*
X-1370316Y208413D01*
X-1372229Y207620D01*
X-1372511Y207989D01*
X-1374705Y209672D01*
X-1377259Y210730D01*
X-1378691Y210918D01*
X-1379345Y211004D01*
Y213022D01*
X-1378042Y213193D01*
X-1376218Y213949D01*
X-1374651Y215151D01*
X-1373449Y216718D01*
X-1372693Y218542D01*
X-1372435Y220500D01*
X-1372693Y222458D01*
X-1373449Y224282D01*
X-1374651Y225849D01*
X-1376218Y227051D01*
X-1378042Y227807D01*
X-1380000Y228065D01*
D02*
G37*
G36*
X-1389024Y205988D02*
X-1389172Y205795D01*
X-1390230Y203241D01*
X-1390591Y200500D01*
X-1390230Y197759D01*
X-1389172Y195205D01*
X-1389024Y195012D01*
X-1383535Y200500D01*
X-1389024Y205988D01*
D02*
G37*
G36*
X-1315000Y208065D02*
X-1316958Y207807D01*
X-1318782Y207051D01*
X-1320349Y205849D01*
X-1321551Y204282D01*
X-1322307Y202458D01*
X-1322565Y200500D01*
X-1322307Y198542D01*
X-1321551Y196718D01*
X-1320349Y195151D01*
X-1318782Y193949D01*
X-1316958Y193193D01*
X-1315000Y192935D01*
X-1313042Y193193D01*
X-1311218Y193949D01*
X-1309651Y195151D01*
X-1308449Y196718D01*
X-1307693Y198542D01*
X-1307435Y200500D01*
X-1307693Y202458D01*
X-1308449Y204282D01*
X-1309651Y205849D01*
X-1311218Y207051D01*
X-1313042Y207807D01*
X-1315000Y208065D01*
D02*
G37*
G36*
X-1380000Y196964D02*
X-1385488Y191476D01*
X-1385295Y191328D01*
X-1382741Y190270D01*
X-1380000Y189909D01*
X-1377259Y190270D01*
X-1374705Y191328D01*
X-1374512Y191476D01*
X-1380000Y196964D01*
D02*
G37*
G36*
X-1347500Y196369D02*
X-1351089Y195896D01*
X-1354434Y194511D01*
X-1357307Y192307D01*
X-1359511Y189434D01*
X-1360896Y186089D01*
X-1361369Y182500D01*
X-1360896Y178911D01*
X-1359511Y175566D01*
X-1357307Y172693D01*
X-1354434Y170489D01*
X-1351089Y169104D01*
X-1347500Y168631D01*
X-1343911Y169104D01*
X-1340566Y170489D01*
X-1337693Y172693D01*
X-1335489Y175566D01*
X-1334104Y178911D01*
X-1333631Y182500D01*
X-1334104Y186089D01*
X-1335489Y189434D01*
X-1337693Y192307D01*
X-1340566Y194511D01*
X-1343911Y195896D01*
X-1347500Y196369D01*
D02*
G37*
G36*
X-750200Y172100D02*
X-771200D01*
Y151100D01*
X-750200D01*
Y172100D01*
D02*
G37*
G36*
X-786100Y172191D02*
X-788841Y171830D01*
X-791395Y170772D01*
X-793589Y169089D01*
X-795272Y166895D01*
X-796330Y164341D01*
X-796691Y161600D01*
X-796330Y158859D01*
X-795272Y156305D01*
X-793589Y154111D01*
X-791395Y152428D01*
X-788841Y151370D01*
X-786100Y151009D01*
X-783359Y151370D01*
X-780805Y152428D01*
X-778611Y154111D01*
X-776928Y156305D01*
X-775870Y158859D01*
X-775509Y161600D01*
X-775870Y164341D01*
X-776928Y166895D01*
X-778611Y169089D01*
X-780805Y170772D01*
X-783359Y171830D01*
X-786100Y172191D01*
D02*
G37*
G36*
X-811500D02*
X-814241Y171830D01*
X-816795Y170772D01*
X-818989Y169089D01*
X-820672Y166895D01*
X-821730Y164341D01*
X-822091Y161600D01*
X-821730Y158859D01*
X-820672Y156305D01*
X-818989Y154111D01*
X-816795Y152428D01*
X-814241Y151370D01*
X-811500Y151009D01*
X-808759Y151370D01*
X-806205Y152428D01*
X-804011Y154111D01*
X-802328Y156305D01*
X-801270Y158859D01*
X-800909Y161600D01*
X-801270Y164341D01*
X-802328Y166895D01*
X-804011Y169089D01*
X-806205Y170772D01*
X-808759Y171830D01*
X-811500Y172191D01*
D02*
G37*
G36*
X-979550Y165500D02*
X-1002550D01*
Y142500D01*
X-979550D01*
Y165500D01*
D02*
G37*
G36*
X-889450Y165599D02*
X-892452Y165204D01*
X-895250Y164045D01*
X-897652Y162202D01*
X-899495Y159800D01*
X-900654Y157002D01*
X-901049Y154000D01*
X-900654Y150998D01*
X-899495Y148200D01*
X-897652Y145798D01*
X-895250Y143955D01*
X-892452Y142796D01*
X-889450Y142401D01*
X-886448Y142796D01*
X-883650Y143955D01*
X-881248Y145798D01*
X-879405Y148200D01*
X-878246Y150998D01*
X-877851Y154000D01*
X-878246Y157002D01*
X-879405Y159800D01*
X-881248Y162202D01*
X-883650Y164045D01*
X-886448Y165204D01*
X-889450Y165599D01*
D02*
G37*
G36*
X-914850D02*
X-917852Y165204D01*
X-920650Y164045D01*
X-923052Y162202D01*
X-924895Y159800D01*
X-926054Y157002D01*
X-926449Y154000D01*
X-926054Y150998D01*
X-924895Y148200D01*
X-923052Y145798D01*
X-920650Y143955D01*
X-917852Y142796D01*
X-914850Y142401D01*
X-911848Y142796D01*
X-909050Y143955D01*
X-906648Y145798D01*
X-904805Y148200D01*
X-903646Y150998D01*
X-903251Y154000D01*
X-903646Y157002D01*
X-904805Y159800D01*
X-906648Y162202D01*
X-909050Y164045D01*
X-911848Y165204D01*
X-914850Y165599D01*
D02*
G37*
G36*
X-940250D02*
X-943252Y165204D01*
X-946050Y164045D01*
X-948452Y162202D01*
X-950295Y159800D01*
X-951454Y157002D01*
X-951849Y154000D01*
X-951454Y150998D01*
X-950295Y148200D01*
X-948452Y145798D01*
X-946050Y143955D01*
X-943252Y142796D01*
X-940250Y142401D01*
X-937248Y142796D01*
X-934450Y143955D01*
X-932048Y145798D01*
X-930205Y148200D01*
X-929046Y150998D01*
X-928651Y154000D01*
X-929046Y157002D01*
X-930205Y159800D01*
X-932048Y162202D01*
X-934450Y164045D01*
X-937248Y165204D01*
X-940250Y165599D01*
D02*
G37*
G36*
X-965650D02*
X-968652Y165204D01*
X-971450Y164045D01*
X-973852Y162202D01*
X-975695Y159800D01*
X-976854Y157002D01*
X-977249Y154000D01*
X-976854Y150998D01*
X-975695Y148200D01*
X-973852Y145798D01*
X-971450Y143955D01*
X-968652Y142796D01*
X-965650Y142401D01*
X-962648Y142796D01*
X-959850Y143955D01*
X-957448Y145798D01*
X-955605Y148200D01*
X-954446Y150998D01*
X-954051Y154000D01*
X-954446Y157002D01*
X-955605Y159800D01*
X-957448Y162202D01*
X-959850Y164045D01*
X-962648Y165204D01*
X-965650Y165599D01*
D02*
G37*
G36*
X-876750Y143225D02*
X-880535Y142727D01*
X-884062Y141266D01*
X-885091Y140477D01*
X-876750Y132135D01*
X-868409Y140477D01*
X-869437Y141266D01*
X-872965Y142727D01*
X-876750Y143225D01*
D02*
G37*
G36*
X-606880Y131368D02*
X-608099Y129884D01*
X-610188Y125975D01*
X-610644Y124473D01*
X-612548Y123861D01*
X-613696Y124742D01*
X-616737Y126001D01*
X-620000Y126431D01*
X-623263Y126001D01*
X-626304Y124742D01*
X-626915Y124273D01*
X-618232Y115591D01*
X-620000Y113823D01*
X-618232Y112055D01*
X-626915Y103373D01*
X-626304Y102904D01*
X-623556Y101766D01*
X-623400Y100723D01*
X-623556Y99680D01*
X-626304Y98542D01*
X-626915Y98073D01*
X-620000Y91159D01*
X-613085Y98073D01*
X-613696Y98542D01*
X-616444Y99680D01*
X-616600Y100723D01*
X-616444Y101766D01*
X-613696Y102904D01*
X-611085Y104908D01*
X-610494Y105678D01*
X-608501Y105515D01*
X-608099Y104762D01*
X-606880Y103278D01*
X-592836Y117323D01*
X-606880Y131368D01*
D02*
G37*
G36*
X-589300Y139932D02*
X-593711Y139498D01*
X-597952Y138211D01*
X-601861Y136122D01*
X-603345Y134904D01*
X-589300Y120859D01*
X-575255Y134904D01*
X-576739Y136122D01*
X-580648Y138211D01*
X-584889Y139498D01*
X-589300Y139932D01*
D02*
G37*
G36*
X-720700D02*
X-725111Y139498D01*
X-729352Y138211D01*
X-733261Y136122D01*
X-734745Y134904D01*
X-720700Y120859D01*
X-706655Y134904D01*
X-708139Y136122D01*
X-712048Y138211D01*
X-716289Y139498D01*
X-720700Y139932D01*
D02*
G37*
G36*
X-864874Y136941D02*
X-873214Y128600D01*
X-864874Y120259D01*
X-864084Y121287D01*
X-862623Y124815D01*
X-862125Y128600D01*
X-862623Y132385D01*
X-864084Y135913D01*
X-864874Y136941D01*
D02*
G37*
G36*
X-902150Y140199D02*
X-905152Y139804D01*
X-907950Y138645D01*
X-910352Y136802D01*
X-912195Y134400D01*
X-913354Y131602D01*
X-913749Y128600D01*
X-913354Y125598D01*
X-912195Y122800D01*
X-910352Y120398D01*
X-907950Y118555D01*
X-905152Y117396D01*
X-902150Y117001D01*
X-899148Y117396D01*
X-896350Y118555D01*
X-893948Y120398D01*
X-892171Y122714D01*
X-891737Y122779D01*
X-889991Y122677D01*
X-889416Y121287D01*
X-888626Y120259D01*
X-880285Y128600D01*
X-888626Y136941D01*
X-889416Y135913D01*
X-889991Y134523D01*
X-891737Y134421D01*
X-892171Y134486D01*
X-893948Y136802D01*
X-896350Y138645D01*
X-899148Y139804D01*
X-902150Y140199D01*
D02*
G37*
G36*
X-1183000Y127595D02*
X-1185872Y127217D01*
X-1188547Y126109D01*
X-1188845Y125880D01*
X-1183000Y120035D01*
X-1177155Y125880D01*
X-1177453Y126109D01*
X-1180128Y127217D01*
X-1183000Y127595D01*
D02*
G37*
G36*
X-1163000Y124569D02*
X-1165088Y124294D01*
X-1167035Y123488D01*
X-1168706Y122206D01*
X-1169988Y120534D01*
X-1170336Y119694D01*
X-1171104Y119567D01*
X-1172459Y119796D01*
X-1173391Y122048D01*
X-1173620Y122345D01*
X-1181232Y114732D01*
X-1183000Y116500D01*
X-1184768Y114732D01*
X-1192380Y122345D01*
X-1192608Y122048D01*
X-1193541Y119796D01*
X-1194896Y119567D01*
X-1195664Y119694D01*
X-1196012Y120534D01*
X-1197294Y122206D01*
X-1198966Y123488D01*
X-1200912Y124294D01*
X-1203000Y124569D01*
X-1205088Y124294D01*
X-1207035Y123488D01*
X-1208706Y122206D01*
X-1209988Y120534D01*
X-1210794Y118588D01*
X-1211069Y116500D01*
X-1210794Y114412D01*
X-1209988Y112465D01*
X-1208706Y110794D01*
X-1207035Y109512D01*
X-1205088Y108706D01*
X-1203000Y108431D01*
X-1200912Y108706D01*
X-1198966Y109512D01*
X-1197778Y107917D01*
X-1198706Y107206D01*
X-1199988Y105534D01*
X-1200794Y103588D01*
X-1201069Y101500D01*
X-1200794Y99412D01*
X-1199988Y97465D01*
X-1198706Y95794D01*
X-1197035Y94512D01*
X-1195088Y93706D01*
X-1193000Y93431D01*
X-1192481Y93499D01*
X-1191398Y91625D01*
X-1192608Y90047D01*
X-1193541Y87796D01*
X-1194896Y87567D01*
X-1195664Y87694D01*
X-1196012Y88534D01*
X-1197294Y90206D01*
X-1198966Y91488D01*
X-1200912Y92294D01*
X-1203000Y92569D01*
X-1205088Y92294D01*
X-1207035Y91488D01*
X-1208706Y90206D01*
X-1209988Y88534D01*
X-1210794Y86588D01*
X-1211069Y84500D01*
X-1210794Y82412D01*
X-1209988Y80465D01*
X-1208896Y79043D01*
X-1210159Y77500D01*
X-1211934Y77500D01*
X-1215841D01*
X-1216753Y79500D01*
X-1216012Y80465D01*
X-1215206Y82412D01*
X-1214931Y84500D01*
X-1215206Y86588D01*
X-1216012Y88534D01*
X-1217294Y90206D01*
X-1218966Y91488D01*
X-1219153Y91566D01*
X-1218631Y93514D01*
X-1218000Y93431D01*
X-1215912Y93706D01*
X-1213966Y94512D01*
X-1212294Y95794D01*
X-1211012Y97465D01*
X-1210206Y99412D01*
X-1209931Y101500D01*
X-1210206Y103588D01*
X-1211012Y105534D01*
X-1212294Y107206D01*
X-1213966Y108488D01*
X-1215912Y109294D01*
X-1216019Y109308D01*
X-1216209Y109530D01*
X-1216807Y111429D01*
X-1216012Y112465D01*
X-1215206Y114412D01*
X-1214931Y116500D01*
X-1215206Y118588D01*
X-1216012Y120534D01*
X-1217294Y122206D01*
X-1218966Y123488D01*
X-1220912Y124294D01*
X-1223000Y124569D01*
X-1225088Y124294D01*
X-1227035Y123488D01*
X-1228706Y122206D01*
X-1229360Y121353D01*
X-1230197Y121268D01*
X-1245164Y106300D01*
X-1231120Y92255D01*
X-1229901Y93739D01*
X-1227812Y97648D01*
X-1227565Y98462D01*
X-1225444Y98566D01*
X-1224988Y97465D01*
X-1223706Y95794D01*
X-1222035Y94512D01*
X-1221847Y94434D01*
X-1222370Y92486D01*
X-1223000Y92569D01*
X-1225088Y92294D01*
X-1227035Y91488D01*
X-1228706Y90206D01*
X-1229988Y88534D01*
X-1230794Y86588D01*
X-1231069Y84500D01*
X-1230794Y82412D01*
X-1229988Y80465D01*
X-1228706Y78794D01*
X-1227035Y77512D01*
X-1226000Y77084D01*
Y61500D01*
X-1210000D01*
Y75522D01*
X-1210000Y77341D01*
X-1208457Y78604D01*
X-1207035Y77512D01*
X-1205088Y76706D01*
X-1203000Y76431D01*
X-1200912Y76706D01*
X-1198966Y77512D01*
X-1197778Y75917D01*
X-1198706Y75206D01*
X-1199988Y73534D01*
X-1200794Y71588D01*
X-1201069Y69500D01*
X-1200794Y67412D01*
X-1199988Y65465D01*
X-1198706Y63794D01*
X-1197035Y62512D01*
X-1195088Y61706D01*
X-1193000Y61431D01*
X-1190912Y61706D01*
X-1188966Y62512D01*
X-1187294Y63794D01*
X-1186012Y65465D01*
X-1185206Y67412D01*
X-1184931Y69500D01*
X-1185206Y71588D01*
X-1185245Y71683D01*
X-1184013Y73289D01*
X-1181987D01*
X-1180755Y71683D01*
X-1180794Y71588D01*
X-1181069Y69500D01*
X-1180794Y67412D01*
X-1179988Y65465D01*
X-1178706Y63794D01*
X-1177035Y62512D01*
X-1175088Y61706D01*
X-1173000Y61431D01*
X-1170912Y61706D01*
X-1168966Y62512D01*
X-1167294Y63794D01*
X-1166012Y65465D01*
X-1165206Y67412D01*
X-1164931Y69500D01*
X-1165206Y71588D01*
X-1166012Y73534D01*
X-1167294Y75206D01*
X-1168222Y75917D01*
X-1167087Y77441D01*
X-1166188Y77161D01*
X-1166113Y77130D01*
X-1165088Y76706D01*
X-1163000Y76431D01*
X-1160912Y76706D01*
X-1158966Y77512D01*
X-1157294Y78794D01*
X-1156012Y80465D01*
X-1155206Y82412D01*
X-1154931Y84500D01*
X-1155206Y86588D01*
X-1156012Y88534D01*
X-1157294Y90206D01*
X-1158966Y91488D01*
X-1160912Y92294D01*
X-1163000Y92569D01*
X-1165088Y92294D01*
X-1167035Y91488D01*
X-1168706Y90206D01*
X-1169988Y88534D01*
X-1170336Y87694D01*
X-1171104Y87567D01*
X-1172459Y87796D01*
X-1173391Y90047D01*
X-1174602Y91625D01*
X-1173519Y93499D01*
X-1173000Y93431D01*
X-1170912Y93706D01*
X-1168966Y94512D01*
X-1167294Y95794D01*
X-1166012Y97465D01*
X-1165206Y99412D01*
X-1164931Y101500D01*
X-1165206Y103588D01*
X-1166012Y105534D01*
X-1167294Y107206D01*
X-1168222Y107917D01*
X-1167087Y109441D01*
X-1166188Y109162D01*
X-1166113Y109130D01*
X-1165088Y108706D01*
X-1163000Y108431D01*
X-1160912Y108706D01*
X-1158966Y109512D01*
X-1157294Y110794D01*
X-1156012Y112465D01*
X-1155206Y114412D01*
X-1154931Y116500D01*
X-1155206Y118588D01*
X-1156012Y120534D01*
X-1157294Y122206D01*
X-1158966Y123488D01*
X-1160912Y124294D01*
X-1163000Y124569D01*
D02*
G37*
G36*
X-645000Y123405D02*
X-647480Y123079D01*
X-649791Y122121D01*
X-651775Y120599D01*
X-653298Y118614D01*
X-653918Y117119D01*
X-656082D01*
X-656702Y118614D01*
X-658224Y120599D01*
X-660209Y122121D01*
X-662520Y123079D01*
X-665000Y123405D01*
X-667480Y123079D01*
X-669791Y122121D01*
X-671775Y120599D01*
X-673298Y118614D01*
X-674255Y116303D01*
X-674582Y113823D01*
X-674255Y111343D01*
X-673298Y109032D01*
X-671775Y107048D01*
X-669791Y105525D01*
X-667480Y104568D01*
X-665000Y104241D01*
X-662520Y104568D01*
X-660209Y105525D01*
X-658224Y107048D01*
X-656702Y109032D01*
X-656082Y110527D01*
X-653918D01*
X-653298Y109032D01*
X-651775Y107048D01*
X-649791Y105525D01*
X-647480Y104568D01*
X-645000Y104241D01*
X-642520Y104568D01*
X-640209Y105525D01*
X-638224Y107048D01*
X-636702Y109032D01*
X-635745Y111343D01*
X-635418Y113823D01*
X-635745Y116303D01*
X-636702Y118614D01*
X-638224Y120599D01*
X-640209Y122121D01*
X-642520Y123079D01*
X-645000Y123405D01*
D02*
G37*
G36*
X-927550Y140199D02*
X-930552Y139804D01*
X-933350Y138645D01*
X-935752Y136802D01*
X-937595Y134400D01*
X-938754Y131602D01*
X-939149Y128600D01*
X-938754Y125598D01*
X-937595Y122800D01*
X-935752Y120398D01*
X-933350Y118555D01*
X-930552Y117396D01*
X-927550Y117001D01*
X-924548Y117396D01*
X-921750Y118555D01*
X-919348Y120398D01*
X-917505Y122800D01*
X-916346Y125598D01*
X-915951Y128600D01*
X-916346Y131602D01*
X-917505Y134400D01*
X-919348Y136802D01*
X-921750Y138645D01*
X-924548Y139804D01*
X-927550Y140199D01*
D02*
G37*
G36*
X-952950D02*
X-955952Y139804D01*
X-958750Y138645D01*
X-961152Y136802D01*
X-962995Y134400D01*
X-964154Y131602D01*
X-964549Y128600D01*
X-964154Y125598D01*
X-962995Y122800D01*
X-961152Y120398D01*
X-958750Y118555D01*
X-955952Y117396D01*
X-952950Y117001D01*
X-949948Y117396D01*
X-947150Y118555D01*
X-944748Y120398D01*
X-942905Y122800D01*
X-941746Y125598D01*
X-941351Y128600D01*
X-941746Y131602D01*
X-942905Y134400D01*
X-944748Y136802D01*
X-947150Y138645D01*
X-949948Y139804D01*
X-952950Y140199D01*
D02*
G37*
G36*
X-978350D02*
X-981352Y139804D01*
X-984150Y138645D01*
X-986552Y136802D01*
X-988395Y134400D01*
X-989554Y131602D01*
X-989949Y128600D01*
X-989554Y125598D01*
X-988395Y122800D01*
X-986552Y120398D01*
X-984150Y118555D01*
X-981352Y117396D01*
X-978350Y117001D01*
X-975348Y117396D01*
X-972550Y118555D01*
X-970148Y120398D01*
X-968305Y122800D01*
X-967146Y125598D01*
X-966751Y128600D01*
X-967146Y131602D01*
X-968305Y134400D01*
X-970148Y136802D01*
X-972550Y138645D01*
X-975348Y139804D01*
X-978350Y140199D01*
D02*
G37*
G36*
X-876750Y125064D02*
X-885091Y116723D01*
X-884062Y115934D01*
X-880535Y114473D01*
X-876750Y113975D01*
X-872965Y114473D01*
X-869437Y115934D01*
X-868409Y116723D01*
X-876750Y125064D01*
D02*
G37*
G36*
X-1248700Y128909D02*
X-1253111Y128474D01*
X-1257352Y127188D01*
X-1261261Y125099D01*
X-1262745Y123881D01*
X-1248700Y109836D01*
X-1234655Y123881D01*
X-1236139Y125099D01*
X-1240048Y127188D01*
X-1244289Y128474D01*
X-1248700Y128909D01*
D02*
G37*
G36*
X-1117300D02*
X-1121711Y128474D01*
X-1125952Y127188D01*
X-1129861Y125099D01*
X-1131345Y123881D01*
X-1117300Y109836D01*
X-1103255Y123881D01*
X-1104739Y125099D01*
X-1108648Y127188D01*
X-1112889Y128474D01*
X-1117300Y128909D01*
D02*
G37*
G36*
X-630450Y120738D02*
X-630919Y120127D01*
X-632178Y117086D01*
X-632608Y113823D01*
X-632178Y110560D01*
X-630919Y107519D01*
X-630450Y106909D01*
X-623535Y113823D01*
X-630450Y120738D01*
D02*
G37*
G36*
X-703120Y131368D02*
X-717165Y117323D01*
X-703120Y103278D01*
X-701901Y104762D01*
X-700069Y108190D01*
X-699777Y108329D01*
X-698598Y108502D01*
X-697807Y108392D01*
X-696775Y107048D01*
X-694791Y105525D01*
X-692480Y104568D01*
X-690000Y104241D01*
X-687520Y104568D01*
X-685209Y105525D01*
X-683224Y107048D01*
X-681702Y109032D01*
X-680744Y111343D01*
X-680418Y113823D01*
X-680744Y116303D01*
X-681702Y118614D01*
X-683224Y120599D01*
X-685209Y122121D01*
X-687520Y123079D01*
X-690000Y123405D01*
X-692480Y123079D01*
X-694791Y122121D01*
X-696430Y120864D01*
X-698486Y121332D01*
X-698526Y121734D01*
X-699812Y125975D01*
X-701901Y129884D01*
X-703120Y131368D01*
D02*
G37*
G36*
X-738280Y131368D02*
X-739499Y129884D01*
X-741588Y125975D01*
X-742874Y121734D01*
X-743309Y117323D01*
X-742874Y112912D01*
X-741588Y108671D01*
X-739499Y104762D01*
X-738280Y103278D01*
X-724236Y117323D01*
X-738280Y131368D01*
D02*
G37*
G36*
X-571720Y131368D02*
X-585765Y117323D01*
X-571720Y103278D01*
X-570501Y104762D01*
X-568412Y108671D01*
X-567126Y112912D01*
X-566691Y117323D01*
X-567126Y121734D01*
X-568412Y125975D01*
X-570501Y129884D01*
X-571720Y131368D01*
D02*
G37*
G36*
X-856150Y113185D02*
X-859581Y112847D01*
X-862879Y111846D01*
X-865919Y110221D01*
X-866642Y109628D01*
X-856150Y99136D01*
X-845658Y109628D01*
X-846380Y110221D01*
X-849421Y111846D01*
X-852719Y112847D01*
X-856150Y113185D01*
D02*
G37*
G36*
X-1011650D02*
X-1015081Y112847D01*
X-1018379Y111846D01*
X-1021420Y110221D01*
X-1022142Y109628D01*
X-1011650Y99136D01*
X-1001158Y109628D01*
X-1001880Y110221D01*
X-1004921Y111846D01*
X-1008219Y112847D01*
X-1011650Y113185D01*
D02*
G37*
G36*
X-1157380Y107345D02*
X-1157608Y107047D01*
X-1158717Y104372D01*
X-1159095Y101500D01*
X-1158717Y98628D01*
X-1157608Y95953D01*
X-1157380Y95655D01*
X-1151535Y101500D01*
X-1157380Y107345D01*
D02*
G37*
G36*
X-589300Y113788D02*
X-603345Y99743D01*
X-601861Y98525D01*
X-597952Y96435D01*
X-593711Y95149D01*
X-589300Y94714D01*
X-584889Y95149D01*
X-580648Y96435D01*
X-576739Y98525D01*
X-575255Y99743D01*
X-589300Y113788D01*
D02*
G37*
G36*
X-720700D02*
X-734745Y99743D01*
X-733261Y98525D01*
X-729352Y96435D01*
X-725111Y95149D01*
X-720700Y94714D01*
X-716289Y95149D01*
X-712048Y96435D01*
X-708139Y98525D01*
X-706655Y99743D01*
X-720700Y113788D01*
D02*
G37*
G36*
X-1099719Y120345D02*
X-1113764Y106300D01*
X-1099719Y92255D01*
X-1098501Y93739D01*
X-1096412Y97648D01*
X-1095126Y101889D01*
X-1094691Y106300D01*
X-1095126Y110711D01*
X-1096412Y114952D01*
X-1098501Y118861D01*
X-1099719Y120345D01*
D02*
G37*
G36*
X-1143000Y124569D02*
X-1145088Y124294D01*
X-1147035Y123488D01*
X-1148706Y122206D01*
X-1149988Y120534D01*
X-1150794Y118588D01*
X-1151069Y116500D01*
X-1150794Y114412D01*
X-1150728Y114253D01*
X-1150755Y113871D01*
X-1151877Y111800D01*
X-1153548Y111109D01*
X-1153845Y110880D01*
X-1146232Y103268D01*
X-1148000Y101500D01*
X-1146232Y99732D01*
X-1153845Y92120D01*
X-1153548Y91891D01*
X-1150872Y90783D01*
X-1150792Y90773D01*
X-1149908Y88639D01*
X-1149988Y88534D01*
X-1150794Y86588D01*
X-1151069Y84500D01*
X-1150794Y82412D01*
X-1150728Y82253D01*
X-1150755Y81871D01*
X-1151877Y79800D01*
X-1153548Y79109D01*
X-1153845Y78880D01*
X-1146232Y71268D01*
X-1138620Y63655D01*
X-1138391Y63952D01*
X-1137283Y66628D01*
X-1136905Y69500D01*
X-1137283Y72372D01*
X-1138391Y75047D01*
X-1138840Y75633D01*
X-1138208Y78093D01*
X-1137294Y78794D01*
X-1136012Y80465D01*
X-1135206Y82412D01*
X-1134931Y84500D01*
X-1135206Y86588D01*
X-1136012Y88534D01*
X-1137294Y90206D01*
X-1138966Y91488D01*
X-1139239Y91601D01*
X-1139670Y93532D01*
X-1138581Y94724D01*
X-1136520Y94528D01*
X-1136099Y93739D01*
X-1134881Y92255D01*
X-1120835Y106300D01*
X-1135803Y121268D01*
X-1136640Y121353D01*
X-1137294Y122206D01*
X-1138966Y123488D01*
X-1140912Y124294D01*
X-1143000Y124569D01*
D02*
G37*
G36*
X-1266281Y120345D02*
X-1267499Y118861D01*
X-1269588Y114952D01*
X-1270874Y110711D01*
X-1271309Y106300D01*
X-1270874Y101889D01*
X-1269588Y97648D01*
X-1267499Y93739D01*
X-1266281Y92255D01*
X-1252235Y106300D01*
X-1266281Y120345D01*
D02*
G37*
G36*
X-645000Y97205D02*
X-647480Y96879D01*
X-649791Y95921D01*
X-651775Y94399D01*
X-653298Y92414D01*
X-653918Y90919D01*
X-656082D01*
X-656702Y92414D01*
X-658224Y94399D01*
X-660209Y95921D01*
X-662520Y96879D01*
X-665000Y97205D01*
X-667480Y96879D01*
X-669791Y95921D01*
X-671775Y94399D01*
X-673298Y92414D01*
X-674255Y90103D01*
X-674582Y87623D01*
X-674255Y85143D01*
X-673298Y82832D01*
X-671775Y80848D01*
X-669791Y79325D01*
X-667480Y78368D01*
X-665000Y78041D01*
X-662520Y78368D01*
X-660209Y79325D01*
X-658224Y80848D01*
X-656702Y82832D01*
X-656082Y84327D01*
X-653918D01*
X-653298Y82832D01*
X-651775Y80848D01*
X-649791Y79325D01*
X-647480Y78368D01*
X-645000Y78041D01*
X-642520Y78368D01*
X-640209Y79325D01*
X-638224Y80848D01*
X-636702Y82832D01*
X-635745Y85143D01*
X-635418Y87623D01*
X-635745Y90103D01*
X-636702Y92414D01*
X-638224Y94399D01*
X-640209Y95921D01*
X-642520Y96879D01*
X-645000Y97205D01*
D02*
G37*
G36*
X-842122Y106092D02*
X-852615Y95600D01*
X-842122Y85108D01*
X-841529Y85830D01*
X-839904Y88871D01*
X-838903Y92169D01*
X-838565Y95600D01*
X-838903Y99031D01*
X-839904Y102329D01*
X-841529Y105370D01*
X-842122Y106092D01*
D02*
G37*
G36*
X-1025678D02*
X-1026271Y105370D01*
X-1027896Y102329D01*
X-1028897Y99031D01*
X-1029235Y95600D01*
X-1028897Y92169D01*
X-1027896Y88871D01*
X-1026271Y85830D01*
X-1025678Y85108D01*
X-1015185Y95600D01*
X-1025678Y106092D01*
D02*
G37*
G36*
X-1117300Y102765D02*
X-1131345Y88720D01*
X-1129861Y87501D01*
X-1125952Y85412D01*
X-1121711Y84126D01*
X-1117300Y83691D01*
X-1112889Y84126D01*
X-1108648Y85412D01*
X-1104739Y87501D01*
X-1103255Y88720D01*
X-1117300Y102765D01*
D02*
G37*
G36*
X-1248700D02*
X-1262745Y88720D01*
X-1261261Y87501D01*
X-1257352Y85412D01*
X-1253111Y84126D01*
X-1248700Y83691D01*
X-1244289Y84126D01*
X-1240048Y85412D01*
X-1236139Y87501D01*
X-1234655Y88720D01*
X-1248700Y102765D01*
D02*
G37*
G36*
X-870178Y106092D02*
X-870771Y105370D01*
X-872396Y102329D01*
X-873397Y99031D01*
X-873735Y95600D01*
X-873397Y92169D01*
X-872396Y88871D01*
X-870771Y85830D01*
X-869260Y83989D01*
X-870421Y82251D01*
X-873172Y83086D01*
X-876750Y83438D01*
X-880328Y83086D01*
X-883768Y82042D01*
X-886938Y80348D01*
X-889717Y78067D01*
X-891998Y75288D01*
X-893692Y72118D01*
X-894736Y68678D01*
X-895088Y65100D01*
X-894736Y61522D01*
X-893692Y58082D01*
X-891998Y54912D01*
X-889717Y52133D01*
X-886938Y49852D01*
X-883768Y48158D01*
X-880328Y47114D01*
X-876750Y46762D01*
X-873172Y47114D01*
X-869732Y48158D01*
X-866562Y49852D01*
X-863783Y52133D01*
X-861502Y54912D01*
X-859808Y58082D01*
X-858764Y61522D01*
X-858412Y65100D01*
X-858764Y68678D01*
X-859808Y72118D01*
X-861502Y75288D01*
X-863205Y77362D01*
X-862043Y79100D01*
X-859581Y78353D01*
X-856150Y78015D01*
X-852719Y78353D01*
X-849421Y79354D01*
X-846380Y80979D01*
X-845658Y81572D01*
X-857918Y93832D01*
X-870178Y106092D01*
D02*
G37*
G36*
X-630450Y94538D02*
X-630919Y93927D01*
X-632178Y90886D01*
X-632608Y87623D01*
X-632178Y84360D01*
X-630919Y81319D01*
X-630450Y80709D01*
X-623535Y87623D01*
X-630450Y94538D01*
D02*
G37*
G36*
X-609550Y94538D02*
X-616465Y87623D01*
X-609550Y80709D01*
X-609081Y81319D01*
X-607822Y84360D01*
X-607392Y87623D01*
X-607822Y90886D01*
X-609081Y93927D01*
X-609550Y94538D01*
D02*
G37*
G36*
X-680500Y97123D02*
X-699500D01*
Y78123D01*
X-680500D01*
Y97123D01*
D02*
G37*
G36*
X-620000Y84088D02*
X-626915Y77173D01*
X-626304Y76704D01*
X-623263Y75445D01*
X-620000Y75015D01*
X-616737Y75445D01*
X-613696Y76704D01*
X-613085Y77173D01*
X-620000Y84088D01*
D02*
G37*
G36*
X-589300Y83132D02*
X-593711Y82698D01*
X-597952Y81411D01*
X-601861Y79322D01*
X-603345Y78104D01*
X-589300Y64059D01*
X-575255Y78104D01*
X-576739Y79322D01*
X-580648Y81411D01*
X-584889Y82698D01*
X-589300Y83132D01*
D02*
G37*
G36*
X-720700D02*
X-725111Y82698D01*
X-729352Y81411D01*
X-733261Y79322D01*
X-734745Y78104D01*
X-720700Y64059D01*
X-706655Y78104D01*
X-708139Y79322D01*
X-712048Y81411D01*
X-716289Y82698D01*
X-720700Y83132D01*
D02*
G37*
G36*
X-1157380Y75345D02*
X-1157608Y75047D01*
X-1158717Y72372D01*
X-1159095Y69500D01*
X-1158717Y66628D01*
X-1157608Y63952D01*
X-1157380Y63655D01*
X-1151535Y69500D01*
X-1157380Y75345D01*
D02*
G37*
G36*
X-379300Y81729D02*
Y62950D01*
X-369192D01*
Y69450D01*
X-369622Y72713D01*
X-370881Y75754D01*
X-372885Y78365D01*
X-375496Y80369D01*
X-378537Y81628D01*
X-379300Y81729D01*
D02*
G37*
G36*
X-384300D02*
X-385063Y81628D01*
X-388104Y80369D01*
X-390715Y78365D01*
X-392719Y75754D01*
X-393978Y72713D01*
X-394408Y69450D01*
Y62950D01*
X-384300D01*
Y81729D01*
D02*
G37*
G36*
X-524300D02*
Y62950D01*
X-514192D01*
Y69450D01*
X-514622Y72713D01*
X-515881Y75754D01*
X-517885Y78365D01*
X-520496Y80369D01*
X-523537Y81628D01*
X-524300Y81729D01*
D02*
G37*
G36*
X-529300Y81729D02*
X-530063Y81628D01*
X-533104Y80369D01*
X-535715Y78365D01*
X-537719Y75754D01*
X-538978Y72713D01*
X-539408Y69450D01*
Y62950D01*
X-529300D01*
Y81729D01*
D02*
G37*
G36*
X-1148000Y65964D02*
X-1153845Y60120D01*
X-1153548Y59892D01*
X-1150872Y58783D01*
X-1148000Y58405D01*
X-1145128Y58783D01*
X-1142452Y59892D01*
X-1142155Y60120D01*
X-1148000Y65964D01*
D02*
G37*
G36*
X-235500Y84212D02*
X-238894Y83765D01*
X-242056Y82456D01*
X-244772Y80372D01*
X-246856Y77656D01*
X-248165Y74494D01*
X-248612Y71100D01*
X-248165Y67706D01*
X-246856Y64544D01*
X-244772Y61828D01*
X-242056Y59745D01*
X-238894Y58435D01*
X-235500Y57988D01*
X-232106Y58435D01*
X-228944Y59745D01*
X-226228Y61828D01*
X-224144Y64544D01*
X-222835Y67706D01*
X-222388Y71100D01*
X-222835Y74494D01*
X-224144Y77656D01*
X-226228Y80372D01*
X-228944Y82456D01*
X-232106Y83765D01*
X-235500Y84212D01*
D02*
G37*
G36*
X-185500Y71379D02*
Y55600D01*
X-175392D01*
Y59100D01*
X-175822Y62363D01*
X-177081Y65404D01*
X-179085Y68015D01*
X-181696Y70019D01*
X-184737Y71278D01*
X-185500Y71379D01*
D02*
G37*
G36*
X-190500Y71379D02*
X-191263Y71278D01*
X-194304Y70019D01*
X-196915Y68015D01*
X-198919Y65404D01*
X-200178Y62363D01*
X-200608Y59100D01*
Y55600D01*
X-190500D01*
Y71379D01*
D02*
G37*
G36*
X-280500Y70379D02*
Y54600D01*
X-270392D01*
Y58100D01*
X-270822Y61363D01*
X-272081Y64404D01*
X-274085Y67015D01*
X-276696Y69019D01*
X-279737Y70278D01*
X-280500Y70379D01*
D02*
G37*
G36*
X-285500Y70379D02*
X-286263Y70278D01*
X-289304Y69019D01*
X-291915Y67015D01*
X-293919Y64404D01*
X-295178Y61363D01*
X-295608Y58100D01*
Y54600D01*
X-285500D01*
Y70379D01*
D02*
G37*
G36*
X-1117300Y72109D02*
X-1121711Y71674D01*
X-1125952Y70388D01*
X-1129861Y68299D01*
X-1131345Y67080D01*
X-1117300Y53035D01*
X-1103255Y67080D01*
X-1104739Y68299D01*
X-1108648Y70388D01*
X-1112889Y71674D01*
X-1117300Y72109D01*
D02*
G37*
G36*
X-1248700D02*
X-1253111Y71674D01*
X-1257352Y70388D01*
X-1261261Y68299D01*
X-1262745Y67080D01*
X-1248700Y53035D01*
X-1234655Y67080D01*
X-1236139Y68299D01*
X-1240048Y70388D01*
X-1244289Y71674D01*
X-1248700Y72109D01*
D02*
G37*
G36*
X-997622Y106092D02*
X-1009882Y93832D01*
X-1022142Y81572D01*
X-1021420Y80979D01*
X-1018379Y79354D01*
X-1015081Y78353D01*
X-1011650Y78015D01*
X-1008219Y78353D01*
X-1005757Y79100D01*
X-1004595Y77362D01*
X-1006298Y75288D01*
X-1007992Y72118D01*
X-1009036Y68678D01*
X-1009388Y65100D01*
X-1009036Y61522D01*
X-1007992Y58082D01*
X-1006298Y54912D01*
X-1004017Y52133D01*
X-1001238Y49852D01*
X-998068Y48158D01*
X-994628Y47114D01*
X-991050Y46762D01*
X-987472Y47114D01*
X-984032Y48158D01*
X-980862Y49852D01*
X-978083Y52133D01*
X-975802Y54912D01*
X-974108Y58082D01*
X-973064Y61522D01*
X-972712Y65100D01*
X-973064Y68678D01*
X-974108Y72118D01*
X-975802Y75288D01*
X-978083Y78067D01*
X-980862Y80348D01*
X-984032Y82042D01*
X-987472Y83086D01*
X-991050Y83438D01*
X-994628Y83086D01*
X-997379Y82251D01*
X-998540Y83989D01*
X-997029Y85830D01*
X-995404Y88871D01*
X-994403Y92169D01*
X-994065Y95600D01*
X-994403Y99031D01*
X-995404Y102329D01*
X-997029Y105370D01*
X-997622Y106092D01*
D02*
G37*
G36*
X-606880Y74568D02*
X-608099Y73084D01*
X-610188Y69175D01*
X-611474Y64934D01*
X-611909Y60523D01*
X-611474Y56112D01*
X-610188Y51871D01*
X-608099Y47962D01*
X-606880Y46478D01*
X-592836Y60523D01*
X-606880Y74568D01*
D02*
G37*
G36*
X-738280D02*
X-739499Y73084D01*
X-741588Y69175D01*
X-742874Y64934D01*
X-743309Y60523D01*
X-742874Y56112D01*
X-741588Y51871D01*
X-739499Y47962D01*
X-738280Y46478D01*
X-724236Y60523D01*
X-738280Y74568D01*
D02*
G37*
G36*
X-571720Y74568D02*
X-585765Y60523D01*
X-571720Y46478D01*
X-570501Y47962D01*
X-568412Y51871D01*
X-567126Y56112D01*
X-566691Y60523D01*
X-567126Y64934D01*
X-568412Y69175D01*
X-570501Y73084D01*
X-571720Y74568D01*
D02*
G37*
G36*
X-703120D02*
X-717165Y60523D01*
X-703120Y46478D01*
X-701901Y47962D01*
X-699812Y51871D01*
X-698526Y56112D01*
X-698091Y60523D01*
X-698526Y64934D01*
X-699812Y69175D01*
X-701901Y73084D01*
X-703120Y74568D01*
D02*
G37*
G36*
X-529300Y57950D02*
X-539408D01*
Y51450D01*
X-538978Y48187D01*
X-537719Y45146D01*
X-535715Y42535D01*
X-533104Y40531D01*
X-530063Y39272D01*
X-529300Y39171D01*
Y57950D01*
D02*
G37*
G36*
X-369192Y57950D02*
X-379300D01*
Y39171D01*
X-378537Y39272D01*
X-375496Y40531D01*
X-372885Y42535D01*
X-370881Y45146D01*
X-369622Y48187D01*
X-369192Y51450D01*
Y57950D01*
D02*
G37*
G36*
X-384300D02*
X-394408D01*
Y51450D01*
X-393978Y48187D01*
X-392719Y45146D01*
X-390715Y42535D01*
X-388104Y40531D01*
X-385063Y39272D01*
X-384300Y39171D01*
Y57950D01*
D02*
G37*
G36*
X-514192Y57950D02*
X-524300D01*
Y39171D01*
X-523537Y39272D01*
X-520496Y40531D01*
X-517885Y42535D01*
X-515881Y45146D01*
X-514622Y48187D01*
X-514192Y51450D01*
Y57950D01*
D02*
G37*
G36*
X-589300Y56988D02*
X-603345Y42943D01*
X-601861Y41725D01*
X-597952Y39635D01*
X-593711Y38349D01*
X-589300Y37914D01*
X-584889Y38349D01*
X-580648Y39635D01*
X-576739Y41725D01*
X-575255Y42943D01*
X-589300Y56988D01*
D02*
G37*
G36*
X-720700D02*
X-734745Y42943D01*
X-733261Y41725D01*
X-729352Y39635D01*
X-725111Y38349D01*
X-720700Y37914D01*
X-716289Y38349D01*
X-712048Y39635D01*
X-708139Y41725D01*
X-706655Y42943D01*
X-720700Y56988D01*
D02*
G37*
G36*
X-1099719Y63545D02*
X-1113764Y49500D01*
X-1099719Y35455D01*
X-1098501Y36939D01*
X-1096412Y40848D01*
X-1095126Y45089D01*
X-1094691Y49500D01*
X-1095126Y53911D01*
X-1096412Y58152D01*
X-1098501Y62061D01*
X-1099719Y63545D01*
D02*
G37*
G36*
X-1231120D02*
X-1245164Y49500D01*
X-1231120Y35455D01*
X-1229901Y36939D01*
X-1227812Y40848D01*
X-1226526Y45089D01*
X-1226091Y49500D01*
X-1226526Y53911D01*
X-1227812Y58152D01*
X-1229901Y62061D01*
X-1231120Y63545D01*
D02*
G37*
G36*
X-1134881Y63545D02*
X-1136099Y62061D01*
X-1138188Y58152D01*
X-1139474Y53911D01*
X-1139909Y49500D01*
X-1139474Y45089D01*
X-1138188Y40848D01*
X-1136099Y36939D01*
X-1134881Y35455D01*
X-1120835Y49500D01*
X-1134881Y63545D01*
D02*
G37*
G36*
X-1266281D02*
X-1267499Y62061D01*
X-1269588Y58152D01*
X-1270874Y53911D01*
X-1271309Y49500D01*
X-1270874Y45089D01*
X-1269588Y40848D01*
X-1267499Y36939D01*
X-1266281Y35455D01*
X-1252235Y49500D01*
X-1266281Y63545D01*
D02*
G37*
G36*
X-190500Y50600D02*
X-200608D01*
Y47100D01*
X-200178Y43837D01*
X-198919Y40796D01*
X-196915Y38185D01*
X-194304Y36181D01*
X-191263Y34922D01*
X-190500Y34821D01*
Y50600D01*
D02*
G37*
G36*
X-175392D02*
X-185500D01*
Y34821D01*
X-184737Y34922D01*
X-181696Y36181D01*
X-179085Y38185D01*
X-177081Y40796D01*
X-175822Y43837D01*
X-175392Y47100D01*
Y50600D01*
D02*
G37*
G36*
X-285500Y49600D02*
X-295608D01*
Y46100D01*
X-295178Y42837D01*
X-293919Y39796D01*
X-291915Y37185D01*
X-289304Y35181D01*
X-286263Y33922D01*
X-285500Y33821D01*
Y49600D01*
D02*
G37*
G36*
X-270392D02*
X-280500D01*
Y33821D01*
X-279737Y33922D01*
X-276696Y35181D01*
X-274085Y37185D01*
X-272081Y39796D01*
X-270822Y42837D01*
X-270392Y46100D01*
Y49600D01*
D02*
G37*
G36*
X-1117300Y45964D02*
X-1131345Y31920D01*
X-1129861Y30701D01*
X-1125952Y28612D01*
X-1121711Y27325D01*
X-1117300Y26891D01*
X-1112889Y27325D01*
X-1108648Y28612D01*
X-1104739Y30701D01*
X-1103255Y31920D01*
X-1117300Y45964D01*
D02*
G37*
G36*
X-1248700D02*
X-1262745Y31920D01*
X-1261261Y30701D01*
X-1257352Y28612D01*
X-1253111Y27325D01*
X-1248700Y26891D01*
X-1244289Y27325D01*
X-1240048Y28612D01*
X-1236139Y30701D01*
X-1234655Y31920D01*
X-1248700Y45964D01*
D02*
G37*
G36*
X-61200Y38807D02*
Y26050D01*
X-53614D01*
Y29050D01*
X-53957Y31660D01*
X-54965Y34093D01*
X-56568Y36182D01*
X-58657Y37785D01*
X-61090Y38793D01*
X-61200Y38807D01*
D02*
G37*
G36*
X-152600D02*
X-152711Y38793D01*
X-155143Y37785D01*
X-157232Y36182D01*
X-158835Y34093D01*
X-159843Y31660D01*
X-160186Y29050D01*
Y26050D01*
X-152600D01*
Y38807D01*
D02*
G37*
G36*
X-66200D02*
X-66311Y38793D01*
X-68743Y37785D01*
X-70832Y36182D01*
X-72435Y34093D01*
X-73443Y31660D01*
X-73786Y29050D01*
Y24254D01*
X-75786Y23185D01*
X-75952Y23295D01*
X-78000Y23703D01*
X-80049Y23295D01*
X-81785Y22135D01*
X-82945Y20398D01*
X-83353Y18350D01*
X-82945Y16302D01*
X-81785Y14565D01*
X-80049Y13405D01*
X-78000Y12997D01*
X-75952Y13405D01*
X-75022Y14026D01*
X-72858Y13598D01*
X-72605Y13418D01*
X-72435Y13007D01*
X-70832Y10918D01*
X-68743Y9315D01*
X-66311Y8307D01*
X-66200Y8293D01*
Y23550D01*
Y38807D01*
D02*
G37*
G36*
X-870650Y42899D02*
X-873652Y42504D01*
X-876450Y41345D01*
X-878852Y39502D01*
X-880695Y37100D01*
X-881854Y34302D01*
X-882249Y31300D01*
X-881854Y28298D01*
X-880695Y25500D01*
X-878852Y23098D01*
X-876450Y21255D01*
X-873652Y20096D01*
X-870650Y19701D01*
X-867648Y20096D01*
X-864850Y21255D01*
X-862448Y23098D01*
X-860605Y25500D01*
X-859446Y28298D01*
X-859051Y31300D01*
X-859446Y34302D01*
X-860605Y37100D01*
X-862448Y39502D01*
X-864850Y41345D01*
X-867648Y42504D01*
X-870650Y42899D01*
D02*
G37*
G36*
X-971750D02*
X-974752Y42504D01*
X-977550Y41345D01*
X-979952Y39502D01*
X-981795Y37100D01*
X-982954Y34302D01*
X-983349Y31300D01*
X-982954Y28298D01*
X-981795Y25500D01*
X-979952Y23098D01*
X-977550Y21255D01*
X-974752Y20096D01*
X-971750Y19701D01*
X-968748Y20096D01*
X-965950Y21255D01*
X-963548Y23098D01*
X-961705Y25500D01*
X-960546Y28298D01*
X-960151Y31300D01*
X-960546Y34302D01*
X-961705Y37100D01*
X-963548Y39502D01*
X-965950Y41345D01*
X-968748Y42504D01*
X-971750Y42899D01*
D02*
G37*
G36*
X-224500Y23708D02*
X-233000D01*
Y13600D01*
X-212221D01*
X-212322Y14363D01*
X-213581Y17404D01*
X-215585Y20015D01*
X-218196Y22019D01*
X-221237Y23278D01*
X-224500Y23708D01*
D02*
G37*
G36*
X-238000D02*
X-246500D01*
X-249763Y23278D01*
X-252804Y22019D01*
X-255415Y20015D01*
X-257419Y17404D01*
X-258678Y14363D01*
X-258779Y13600D01*
X-238000D01*
Y23708D01*
D02*
G37*
G36*
X-147600Y38807D02*
Y23550D01*
Y8293D01*
X-147490Y8307D01*
X-145057Y9315D01*
X-142968Y10918D01*
X-141365Y13007D01*
X-141195Y13418D01*
X-140942Y13598D01*
X-138778Y14026D01*
X-137848Y13405D01*
X-135800Y12997D01*
X-133752Y13405D01*
X-132015Y14565D01*
X-130855Y16302D01*
X-130447Y18350D01*
X-130855Y20398D01*
X-132015Y22135D01*
X-133752Y23295D01*
X-135800Y23703D01*
X-137848Y23295D01*
X-138014Y23185D01*
X-140014Y24254D01*
Y29050D01*
X-140357Y31660D01*
X-141365Y34093D01*
X-142968Y36182D01*
X-145057Y37785D01*
X-147490Y38793D01*
X-147600Y38807D01*
D02*
G37*
G36*
X-185500Y24379D02*
Y8600D01*
X-175392D01*
Y12100D01*
X-175822Y15363D01*
X-177081Y18404D01*
X-179085Y21015D01*
X-181696Y23019D01*
X-184737Y24278D01*
X-185500Y24379D01*
D02*
G37*
G36*
X-280500D02*
Y8600D01*
X-270392D01*
Y12100D01*
X-270822Y15363D01*
X-272081Y18404D01*
X-274085Y21015D01*
X-276696Y23019D01*
X-279737Y24278D01*
X-280500Y24379D01*
D02*
G37*
G36*
X-285500Y24379D02*
X-286263Y24278D01*
X-289304Y23019D01*
X-291915Y21015D01*
X-293919Y18404D01*
X-295178Y15363D01*
X-295608Y12100D01*
Y8600D01*
X-285500D01*
Y24379D01*
D02*
G37*
G36*
X-190500D02*
X-191263Y24278D01*
X-194304Y23019D01*
X-196915Y21015D01*
X-198919Y18404D01*
X-200178Y15363D01*
X-200608Y12100D01*
Y8600D01*
X-190500D01*
Y24379D01*
D02*
G37*
G36*
X-53614Y21050D02*
X-61200D01*
Y8293D01*
X-61090Y8307D01*
X-58657Y9315D01*
X-56568Y10918D01*
X-54965Y13007D01*
X-53957Y15439D01*
X-53614Y18050D01*
Y21050D01*
D02*
G37*
G36*
X-152600D02*
X-160186D01*
Y18050D01*
X-159843Y15439D01*
X-158835Y13007D01*
X-157232Y10918D01*
X-155143Y9315D01*
X-152711Y8307D01*
X-152600Y8293D01*
Y21050D01*
D02*
G37*
G36*
X-896050Y27699D02*
X-899052Y27304D01*
X-901850Y26145D01*
X-904252Y24302D01*
X-906095Y21900D01*
X-907254Y19102D01*
X-907649Y16100D01*
X-907254Y13098D01*
X-906095Y10300D01*
X-904252Y7898D01*
X-901850Y6055D01*
X-899052Y4896D01*
X-896050Y4501D01*
X-893048Y4896D01*
X-890250Y6055D01*
X-887848Y7898D01*
X-886005Y10300D01*
X-884846Y13098D01*
X-884451Y16100D01*
X-884846Y19102D01*
X-886005Y21900D01*
X-887848Y24302D01*
X-890250Y26145D01*
X-893048Y27304D01*
X-896050Y27699D01*
D02*
G37*
G36*
X-997150D02*
X-1000152Y27304D01*
X-1002950Y26145D01*
X-1005352Y24302D01*
X-1007195Y21900D01*
X-1008354Y19102D01*
X-1008749Y16100D01*
X-1008354Y13098D01*
X-1007195Y10300D01*
X-1005352Y7898D01*
X-1002950Y6055D01*
X-1000152Y4896D01*
X-997150Y4501D01*
X-994148Y4896D01*
X-991350Y6055D01*
X-988948Y7898D01*
X-987105Y10300D01*
X-985946Y13098D01*
X-985551Y16100D01*
X-985946Y19102D01*
X-987105Y21900D01*
X-988948Y24302D01*
X-991350Y26145D01*
X-994148Y27304D01*
X-997150Y27699D01*
D02*
G37*
G36*
X0Y37114D02*
X-5806Y36657D01*
X-11469Y35298D01*
X-16850Y33069D01*
X-21815Y30026D01*
X-24337Y27873D01*
X0Y3535D01*
X24337Y27873D01*
X21815Y30026D01*
X16850Y33069D01*
X11469Y35298D01*
X5806Y36657D01*
X0Y37114D01*
D02*
G37*
G36*
X-1395000D02*
X-1400806Y36657D01*
X-1406469Y35298D01*
X-1411850Y33069D01*
X-1416815Y30026D01*
X-1419337Y27873D01*
X-1395000Y3535D01*
X-1370663Y27873D01*
X-1373185Y30026D01*
X-1378150Y33069D01*
X-1383531Y35298D01*
X-1389194Y36657D01*
X-1395000Y37114D01*
D02*
G37*
G36*
X-379300Y17129D02*
Y3350D01*
X-369192D01*
Y4850D01*
X-369622Y8113D01*
X-370881Y11154D01*
X-372885Y13765D01*
X-375496Y15769D01*
X-378537Y17028D01*
X-379300Y17129D01*
D02*
G37*
G36*
X-384300D02*
X-385063Y17028D01*
X-388104Y15769D01*
X-390715Y13765D01*
X-392719Y11154D01*
X-393978Y8113D01*
X-394408Y4850D01*
Y3350D01*
X-384300D01*
Y17129D01*
D02*
G37*
G36*
X-524300D02*
Y3350D01*
X-514192D01*
Y4850D01*
X-514622Y8113D01*
X-515881Y11154D01*
X-517885Y13765D01*
X-520496Y15769D01*
X-523537Y17028D01*
X-524300Y17129D01*
D02*
G37*
G36*
X-529300Y17129D02*
X-530063Y17028D01*
X-533104Y15769D01*
X-535715Y13765D01*
X-537719Y11154D01*
X-538978Y8113D01*
X-539408Y4850D01*
Y3350D01*
X-529300D01*
Y17129D01*
D02*
G37*
G36*
X-212221Y8600D02*
X-233000D01*
Y-1508D01*
X-224500D01*
X-221237Y-1078D01*
X-218196Y181D01*
X-215585Y2185D01*
X-213581Y4796D01*
X-212322Y7837D01*
X-212221Y8600D01*
D02*
G37*
G36*
X-238000D02*
X-258779D01*
X-258678Y7837D01*
X-257419Y4796D01*
X-255415Y2185D01*
X-252804Y181D01*
X-249763Y-1078D01*
X-246500Y-1508D01*
X-238000D01*
Y8600D01*
D02*
G37*
G36*
X-285500Y3600D02*
X-295608D01*
Y100D01*
X-295178Y-3163D01*
X-293919Y-6204D01*
X-291915Y-8815D01*
X-289304Y-10819D01*
X-286263Y-12078D01*
X-285500Y-12179D01*
Y3600D01*
D02*
G37*
G36*
X-190500D02*
X-200608D01*
Y100D01*
X-200178Y-3163D01*
X-198919Y-6204D01*
X-196915Y-8815D01*
X-194304Y-10819D01*
X-191263Y-12078D01*
X-190500Y-12179D01*
Y3600D01*
D02*
G37*
G36*
X-175392D02*
X-185500D01*
Y-12179D01*
X-184737Y-12078D01*
X-181696Y-10819D01*
X-179085Y-8815D01*
X-177081Y-6204D01*
X-175822Y-3163D01*
X-175392Y100D01*
Y3600D01*
D02*
G37*
G36*
X-270392D02*
X-280500D01*
Y-12179D01*
X-279737Y-12078D01*
X-276696Y-10819D01*
X-274085Y-8815D01*
X-272081Y-6204D01*
X-270822Y-3163D01*
X-270392Y100D01*
Y3600D01*
D02*
G37*
G36*
X-529300Y-1650D02*
X-539408D01*
Y-3150D01*
X-538978Y-6413D01*
X-537719Y-9454D01*
X-535715Y-12065D01*
X-533104Y-14069D01*
X-530063Y-15328D01*
X-529300Y-15429D01*
Y-1650D01*
D02*
G37*
G36*
X-369192Y-1650D02*
X-379300D01*
Y-15429D01*
X-378537Y-15328D01*
X-375496Y-14069D01*
X-372885Y-12065D01*
X-370881Y-9454D01*
X-369622Y-6413D01*
X-369192Y-3150D01*
Y-1650D01*
D02*
G37*
G36*
X-384300D02*
X-394408D01*
Y-3150D01*
X-393978Y-6413D01*
X-392719Y-9454D01*
X-390715Y-12065D01*
X-388104Y-14069D01*
X-385063Y-15328D01*
X-384300Y-15429D01*
Y-1650D01*
D02*
G37*
G36*
X-514192Y-1650D02*
X-524300D01*
Y-15429D01*
X-523537Y-15328D01*
X-520496Y-14069D01*
X-517885Y-12065D01*
X-515881Y-9454D01*
X-514622Y-6413D01*
X-514192Y-3150D01*
Y-1650D01*
D02*
G37*
G36*
X-61200Y-4693D02*
Y-15950D01*
X-53614D01*
Y-14450D01*
X-53957Y-11839D01*
X-54965Y-9407D01*
X-56568Y-7318D01*
X-58657Y-5715D01*
X-61090Y-4707D01*
X-61200Y-4693D01*
D02*
G37*
G36*
X-66200D02*
X-66311Y-4707D01*
X-68743Y-5715D01*
X-70832Y-7318D01*
X-72435Y-9407D01*
X-73443Y-11839D01*
X-73786Y-14450D01*
Y-15950D01*
X-66200D01*
Y-4693D01*
D02*
G37*
G36*
X-147600D02*
Y-15950D01*
X-140014D01*
Y-14450D01*
X-140357Y-11839D01*
X-141365Y-9407D01*
X-142968Y-7318D01*
X-145057Y-5715D01*
X-147490Y-4707D01*
X-147600Y-4693D01*
D02*
G37*
G36*
X-152600D02*
X-152711Y-4707D01*
X-155143Y-5715D01*
X-157232Y-7318D01*
X-158835Y-9407D01*
X-159843Y-11839D01*
X-160186Y-14450D01*
Y-15950D01*
X-152600D01*
Y-4693D01*
D02*
G37*
G36*
X-1367128Y24337D02*
X-1391465Y0D01*
X-1367128Y-24337D01*
X-1364974Y-21815D01*
X-1361931Y-16850D01*
X-1359702Y-11469D01*
X-1358343Y-5806D01*
X-1357886Y0D01*
X-1358343Y5806D01*
X-1359702Y11469D01*
X-1361931Y16850D01*
X-1364974Y21815D01*
X-1367128Y24337D01*
D02*
G37*
G36*
X-27873Y24337D02*
X-30026Y21815D01*
X-33069Y16850D01*
X-35298Y11469D01*
X-36657Y5806D01*
X-37114Y0D01*
X-36657Y-5806D01*
X-35298Y-11469D01*
X-33069Y-16850D01*
X-30026Y-21815D01*
X-27873Y-24337D01*
X-3535Y0D01*
X-27873Y24337D01*
D02*
G37*
G36*
X-235500Y-11314D02*
X-238111Y-11657D01*
X-240543Y-12665D01*
X-242632Y-14268D01*
X-244235Y-16357D01*
X-245243Y-18789D01*
X-245586Y-21400D01*
X-245243Y-24011D01*
X-244235Y-26443D01*
X-242632Y-28532D01*
X-240543Y-30135D01*
X-238111Y-31143D01*
X-235500Y-31486D01*
X-232889Y-31143D01*
X-230457Y-30135D01*
X-228368Y-28532D01*
X-226765Y-26443D01*
X-225757Y-24011D01*
X-225414Y-21400D01*
X-225757Y-18789D01*
X-226765Y-16357D01*
X-228368Y-14268D01*
X-230457Y-12665D01*
X-232889Y-11657D01*
X-235500Y-11314D01*
D02*
G37*
G36*
X-53614Y-20950D02*
X-61200D01*
Y-32207D01*
X-61090Y-32193D01*
X-58657Y-31185D01*
X-56568Y-29582D01*
X-54965Y-27493D01*
X-53957Y-25061D01*
X-53614Y-22450D01*
Y-20950D01*
D02*
G37*
G36*
X-66200D02*
X-73786D01*
Y-22450D01*
X-73443Y-25061D01*
X-72435Y-27493D01*
X-70832Y-29582D01*
X-68743Y-31185D01*
X-66311Y-32193D01*
X-66200Y-32207D01*
Y-20950D01*
D02*
G37*
G36*
X-140014D02*
X-147600D01*
Y-32207D01*
X-147490Y-32193D01*
X-145057Y-31185D01*
X-142968Y-29582D01*
X-141365Y-27493D01*
X-140357Y-25061D01*
X-140014Y-22450D01*
Y-20950D01*
D02*
G37*
G36*
X-152600D02*
X-160186D01*
Y-22450D01*
X-159843Y-25061D01*
X-158835Y-27493D01*
X-157232Y-29582D01*
X-155143Y-31185D01*
X-152711Y-32193D01*
X-152600Y-32207D01*
Y-20950D01*
D02*
G37*
%LPD*%
G36*
X-1181765Y90378D02*
X-1180692Y90060D01*
X-1179751Y89619D01*
X-1178911Y89127D01*
X-1178141Y88657D01*
X-1177410Y88280D01*
X-1176687Y88070D01*
X-1175941Y88098D01*
X-1175140Y88437D01*
X-1174255Y89160D01*
X-1172840Y87746D01*
X-1173735Y86807D01*
X-1174427Y85995D01*
X-1174969Y85278D01*
X-1175112Y85065D01*
X-1174616Y84562D01*
X-1174024Y83964D01*
X-1173318Y83254D01*
X-1172458Y82393D01*
X-1173873Y80979D01*
X-1174587Y81572D01*
X-1175234Y81867D01*
X-1175837Y81911D01*
X-1176418Y81748D01*
X-1176999Y81424D01*
X-1177603Y80983D01*
X-1178253Y80471D01*
X-1178971Y79932D01*
X-1179781Y79413D01*
X-1180537Y79039D01*
X-1180775Y79128D01*
X-1182997Y84483D01*
X-1183007Y84493D01*
X-1183007Y84507D01*
X-1183007Y84507D01*
X-1183007Y84507D01*
X-1183000Y90311D01*
X-1182812Y90481D01*
X-1181765Y90378D01*
D02*
G37*
G36*
X-1170336Y81306D02*
X-1169988Y80465D01*
X-1168706Y78794D01*
X-1167778Y78083D01*
X-1168913Y76559D01*
X-1169812Y76838D01*
X-1169887Y76870D01*
X-1170912Y77294D01*
X-1172030Y77441D01*
X-1172487Y77948D01*
X-1173138Y79314D01*
X-1173155Y79524D01*
X-1172459Y81204D01*
X-1171104Y81433D01*
X-1170336Y81306D01*
D02*
G37*
D12*
X-665000Y87623D02*
D03*
X-645000D02*
D03*
X-620000D02*
D03*
X-690000Y113823D02*
D03*
X-665000D02*
D03*
X-645000D02*
D03*
X-620000D02*
D03*
D63*
X-1161500Y65500D02*
Y70021D01*
X-1175979Y84500D02*
X-1161500Y70021D01*
X-1183000Y84500D02*
X-1177500D01*
X-1170900Y91100D01*
X-1183000Y84500D02*
X-1175979D01*
D74*
X-1114950Y517600D02*
D03*
X-43900Y368600D02*
D03*
X-1335000Y530500D02*
D03*
X-1315000Y520500D02*
D03*
X-1335000Y510500D02*
D03*
X-1315000Y500500D02*
D03*
X-1335000Y490500D02*
D03*
X-1315000Y480500D02*
D03*
X-1335000Y470500D02*
D03*
X-1315000Y460500D02*
D03*
X-1335000Y450500D02*
D03*
X-1315000Y440500D02*
D03*
X-1335000Y430500D02*
D03*
X-1315000Y400500D02*
D03*
X-1335000Y390500D02*
D03*
X-1315000Y380500D02*
D03*
X-1335000Y370500D02*
D03*
X-1315000Y360500D02*
D03*
X-1335000Y350500D02*
D03*
X-1315000Y340500D02*
D03*
X-1335000Y330500D02*
D03*
X-1315000Y320500D02*
D03*
X-1335000Y310500D02*
D03*
X-1315000Y300500D02*
D03*
X-1335000Y290500D02*
D03*
X-1315000Y280500D02*
D03*
X-1335000Y270500D02*
D03*
X-1315000Y260500D02*
D03*
X-1335000Y250500D02*
D03*
X-1315000Y240500D02*
D03*
X-1335000Y230500D02*
D03*
X-1315000Y220500D02*
D03*
X-1335000Y210500D02*
D03*
X-1315000Y200500D02*
D03*
X-1360000Y530500D02*
D03*
X-1380000Y520500D02*
D03*
X-1360000Y510500D02*
D03*
X-1380000Y500500D02*
D03*
X-1360000Y490500D02*
D03*
X-1380000Y480500D02*
D03*
X-1360000Y470500D02*
D03*
X-1380000Y460500D02*
D03*
X-1360000Y450500D02*
D03*
X-1380000Y440500D02*
D03*
X-1360000Y430500D02*
D03*
X-1380000Y400500D02*
D03*
X-1360000Y390500D02*
D03*
X-1380000Y380500D02*
D03*
X-1360000Y370500D02*
D03*
X-1380000Y360500D02*
D03*
X-1360000Y350500D02*
D03*
X-1380000Y340500D02*
D03*
X-1360000Y330500D02*
D03*
X-1380000Y320500D02*
D03*
X-1360000Y310500D02*
D03*
X-1380000Y300500D02*
D03*
X-1360000Y290500D02*
D03*
X-1380000Y280500D02*
D03*
X-1360000Y270500D02*
D03*
X-1380000Y260500D02*
D03*
X-1360000Y250500D02*
D03*
X-1380000Y240500D02*
D03*
X-1360000Y230500D02*
D03*
X-1380000Y220500D02*
D03*
X-1360000Y210500D02*
D03*
X-1380000Y200500D02*
D03*
D75*
X-1114950Y717600D02*
D03*
X-731900Y368600D02*
D03*
X-235500Y-21400D02*
D03*
D76*
X-1120850Y820700D02*
D03*
D77*
X-1195350D02*
D03*
D78*
X-998500Y768200D02*
D03*
X-779600Y958400D02*
D03*
Y933000D02*
D03*
X-998800Y932900D02*
D03*
Y882100D02*
D03*
Y907500D02*
D03*
Y958300D02*
D03*
X-760700Y161600D02*
D03*
X-779500Y907600D02*
D03*
Y882200D02*
D03*
D79*
X-973100Y768200D02*
D03*
X-947700D02*
D03*
X-805000Y958400D02*
D03*
X-830400D02*
D03*
X-855800D02*
D03*
X-805000Y933000D02*
D03*
X-830400D02*
D03*
X-855800D02*
D03*
X-973400Y932900D02*
D03*
X-948000D02*
D03*
X-973400Y882100D02*
D03*
X-948000D02*
D03*
X-973400Y907500D02*
D03*
X-948000D02*
D03*
X-973400Y958300D02*
D03*
X-948000D02*
D03*
X-786100Y161600D02*
D03*
X-811500D02*
D03*
X-804900Y907600D02*
D03*
X-830300D02*
D03*
X-855700D02*
D03*
X-804900Y882200D02*
D03*
X-830300D02*
D03*
X-855700D02*
D03*
D80*
X-690000Y87623D02*
D03*
D81*
X-720700Y60523D02*
D03*
X-589300D02*
D03*
X-720700Y117323D02*
D03*
X-589300D02*
D03*
X-1248700Y106300D02*
D03*
Y49500D02*
D03*
X-1117300Y106300D02*
D03*
Y49500D02*
D03*
D82*
X-705900Y938600D02*
D03*
X-69900D02*
D03*
D83*
X-1419000Y0D02*
D03*
X-1411971Y16971D02*
D03*
Y-16971D02*
D03*
X-1395000Y24000D02*
D03*
Y-24000D02*
D03*
X-1378029Y16971D02*
D03*
Y-16971D02*
D03*
X-1371000Y0D02*
D03*
X-1414000Y950000D02*
D03*
X-1406971Y966971D02*
D03*
Y933029D02*
D03*
X-1390000Y974000D02*
D03*
Y926000D02*
D03*
X-1373029Y966971D02*
D03*
Y933029D02*
D03*
X-1366000Y950000D02*
D03*
X-24000Y0D02*
D03*
X-16971Y16971D02*
D03*
Y-16971D02*
D03*
X0Y24000D02*
D03*
Y-24000D02*
D03*
X16971Y16971D02*
D03*
Y-16971D02*
D03*
X24000Y0D02*
D03*
X-24000Y950000D02*
D03*
X-16971Y966971D02*
D03*
Y933029D02*
D03*
X0Y974000D02*
D03*
Y926000D02*
D03*
X16971Y966971D02*
D03*
Y933029D02*
D03*
X24000Y950000D02*
D03*
D84*
X-1395000Y0D02*
D03*
X-1390000Y950000D02*
D03*
X0Y0D02*
D03*
Y950000D02*
D03*
D85*
X-1347500Y414000D02*
D03*
Y182500D02*
D03*
D86*
X-1218000Y69500D02*
D03*
D87*
X-1193000D02*
D03*
X-1173000D02*
D03*
X-1148000D02*
D03*
X-1143000Y84500D02*
D03*
X-1163000D02*
D03*
X-1183000D02*
D03*
X-1203000D02*
D03*
X-1223000D02*
D03*
X-1218000Y101500D02*
D03*
X-1193000D02*
D03*
X-1173000D02*
D03*
X-1148000D02*
D03*
X-1143000Y116500D02*
D03*
X-1163000D02*
D03*
X-1183000D02*
D03*
X-1203000D02*
D03*
X-1223000D02*
D03*
D88*
X-991050Y65100D02*
D03*
X-876750D02*
D03*
D89*
X-870650Y31300D02*
D03*
X-896050Y16100D02*
D03*
X-971750Y31300D02*
D03*
X-997150Y16100D02*
D03*
X-978350Y128600D02*
D03*
X-965650Y154000D02*
D03*
X-952950Y128600D02*
D03*
X-940250Y154000D02*
D03*
X-927550Y128600D02*
D03*
X-914850Y154000D02*
D03*
X-902150Y128600D02*
D03*
X-889450Y154000D02*
D03*
X-876750Y128600D02*
D03*
D90*
X-991050Y154000D02*
D03*
D91*
X-1011650Y95600D02*
D03*
X-856150D02*
D03*
D92*
X-1111950Y272800D02*
D03*
D93*
Y472800D02*
D03*
D94*
X-381800Y60450D02*
D03*
X-526800D02*
D03*
D95*
X-381800Y850D02*
D03*
X-526800D02*
D03*
D96*
X-235500Y71100D02*
D03*
D97*
Y11100D02*
D03*
D98*
X-188000Y6100D02*
D03*
Y53100D02*
D03*
X-283000Y6100D02*
D03*
Y52100D02*
D03*
D99*
X-135800Y18350D02*
D03*
X-78000D02*
D03*
D100*
X-150100Y23550D02*
D03*
X-63700D02*
D03*
D101*
X-150100Y-18450D02*
D03*
X-63700D02*
D03*
D102*
X-829200Y372800D02*
D03*
X-832200Y617600D02*
D03*
D103*
X-895500Y782900D02*
D03*
D104*
X-875500D02*
D03*
X-855500D02*
D03*
X-835500D02*
D03*
M02*
