M48
;Layer_Color=9474304
;FILE_FORMAT=4:4
METRIC,TZ
;TYPE=PLATED
T01F00S00C0.2000
T02F00S00C0.3000
%
T01
X972492Y391500
X977508
X1020600Y388000
X1022100Y383900
X1017700Y384200
X1032692Y388300
X1037708
X1042700Y393500
X1096000Y372300
X1095800Y365200
Y358500
X1114092Y376700
X1119108
X1138300Y372800
Y365200
X1138600Y357900
X1342100Y359800
X1373300Y359900
X1388700Y363200
X1400000Y360400
X1363300Y346800
X1356300Y326000
X1398000Y307000
X1464800Y390600
X1464900Y395400
X1469800Y395100
Y390500
X1530500Y373300
X1591650Y388900
X1624400Y389300
X1634600Y386200
X1638400Y383400
X1648400Y388000
X1663000Y389600
X1668650Y374900
X1683000Y385100
X1682650Y388900
X1679150Y359900
X1682940Y323940
X1687150Y324400
X1674650Y317400
X1661301Y330926
X1632650Y335400
X1628650Y321400
X1622650
X1625650Y316900
X1624650Y368900
X1716100Y393140
X1741160Y392980
X1766140Y393050
X1790880Y393090
X1850137Y375800
X1854275
X1858412
X1862550
X1866687
X1870825
X1874962
X1879100
X1883237
X1883188Y370900
X1879000
X1874812
X1870625
X1866438
X1862250
X1858062
X1853875
X1849688
X1868900Y357300
X1859888Y315400
X1849900Y291825
X1829000Y284500
X1826600Y280000
X1826800Y274400
X1826400Y260925
X1834000Y251600
X1853500Y241700
X1763700Y277100
X1748700
X1733700
X1718700
X1693600
X1678150Y279900
X1726100Y328100
Y349500
X1756200Y349800
Y328700
X2022100Y301500
X2026600Y301800
X2031300
X2035500
X2039800
X2050800Y302800
X2057400Y304300
X2056800Y300200
X2063300Y302200
X2059500Y308200
X2045300Y294300
X2042100Y281000
X2037600Y281100
X2033200Y281000
X2028300Y280900
X2023800Y281000
X2019400Y280900
X2018600Y285300
X2023000Y285400
X2027500Y285300
X2032000
X2036400Y285400
X2035300Y277500
X2039700Y277600
X2044200Y277500
X2043000Y273200
X2038600
X2034300
X2030000Y273300
X2025600Y273200
X2026000Y277500
X2021600Y277400
X2030500
X2047500Y273200
X2095200Y273600
X2095251Y277811
X2095200Y282200
X2100200Y281900
Y277700
X2100100Y273500
X2104500Y273300
X2104700Y277400
X2105000Y281500
X2109800Y281700
X2109500Y277500
X2109200Y273300
X2114700Y273200
X2114800Y277300
X2115000Y281600
X2115100Y285800
X2110100Y286700
X2105500Y286200
X2100500Y286400
X2088700Y291900
X2084000Y302200
X2086600Y305700
X2089800Y309500
X2090500Y319100
X2104700Y319000
X2104900Y314000
X2105100Y308800
X2077300Y346900
X2063900Y347100
X2058000Y356000
X2070800Y356500
X2083000Y356100
X2077300Y363900
X2064200Y363400
X2090500Y371300
X2080600Y391400
X2050400Y395900
X2171300Y298700
Y294500
X2126175Y412200
X2121600
X2117025
X2112450
X2107875
X2103300
X2098725
Y416800
X2103300
X2107875
X2112450
X2117025
X2121600
X2126175
X2126375Y421700
X2121800
X2117225
X2112650
X2108075
X2103500
X2098925
Y426900
X2103500
X2108075
X2112650
X2117225
X2121800
X2126375
X2126300Y432100
X2121725
X2117150
X2112575
X2108000
X2103425
X2098850
X2087900Y398500
X2051400Y400100
X2050300Y482500
X2050200Y486700
X2050300Y491000
X2050500Y495000
X2054900Y495100
X2055000Y490800
X2055200Y486600
X2055300Y482600
X2059800
X2059600Y486800
Y490900
X2059500Y495000
X2065300Y484300
X2069900
X2074000Y484500
X2079100Y484700
X2083200Y484400
X2087300Y484600
X2091700Y484400
X2114300Y498200
Y503500
X2114100Y508300
Y512700
X2102600Y520700
X2156300Y520600
X2157200Y504200
Y500100
X2157400Y495800
X2147500Y487500
X2140300Y491300
X2136900Y493900
X2136200Y488700
X2144000Y476600
X2017800Y464000
Y459800
X2013250
Y464000
X2008700
Y459800
X2004150
Y464000
X1999600
Y459800
Y455200
Y451100
X2004150
Y455200
X2008700
Y451100
X2013250
Y455200
X2017800
Y451100
X2026300Y576200
X2036300Y575300
X2051300
X2066300
X2081300
X2096300
X2093900Y628700
X2078900
X2063900
X2048900
X2033900
X2033800Y657300
X2018800
X2048900Y657307
X2063800Y657300
X2078800
X2093800
X2048500Y703200
X1973800Y657300
X1958800
X1950520Y669270
X1928800Y657300
X1928900Y628700
X1945800Y626700
X1958900Y628700
X1973900
X1976300Y575300
X1961300
X1948200
X1950520Y586850
X1931170Y583510
X1926300Y575300
X1891300
X1857900Y580700
X1871800Y541500
X1908600
X1940340Y532110
X1963300Y461400
X1934200Y444000
X1919800Y443000
X1915700Y442900
Y438600
X1911500Y438400
X1907400Y438700
X1902900
X1898500
X1894100Y438600
Y433900
X1894200Y429300
X1889000
X1889100Y434000
Y438600
Y443100
X1894200Y443200
X1898300Y443000
X1902600
X1907000
X1911400Y443100
X1920200Y438600
X1920611Y407000
X1916100
X1911589
X1907078
X1902567
X1898056
X1893544
X1889033
X1884522
X1880011
X1880000Y412200
X1884400Y412400
X1889000Y412600
X1893700Y412100
X1946500Y415000
X1946000Y419100
X1945800Y424700
X1950100Y422200
X1840740Y435834
X1836140
X1831340
Y440691
X1836140
X1840740
Y445748
X1836140
X1831340
Y450606
X1836140
X1840740
Y455263
X1836140
X1831340Y455463
X1826340Y455520
Y450606
Y445748
Y440691
Y435834
X1820740
X1816140
Y440691
X1820740
Y445748
X1816140
X1811340
Y450606
X1816140
X1820740
Y455263
X1816240
X1811340Y455463
Y440691
X1682000Y416600
X1655600Y414900
X1651000Y410800
X1647800Y419400
X1608200Y404600
X1696000Y400130
X1665800Y528300
X1661300Y575300
X1646300
X1631300
X1622080Y580060
X1622190Y587102
Y592118
X1622310Y598180
X1609250Y602570
X1603858Y597300
X1598842
X1588858
X1593860Y602570
X1593900Y626100
X1608900
X1623900
X1638900
X1653900Y628700
X1668900
X1681777Y624623
X1685323Y621077
X1690200Y617000
X1683800Y631800
X1685477Y661277
X1689023Y664823
X1692800Y669800
X1714400Y661400
X1722900Y661000
X1730800
X1728800Y657300
X1728900Y628700
X1749800Y626400
X1741300Y607000
X1713800Y603600
X1713200Y597108
Y592092
X1719200Y594700
X1711300Y579100
X1706200Y573800
X1691300Y575300
X1676300
X1616300
X1592700Y578200
X1591342Y526200
X1596358
X1602500Y526100
X1608800Y657300
X1588300Y664700
X1661200Y677400
X1660900Y687900
X1660300Y698300
X1769600Y680300
X1770400Y661400
X1776400
X1782900Y661700
X1789000Y661600
X1758800Y662100
X1784100Y622200
X1781300Y610600
X1793900Y628700
X1791300Y575300
X1736300
X1721300Y548200
X1868900Y628700
X1868800Y657300
X1898800
X1898900Y628700
X1899500Y697200
X1919170Y680120
X1580000Y659000
X1578900Y626100
X1563900
X1563920Y602150
X1568842Y597300
X1573858
X1583842
X1578890Y602360
X1558858Y597300
X1553842
X1556500Y581200
X1541400
X1526600
X1511300
X1496500
X1488600Y581300
X1473000Y581600
X1461794Y581583
X1456300Y581700
X1429530Y539248
Y534232
X1477900Y526200
X1469000Y508500
X1457100Y494100
X1440400Y478400
X1393300Y478100
X1387000Y459900
X1378700Y459700
X1382800Y455108
Y450092
X1378400Y445700
X1387100Y445600
X1373000Y440908
Y435892
X1377600Y431700
X1367700Y432300
X1368200Y445000
X1350700Y431500
X1346300Y426908
Y421892
X1351000Y417700
X1333200Y414108
Y409092
X1326800Y411700
X1340900Y431200
X1331800Y445700
X1348800Y478000
X1359600Y525600
X1311600Y508700
X1306700Y508600
X1292200Y508828
X1270650Y494670
X1272500Y476500
X1241900Y476200
X1242650Y494670
X1241900Y521700
Y528000
X1249200Y528300
X1249300Y522300
X1255100
X1255700Y528700
X1255000Y536000
X1247200Y535800
X1242000Y535900
X1220500Y536400
X1216664Y540341
X1216800Y521900
X1207900Y494700
X1209300Y478300
X1221500Y477100
X1217550Y446100
X1208700Y446000
X1239850Y445650
X1269900Y445600
Y417900
X1258300Y566900
X1240450Y566628
X1233938
X1226550Y566300
X1226700Y591600
X1235800
X1217250Y591000
X1210300Y591100
X1264200Y595300
X1263600Y612800
X1258700Y612900
X1258800Y618300
X1263900Y618500
X1266300Y626400
X1275542Y619800
X1280558
X1288500Y613200
X1289600Y626600
X1302500Y738400
X1330100Y738800
X1354800Y737600
X1366500Y719500
X1361400Y679900
X1371592Y679600
X1376608
X1387400Y680200
X1445400Y679100
X1448300Y685400
X1466400Y668900
X1467300Y661000
X1503750Y659900
X1518700Y660100
X1533800Y654100
X1538842Y658800
X1543858
X1548800Y654000
X1536358Y625000
X1531342
X1526200Y620108
Y615092
X1521358Y606900
X1516342
X1488900Y632100
X1434000Y710700
X1433500Y719500
X1414800Y775400
X1409700Y778692
Y783708
X1406700Y789100
X1413100Y789300
X1405400Y774400
X1274100Y738400
X1246500Y738800
X1225100Y721400
X1208800Y774100
X1576400Y724100
X1576100Y717708
Y712692
X1576400Y706400
X1576900Y578400
X1576342Y526200
X1581358
X1586400Y529900
Y522500
X1571400Y522400
X1571300Y530200
X1566358Y526200
X1561342
X1556500Y522300
X1556300Y530300
X1551600Y526200
X1546100
X1539500Y526400
X1512200Y440600
X1511900Y434900
X1506400Y435100
X1504900Y423600
X1499200Y423700
X1511100Y423300
X1475300Y402200
X1475100Y397900
X1469500Y400500
X1464600Y400700
X1168600Y494300
X1169700Y508200
X1177400Y507400
X1167600Y526600
X1188750Y566200
X1190400Y652500
X1190500Y658692
Y663708
X1190600Y669900
X1176100Y673200
X1170600Y675708
Y670692
X1143900Y653900
X1147300Y624900
X1153100Y624800
X1119900Y616600
X1114800Y616400
X1114700Y611000
X1119600Y610900
X1061700Y616100
X1054900Y613692
Y618708
Y624900
Y607400
X1064600Y645400
X1069500Y653800
X1029500Y678700
Y684400
Y689400
X1028900Y694800
X987600Y712100
X982600
X977600
X972600
X967600
X967400Y717600
X972400
X977400
X982400
X987400
Y722900
X982400
X977400
X972400
X967400
X967500Y728300
X972500
X977500
X982500
X987500
Y734200
X982500
X977500
X972500
X967500
X967400Y740200
X972400
X977400
X982400
X987400
Y747000
X982400
X977400
X972400
X967400
Y753400
X972400
X977400
X982400
X987400
X987500Y759800
X982500
X977500
X972500
X967500
X967900Y783600
X968000Y788300
X967900Y792900
X972900
X973000Y788300
X972900Y783600
X977900
X978000Y788300
X977900Y792900
X982900
X983000Y788300
X982900Y783600
X987900
X988000Y788300
X987900Y792900
X1032500Y789800
X1028000Y774800
X1027900Y768508
Y763492
X1027800Y757400
X1020200Y758600
X1020300Y773600
X1061500Y786100
X1102400Y787700
X1102500Y792500
X1115000Y785000
Y780900
Y776800
X1133500Y766000
Y761300
X1133300Y756700
X1131300Y748200
X1138700Y748000
X1147200Y747700
X1129900Y726908
Y721892
X1129800Y715700
X1134000Y707700
X1134200Y693000
X1114700Y711900
X1114700Y717600
X1163800Y710000
X997300Y664500
X996300Y643000
X992400Y643200
X993400Y631200
X997700Y631300
X977200
Y625048
Y620032
X977500Y613100
X989810Y598130
X994700Y578700
X983200Y539800
X983000Y533548
Y528532
X977400Y524100
X972000Y519548
Y514532
Y508400
X992500Y505200
X997400
X998000Y498300
X992800Y498500
X954200Y495500
X954000Y489410
Y484394
X963770Y478500
X963730Y472268
Y467252
X963880Y461130
X958800Y440300
Y436200
X959400Y432200
X927400Y433100
Y437100
X927500Y441400
X923600Y417800
X923700Y413500
X923500Y408800
X923600Y404000
X918500Y403900
Y409100
X918400Y413400
X918500Y417800
X928600Y413700
X982500Y414200
X1003800Y417900
X1020200Y420100
X1023900Y418200
X1022600Y407245
Y402229
X1023700Y431092
Y436108
X1024500Y446500
X1034100Y444600
X1039600
X1031500Y462600
X988700Y455108
Y450092
X1042700Y415500
X1120000Y478300
X947000Y643400
X942300Y643100
X937400
X932100
X931300Y658500
X936300
X941300
X946300
X951300
X967800Y797700
X972800
X977800
X982800
X987800
X1027800Y798000
X1033400Y797800
X1038900Y797700
X1098500Y801100
X1102200Y797600
X1107200Y872100
X1138000Y872300
X1143200Y872500
X1152300Y882600
X1165900Y875500
X1121100Y916600
X1116850Y920850
X1115000Y925900
Y930200
X1131500Y941700
X1131200Y946200
Y951000
X1126500Y951300
X1135900Y946000
X1136200Y941600
X1114300Y1000600
X1067700Y1001000
X1008400Y1001900
X1030300Y976300
X1025000Y943500
X1026600Y908100
X1022300Y898600
X1027200Y888500
X1020200Y883400
X1020400Y868600
X1059800Y876000
X951800Y871000
X947200
X942000Y871300
X936900
X932200Y871200
X927000
X927200Y865600
X931800Y865500
X936800Y865400
X942300Y865300
X947100
X952000Y865400
X959700Y900500
X973000Y974900
X948400Y1004100
X910300Y973300
X888600Y867900
X883800
X876500Y868100
X869000Y868000
X863900Y867500
Y863100
X863600Y858600
X888600Y857900
X888700Y863100
X872700Y1095100
X872300Y1101000
Y1107100
X846100Y1123700
X832300Y1123600
X861200Y1144300
X921200Y1143500
X926400
X931200Y1143300
X929900Y1131900
X934600Y1132000
X930900Y1124200
X932100Y1108200
X942400Y1117700
X941000Y1181000
X917900Y1181400
X896100Y1181700
X1043500Y1182100
X1068400Y1181900
X1087500Y1182100
X1088600Y1108100
X1091400Y1092300
X1122000Y1096400
X1123300Y1118000
X1127600Y1120000
X1129800Y1123600
X1146200Y1054300
X1175600Y1055500
X1185900Y1054300
X1196100Y1042100
X1210800Y1050100
X1216232Y1054732
X1226637Y1053916
X1221000Y1077200
X1221550Y1081650
X1224600Y1084700
X1211000Y1083700
X1190900Y1082400
Y1078300
X1193750Y1088350
X1278600Y1079100
X1278500Y1073500
X1281500Y1064200
X1280500Y1056400
X1328500Y1056100
X1339000Y1054000
X1344000Y1056800
Y1050600
X1346750Y1047150
X1349000Y1053800
X1356800Y1053900
X1374000Y1058700
Y1048400
Y1075000
X1374100Y1079500
X1357300Y1079200
X1349000Y1080100
X1343900Y1084200
X1344000Y1075800
X1333400Y1030000
X1314200Y979300
Y936000
X1233100Y933700
X1265800Y1014900
X1386585Y976452
X1393500Y977500
X1408400Y984400
X1460000Y983700
X1478500
X1464000Y952100
X1549600Y958200
X1549500Y994900
X1531700Y999700
X1577900Y993500
X1576500Y979500
X1587200Y1000000
X1575900Y856500
X1506400Y844700
X1409800Y845200
X1413400Y804700
X1406000Y804800
X1409600Y799508
Y794492
X1290633Y854881
X1285500Y861000
X1401700Y1048200
X1405600Y1059100
X1405700Y1091000
X1405300Y1097200
X1446600Y1098000
Y1093800
X1446200Y1089100
X1445000Y1059800
X1597500Y1006900
X1606000Y849100
X1764100Y864100
X1774400Y853800
X1790000Y838200
X1889900Y839600
X1867800Y883000
X1852700Y907500
X1811700Y947100
X1758900Y946200
X1710300Y947600
X1954100Y879200
X1955500Y842400
X1955900Y824100
X2027300Y828200
Y848900
X2025900Y878600
T02
X894500Y672800
X894600Y678100
X900100
X900000Y672800
X905600
X905700Y678100
X905500Y683400
Y688900
X899900
X894400
Y683400
X899900
X911200Y683500
X916500Y683600
X916700Y678300
X916600Y673000
X911300Y672900
X911400Y678200
X911200Y689000
X916500Y689100
X884900Y831500
X879700
X874500
X869200
X864000
X858700
X853200
X848100
X847600Y837600
X853200
X858700
X864300Y837500
X869600Y837600
X874700Y837800
X879900Y837600
X885000Y837000
Y842900
X879686Y843100
X874371Y843300
X869057Y843400
X863743Y843600
X858429Y843100
X853114Y843300
X847800Y843100
X963900Y869200
Y874500
Y879800
Y885100
X969500Y885200
Y879900
Y874600
Y869300
X975100Y869500
Y874800
Y880100
Y885400
X980500Y885200
Y879900
Y874600
Y869300
X986000Y869100
Y874400
Y879700
Y885000
X991400Y884900
Y879600
Y874300
Y869000
M30
