G04*
G04 #@! TF.GenerationSoftware,Altium Limited,Altium Designer,25.0.2 (28)*
G04*
G04 Layer_Physical_Order=8*
G04 Layer_Color=16711935*
%FSLAX44Y44*%
%MOMM*%
G71*
G04*
G04 #@! TF.SameCoordinates,783E934D-7247-47A1-8249-FBC8F6F05072*
G04*
G04*
G04 #@! TF.FilePolarity,Positive*
G04*
G01*
G75*
%ADD12C,1.5000*%
%ADD72C,0.2540*%
%ADD74C,1.1000*%
%ADD75C,1.6000*%
%ADD76C,1.0500*%
%ADD77C,1.3000*%
%ADD78R,1.7000X1.7000*%
G04:AMPARAMS|DCode=79|XSize=1.7mm|YSize=1.7mm|CornerRadius=0.85mm|HoleSize=0mm|Usage=FLASHONLY|Rotation=90.000|XOffset=0mm|YOffset=0mm|HoleType=Round|Shape=RoundedRectangle|*
%AMROUNDEDRECTD79*
21,1,1.7000,0.0000,0,0,90.0*
21,1,0.0000,1.7000,0,0,90.0*
1,1,1.7000,0.0000,0.0000*
1,1,1.7000,0.0000,0.0000*
1,1,1.7000,0.0000,0.0000*
1,1,1.7000,0.0000,0.0000*
%
%ADD79ROUNDEDRECTD79*%
%ADD80R,1.5000X1.5000*%
%ADD81C,3.5000*%
%ADD82C,3.2000*%
%ADD83C,0.8000*%
%ADD84C,6.4000*%
%ADD85C,2.3500*%
%ADD86R,1.2000X1.2000*%
%ADD87C,1.2000*%
%ADD88C,3.2500*%
%ADD89C,1.9000*%
%ADD90R,1.9000X1.9000*%
%ADD91C,2.5000*%
%ADD92C,1.1500*%
%ADD93C,1.6500*%
G04:AMPARAMS|DCode=94|XSize=3.3mm|YSize=1.5mm|CornerRadius=0.75mm|HoleSize=0mm|Usage=FLASHONLY|Rotation=270.000|XOffset=0mm|YOffset=0mm|HoleType=Round|Shape=RoundedRectangle|*
%AMROUNDEDRECTD94*
21,1,3.3000,0.0000,0,0,270.0*
21,1,1.8000,1.5000,0,0,270.0*
1,1,1.5000,0.0000,-0.9000*
1,1,1.5000,0.0000,0.9000*
1,1,1.5000,0.0000,0.9000*
1,1,1.5000,0.0000,-0.9000*
%
%ADD94ROUNDEDRECTD94*%
G04:AMPARAMS|DCode=95|XSize=2.3mm|YSize=1.5mm|CornerRadius=0.75mm|HoleSize=0mm|Usage=FLASHONLY|Rotation=270.000|XOffset=0mm|YOffset=0mm|HoleType=Round|Shape=RoundedRectangle|*
%AMROUNDEDRECTD95*
21,1,2.3000,0.0000,0,0,270.0*
21,1,0.8000,1.5000,0,0,270.0*
1,1,1.5000,0.0000,-0.4000*
1,1,1.5000,0.0000,0.4000*
1,1,1.5000,0.0000,0.4000*
1,1,1.5000,0.0000,-0.4000*
%
%ADD95ROUNDEDRECTD95*%
%ADD96C,2.2000*%
G04:AMPARAMS|DCode=97|XSize=1.5mm|YSize=3.7mm|CornerRadius=0.75mm|HoleSize=0mm|Usage=FLASHONLY|Rotation=270.000|XOffset=0mm|YOffset=0mm|HoleType=Round|Shape=RoundedRectangle|*
%AMROUNDEDRECTD97*
21,1,1.5000,2.2000,0,0,270.0*
21,1,0.0000,3.7000,0,0,270.0*
1,1,1.5000,-1.1000,0.0000*
1,1,1.5000,-1.1000,0.0000*
1,1,1.5000,1.1000,0.0000*
1,1,1.5000,1.1000,0.0000*
%
%ADD97ROUNDEDRECTD97*%
G04:AMPARAMS|DCode=98|XSize=1.5mm|YSize=2.7mm|CornerRadius=0.75mm|HoleSize=0mm|Usage=FLASHONLY|Rotation=180.000|XOffset=0mm|YOffset=0mm|HoleType=Round|Shape=RoundedRectangle|*
%AMROUNDEDRECTD98*
21,1,1.5000,1.2000,0,0,180.0*
21,1,0.0000,2.7000,0,0,180.0*
1,1,1.5000,0.0000,0.6000*
1,1,1.5000,0.0000,0.6000*
1,1,1.5000,0.0000,-0.6000*
1,1,1.5000,0.0000,-0.6000*
%
%ADD98ROUNDEDRECTD98*%
%ADD99C,0.6500*%
G04:AMPARAMS|DCode=100|XSize=1mm|YSize=2.1mm|CornerRadius=0.5mm|HoleSize=0mm|Usage=FLASHONLY|Rotation=0.000|XOffset=0mm|YOffset=0mm|HoleType=Round|Shape=RoundedRectangle|*
%AMROUNDEDRECTD100*
21,1,1.0000,1.1000,0,0,0.0*
21,1,0.0000,2.1000,0,0,0.0*
1,1,1.0000,0.0000,-0.5500*
1,1,1.0000,0.0000,-0.5500*
1,1,1.0000,0.0000,0.5500*
1,1,1.0000,0.0000,0.5500*
%
%ADD100ROUNDEDRECTD100*%
G04:AMPARAMS|DCode=101|XSize=1mm|YSize=1.8mm|CornerRadius=0.5mm|HoleSize=0mm|Usage=FLASHONLY|Rotation=0.000|XOffset=0mm|YOffset=0mm|HoleType=Round|Shape=RoundedRectangle|*
%AMROUNDEDRECTD101*
21,1,1.0000,0.8000,0,0,0.0*
21,1,0.0000,1.8000,0,0,0.0*
1,1,1.0000,0.0000,-0.4000*
1,1,1.0000,0.0000,-0.4000*
1,1,1.0000,0.0000,0.4000*
1,1,1.0000,0.0000,0.4000*
%
%ADD101ROUNDEDRECTD101*%
%ADD102C,2.9000*%
G04:AMPARAMS|DCode=103|XSize=1.2mm|YSize=1.75mm|CornerRadius=0.126mm|HoleSize=0mm|Usage=FLASHONLY|Rotation=0.000|XOffset=0mm|YOffset=0mm|HoleType=Round|Shape=RoundedRectangle|*
%AMROUNDEDRECTD103*
21,1,1.2000,1.4980,0,0,0.0*
21,1,0.9480,1.7500,0,0,0.0*
1,1,0.2520,0.4740,-0.7490*
1,1,0.2520,-0.4740,-0.7490*
1,1,0.2520,-0.4740,0.7490*
1,1,0.2520,0.4740,0.7490*
%
%ADD103ROUNDEDRECTD103*%
G04:AMPARAMS|DCode=104|XSize=1.2mm|YSize=1.75mm|CornerRadius=0.6mm|HoleSize=0mm|Usage=FLASHONLY|Rotation=0.000|XOffset=0mm|YOffset=0mm|HoleType=Round|Shape=RoundedRectangle|*
%AMROUNDEDRECTD104*
21,1,1.2000,0.5500,0,0,0.0*
21,1,0.0000,1.7500,0,0,0.0*
1,1,1.2000,0.0000,-0.2750*
1,1,1.2000,0.0000,-0.2750*
1,1,1.2000,0.0000,0.2750*
1,1,1.2000,0.0000,0.2750*
%
%ADD104ROUNDEDRECTD104*%
G36*
X-1326100Y-31953D02*
X-1326817D01*
Y-26405D01*
X-1326100D01*
Y-31953D01*
D02*
G37*
G36*
X-1329366Y-26355D02*
X-1329266Y-26380D01*
X-1329166Y-26413D01*
X-1329083Y-26472D01*
X-1328999Y-26530D01*
X-1328924Y-26613D01*
X-1328849Y-26697D01*
X-1328783Y-26796D01*
X-1328724Y-26896D01*
X-1328666Y-27013D01*
X-1328574Y-27246D01*
X-1328491Y-27505D01*
X-1328433Y-27771D01*
X-1328383Y-28038D01*
X-1328349Y-28296D01*
X-1328316Y-28538D01*
X-1328308Y-28654D01*
X-1328300Y-28754D01*
Y-28854D01*
X-1328291Y-28938D01*
Y-29012D01*
X-1328283Y-29079D01*
Y-29129D01*
Y-29171D01*
Y-29196D01*
Y-29204D01*
Y-29471D01*
X-1328291Y-29712D01*
X-1328308Y-29937D01*
X-1328324Y-30154D01*
X-1328349Y-30345D01*
X-1328374Y-30521D01*
X-1328399Y-30679D01*
X-1328424Y-30820D01*
X-1328449Y-30945D01*
X-1328474Y-31054D01*
X-1328499Y-31145D01*
X-1328524Y-31220D01*
X-1328541Y-31279D01*
X-1328558Y-31320D01*
X-1328566Y-31345D01*
Y-31354D01*
X-1328624Y-31479D01*
X-1328691Y-31587D01*
X-1328758Y-31679D01*
X-1328833Y-31762D01*
X-1328908Y-31828D01*
X-1328983Y-31878D01*
X-1329058Y-31929D01*
X-1329133Y-31962D01*
X-1329266Y-32020D01*
X-1329324Y-32028D01*
X-1329374Y-32045D01*
X-1329416D01*
X-1329449Y-32053D01*
X-1329474D01*
X-1329591Y-32045D01*
X-1329699Y-32020D01*
X-1329799Y-31987D01*
X-1329891Y-31945D01*
X-1330049Y-31828D01*
X-1330174Y-31695D01*
X-1330274Y-31570D01*
X-1330349Y-31454D01*
X-1330366Y-31412D01*
X-1330382Y-31379D01*
X-1330399Y-31354D01*
Y-31345D01*
X-1330449Y-31204D01*
X-1330499Y-31054D01*
X-1330532Y-30887D01*
X-1330565Y-30712D01*
X-1330616Y-30354D01*
X-1330657Y-30012D01*
X-1330665Y-29846D01*
X-1330674Y-29696D01*
X-1330682Y-29554D01*
Y-29437D01*
X-1330690Y-29337D01*
Y-29271D01*
Y-29221D01*
Y-29204D01*
Y-28938D01*
X-1330674Y-28688D01*
X-1330665Y-28454D01*
X-1330641Y-28238D01*
X-1330624Y-28046D01*
X-1330599Y-27863D01*
X-1330565Y-27705D01*
X-1330540Y-27563D01*
X-1330516Y-27438D01*
X-1330482Y-27330D01*
X-1330457Y-27238D01*
X-1330441Y-27171D01*
X-1330416Y-27113D01*
X-1330407Y-27071D01*
X-1330391Y-27046D01*
Y-27038D01*
X-1330332Y-26913D01*
X-1330266Y-26813D01*
X-1330199Y-26713D01*
X-1330124Y-26638D01*
X-1330049Y-26572D01*
X-1329966Y-26513D01*
X-1329891Y-26472D01*
X-1329824Y-26430D01*
X-1329682Y-26380D01*
X-1329624Y-26372D01*
X-1329574Y-26355D01*
X-1329532D01*
X-1329499Y-26347D01*
X-1329474D01*
X-1329366Y-26355D01*
D02*
G37*
G36*
X-1332398D02*
X-1332298Y-26380D01*
X-1332198Y-26413D01*
X-1332115Y-26472D01*
X-1332032Y-26530D01*
X-1331957Y-26613D01*
X-1331882Y-26697D01*
X-1331815Y-26796D01*
X-1331757Y-26896D01*
X-1331699Y-27013D01*
X-1331607Y-27246D01*
X-1331524Y-27505D01*
X-1331465Y-27771D01*
X-1331415Y-28038D01*
X-1331382Y-28296D01*
X-1331349Y-28538D01*
X-1331340Y-28654D01*
X-1331332Y-28754D01*
Y-28854D01*
X-1331324Y-28938D01*
Y-29012D01*
X-1331315Y-29079D01*
Y-29129D01*
Y-29171D01*
Y-29196D01*
Y-29204D01*
Y-29471D01*
X-1331324Y-29712D01*
X-1331340Y-29937D01*
X-1331357Y-30154D01*
X-1331382Y-30345D01*
X-1331407Y-30521D01*
X-1331432Y-30679D01*
X-1331457Y-30820D01*
X-1331482Y-30945D01*
X-1331507Y-31054D01*
X-1331532Y-31145D01*
X-1331557Y-31220D01*
X-1331574Y-31279D01*
X-1331590Y-31320D01*
X-1331599Y-31345D01*
Y-31354D01*
X-1331657Y-31479D01*
X-1331724Y-31587D01*
X-1331790Y-31679D01*
X-1331865Y-31762D01*
X-1331940Y-31828D01*
X-1332015Y-31878D01*
X-1332090Y-31929D01*
X-1332165Y-31962D01*
X-1332298Y-32020D01*
X-1332357Y-32028D01*
X-1332407Y-32045D01*
X-1332448D01*
X-1332482Y-32053D01*
X-1332507D01*
X-1332623Y-32045D01*
X-1332732Y-32020D01*
X-1332832Y-31987D01*
X-1332923Y-31945D01*
X-1333082Y-31828D01*
X-1333206Y-31695D01*
X-1333306Y-31570D01*
X-1333382Y-31454D01*
X-1333398Y-31412D01*
X-1333415Y-31379D01*
X-1333432Y-31354D01*
Y-31345D01*
X-1333481Y-31204D01*
X-1333531Y-31054D01*
X-1333565Y-30887D01*
X-1333598Y-30712D01*
X-1333648Y-30354D01*
X-1333690Y-30012D01*
X-1333698Y-29846D01*
X-1333706Y-29696D01*
X-1333715Y-29554D01*
Y-29437D01*
X-1333723Y-29337D01*
Y-29271D01*
Y-29221D01*
Y-29204D01*
Y-28938D01*
X-1333706Y-28688D01*
X-1333698Y-28454D01*
X-1333673Y-28238D01*
X-1333656Y-28046D01*
X-1333631Y-27863D01*
X-1333598Y-27705D01*
X-1333573Y-27563D01*
X-1333548Y-27438D01*
X-1333515Y-27330D01*
X-1333490Y-27238D01*
X-1333473Y-27171D01*
X-1333448Y-27113D01*
X-1333440Y-27071D01*
X-1333423Y-27046D01*
Y-27038D01*
X-1333365Y-26913D01*
X-1333298Y-26813D01*
X-1333232Y-26713D01*
X-1333156Y-26638D01*
X-1333082Y-26572D01*
X-1332998Y-26513D01*
X-1332923Y-26472D01*
X-1332857Y-26430D01*
X-1332715Y-26380D01*
X-1332657Y-26372D01*
X-1332607Y-26355D01*
X-1332565D01*
X-1332532Y-26347D01*
X-1332507D01*
X-1332398Y-26355D01*
D02*
G37*
G36*
X-781757Y78150D02*
X-781708Y78140D01*
X-781658Y78125D01*
X-781613Y78106D01*
X-781523Y78056D01*
X-781454Y78001D01*
X-781394Y77946D01*
X-781349Y77896D01*
X-781334Y77877D01*
X-781324Y77861D01*
X-781319Y77852D01*
X-781314Y77847D01*
X-781250Y77727D01*
X-781200Y77598D01*
X-781165Y77468D01*
X-781140Y77344D01*
X-781130Y77289D01*
X-781125Y77239D01*
X-781120Y77189D01*
Y77155D01*
X-781115Y77120D01*
Y77095D01*
Y77080D01*
Y77075D01*
X-781120Y76911D01*
X-781140Y76766D01*
X-781155Y76701D01*
X-781170Y76642D01*
X-781185Y76587D01*
X-781200Y76537D01*
X-781215Y76493D01*
X-781230Y76453D01*
X-781245Y76418D01*
X-781260Y76388D01*
X-781270Y76368D01*
X-781280Y76353D01*
X-781284Y76343D01*
Y76338D01*
X-781319Y76288D01*
X-781354Y76248D01*
X-781389Y76209D01*
X-781429Y76179D01*
X-781504Y76129D01*
X-781578Y76094D01*
X-781638Y76074D01*
X-781693Y76064D01*
X-781713Y76059D01*
X-781738D01*
X-781797Y76064D01*
X-781852Y76069D01*
X-781877Y76074D01*
X-781897D01*
X-781912Y76079D01*
X-781917D01*
X-781304Y74805D01*
X-781722D01*
X-782196Y75785D01*
X-782250Y75905D01*
X-782295Y76020D01*
X-782335Y76134D01*
X-782370Y76248D01*
X-782400Y76358D01*
X-782420Y76463D01*
X-782439Y76562D01*
X-782459Y76657D01*
X-782469Y76741D01*
X-782479Y76821D01*
X-782484Y76891D01*
X-782489Y76950D01*
X-782494Y76995D01*
Y77030D01*
Y77055D01*
Y77060D01*
Y77155D01*
X-782484Y77239D01*
X-782479Y77324D01*
X-782464Y77399D01*
X-782449Y77473D01*
X-782434Y77538D01*
X-782420Y77598D01*
X-782400Y77652D01*
X-782380Y77697D01*
X-782365Y77742D01*
X-782350Y77777D01*
X-782335Y77807D01*
X-782325Y77832D01*
X-782315Y77847D01*
X-782305Y77856D01*
Y77861D01*
X-782270Y77911D01*
X-782230Y77961D01*
X-782190Y77996D01*
X-782151Y78031D01*
X-782106Y78061D01*
X-782066Y78085D01*
X-781986Y78120D01*
X-781917Y78140D01*
X-781862Y78150D01*
X-781842Y78155D01*
X-781812D01*
X-781757Y78150D01*
D02*
G37*
G36*
X-777506Y77722D02*
X-778014D01*
Y74805D01*
X-778442D01*
Y77722D01*
X-778950D01*
Y78120D01*
X-777506D01*
Y77722D01*
D02*
G37*
G36*
X-779318Y74805D02*
X-779746D01*
Y76259D01*
X-779831D01*
X-779910Y76263D01*
X-779985Y76268D01*
X-780119Y76298D01*
X-780239Y76338D01*
X-780289Y76358D01*
X-780334Y76383D01*
X-780373Y76408D01*
X-780413Y76428D01*
X-780443Y76448D01*
X-780468Y76468D01*
X-780488Y76483D01*
X-780503Y76497D01*
X-780508Y76502D01*
X-780513Y76507D01*
X-780558Y76557D01*
X-780597Y76612D01*
X-780632Y76667D01*
X-780662Y76722D01*
X-780707Y76836D01*
X-780737Y76950D01*
X-780752Y77045D01*
X-780757Y77090D01*
X-780762Y77125D01*
X-780767Y77160D01*
Y77179D01*
Y77194D01*
Y77199D01*
X-780762Y77279D01*
X-780757Y77354D01*
X-780722Y77483D01*
X-780682Y77603D01*
X-780657Y77652D01*
X-780632Y77697D01*
X-780602Y77737D01*
X-780577Y77772D01*
X-780558Y77802D01*
X-780538Y77827D01*
X-780518Y77847D01*
X-780503Y77861D01*
X-780498Y77867D01*
X-780493Y77871D01*
X-780438Y77916D01*
X-780383Y77956D01*
X-780329Y77986D01*
X-780264Y78016D01*
X-780144Y78061D01*
X-780030Y78091D01*
X-779975Y78101D01*
X-779925Y78106D01*
X-779881Y78115D01*
X-779841D01*
X-779811Y78120D01*
X-779318D01*
Y74805D01*
D02*
G37*
G36*
X-862951Y833640D02*
X-863459D01*
Y830722D01*
X-863887D01*
Y833640D01*
X-864395D01*
Y834038D01*
X-862951D01*
Y833640D01*
D02*
G37*
G36*
X-864763Y830722D02*
X-865191D01*
Y832176D01*
X-865276D01*
X-865356Y832181D01*
X-865430Y832186D01*
X-865565Y832216D01*
X-865684Y832255D01*
X-865734Y832275D01*
X-865779Y832300D01*
X-865819Y832325D01*
X-865859Y832345D01*
X-865888Y832365D01*
X-865913Y832385D01*
X-865933Y832400D01*
X-865948Y832415D01*
X-865953Y832420D01*
X-865958Y832425D01*
X-866003Y832475D01*
X-866043Y832529D01*
X-866078Y832584D01*
X-866107Y832639D01*
X-866152Y832753D01*
X-866182Y832868D01*
X-866197Y832962D01*
X-866202Y833007D01*
X-866207Y833042D01*
X-866212Y833077D01*
Y833097D01*
Y833112D01*
Y833117D01*
X-866207Y833196D01*
X-866202Y833271D01*
X-866167Y833401D01*
X-866127Y833520D01*
X-866103Y833570D01*
X-866078Y833615D01*
X-866048Y833654D01*
X-866023Y833689D01*
X-866003Y833719D01*
X-865983Y833744D01*
X-865963Y833764D01*
X-865948Y833779D01*
X-865943Y833784D01*
X-865938Y833789D01*
X-865883Y833834D01*
X-865829Y833874D01*
X-865774Y833903D01*
X-865709Y833933D01*
X-865590Y833978D01*
X-865475Y834008D01*
X-865420Y834018D01*
X-865371Y834023D01*
X-865326Y834033D01*
X-865286D01*
X-865256Y834038D01*
X-864763D01*
Y830722D01*
D02*
G37*
G36*
X-867009D02*
X-867437D01*
Y834038D01*
X-867009D01*
Y830722D01*
D02*
G37*
G36*
X-868821D02*
X-869249D01*
Y834038D01*
X-868821D01*
Y830722D01*
D02*
G37*
G36*
X-792447Y778150D02*
X-792362Y778135D01*
X-792283Y778115D01*
X-792208Y778095D01*
X-792148Y778076D01*
X-792098Y778056D01*
X-792078Y778046D01*
X-792064Y778041D01*
X-792059Y778036D01*
X-792054D01*
Y777593D01*
X-792138Y777627D01*
X-792208Y777657D01*
X-792273Y777677D01*
X-792327Y777687D01*
X-792367Y777697D01*
X-792397Y777702D01*
X-792422D01*
X-792492Y777697D01*
X-792551Y777677D01*
X-792606Y777652D01*
X-792651Y777627D01*
X-792686Y777598D01*
X-792716Y777573D01*
X-792731Y777553D01*
X-792736Y777548D01*
X-792775Y777488D01*
X-792805Y777423D01*
X-792825Y777354D01*
X-792840Y777289D01*
X-792850Y777234D01*
X-792855Y777185D01*
Y777155D01*
Y777150D01*
Y777145D01*
Y777065D01*
X-792845Y776980D01*
X-792820Y776806D01*
X-792775Y776627D01*
X-792721Y776438D01*
X-792651Y776248D01*
X-792581Y776059D01*
X-792502Y775875D01*
X-792422Y775696D01*
X-792337Y775527D01*
X-792258Y775372D01*
X-792188Y775228D01*
X-792153Y775168D01*
X-792118Y775108D01*
X-792088Y775054D01*
X-792064Y775009D01*
X-792044Y774969D01*
X-792024Y774934D01*
X-792004Y774904D01*
X-791994Y774884D01*
X-791989Y774874D01*
X-791984Y774870D01*
Y774805D01*
X-793363D01*
Y775228D01*
X-792586D01*
X-792656Y775362D01*
X-792721Y775492D01*
X-792780Y775616D01*
X-792835Y775731D01*
X-792880Y775835D01*
X-792925Y775930D01*
X-792965Y776020D01*
X-792999Y776099D01*
X-793034Y776174D01*
X-793059Y776234D01*
X-793079Y776288D01*
X-793099Y776333D01*
X-793114Y776368D01*
X-793124Y776393D01*
X-793129Y776408D01*
Y776413D01*
X-793184Y776572D01*
X-793223Y776726D01*
X-793253Y776861D01*
X-793263Y776926D01*
X-793273Y776985D01*
X-793278Y777035D01*
X-793283Y777085D01*
X-793288Y777125D01*
X-793293Y777160D01*
Y777189D01*
Y777209D01*
Y777219D01*
Y777224D01*
X-793283Y777379D01*
X-793263Y777513D01*
X-793229Y777633D01*
X-793209Y777682D01*
X-793194Y777727D01*
X-793174Y777767D01*
X-793154Y777807D01*
X-793139Y777837D01*
X-793119Y777861D01*
X-793109Y777881D01*
X-793099Y777896D01*
X-793089Y777901D01*
Y777906D01*
X-793049Y777951D01*
X-793005Y777991D01*
X-792960Y778021D01*
X-792915Y778051D01*
X-792825Y778095D01*
X-792736Y778125D01*
X-792656Y778140D01*
X-792621Y778150D01*
X-792591D01*
X-792566Y778155D01*
X-792532D01*
X-792447Y778150D01*
D02*
G37*
G36*
X-786637Y777722D02*
X-787145D01*
Y774805D01*
X-787573D01*
Y777722D01*
X-788081D01*
Y778120D01*
X-786637D01*
Y777722D01*
D02*
G37*
G36*
X-788449Y774805D02*
X-788877D01*
Y776258D01*
X-788962D01*
X-789042Y776263D01*
X-789116Y776268D01*
X-789251Y776298D01*
X-789370Y776338D01*
X-789420Y776358D01*
X-789465Y776383D01*
X-789505Y776408D01*
X-789545Y776428D01*
X-789574Y776448D01*
X-789599Y776468D01*
X-789619Y776482D01*
X-789634Y776497D01*
X-789639Y776502D01*
X-789644Y776507D01*
X-789689Y776557D01*
X-789729Y776612D01*
X-789763Y776667D01*
X-789793Y776721D01*
X-789838Y776836D01*
X-789868Y776951D01*
X-789883Y777045D01*
X-789888Y777090D01*
X-789893Y777125D01*
X-789898Y777160D01*
Y777179D01*
Y777194D01*
Y777199D01*
X-789893Y777279D01*
X-789888Y777354D01*
X-789853Y777483D01*
X-789813Y777603D01*
X-789788Y777652D01*
X-789763Y777697D01*
X-789734Y777737D01*
X-789709Y777772D01*
X-789689Y777802D01*
X-789669Y777827D01*
X-789649Y777847D01*
X-789634Y777861D01*
X-789629Y777867D01*
X-789624Y777871D01*
X-789569Y777916D01*
X-789515Y777956D01*
X-789460Y777986D01*
X-789395Y778016D01*
X-789276Y778061D01*
X-789161Y778091D01*
X-789106Y778101D01*
X-789057Y778105D01*
X-789012Y778115D01*
X-788972D01*
X-788942Y778120D01*
X-788449D01*
Y774805D01*
D02*
G37*
G36*
X-790695D02*
X-791123D01*
Y778120D01*
X-790695D01*
Y774805D01*
D02*
G37*
G36*
X-367292Y186366D02*
X-367317Y186371D01*
X-367342Y186376D01*
X-367396Y186385D01*
X-367461D01*
X-367551Y186381D01*
X-367635Y186361D01*
X-367705Y186336D01*
X-367760Y186306D01*
X-367805Y186271D01*
X-367840Y186246D01*
X-367859Y186226D01*
X-367864Y186221D01*
X-367914Y186156D01*
X-367949Y186087D01*
X-367979Y186012D01*
X-367994Y185942D01*
X-368004Y185878D01*
X-368014Y185823D01*
Y185808D01*
Y185793D01*
Y185783D01*
Y185778D01*
X-368009Y185674D01*
X-367994Y185584D01*
X-367969Y185504D01*
X-367944Y185435D01*
X-367919Y185385D01*
X-367894Y185345D01*
X-367879Y185325D01*
X-367874Y185315D01*
X-367820Y185260D01*
X-367760Y185215D01*
X-367695Y185186D01*
X-367640Y185166D01*
X-367586Y185156D01*
X-367546Y185151D01*
X-367516Y185146D01*
X-367506D01*
X-367451Y185151D01*
X-367396Y185156D01*
X-367342Y185171D01*
X-367287Y185186D01*
X-367242Y185196D01*
X-367207Y185211D01*
X-367182Y185215D01*
X-367172Y185221D01*
Y184817D01*
X-367247Y184787D01*
X-367322Y184767D01*
X-367392Y184753D01*
X-367451Y184743D01*
X-367506Y184738D01*
X-367546Y184733D01*
X-367581D01*
X-367650Y184738D01*
X-367715Y184748D01*
X-367775Y184762D01*
X-367835Y184782D01*
X-367944Y184827D01*
X-368034Y184887D01*
X-368103Y184942D01*
X-368133Y184967D01*
X-368158Y184991D01*
X-368178Y185006D01*
X-368193Y185021D01*
X-368198Y185031D01*
X-368203Y185036D01*
X-368248Y185096D01*
X-368288Y185156D01*
X-368317Y185221D01*
X-368347Y185285D01*
X-368392Y185410D01*
X-368422Y185529D01*
X-368432Y185584D01*
X-368437Y185634D01*
X-368447Y185679D01*
Y185718D01*
X-368452Y185748D01*
Y185773D01*
Y185788D01*
Y185793D01*
X-368442Y185942D01*
X-368422Y186077D01*
X-368382Y186191D01*
X-368337Y186296D01*
X-368278Y186385D01*
X-368218Y186460D01*
X-368148Y186525D01*
X-368083Y186580D01*
X-368014Y186624D01*
X-367944Y186659D01*
X-367884Y186689D01*
X-367825Y186709D01*
X-367780Y186724D01*
X-367740Y186734D01*
X-367720Y186739D01*
X-367710D01*
Y187720D01*
X-368347D01*
Y188108D01*
X-367292D01*
Y186366D01*
D02*
G37*
G36*
X-363548Y187710D02*
X-364056D01*
Y184792D01*
X-364484D01*
Y187710D01*
X-364992D01*
Y188108D01*
X-363548D01*
Y187710D01*
D02*
G37*
G36*
X-365360Y184792D02*
X-365788D01*
Y186246D01*
X-365873D01*
X-365953Y186251D01*
X-366027Y186256D01*
X-366162Y186286D01*
X-366281Y186326D01*
X-366331Y186346D01*
X-366376Y186371D01*
X-366416Y186395D01*
X-366455Y186415D01*
X-366485Y186435D01*
X-366510Y186455D01*
X-366530Y186470D01*
X-366545Y186485D01*
X-366550Y186490D01*
X-366555Y186495D01*
X-366600Y186545D01*
X-366640Y186600D01*
X-366675Y186654D01*
X-366704Y186709D01*
X-366749Y186824D01*
X-366779Y186938D01*
X-366794Y187033D01*
X-366799Y187078D01*
X-366804Y187112D01*
X-366809Y187147D01*
Y187167D01*
Y187182D01*
Y187187D01*
X-366804Y187267D01*
X-366799Y187341D01*
X-366764Y187471D01*
X-366724Y187590D01*
X-366699Y187640D01*
X-366675Y187685D01*
X-366645Y187725D01*
X-366620Y187759D01*
X-366600Y187789D01*
X-366580Y187814D01*
X-366560Y187834D01*
X-366545Y187849D01*
X-366540Y187854D01*
X-366535Y187859D01*
X-366480Y187904D01*
X-366426Y187944D01*
X-366371Y187974D01*
X-366306Y188003D01*
X-366187Y188048D01*
X-366072Y188078D01*
X-366017Y188088D01*
X-365968Y188093D01*
X-365923Y188103D01*
X-365883D01*
X-365853Y188108D01*
X-365360D01*
Y184792D01*
D02*
G37*
G36*
X-235311Y117722D02*
X-235819D01*
Y114805D01*
X-236247D01*
Y117722D01*
X-236754D01*
Y118120D01*
X-235311D01*
Y117722D01*
D02*
G37*
G36*
X-237123Y114805D02*
X-237551D01*
Y116258D01*
X-237636D01*
X-237715Y116263D01*
X-237790Y116268D01*
X-237924Y116298D01*
X-238044Y116338D01*
X-238094Y116358D01*
X-238139Y116383D01*
X-238178Y116408D01*
X-238218Y116428D01*
X-238248Y116448D01*
X-238273Y116468D01*
X-238293Y116482D01*
X-238308Y116497D01*
X-238313Y116502D01*
X-238318Y116507D01*
X-238363Y116557D01*
X-238402Y116612D01*
X-238437Y116667D01*
X-238467Y116721D01*
X-238512Y116836D01*
X-238542Y116951D01*
X-238557Y117045D01*
X-238562Y117090D01*
X-238567Y117125D01*
X-238572Y117160D01*
Y117179D01*
Y117194D01*
Y117199D01*
X-238567Y117279D01*
X-238562Y117354D01*
X-238527Y117483D01*
X-238487Y117603D01*
X-238462Y117652D01*
X-238437Y117697D01*
X-238407Y117737D01*
X-238382Y117772D01*
X-238363Y117802D01*
X-238343Y117827D01*
X-238323Y117847D01*
X-238308Y117861D01*
X-238303Y117866D01*
X-238298Y117872D01*
X-238243Y117916D01*
X-238188Y117956D01*
X-238134Y117986D01*
X-238069Y118016D01*
X-237949Y118061D01*
X-237835Y118090D01*
X-237780Y118101D01*
X-237730Y118105D01*
X-237686Y118115D01*
X-237646D01*
X-237616Y118120D01*
X-237123D01*
Y114805D01*
D02*
G37*
G36*
X-238811Y116099D02*
Y115716D01*
X-239677D01*
Y114805D01*
X-240105D01*
Y115716D01*
X-240289D01*
Y116019D01*
X-240105D01*
Y118155D01*
X-239702D01*
X-238811Y116099D01*
D02*
G37*
G36*
X-41556Y68120D02*
X-41486Y68110D01*
X-41421Y68101D01*
X-41367Y68085D01*
X-41317Y68066D01*
X-41282Y68056D01*
X-41262Y68046D01*
X-41252Y68041D01*
Y67628D01*
X-41307Y67657D01*
X-41362Y67677D01*
X-41411Y67692D01*
X-41456Y67702D01*
X-41491Y67707D01*
X-41516Y67712D01*
X-41541D01*
X-41606Y67707D01*
X-41660Y67692D01*
X-41710Y67667D01*
X-41755Y67647D01*
X-41785Y67622D01*
X-41810Y67598D01*
X-41825Y67583D01*
X-41830Y67578D01*
X-41864Y67528D01*
X-41894Y67468D01*
X-41914Y67408D01*
X-41924Y67354D01*
X-41934Y67304D01*
X-41939Y67264D01*
Y67239D01*
Y67234D01*
Y67229D01*
X-41934Y67155D01*
X-41924Y67085D01*
X-41904Y67030D01*
X-41879Y66975D01*
X-41849Y66930D01*
X-41815Y66891D01*
X-41780Y66856D01*
X-41745Y66831D01*
X-41675Y66786D01*
X-41610Y66761D01*
X-41586Y66756D01*
X-41566Y66751D01*
X-41556Y66746D01*
X-41551D01*
Y66323D01*
X-41625Y66303D01*
X-41690Y66278D01*
X-41750Y66244D01*
X-41800Y66199D01*
X-41839Y66154D01*
X-41874Y66104D01*
X-41904Y66049D01*
X-41924Y66000D01*
X-41944Y65945D01*
X-41954Y65895D01*
X-41964Y65850D01*
X-41974Y65810D01*
Y65776D01*
X-41979Y65751D01*
Y65731D01*
Y65726D01*
X-41974Y65626D01*
X-41959Y65542D01*
X-41939Y65467D01*
X-41919Y65402D01*
X-41894Y65352D01*
X-41874Y65318D01*
X-41859Y65298D01*
X-41855Y65288D01*
X-41805Y65233D01*
X-41755Y65198D01*
X-41705Y65168D01*
X-41655Y65148D01*
X-41610Y65138D01*
X-41576Y65133D01*
X-41551Y65128D01*
X-41541D01*
X-41481Y65133D01*
X-41416Y65143D01*
X-41357Y65163D01*
X-41302Y65183D01*
X-41252Y65203D01*
X-41212Y65223D01*
X-41187Y65233D01*
X-41177Y65238D01*
Y64815D01*
X-41267Y64780D01*
X-41347Y64755D01*
X-41421Y64740D01*
X-41481Y64730D01*
X-41531Y64720D01*
X-41571Y64715D01*
X-41601D01*
X-41665Y64720D01*
X-41725Y64725D01*
X-41780Y64740D01*
X-41835Y64760D01*
X-41934Y64805D01*
X-42019Y64859D01*
X-42084Y64909D01*
X-42133Y64954D01*
X-42153Y64974D01*
X-42168Y64989D01*
X-42173Y64994D01*
X-42178Y64999D01*
X-42218Y65054D01*
X-42258Y65108D01*
X-42317Y65228D01*
X-42357Y65342D01*
X-42387Y65452D01*
X-42407Y65547D01*
X-42412Y65586D01*
Y65621D01*
X-42417Y65651D01*
Y65671D01*
Y65686D01*
Y65691D01*
X-42412Y65810D01*
X-42392Y65915D01*
X-42367Y66014D01*
X-42332Y66099D01*
X-42292Y66179D01*
X-42248Y66248D01*
X-42198Y66308D01*
X-42148Y66363D01*
X-42093Y66408D01*
X-42049Y66448D01*
X-41999Y66477D01*
X-41959Y66502D01*
X-41924Y66522D01*
X-41899Y66532D01*
X-41879Y66542D01*
X-41874D01*
X-41964Y66592D01*
X-42039Y66647D01*
X-42108Y66707D01*
X-42163Y66766D01*
X-42213Y66831D01*
X-42253Y66896D01*
X-42288Y66955D01*
X-42312Y67015D01*
X-42337Y67075D01*
X-42352Y67125D01*
X-42362Y67175D01*
X-42367Y67214D01*
X-42372Y67249D01*
X-42377Y67279D01*
Y67294D01*
Y67299D01*
Y67364D01*
X-42367Y67423D01*
X-42342Y67538D01*
X-42308Y67642D01*
X-42273Y67727D01*
X-42233Y67792D01*
X-42198Y67847D01*
X-42183Y67861D01*
X-42173Y67876D01*
X-42168Y67881D01*
X-42163Y67886D01*
X-42123Y67926D01*
X-42078Y67966D01*
X-41989Y68026D01*
X-41899Y68066D01*
X-41815Y68095D01*
X-41745Y68115D01*
X-41710Y68120D01*
X-41685D01*
X-41660Y68125D01*
X-41630D01*
X-41556Y68120D01*
D02*
G37*
G36*
X-37583Y67692D02*
X-38091D01*
Y64775D01*
X-38519D01*
Y67692D01*
X-39027D01*
Y68091D01*
X-37583D01*
Y67692D01*
D02*
G37*
G36*
X-39395Y64775D02*
X-39823D01*
Y66229D01*
X-39908D01*
X-39988Y66234D01*
X-40062Y66239D01*
X-40197Y66268D01*
X-40316Y66308D01*
X-40366Y66328D01*
X-40411Y66353D01*
X-40451Y66378D01*
X-40490Y66398D01*
X-40520Y66418D01*
X-40545Y66438D01*
X-40565Y66453D01*
X-40580Y66468D01*
X-40585Y66473D01*
X-40590Y66477D01*
X-40635Y66527D01*
X-40675Y66582D01*
X-40709Y66637D01*
X-40739Y66692D01*
X-40784Y66806D01*
X-40814Y66921D01*
X-40829Y67015D01*
X-40834Y67060D01*
X-40839Y67095D01*
X-40844Y67130D01*
Y67150D01*
Y67165D01*
Y67169D01*
X-40839Y67249D01*
X-40834Y67324D01*
X-40799Y67453D01*
X-40759Y67573D01*
X-40734Y67622D01*
X-40709Y67667D01*
X-40679Y67707D01*
X-40655Y67742D01*
X-40635Y67772D01*
X-40615Y67797D01*
X-40595Y67817D01*
X-40580Y67832D01*
X-40575Y67837D01*
X-40570Y67842D01*
X-40515Y67886D01*
X-40461Y67926D01*
X-40406Y67956D01*
X-40341Y67986D01*
X-40222Y68031D01*
X-40107Y68061D01*
X-40052Y68071D01*
X-40002Y68076D01*
X-39958Y68085D01*
X-39918D01*
X-39888Y68091D01*
X-39395D01*
Y64775D01*
D02*
G37*
G36*
X-6600Y67692D02*
X-7108D01*
Y64775D01*
X-7536D01*
Y67692D01*
X-8044D01*
Y68091D01*
X-6600D01*
Y67692D01*
D02*
G37*
G36*
X-8412Y64775D02*
X-8840D01*
Y66229D01*
X-8925D01*
X-9004Y66234D01*
X-9079Y66239D01*
X-9213Y66268D01*
X-9333Y66308D01*
X-9383Y66328D01*
X-9427Y66353D01*
X-9467Y66378D01*
X-9507Y66398D01*
X-9537Y66418D01*
X-9562Y66438D01*
X-9582Y66453D01*
X-9597Y66468D01*
X-9602Y66473D01*
X-9607Y66477D01*
X-9651Y66527D01*
X-9691Y66582D01*
X-9726Y66637D01*
X-9756Y66692D01*
X-9801Y66806D01*
X-9831Y66921D01*
X-9846Y67015D01*
X-9851Y67060D01*
X-9856Y67095D01*
X-9861Y67130D01*
Y67150D01*
Y67165D01*
Y67169D01*
X-9856Y67249D01*
X-9851Y67324D01*
X-9816Y67453D01*
X-9776Y67573D01*
X-9751Y67622D01*
X-9726Y67667D01*
X-9696Y67707D01*
X-9671Y67742D01*
X-9651Y67772D01*
X-9632Y67797D01*
X-9612Y67817D01*
X-9597Y67832D01*
X-9592Y67837D01*
X-9587Y67842D01*
X-9532Y67886D01*
X-9477Y67926D01*
X-9423Y67956D01*
X-9358Y67986D01*
X-9238Y68031D01*
X-9124Y68061D01*
X-9069Y68071D01*
X-9019Y68076D01*
X-8974Y68085D01*
X-8935D01*
X-8905Y68091D01*
X-8412D01*
Y64775D01*
D02*
G37*
G36*
X-10657D02*
X-11085D01*
Y68091D01*
X-10657D01*
Y64775D01*
D02*
G37*
G36*
X-12609Y68120D02*
X-12549Y68106D01*
X-12489Y68085D01*
X-12439Y68051D01*
X-12390Y68016D01*
X-12345Y67966D01*
X-12300Y67916D01*
X-12260Y67856D01*
X-12225Y67797D01*
X-12191Y67727D01*
X-12136Y67588D01*
X-12086Y67433D01*
X-12051Y67274D01*
X-12021Y67115D01*
X-12001Y66960D01*
X-11981Y66816D01*
X-11976Y66746D01*
X-11971Y66687D01*
Y66627D01*
X-11967Y66577D01*
Y66532D01*
X-11961Y66493D01*
Y66463D01*
Y66438D01*
Y66423D01*
Y66418D01*
Y66259D01*
X-11967Y66114D01*
X-11976Y65980D01*
X-11986Y65850D01*
X-12001Y65736D01*
X-12016Y65631D01*
X-12031Y65537D01*
X-12046Y65452D01*
X-12061Y65377D01*
X-12076Y65313D01*
X-12091Y65258D01*
X-12106Y65213D01*
X-12116Y65178D01*
X-12126Y65153D01*
X-12131Y65138D01*
Y65133D01*
X-12166Y65059D01*
X-12205Y64994D01*
X-12245Y64939D01*
X-12290Y64889D01*
X-12335Y64850D01*
X-12380Y64820D01*
X-12424Y64790D01*
X-12469Y64770D01*
X-12549Y64735D01*
X-12584Y64730D01*
X-12614Y64720D01*
X-12639D01*
X-12658Y64715D01*
X-12673D01*
X-12743Y64720D01*
X-12808Y64735D01*
X-12868Y64755D01*
X-12922Y64780D01*
X-13017Y64850D01*
X-13092Y64929D01*
X-13151Y65004D01*
X-13196Y65074D01*
X-13206Y65099D01*
X-13216Y65118D01*
X-13226Y65133D01*
Y65138D01*
X-13256Y65223D01*
X-13286Y65313D01*
X-13306Y65412D01*
X-13326Y65517D01*
X-13355Y65731D01*
X-13380Y65935D01*
X-13385Y66034D01*
X-13390Y66124D01*
X-13395Y66209D01*
Y66278D01*
X-13400Y66338D01*
Y66378D01*
Y66408D01*
Y66418D01*
Y66577D01*
X-13390Y66726D01*
X-13385Y66866D01*
X-13370Y66995D01*
X-13360Y67110D01*
X-13346Y67219D01*
X-13326Y67314D01*
X-13311Y67399D01*
X-13296Y67473D01*
X-13276Y67538D01*
X-13261Y67593D01*
X-13251Y67632D01*
X-13236Y67667D01*
X-13231Y67692D01*
X-13221Y67707D01*
Y67712D01*
X-13186Y67787D01*
X-13146Y67847D01*
X-13106Y67906D01*
X-13062Y67951D01*
X-13017Y67991D01*
X-12967Y68026D01*
X-12922Y68051D01*
X-12882Y68076D01*
X-12798Y68106D01*
X-12763Y68110D01*
X-12733Y68120D01*
X-12708D01*
X-12688Y68125D01*
X-12673D01*
X-12609Y68120D01*
D02*
G37*
G36*
X-403526Y406510D02*
X-404034D01*
Y403592D01*
X-404462D01*
Y406510D01*
X-404969D01*
Y406908D01*
X-403526D01*
Y406510D01*
D02*
G37*
G36*
X-405338Y403592D02*
X-405766D01*
Y405046D01*
X-405851D01*
X-405930Y405051D01*
X-406005Y405056D01*
X-406139Y405086D01*
X-406259Y405126D01*
X-406309Y405145D01*
X-406353Y405170D01*
X-406393Y405195D01*
X-406433Y405215D01*
X-406463Y405235D01*
X-406488Y405255D01*
X-406508Y405270D01*
X-406523Y405285D01*
X-406528Y405290D01*
X-406533Y405295D01*
X-406577Y405345D01*
X-406617Y405399D01*
X-406652Y405454D01*
X-406682Y405509D01*
X-406727Y405624D01*
X-406757Y405738D01*
X-406772Y405833D01*
X-406777Y405877D01*
X-406782Y405912D01*
X-406787Y405947D01*
Y405967D01*
Y405982D01*
Y405987D01*
X-406782Y406067D01*
X-406777Y406141D01*
X-406742Y406271D01*
X-406702Y406390D01*
X-406677Y406440D01*
X-406652Y406485D01*
X-406622Y406525D01*
X-406597Y406559D01*
X-406577Y406589D01*
X-406558Y406614D01*
X-406538Y406634D01*
X-406523Y406649D01*
X-406518Y406654D01*
X-406513Y406659D01*
X-406458Y406704D01*
X-406403Y406744D01*
X-406348Y406773D01*
X-406284Y406803D01*
X-406164Y406848D01*
X-406050Y406878D01*
X-405995Y406888D01*
X-405945Y406893D01*
X-405900Y406903D01*
X-405861D01*
X-405831Y406908D01*
X-405338D01*
Y403592D01*
D02*
G37*
G36*
X-407120Y406520D02*
X-407957D01*
X-407379Y403622D01*
X-407787Y403532D01*
X-408474Y406908D01*
X-407120D01*
Y406520D01*
D02*
G37*
G36*
X-347508Y257692D02*
X-348016D01*
Y254775D01*
X-348444D01*
Y257692D01*
X-348952D01*
Y258090D01*
X-347508D01*
Y257692D01*
D02*
G37*
G36*
X-349320Y254775D02*
X-349749D01*
Y256229D01*
X-349833D01*
X-349913Y256234D01*
X-349988Y256239D01*
X-350122Y256268D01*
X-350242Y256308D01*
X-350291Y256328D01*
X-350336Y256353D01*
X-350376Y256378D01*
X-350416Y256398D01*
X-350446Y256418D01*
X-350471Y256438D01*
X-350490Y256453D01*
X-350505Y256468D01*
X-350510Y256472D01*
X-350515Y256478D01*
X-350560Y256527D01*
X-350600Y256582D01*
X-350635Y256637D01*
X-350665Y256692D01*
X-350709Y256806D01*
X-350739Y256921D01*
X-350754Y257015D01*
X-350759Y257060D01*
X-350764Y257095D01*
X-350769Y257130D01*
Y257150D01*
Y257164D01*
Y257169D01*
X-350764Y257249D01*
X-350759Y257324D01*
X-350724Y257453D01*
X-350685Y257573D01*
X-350660Y257623D01*
X-350635Y257667D01*
X-350605Y257707D01*
X-350580Y257742D01*
X-350560Y257772D01*
X-350540Y257797D01*
X-350520Y257817D01*
X-350505Y257832D01*
X-350500Y257837D01*
X-350495Y257842D01*
X-350441Y257886D01*
X-350386Y257926D01*
X-350331Y257956D01*
X-350266Y257986D01*
X-350147Y258031D01*
X-350032Y258061D01*
X-349978Y258071D01*
X-349928Y258076D01*
X-349883Y258085D01*
X-349843D01*
X-349813Y258090D01*
X-349320D01*
Y254775D01*
D02*
G37*
G36*
X-351730Y258120D02*
X-351680Y258115D01*
X-351596Y258090D01*
X-351516Y258051D01*
X-351446Y258006D01*
X-351391Y257961D01*
X-351347Y257926D01*
X-351322Y257896D01*
X-351317Y257891D01*
X-351312Y257886D01*
X-351242Y257792D01*
X-351192Y257682D01*
X-351157Y257573D01*
X-351133Y257468D01*
X-351118Y257374D01*
X-351113Y257334D01*
Y257299D01*
X-351108Y257269D01*
Y257249D01*
Y257234D01*
Y257229D01*
X-351113Y257145D01*
X-351123Y257060D01*
X-351138Y256985D01*
X-351162Y256916D01*
X-351187Y256851D01*
X-351217Y256791D01*
X-351247Y256736D01*
X-351282Y256687D01*
X-351312Y256642D01*
X-351342Y256602D01*
X-351372Y256572D01*
X-351396Y256547D01*
X-351421Y256522D01*
X-351436Y256507D01*
X-351446Y256502D01*
X-351451Y256497D01*
X-351381Y256448D01*
X-351327Y256398D01*
X-351272Y256338D01*
X-351232Y256273D01*
X-351192Y256209D01*
X-351162Y256139D01*
X-351138Y256074D01*
X-351118Y256005D01*
X-351098Y255945D01*
X-351088Y255885D01*
X-351078Y255830D01*
X-351073Y255786D01*
Y255746D01*
X-351068Y255716D01*
Y255696D01*
Y255691D01*
X-351078Y255532D01*
X-351098Y255392D01*
X-351128Y255273D01*
X-351147Y255218D01*
X-351167Y255168D01*
X-351182Y255123D01*
X-351202Y255089D01*
X-351217Y255054D01*
X-351232Y255029D01*
X-351242Y255009D01*
X-351252Y254994D01*
X-351262Y254984D01*
Y254979D01*
X-351302Y254934D01*
X-351342Y254894D01*
X-351381Y254855D01*
X-351426Y254825D01*
X-351511Y254780D01*
X-351591Y254750D01*
X-351665Y254730D01*
X-351720Y254720D01*
X-351745Y254715D01*
X-351775D01*
X-351835Y254720D01*
X-351889Y254725D01*
X-351994Y254755D01*
X-352084Y254800D01*
X-352153Y254850D01*
X-352213Y254899D01*
X-352258Y254944D01*
X-352283Y254974D01*
X-352293Y254979D01*
Y254984D01*
X-352357Y255093D01*
X-352407Y255213D01*
X-352442Y255333D01*
X-352467Y255447D01*
X-352477Y255502D01*
X-352482Y255551D01*
X-352487Y255591D01*
Y255631D01*
X-352492Y255661D01*
Y255686D01*
Y255701D01*
Y255706D01*
X-352487Y255805D01*
X-352477Y255900D01*
X-352457Y255985D01*
X-352432Y256064D01*
X-352402Y256134D01*
X-352372Y256199D01*
X-352337Y256259D01*
X-352303Y256308D01*
X-352263Y256353D01*
X-352228Y256393D01*
X-352198Y256428D01*
X-352168Y256453D01*
X-352143Y256472D01*
X-352123Y256488D01*
X-352113Y256493D01*
X-352108Y256497D01*
X-352168Y256547D01*
X-352223Y256602D01*
X-352268Y256662D01*
X-352308Y256721D01*
X-352342Y256781D01*
X-352367Y256841D01*
X-352392Y256901D01*
X-352407Y256960D01*
X-352422Y257015D01*
X-352432Y257065D01*
X-352442Y257110D01*
X-352447Y257150D01*
X-352452Y257184D01*
Y257209D01*
Y257224D01*
Y257229D01*
X-352442Y257374D01*
X-352417Y257503D01*
X-352387Y257618D01*
X-352347Y257707D01*
X-352327Y257747D01*
X-352308Y257782D01*
X-352293Y257812D01*
X-352278Y257837D01*
X-352263Y257857D01*
X-352253Y257871D01*
X-352248Y257876D01*
X-352243Y257881D01*
X-352203Y257926D01*
X-352163Y257961D01*
X-352123Y257996D01*
X-352084Y258021D01*
X-352004Y258066D01*
X-351934Y258095D01*
X-351869Y258110D01*
X-351820Y258120D01*
X-351800Y258125D01*
X-351775D01*
X-351730Y258120D01*
D02*
G37*
G36*
X-180014Y297107D02*
X-179959Y296993D01*
X-179914Y296873D01*
X-179874Y296759D01*
X-179840Y296644D01*
X-179815Y296535D01*
X-179790Y296425D01*
X-179770Y296326D01*
X-179755Y296231D01*
X-179740Y296141D01*
X-179730Y296062D01*
X-179725Y295992D01*
X-179720Y295932D01*
X-179715Y295883D01*
Y295848D01*
Y295828D01*
Y295818D01*
Y295723D01*
X-179725Y295634D01*
X-179735Y295549D01*
X-179745Y295469D01*
X-179760Y295395D01*
X-179775Y295330D01*
X-179795Y295270D01*
X-179815Y295215D01*
X-179830Y295171D01*
X-179850Y295126D01*
X-179865Y295091D01*
X-179879Y295061D01*
X-179889Y295041D01*
X-179899Y295026D01*
X-179909Y295016D01*
Y295011D01*
X-179949Y294962D01*
X-179984Y294922D01*
X-180024Y294882D01*
X-180069Y294852D01*
X-180148Y294802D01*
X-180223Y294767D01*
X-180293Y294748D01*
X-180343Y294738D01*
X-180362Y294733D01*
X-180392D01*
X-180447Y294738D01*
X-180497Y294748D01*
X-180547Y294762D01*
X-180596Y294782D01*
X-180681Y294832D01*
X-180751Y294887D01*
X-180810Y294942D01*
X-180855Y294991D01*
X-180870Y295011D01*
X-180880Y295026D01*
X-180890Y295036D01*
Y295041D01*
X-180960Y295161D01*
X-181010Y295290D01*
X-181044Y295420D01*
X-181069Y295544D01*
X-181079Y295599D01*
X-181084Y295649D01*
X-181089Y295698D01*
Y295738D01*
X-181094Y295768D01*
Y295793D01*
Y295808D01*
Y295813D01*
X-181089Y295977D01*
X-181069Y296122D01*
X-181054Y296186D01*
X-181039Y296246D01*
X-181024Y296301D01*
X-181010Y296355D01*
X-180990Y296400D01*
X-180975Y296435D01*
X-180960Y296470D01*
X-180950Y296500D01*
X-180935Y296520D01*
X-180930Y296535D01*
X-180920Y296545D01*
Y296550D01*
X-180885Y296600D01*
X-180850Y296644D01*
X-180815Y296679D01*
X-180781Y296709D01*
X-180706Y296759D01*
X-180631Y296794D01*
X-180571Y296814D01*
X-180517Y296824D01*
X-180497Y296828D01*
X-180472D01*
X-180412Y296824D01*
X-180352Y296814D01*
X-180327Y296809D01*
X-180313Y296804D01*
X-180298Y296799D01*
X-180293D01*
X-180930Y298108D01*
X-180502D01*
X-180014Y297107D01*
D02*
G37*
G36*
X-176106Y297710D02*
X-176614D01*
Y294792D01*
X-177042D01*
Y297710D01*
X-177550D01*
Y298108D01*
X-176106D01*
Y297710D01*
D02*
G37*
G36*
X-177918Y294792D02*
X-178346D01*
Y296246D01*
X-178431D01*
X-178510Y296251D01*
X-178585Y296256D01*
X-178720Y296286D01*
X-178839Y296326D01*
X-178889Y296346D01*
X-178934Y296371D01*
X-178973Y296395D01*
X-179013Y296415D01*
X-179043Y296435D01*
X-179068Y296455D01*
X-179088Y296470D01*
X-179103Y296485D01*
X-179108Y296490D01*
X-179113Y296495D01*
X-179158Y296545D01*
X-179197Y296600D01*
X-179232Y296654D01*
X-179262Y296709D01*
X-179307Y296824D01*
X-179337Y296938D01*
X-179352Y297033D01*
X-179357Y297077D01*
X-179362Y297112D01*
X-179367Y297147D01*
Y297167D01*
Y297182D01*
Y297187D01*
X-179362Y297267D01*
X-179357Y297341D01*
X-179322Y297471D01*
X-179282Y297590D01*
X-179257Y297640D01*
X-179232Y297685D01*
X-179202Y297725D01*
X-179177Y297759D01*
X-179158Y297789D01*
X-179138Y297814D01*
X-179118Y297834D01*
X-179103Y297849D01*
X-179098Y297854D01*
X-179093Y297859D01*
X-179038Y297904D01*
X-178983Y297944D01*
X-178929Y297973D01*
X-178864Y298003D01*
X-178744Y298048D01*
X-178630Y298078D01*
X-178575Y298088D01*
X-178525Y298093D01*
X-178480Y298103D01*
X-178441D01*
X-178411Y298108D01*
X-177918D01*
Y294792D01*
D02*
G37*
G36*
X-132462Y498120D02*
X-132392Y498110D01*
X-132327Y498101D01*
X-132273Y498086D01*
X-132223Y498066D01*
X-132188Y498056D01*
X-132168Y498046D01*
X-132158Y498041D01*
Y497627D01*
X-132213Y497657D01*
X-132268Y497677D01*
X-132317Y497692D01*
X-132362Y497702D01*
X-132397Y497707D01*
X-132422Y497712D01*
X-132447D01*
X-132512Y497707D01*
X-132566Y497692D01*
X-132616Y497667D01*
X-132661Y497647D01*
X-132691Y497623D01*
X-132716Y497598D01*
X-132731Y497583D01*
X-132736Y497578D01*
X-132771Y497528D01*
X-132800Y497468D01*
X-132820Y497408D01*
X-132830Y497354D01*
X-132840Y497304D01*
X-132845Y497264D01*
Y497239D01*
Y497234D01*
Y497229D01*
X-132840Y497155D01*
X-132830Y497085D01*
X-132810Y497030D01*
X-132785Y496975D01*
X-132755Y496931D01*
X-132721Y496891D01*
X-132686Y496856D01*
X-132651Y496831D01*
X-132581Y496786D01*
X-132517Y496761D01*
X-132492Y496756D01*
X-132472Y496751D01*
X-132462Y496746D01*
X-132457D01*
Y496323D01*
X-132531Y496303D01*
X-132596Y496278D01*
X-132656Y496244D01*
X-132706Y496199D01*
X-132746Y496154D01*
X-132780Y496104D01*
X-132810Y496049D01*
X-132830Y496000D01*
X-132850Y495945D01*
X-132860Y495895D01*
X-132870Y495850D01*
X-132880Y495810D01*
Y495776D01*
X-132885Y495751D01*
Y495731D01*
Y495726D01*
X-132880Y495626D01*
X-132865Y495542D01*
X-132845Y495467D01*
X-132825Y495402D01*
X-132800Y495352D01*
X-132780Y495318D01*
X-132766Y495298D01*
X-132760Y495288D01*
X-132711Y495233D01*
X-132661Y495198D01*
X-132611Y495168D01*
X-132561Y495148D01*
X-132517Y495138D01*
X-132482Y495133D01*
X-132457Y495128D01*
X-132447D01*
X-132387Y495133D01*
X-132322Y495143D01*
X-132263Y495163D01*
X-132208Y495183D01*
X-132158Y495203D01*
X-132118Y495223D01*
X-132093Y495233D01*
X-132084Y495238D01*
Y494815D01*
X-132173Y494780D01*
X-132253Y494755D01*
X-132327Y494740D01*
X-132387Y494730D01*
X-132437Y494720D01*
X-132477Y494715D01*
X-132507D01*
X-132571Y494720D01*
X-132631Y494725D01*
X-132686Y494740D01*
X-132741Y494760D01*
X-132840Y494805D01*
X-132925Y494860D01*
X-132990Y494909D01*
X-133039Y494954D01*
X-133059Y494974D01*
X-133074Y494989D01*
X-133079Y494994D01*
X-133084Y494999D01*
X-133124Y495054D01*
X-133164Y495108D01*
X-133223Y495228D01*
X-133263Y495342D01*
X-133293Y495452D01*
X-133313Y495547D01*
X-133318Y495586D01*
Y495621D01*
X-133323Y495651D01*
Y495671D01*
Y495686D01*
Y495691D01*
X-133318Y495810D01*
X-133298Y495915D01*
X-133273Y496015D01*
X-133238Y496099D01*
X-133199Y496179D01*
X-133154Y496249D01*
X-133104Y496308D01*
X-133054Y496363D01*
X-132999Y496408D01*
X-132955Y496448D01*
X-132905Y496478D01*
X-132865Y496502D01*
X-132830Y496522D01*
X-132805Y496532D01*
X-132785Y496542D01*
X-132780D01*
X-132870Y496592D01*
X-132945Y496647D01*
X-133014Y496707D01*
X-133069Y496766D01*
X-133119Y496831D01*
X-133159Y496896D01*
X-133194Y496955D01*
X-133218Y497015D01*
X-133243Y497075D01*
X-133258Y497125D01*
X-133268Y497174D01*
X-133273Y497214D01*
X-133278Y497249D01*
X-133283Y497279D01*
Y497294D01*
Y497299D01*
Y497364D01*
X-133273Y497423D01*
X-133248Y497538D01*
X-133214Y497643D01*
X-133179Y497727D01*
X-133139Y497792D01*
X-133104Y497847D01*
X-133089Y497862D01*
X-133079Y497876D01*
X-133074Y497881D01*
X-133069Y497886D01*
X-133029Y497926D01*
X-132985Y497966D01*
X-132895Y498026D01*
X-132805Y498066D01*
X-132721Y498096D01*
X-132651Y498115D01*
X-132616Y498120D01*
X-132591D01*
X-132566Y498125D01*
X-132536D01*
X-132462Y498120D01*
D02*
G37*
G36*
X-126677Y497692D02*
X-127185D01*
Y494775D01*
X-127613D01*
Y497692D01*
X-128121D01*
Y498091D01*
X-126677D01*
Y497692D01*
D02*
G37*
G36*
X-128489Y494775D02*
X-128917D01*
Y496229D01*
X-129002D01*
X-129081Y496234D01*
X-129156Y496239D01*
X-129291Y496268D01*
X-129410Y496308D01*
X-129460Y496328D01*
X-129505Y496353D01*
X-129544Y496378D01*
X-129584Y496398D01*
X-129614Y496418D01*
X-129639Y496438D01*
X-129659Y496453D01*
X-129674Y496468D01*
X-129679Y496473D01*
X-129684Y496478D01*
X-129729Y496527D01*
X-129768Y496582D01*
X-129803Y496637D01*
X-129833Y496692D01*
X-129878Y496806D01*
X-129908Y496921D01*
X-129923Y497015D01*
X-129928Y497060D01*
X-129933Y497095D01*
X-129938Y497130D01*
Y497150D01*
Y497164D01*
Y497169D01*
X-129933Y497249D01*
X-129928Y497324D01*
X-129893Y497453D01*
X-129853Y497573D01*
X-129828Y497623D01*
X-129803Y497667D01*
X-129774Y497707D01*
X-129749Y497742D01*
X-129729Y497772D01*
X-129709Y497797D01*
X-129689Y497817D01*
X-129674Y497832D01*
X-129669Y497837D01*
X-129664Y497842D01*
X-129609Y497886D01*
X-129554Y497926D01*
X-129500Y497956D01*
X-129435Y497986D01*
X-129316Y498031D01*
X-129201Y498061D01*
X-129146Y498071D01*
X-129096Y498076D01*
X-129052Y498086D01*
X-129012D01*
X-128982Y498091D01*
X-128489D01*
Y494775D01*
D02*
G37*
G36*
X-130734D02*
X-131163D01*
Y498091D01*
X-130734D01*
Y494775D01*
D02*
G37*
%LPC*%
G36*
X-1329474Y-26996D02*
X-1329483D01*
X-1329524Y-27005D01*
X-1329566Y-27013D01*
X-1329641Y-27071D01*
X-1329707Y-27146D01*
X-1329757Y-27230D01*
X-1329791Y-27313D01*
X-1329824Y-27388D01*
X-1329832Y-27446D01*
X-1329841Y-27455D01*
Y-27463D01*
X-1329857Y-27563D01*
X-1329882Y-27671D01*
X-1329899Y-27796D01*
X-1329907Y-27929D01*
X-1329932Y-28221D01*
X-1329941Y-28513D01*
X-1329949Y-28654D01*
Y-28779D01*
X-1329957Y-28904D01*
Y-29004D01*
Y-29088D01*
Y-29154D01*
Y-29196D01*
Y-29213D01*
Y-29412D01*
X-1329949Y-29596D01*
Y-29771D01*
X-1329941Y-29937D01*
X-1329924Y-30087D01*
X-1329916Y-30229D01*
X-1329899Y-30362D01*
X-1329882Y-30479D01*
X-1329866Y-30587D01*
X-1329849Y-30695D01*
X-1329824Y-30787D01*
X-1329807Y-30870D01*
X-1329766Y-31012D01*
X-1329724Y-31129D01*
X-1329674Y-31220D01*
X-1329632Y-31287D01*
X-1329591Y-31337D01*
X-1329557Y-31370D01*
X-1329524Y-31387D01*
X-1329499Y-31395D01*
X-1329491Y-31404D01*
X-1329483D01*
X-1329441Y-31395D01*
X-1329399Y-31379D01*
X-1329366Y-31345D01*
X-1329332Y-31312D01*
X-1329299Y-31262D01*
X-1329266Y-31204D01*
X-1329216Y-31062D01*
X-1329166Y-30895D01*
X-1329133Y-30712D01*
X-1329099Y-30512D01*
X-1329074Y-30304D01*
X-1329058Y-30104D01*
X-1329041Y-29904D01*
X-1329033Y-29721D01*
X-1329024Y-29554D01*
X-1329016Y-29412D01*
Y-29354D01*
Y-29304D01*
Y-29262D01*
Y-29237D01*
Y-29221D01*
Y-29213D01*
Y-28963D01*
X-1329024Y-28729D01*
Y-28529D01*
X-1329033Y-28338D01*
X-1329041Y-28171D01*
X-1329049Y-28021D01*
X-1329066Y-27896D01*
X-1329074Y-27780D01*
X-1329083Y-27688D01*
X-1329099Y-27605D01*
X-1329108Y-27538D01*
X-1329116Y-27488D01*
X-1329124Y-27455D01*
Y-27421D01*
X-1329133Y-27413D01*
Y-27405D01*
X-1329158Y-27330D01*
X-1329183Y-27271D01*
X-1329208Y-27213D01*
X-1329241Y-27171D01*
X-1329291Y-27096D01*
X-1329349Y-27046D01*
X-1329399Y-27021D01*
X-1329441Y-27005D01*
X-1329474Y-26996D01*
D02*
G37*
G36*
X-1332507D02*
X-1332515D01*
X-1332557Y-27005D01*
X-1332598Y-27013D01*
X-1332673Y-27071D01*
X-1332740Y-27146D01*
X-1332790Y-27230D01*
X-1332823Y-27313D01*
X-1332857Y-27388D01*
X-1332865Y-27446D01*
X-1332873Y-27455D01*
Y-27463D01*
X-1332890Y-27563D01*
X-1332915Y-27671D01*
X-1332932Y-27796D01*
X-1332940Y-27929D01*
X-1332965Y-28221D01*
X-1332973Y-28513D01*
X-1332982Y-28654D01*
Y-28779D01*
X-1332990Y-28904D01*
Y-29004D01*
Y-29088D01*
Y-29154D01*
Y-29196D01*
Y-29213D01*
Y-29412D01*
X-1332982Y-29596D01*
Y-29771D01*
X-1332973Y-29937D01*
X-1332957Y-30087D01*
X-1332948Y-30229D01*
X-1332932Y-30362D01*
X-1332915Y-30479D01*
X-1332898Y-30587D01*
X-1332882Y-30695D01*
X-1332857Y-30787D01*
X-1332840Y-30870D01*
X-1332798Y-31012D01*
X-1332757Y-31129D01*
X-1332707Y-31220D01*
X-1332665Y-31287D01*
X-1332623Y-31337D01*
X-1332590Y-31370D01*
X-1332557Y-31387D01*
X-1332532Y-31395D01*
X-1332523Y-31404D01*
X-1332515D01*
X-1332473Y-31395D01*
X-1332432Y-31379D01*
X-1332398Y-31345D01*
X-1332365Y-31312D01*
X-1332332Y-31262D01*
X-1332298Y-31204D01*
X-1332248Y-31062D01*
X-1332198Y-30895D01*
X-1332165Y-30712D01*
X-1332132Y-30512D01*
X-1332107Y-30304D01*
X-1332090Y-30104D01*
X-1332074Y-29904D01*
X-1332065Y-29721D01*
X-1332057Y-29554D01*
X-1332048Y-29412D01*
Y-29354D01*
Y-29304D01*
Y-29262D01*
Y-29237D01*
Y-29221D01*
Y-29213D01*
Y-28963D01*
X-1332057Y-28729D01*
Y-28529D01*
X-1332065Y-28338D01*
X-1332074Y-28171D01*
X-1332082Y-28021D01*
X-1332099Y-27896D01*
X-1332107Y-27780D01*
X-1332115Y-27688D01*
X-1332132Y-27605D01*
X-1332140Y-27538D01*
X-1332148Y-27488D01*
X-1332157Y-27455D01*
Y-27421D01*
X-1332165Y-27413D01*
Y-27405D01*
X-1332190Y-27330D01*
X-1332215Y-27271D01*
X-1332240Y-27213D01*
X-1332273Y-27171D01*
X-1332323Y-27096D01*
X-1332382Y-27046D01*
X-1332432Y-27021D01*
X-1332473Y-27005D01*
X-1332507Y-26996D01*
D02*
G37*
G36*
X-781797Y77742D02*
X-781807D01*
X-781852Y77737D01*
X-781892Y77717D01*
X-781922Y77682D01*
X-781952Y77642D01*
X-781976Y77593D01*
X-781996Y77543D01*
X-782026Y77423D01*
X-782041Y77309D01*
X-782051Y77254D01*
Y77204D01*
X-782056Y77165D01*
Y77135D01*
Y77110D01*
Y77105D01*
X-782051Y76995D01*
X-782046Y76896D01*
X-782031Y76811D01*
X-782016Y76741D01*
X-781996Y76677D01*
X-781976Y76627D01*
X-781956Y76587D01*
X-781932Y76552D01*
X-781907Y76527D01*
X-781887Y76507D01*
X-781867Y76493D01*
X-781847Y76483D01*
X-781817Y76473D01*
X-781807D01*
X-781762Y76477D01*
X-781722Y76497D01*
X-781688Y76527D01*
X-781663Y76562D01*
X-781638Y76602D01*
X-781613Y76652D01*
X-781583Y76756D01*
X-781568Y76861D01*
X-781563Y76911D01*
X-781558Y76950D01*
X-781553Y76990D01*
Y77015D01*
Y77035D01*
Y77040D01*
X-781558Y77165D01*
X-781563Y77274D01*
X-781578Y77364D01*
X-781593Y77448D01*
X-781613Y77513D01*
X-781633Y77573D01*
X-781658Y77618D01*
X-781683Y77652D01*
X-781703Y77682D01*
X-781728Y77707D01*
X-781747Y77722D01*
X-781767Y77732D01*
X-781797Y77742D01*
D02*
G37*
G36*
X-779746Y77722D02*
X-779851Y77717D01*
X-779940Y77702D01*
X-780020Y77682D01*
X-780090Y77647D01*
X-780144Y77613D01*
X-780194Y77568D01*
X-780234Y77523D01*
X-780264Y77478D01*
X-780289Y77428D01*
X-780309Y77384D01*
X-780319Y77344D01*
X-780329Y77304D01*
X-780334Y77269D01*
X-780339Y77244D01*
Y77229D01*
Y77224D01*
X-780334Y77125D01*
X-780319Y77035D01*
X-780289Y76960D01*
X-780259Y76896D01*
X-780219Y76841D01*
X-780174Y76796D01*
X-780129Y76756D01*
X-780080Y76726D01*
X-780030Y76707D01*
X-779985Y76687D01*
X-779940Y76677D01*
X-779900Y76667D01*
X-779871Y76662D01*
X-779846Y76657D01*
X-779746D01*
Y77722D01*
D02*
G37*
G36*
X-865191Y833640D02*
X-865296Y833635D01*
X-865386Y833620D01*
X-865465Y833600D01*
X-865535Y833565D01*
X-865590Y833530D01*
X-865639Y833485D01*
X-865679Y833440D01*
X-865709Y833396D01*
X-865734Y833346D01*
X-865754Y833301D01*
X-865764Y833261D01*
X-865774Y833221D01*
X-865779Y833186D01*
X-865784Y833162D01*
Y833147D01*
Y833142D01*
X-865779Y833042D01*
X-865764Y832952D01*
X-865734Y832878D01*
X-865704Y832813D01*
X-865664Y832758D01*
X-865620Y832713D01*
X-865575Y832674D01*
X-865525Y832644D01*
X-865475Y832624D01*
X-865430Y832604D01*
X-865386Y832594D01*
X-865346Y832584D01*
X-865316Y832579D01*
X-865291Y832574D01*
X-865191D01*
Y833640D01*
D02*
G37*
G36*
X-788877Y777722D02*
X-788982Y777717D01*
X-789072Y777702D01*
X-789151Y777682D01*
X-789221Y777647D01*
X-789276Y777613D01*
X-789325Y777568D01*
X-789365Y777523D01*
X-789395Y777478D01*
X-789420Y777428D01*
X-789440Y777384D01*
X-789450Y777344D01*
X-789460Y777304D01*
X-789465Y777269D01*
X-789470Y777244D01*
Y777229D01*
Y777224D01*
X-789465Y777125D01*
X-789450Y777035D01*
X-789420Y776960D01*
X-789390Y776896D01*
X-789350Y776841D01*
X-789305Y776796D01*
X-789261Y776756D01*
X-789211Y776726D01*
X-789161Y776706D01*
X-789116Y776687D01*
X-789072Y776677D01*
X-789032Y776667D01*
X-789002Y776662D01*
X-788977Y776657D01*
X-788877D01*
Y777722D01*
D02*
G37*
G36*
X-365788Y187710D02*
X-365893Y187705D01*
X-365983Y187690D01*
X-366062Y187670D01*
X-366132Y187635D01*
X-366187Y187600D01*
X-366236Y187555D01*
X-366276Y187511D01*
X-366306Y187466D01*
X-366331Y187416D01*
X-366351Y187371D01*
X-366361Y187331D01*
X-366371Y187292D01*
X-366376Y187257D01*
X-366381Y187232D01*
Y187217D01*
Y187212D01*
X-366376Y187112D01*
X-366361Y187023D01*
X-366331Y186948D01*
X-366301Y186883D01*
X-366261Y186828D01*
X-366217Y186784D01*
X-366172Y186744D01*
X-366122Y186714D01*
X-366072Y186694D01*
X-366027Y186674D01*
X-365983Y186664D01*
X-365943Y186654D01*
X-365913Y186649D01*
X-365888Y186644D01*
X-365788D01*
Y187710D01*
D02*
G37*
G36*
X-237551Y117722D02*
X-237656Y117717D01*
X-237745Y117702D01*
X-237825Y117682D01*
X-237895Y117647D01*
X-237949Y117613D01*
X-237999Y117568D01*
X-238039Y117523D01*
X-238069Y117478D01*
X-238094Y117428D01*
X-238114Y117384D01*
X-238124Y117344D01*
X-238134Y117304D01*
X-238139Y117269D01*
X-238144Y117244D01*
Y117229D01*
Y117224D01*
X-238139Y117125D01*
X-238124Y117035D01*
X-238094Y116960D01*
X-238064Y116896D01*
X-238024Y116841D01*
X-237979Y116796D01*
X-237934Y116756D01*
X-237885Y116726D01*
X-237835Y116706D01*
X-237790Y116687D01*
X-237745Y116677D01*
X-237705Y116667D01*
X-237675Y116662D01*
X-237651Y116657D01*
X-237551D01*
Y117722D01*
D02*
G37*
G36*
X-239667Y117339D02*
X-239677D01*
Y116019D01*
X-239104D01*
X-239667Y117339D01*
D02*
G37*
G36*
X-39823Y67692D02*
X-39928Y67687D01*
X-40017Y67672D01*
X-40097Y67652D01*
X-40167Y67618D01*
X-40222Y67583D01*
X-40271Y67538D01*
X-40311Y67493D01*
X-40341Y67448D01*
X-40366Y67399D01*
X-40386Y67354D01*
X-40396Y67314D01*
X-40406Y67274D01*
X-40411Y67239D01*
X-40416Y67214D01*
Y67199D01*
Y67194D01*
X-40411Y67095D01*
X-40396Y67005D01*
X-40366Y66930D01*
X-40336Y66866D01*
X-40296Y66811D01*
X-40251Y66766D01*
X-40207Y66726D01*
X-40157Y66697D01*
X-40107Y66677D01*
X-40062Y66657D01*
X-40017Y66647D01*
X-39978Y66637D01*
X-39948Y66632D01*
X-39923Y66627D01*
X-39823D01*
Y67692D01*
D02*
G37*
G36*
X-8840D02*
X-8945Y67687D01*
X-9034Y67672D01*
X-9114Y67652D01*
X-9183Y67618D01*
X-9238Y67583D01*
X-9288Y67538D01*
X-9328Y67493D01*
X-9358Y67448D01*
X-9383Y67399D01*
X-9403Y67354D01*
X-9413Y67314D01*
X-9423Y67274D01*
X-9427Y67239D01*
X-9433Y67214D01*
Y67199D01*
Y67194D01*
X-9427Y67095D01*
X-9413Y67005D01*
X-9383Y66930D01*
X-9353Y66866D01*
X-9313Y66811D01*
X-9268Y66766D01*
X-9223Y66726D01*
X-9174Y66697D01*
X-9124Y66677D01*
X-9079Y66657D01*
X-9034Y66647D01*
X-8994Y66637D01*
X-8964Y66632D01*
X-8940Y66627D01*
X-8840D01*
Y67692D01*
D02*
G37*
G36*
X-12673Y67737D02*
X-12678D01*
X-12703Y67732D01*
X-12728Y67727D01*
X-12773Y67692D01*
X-12813Y67647D01*
X-12843Y67598D01*
X-12863Y67548D01*
X-12882Y67503D01*
X-12888Y67468D01*
X-12893Y67463D01*
Y67458D01*
X-12902Y67399D01*
X-12917Y67334D01*
X-12927Y67259D01*
X-12932Y67179D01*
X-12947Y67005D01*
X-12952Y66831D01*
X-12957Y66746D01*
Y66672D01*
X-12962Y66597D01*
Y66537D01*
Y66487D01*
Y66448D01*
Y66423D01*
Y66413D01*
Y66293D01*
X-12957Y66184D01*
Y66079D01*
X-12952Y65980D01*
X-12942Y65890D01*
X-12937Y65805D01*
X-12927Y65726D01*
X-12917Y65656D01*
X-12907Y65591D01*
X-12897Y65527D01*
X-12882Y65472D01*
X-12873Y65422D01*
X-12848Y65338D01*
X-12823Y65268D01*
X-12793Y65213D01*
X-12768Y65173D01*
X-12743Y65143D01*
X-12723Y65123D01*
X-12703Y65113D01*
X-12688Y65108D01*
X-12683Y65104D01*
X-12678D01*
X-12653Y65108D01*
X-12629Y65118D01*
X-12609Y65138D01*
X-12589Y65158D01*
X-12569Y65188D01*
X-12549Y65223D01*
X-12519Y65308D01*
X-12489Y65407D01*
X-12469Y65517D01*
X-12449Y65636D01*
X-12434Y65761D01*
X-12424Y65880D01*
X-12414Y66000D01*
X-12410Y66109D01*
X-12405Y66209D01*
X-12400Y66293D01*
Y66328D01*
Y66358D01*
Y66383D01*
Y66398D01*
Y66408D01*
Y66413D01*
Y66562D01*
X-12405Y66701D01*
Y66821D01*
X-12410Y66936D01*
X-12414Y67035D01*
X-12420Y67125D01*
X-12429Y67199D01*
X-12434Y67269D01*
X-12439Y67324D01*
X-12449Y67374D01*
X-12454Y67414D01*
X-12459Y67443D01*
X-12464Y67463D01*
Y67483D01*
X-12469Y67488D01*
Y67493D01*
X-12484Y67538D01*
X-12499Y67573D01*
X-12514Y67608D01*
X-12534Y67632D01*
X-12564Y67677D01*
X-12599Y67707D01*
X-12629Y67722D01*
X-12653Y67732D01*
X-12673Y67737D01*
D02*
G37*
G36*
X-405766Y406510D02*
X-405871Y406505D01*
X-405960Y406490D01*
X-406040Y406470D01*
X-406110Y406435D01*
X-406164Y406400D01*
X-406214Y406355D01*
X-406254Y406311D01*
X-406284Y406266D01*
X-406309Y406216D01*
X-406329Y406171D01*
X-406339Y406131D01*
X-406348Y406091D01*
X-406353Y406057D01*
X-406358Y406032D01*
Y406017D01*
Y406012D01*
X-406353Y405912D01*
X-406339Y405823D01*
X-406309Y405748D01*
X-406279Y405683D01*
X-406239Y405628D01*
X-406194Y405584D01*
X-406149Y405544D01*
X-406100Y405514D01*
X-406050Y405494D01*
X-406005Y405474D01*
X-405960Y405464D01*
X-405920Y405454D01*
X-405891Y405449D01*
X-405866Y405444D01*
X-405766D01*
Y406510D01*
D02*
G37*
G36*
X-349749Y257692D02*
X-349853Y257687D01*
X-349943Y257672D01*
X-350022Y257652D01*
X-350092Y257618D01*
X-350147Y257583D01*
X-350197Y257538D01*
X-350237Y257493D01*
X-350266Y257448D01*
X-350291Y257398D01*
X-350311Y257354D01*
X-350321Y257314D01*
X-350331Y257274D01*
X-350336Y257239D01*
X-350341Y257214D01*
Y257199D01*
Y257194D01*
X-350336Y257095D01*
X-350321Y257005D01*
X-350291Y256931D01*
X-350261Y256866D01*
X-350221Y256811D01*
X-350177Y256766D01*
X-350132Y256726D01*
X-350082Y256697D01*
X-350032Y256677D01*
X-349988Y256657D01*
X-349943Y256647D01*
X-349903Y256637D01*
X-349873Y256632D01*
X-349848Y256627D01*
X-349749D01*
Y257692D01*
D02*
G37*
G36*
X-351760Y257712D02*
X-351770D01*
X-351810Y257707D01*
X-351844Y257687D01*
X-351874Y257662D01*
X-351904Y257628D01*
X-351924Y257588D01*
X-351944Y257538D01*
X-351969Y257438D01*
X-351989Y257339D01*
X-351994Y257294D01*
Y257249D01*
X-351999Y257214D01*
Y257189D01*
Y257169D01*
Y257164D01*
X-351994Y257085D01*
X-351989Y257010D01*
X-351979Y256950D01*
X-351969Y256901D01*
X-351954Y256861D01*
X-351944Y256831D01*
X-351939Y256811D01*
X-351934Y256806D01*
X-351909Y256761D01*
X-351884Y256731D01*
X-351855Y256707D01*
X-351830Y256692D01*
X-351805Y256682D01*
X-351790Y256677D01*
X-351770D01*
X-351735Y256682D01*
X-351700Y256697D01*
X-351675Y256716D01*
X-351650Y256741D01*
X-351630Y256766D01*
X-351615Y256786D01*
X-351610Y256801D01*
X-351605Y256806D01*
X-351586Y256861D01*
X-351571Y256921D01*
X-351561Y256980D01*
X-351556Y257040D01*
X-351551Y257090D01*
X-351546Y257130D01*
Y257160D01*
Y257169D01*
X-351551Y257264D01*
X-351556Y257349D01*
X-351566Y257423D01*
X-351581Y257483D01*
X-351596Y257538D01*
X-351615Y257578D01*
X-351635Y257618D01*
X-351660Y257642D01*
X-351680Y257667D01*
X-351700Y257682D01*
X-351735Y257702D01*
X-351760Y257712D01*
D02*
G37*
G36*
X-351765Y256263D02*
X-351775D01*
X-351825Y256259D01*
X-351869Y256239D01*
X-351904Y256214D01*
X-351934Y256179D01*
X-351964Y256134D01*
X-351984Y256089D01*
X-352019Y255985D01*
X-352039Y255880D01*
X-352044Y255835D01*
X-352049Y255795D01*
X-352054Y255756D01*
Y255731D01*
Y255711D01*
Y255706D01*
X-352049Y255611D01*
X-352044Y255527D01*
X-352029Y255457D01*
X-352014Y255397D01*
X-351999Y255347D01*
X-351989Y255313D01*
X-351979Y255293D01*
X-351974Y255283D01*
X-351944Y255233D01*
X-351909Y255193D01*
X-351879Y255168D01*
X-351844Y255148D01*
X-351820Y255138D01*
X-351795Y255133D01*
X-351780Y255128D01*
X-351775D01*
X-351730Y255133D01*
X-351695Y255153D01*
X-351660Y255178D01*
X-351635Y255208D01*
X-351610Y255238D01*
X-351596Y255263D01*
X-351586Y255283D01*
X-351581Y255288D01*
X-351556Y255352D01*
X-351536Y255422D01*
X-351526Y255492D01*
X-351516Y255557D01*
X-351511Y255616D01*
X-351506Y255661D01*
Y255681D01*
Y255696D01*
Y255701D01*
Y255706D01*
X-351511Y255805D01*
X-351516Y255890D01*
X-351531Y255965D01*
X-351546Y256029D01*
X-351571Y256084D01*
X-351591Y256129D01*
X-351615Y256164D01*
X-351640Y256194D01*
X-351665Y256219D01*
X-351690Y256234D01*
X-351735Y256254D01*
X-351765Y256263D01*
D02*
G37*
G36*
X-180387Y296415D02*
X-180397D01*
X-180442Y296410D01*
X-180482Y296390D01*
X-180517Y296366D01*
X-180547Y296326D01*
X-180571Y296286D01*
X-180591Y296236D01*
X-180626Y296131D01*
X-180641Y296027D01*
X-180646Y295977D01*
X-180651Y295937D01*
X-180656Y295903D01*
Y295873D01*
Y295853D01*
Y295848D01*
X-180651Y295723D01*
X-180646Y295614D01*
X-180631Y295524D01*
X-180616Y295445D01*
X-180596Y295375D01*
X-180576Y295315D01*
X-180552Y295270D01*
X-180532Y295235D01*
X-180507Y295205D01*
X-180482Y295181D01*
X-180462Y295166D01*
X-180442Y295156D01*
X-180412Y295146D01*
X-180402D01*
X-180357Y295151D01*
X-180323Y295171D01*
X-180288Y295205D01*
X-180258Y295245D01*
X-180233Y295290D01*
X-180213Y295345D01*
X-180183Y295464D01*
X-180168Y295579D01*
X-180163Y295634D01*
X-180158Y295679D01*
X-180153Y295718D01*
Y295753D01*
Y295773D01*
Y295778D01*
X-180158Y295893D01*
X-180163Y295987D01*
X-180178Y296072D01*
X-180193Y296146D01*
X-180208Y296206D01*
X-180233Y296261D01*
X-180253Y296301D01*
X-180278Y296336D01*
X-180298Y296360D01*
X-180323Y296380D01*
X-180343Y296395D01*
X-180357Y296405D01*
X-180387Y296415D01*
D02*
G37*
G36*
X-178346Y297710D02*
X-178451Y297705D01*
X-178540Y297690D01*
X-178620Y297670D01*
X-178690Y297635D01*
X-178744Y297600D01*
X-178794Y297555D01*
X-178834Y297511D01*
X-178864Y297466D01*
X-178889Y297416D01*
X-178909Y297371D01*
X-178919Y297331D01*
X-178929Y297292D01*
X-178934Y297257D01*
X-178939Y297232D01*
Y297217D01*
Y297212D01*
X-178934Y297112D01*
X-178919Y297023D01*
X-178889Y296948D01*
X-178859Y296883D01*
X-178819Y296828D01*
X-178774Y296784D01*
X-178729Y296744D01*
X-178680Y296714D01*
X-178630Y296694D01*
X-178585Y296674D01*
X-178540Y296664D01*
X-178500Y296654D01*
X-178471Y296649D01*
X-178446Y296644D01*
X-178346D01*
Y297710D01*
D02*
G37*
G36*
X-128917Y497692D02*
X-129022Y497687D01*
X-129111Y497672D01*
X-129191Y497652D01*
X-129261Y497618D01*
X-129316Y497583D01*
X-129365Y497538D01*
X-129405Y497493D01*
X-129435Y497448D01*
X-129460Y497398D01*
X-129480Y497354D01*
X-129490Y497314D01*
X-129500Y497274D01*
X-129505Y497239D01*
X-129510Y497214D01*
Y497199D01*
Y497194D01*
X-129505Y497095D01*
X-129490Y497005D01*
X-129460Y496931D01*
X-129430Y496866D01*
X-129390Y496811D01*
X-129345Y496766D01*
X-129300Y496726D01*
X-129251Y496697D01*
X-129201Y496677D01*
X-129156Y496657D01*
X-129111Y496647D01*
X-129072Y496637D01*
X-129042Y496632D01*
X-129017Y496627D01*
X-128917D01*
Y497692D01*
D02*
G37*
%LPD*%
D12*
X-665000Y87623D02*
D03*
X-645000D02*
D03*
X-620000D02*
D03*
X-690000Y113823D02*
D03*
X-665000D02*
D03*
X-645000D02*
D03*
X-620000D02*
D03*
D72*
X-770500Y60000D02*
G03*
X-770500Y60000I-9500J0D01*
G01*
X-856600Y815900D02*
G03*
X-856600Y815900I-9500J0D01*
G01*
X-780500Y760000D02*
G03*
X-780500Y760000I-9500J0D01*
G01*
X-356500Y170000D02*
G03*
X-356500Y170000I-9500J0D01*
G01*
X-228300Y100000D02*
G03*
X-228300Y100000I-9500J0D01*
G01*
X-30500Y50000D02*
G03*
X-30500Y50000I-9500J0D01*
G01*
X-500D02*
G03*
X-500Y50000I-9500J0D01*
G01*
X-396500Y388800D02*
G03*
X-396500Y388800I-9500J0D01*
G01*
X-340500Y240000D02*
G03*
X-340500Y240000I-9500J0D01*
G01*
X-169100Y280000D02*
G03*
X-169100Y280000I-9500J0D01*
G01*
X-120500Y480000D02*
G03*
X-120500Y480000I-9500J0D01*
G01*
X-828730Y431869D02*
X-810239D01*
X-828730D02*
X-810239D01*
X-828730Y433190D02*
X-810239D01*
X-828730D02*
X-810239D01*
X-813541Y434510D02*
X-810239D01*
X-813541D02*
X-810239D01*
X-813541D02*
X-810239Y435831D01*
X-813541Y436492D02*
X-810239Y435831D01*
X-813541Y436492D02*
X-810239D01*
X-813541D02*
X-810239D01*
X-806277Y431869D02*
X-801654D01*
X-806277D02*
X-801654D01*
X-806277D02*
X-800993Y432529D01*
X-804295Y433850D02*
X-799673D01*
X-804295D02*
X-799673D01*
X-802975Y434510D02*
X-799012D01*
X-802975D02*
X-799012D01*
X-801654Y435831D02*
X-797691D01*
X-801654D02*
X-797691D01*
X-790427Y431208D02*
X-787125D01*
X-790427Y432529D02*
X-787125D01*
X-790427D02*
X-787125D01*
X-790427Y433850D02*
X-787125Y433190D01*
X-790427Y433850D02*
X-787125D01*
X-790427D02*
X-787125D01*
X-790427Y435831D02*
X-787125Y435171D01*
X-790427Y435831D02*
X-787125Y436492D01*
X-790427Y437152D02*
X-787125Y436492D01*
X-890808Y468851D02*
X-880902Y468191D01*
X-890808Y467530D02*
X-880902Y468191D01*
X-890808Y468851D02*
X-880902D01*
X-890808D02*
X-880902D01*
X-890808Y470832D02*
X-880902D01*
X-890808D02*
X-880902D01*
X-890808Y472153D02*
X-880902D01*
X-890808D02*
X-880902D01*
X-890808Y473474D02*
X-880902D01*
X-890808D02*
X-880902D01*
X-890808Y474795D02*
X-880902D01*
X-890808D02*
X-880902D01*
X-828730Y447718D02*
X-810239Y447058D01*
X-828730Y446398D02*
X-810239Y447058D01*
X-828730Y446398D02*
X-810239Y445737D01*
X-828070Y449039D02*
X-810239D01*
X-828070D02*
X-810239D01*
X-822787Y439133D02*
X-810239D01*
X-822787D02*
X-810239D01*
X-822787Y440454D02*
X-810239D01*
X-822787D02*
X-810239D01*
X-839297Y467530D02*
X-789767D01*
X-845240Y469512D02*
X-783823D01*
X-890808Y476116D02*
X-880902Y475455D01*
X-890808Y476116D02*
X-880902D01*
X-890808D02*
X-880902D01*
X-890808Y477436D02*
X-880902D01*
X-890808D02*
X-880902D01*
X-890808Y480738D02*
X-880902D01*
X-890808Y482059D02*
X-880902D01*
X-890808Y483380D02*
X-880902D01*
X-890808Y478757D02*
X-880902D01*
X-890808D02*
X-880902D01*
X-890808Y482059D02*
X-880902Y481399D01*
X-890808Y480738D02*
X-880902D01*
X-890808Y484701D02*
X-880902D01*
X-890808Y482059D02*
X-880902D01*
X-890808Y484701D02*
X-880902D01*
X-848542Y476116D02*
X-838636D01*
X-848542D02*
X-838636D01*
X-848542Y478097D02*
X-838636D01*
X-848542D02*
X-838636D01*
X-848542Y485361D02*
X-838636D01*
X-848542Y480078D02*
X-838636D01*
X-848542Y482720D02*
X-838636D01*
X-848542Y481399D02*
X-838636Y482059D01*
X-848542Y484040D02*
X-838636D01*
X-848542Y482720D02*
X-838636Y482059D01*
X-848542Y480078D02*
X-838636D01*
X-848542Y484040D02*
X-838636D01*
X-848542Y480078D02*
X-838636Y480738D01*
X-848542Y478097D02*
X-838636Y478757D01*
X-848542Y482720D02*
X-838636D01*
X-813541Y438473D02*
X-810239D01*
X-813541D02*
X-810239D01*
X-813541Y442435D02*
X-810239Y441775D01*
X-813541Y442435D02*
X-810239D01*
X-813541D02*
X-810239D01*
X-813541Y444416D02*
X-810239D01*
X-813541D02*
X-810239D01*
X-813541D02*
X-810239Y443756D01*
X-813541Y445737D02*
X-810239D01*
X-805616Y441775D02*
X-801654Y441114D01*
X-805616Y443096D02*
X-801654Y442435D01*
X-805616Y445077D02*
X-801654D01*
X-805616Y443096D02*
X-801654D01*
X-805616Y445077D02*
X-801654D01*
X-805616D02*
X-801654Y444416D01*
X-805616Y443096D02*
X-801654D01*
X-804956Y440454D02*
X-801654Y441114D01*
X-800333Y437152D02*
X-796371D01*
X-800333D02*
X-796371D01*
X-804956Y439133D02*
X-787125Y438473D01*
X-804956Y439133D02*
X-787125Y440454D01*
X-804956D02*
X-787125D01*
X-803635Y438473D02*
X-787125D01*
X-790427Y437152D02*
X-787125D01*
X-790427Y443096D02*
X-787125D01*
X-790427D02*
X-787125D01*
X-790427Y441775D02*
X-787125D01*
X-790427D02*
X-787125Y442435D01*
X-790427Y441775D02*
X-787125D01*
X-790427Y437152D02*
X-787125D01*
X-790427Y444416D02*
X-787125D01*
X-790427D02*
X-787125D01*
X-842599Y468191D02*
X-786465D01*
X-845240Y469512D02*
X-783823D01*
X-843919Y468851D02*
X-784483D01*
X-847882Y474795D02*
X-780521D01*
X-847882D02*
X-780521Y474134D01*
X-847221Y472814D02*
X-781181D01*
X-846561Y471493D02*
X-781842D01*
X-846561D02*
X-781842D01*
X-847221Y472814D02*
X-781181D01*
X-847882Y474795D02*
X-780521D01*
X-847221Y472814D02*
X-780521Y474134D01*
X-804956Y446398D02*
X-800333D01*
X-804956D02*
X-787125D01*
X-804956Y447718D02*
X-787125D01*
X-804956D02*
X-787125D01*
X-801654Y449039D02*
X-787125D01*
X-790427Y446398D02*
X-787125Y445737D01*
X-790427Y446398D02*
X-787125D01*
X-789767Y476116D02*
X-780521D01*
X-789767D02*
X-780521D01*
X-789767Y481399D02*
X-779861D01*
X-789767Y478757D02*
X-779861D01*
X-789767D02*
X-779861D01*
X-789767Y484701D02*
X-779861D01*
X-789767Y480078D02*
X-779861D01*
X-789767D02*
X-779861D01*
X-789767Y482720D02*
X-779861D01*
X-789767Y477436D02*
X-779861D01*
X-789767Y482720D02*
X-779861Y483380D01*
X-789767Y482720D02*
X-779861D01*
X-789767Y481399D02*
X-779861D01*
X-789767Y484701D02*
X-779861Y485361D01*
X-781181Y433190D02*
X-777879Y433850D01*
X-781181Y435831D02*
X-777879Y437152D01*
X-781181Y434510D02*
X-777879D01*
X-781181Y435831D02*
X-777879D01*
X-781181D02*
X-777879D01*
X-781181Y437812D02*
X-777879Y437152D01*
X-780521Y431869D02*
X-762690D01*
X-780521D02*
X-762690D01*
X-781181Y433190D02*
X-762030D01*
X-778540Y431208D02*
X-764011D01*
X-777879Y433850D02*
X-764671Y435171D01*
Y433850D02*
X-762030Y433190D01*
X-764671Y436492D02*
X-761369Y435831D01*
X-764671Y436492D02*
X-761369D01*
X-764671D02*
X-761369D01*
X-764671Y433850D02*
X-761369Y434510D01*
X-750803Y431208D02*
X-746841D01*
X-750803D02*
X-746841D01*
X-750803Y432529D02*
X-746841D01*
X-750803D02*
X-746841D01*
X-750803Y433850D02*
X-746841D01*
X-750803Y436492D02*
X-746841Y437152D01*
X-750803Y435171D02*
X-746841Y435831D01*
X-750803Y435171D02*
X-746841D01*
X-750803Y437812D02*
X-746841Y437152D01*
X-750803Y435171D02*
X-746841D01*
X-736274Y433850D02*
X-732972D01*
X-736274Y435831D02*
X-732972D01*
X-736274D02*
X-732972D01*
X-781181Y437812D02*
X-777879D01*
X-781181D02*
X-777879D01*
X-781181Y441775D02*
X-777879Y442435D01*
X-781181Y441775D02*
X-777879D01*
X-781181Y443096D02*
X-777879Y442435D01*
X-781181Y441775D02*
X-777879D01*
X-781181Y440454D02*
X-777879D01*
X-781181D02*
X-777879D01*
X-781181Y439133D02*
X-777879D01*
X-764671Y437812D02*
X-761369D01*
X-764671D02*
X-761369D01*
X-764671Y439794D02*
X-761369D01*
X-764671Y441114D02*
X-761369Y441775D01*
X-764671Y441114D02*
X-761369Y440454D01*
X-764671Y439794D02*
X-761369Y440454D01*
X-764671Y439794D02*
X-761369D01*
X-764671Y443096D02*
X-761369D01*
X-764671D02*
X-761369D01*
X-750803Y437812D02*
X-746841D01*
X-750803D02*
X-746841D01*
X-750803Y444416D02*
X-746841Y443756D01*
X-750803Y441114D02*
X-746841Y441775D01*
X-750803Y442435D02*
X-746841D01*
X-750803D02*
X-746841Y441775D01*
X-750803Y439794D02*
X-746841D01*
X-750803D02*
X-746841D01*
X-750803D02*
X-746841Y439133D01*
X-750803Y442435D02*
X-746841D01*
X-736274Y437812D02*
X-732972D01*
X-736274D02*
X-732972D01*
X-736274Y443756D02*
X-732972D01*
X-736274Y437812D02*
X-732972Y438473D01*
X-736274Y433850D02*
X-732972D01*
X-736274Y435831D02*
X-732972Y435171D01*
X-735614Y432529D02*
X-717123D01*
X-735614D02*
X-717123D01*
X-735614D02*
X-717123Y431869D01*
X-733633Y431208D02*
X-719104D01*
X-719764Y434510D02*
X-716462Y433850D01*
X-719764Y434510D02*
X-716462D01*
X-719764Y437152D02*
X-716462D01*
X-719764Y434510D02*
X-716462D01*
X-719764Y435831D02*
X-716462D01*
X-719764D02*
X-716462D01*
X-699292Y432529D02*
X-695990D01*
X-699292D02*
X-695990Y431869D01*
X-699292Y431208D02*
X-695990Y431869D01*
X-699292Y435831D02*
X-695990D01*
X-699292Y434510D02*
X-695990D01*
X-699292Y435831D02*
X-695990D01*
X-699292Y432529D02*
X-695990D01*
X-699292Y434510D02*
X-695990D01*
X-699292D02*
X-695990Y433850D01*
X-678819Y432529D02*
X-660328D01*
X-678819Y431208D02*
X-660328D01*
X-678819D02*
X-660328D01*
X-678819Y432529D02*
X-660328D01*
X-736274Y442435D02*
X-732972Y441775D01*
X-736274Y441114D02*
X-732972Y441775D01*
X-736274Y442435D02*
X-732972D01*
X-736274D02*
X-732972D01*
X-736274Y439794D02*
X-732972D01*
X-736274D02*
X-732972D01*
X-736274D02*
X-732972Y440454D01*
X-719764Y443096D02*
X-716462D01*
X-719764Y441114D02*
X-716462Y441775D01*
X-719764Y439794D02*
X-716462D01*
X-719764D02*
X-716462D01*
X-719764Y441114D02*
X-716462D01*
X-719764D02*
X-716462D01*
X-719764Y443096D02*
X-716462Y443756D01*
X-719764Y438473D02*
X-716462D01*
X-719764D02*
X-716462D01*
X-719764Y443096D02*
X-716462D01*
X-707217Y438473D02*
X-695990D01*
X-707217Y440454D02*
X-695990Y439794D01*
X-707217Y438473D02*
X-695990D01*
X-707217Y440454D02*
X-695990Y441114D01*
X-699292Y437812D02*
X-695990D01*
X-699292D02*
X-695990D01*
X-699292Y442435D02*
X-695990D01*
X-699292Y441114D02*
X-695990D01*
X-699292Y443756D02*
X-695990D01*
X-699292Y442435D02*
X-695990D01*
X-699292Y443756D02*
X-695990D01*
X-672876Y440454D02*
X-660328D01*
X-672876Y439133D02*
X-660328D01*
X-672876Y440454D02*
X-660328Y441114D01*
X-672876Y440454D02*
X-660328D01*
X-781181Y444416D02*
X-777879D01*
X-781181D02*
X-777879D01*
X-781181D02*
X-777879Y445077D01*
X-781181Y446398D02*
X-777879D01*
X-781181D02*
X-777879D01*
X-781181Y447718D02*
X-777879D01*
X-781181D02*
X-777879D01*
X-781181D02*
X-777879Y448379D01*
X-764671Y444416D02*
X-761369D01*
X-764671Y447058D02*
X-761369D01*
X-764671Y445737D02*
X-761369D01*
X-764671Y447058D02*
X-761369D01*
X-764671Y445737D02*
X-761369Y446398D01*
X-764671Y445737D02*
X-761369D01*
X-764671Y444416D02*
X-761369D01*
X-764671Y448379D02*
X-761369D01*
X-764671D02*
X-761369D01*
X-750803Y444416D02*
X-746841D01*
X-758728Y447058D02*
X-738916Y446398D01*
X-758728Y447058D02*
X-738916D01*
X-750803Y444416D02*
X-746841D01*
X-758728Y447058D02*
X-738916D01*
X-750803Y445737D02*
X-746841D01*
X-758728Y448379D02*
X-738916D01*
X-758728D02*
X-738916D01*
X-736274Y446398D02*
X-732972D01*
X-736274D02*
X-732972Y445737D01*
X-736274Y446398D02*
X-732972D01*
X-736274Y445077D02*
X-732972D01*
X-736274D02*
X-732972D01*
X-736274Y447718D02*
X-732972D01*
X-719764Y446398D02*
X-716462D01*
X-789767Y484701D02*
X-779861D01*
X-781181Y449039D02*
X-777879Y448379D01*
X-771936Y481399D02*
X-762030D01*
X-771936Y482720D02*
X-762030D01*
X-771936Y484701D02*
X-762030D01*
X-771936Y479418D02*
X-762030D01*
X-771936Y482720D02*
X-762030D01*
X-771936Y479418D02*
X-762030D01*
X-771936D02*
X-762030Y480738D01*
X-771936Y484701D02*
X-762030Y486022D01*
X-771936Y484701D02*
X-762030D01*
X-771936Y481399D02*
X-762030D01*
X-771936D02*
X-762030Y480738D01*
X-771936Y477436D02*
X-761369Y478097D01*
X-771936Y477436D02*
X-760709D01*
X-771936D02*
X-760709D01*
X-771936Y476116D02*
X-759388D01*
X-771936D02*
X-711179Y475455D01*
X-771275Y474134D02*
X-711179Y473474D01*
X-771275Y474134D02*
X-711179D01*
X-771275D02*
X-711179D01*
X-769955Y472153D02*
X-711179D01*
X-769955D02*
X-711179D01*
X-768634Y470832D02*
X-711179D01*
X-768634D02*
X-711179D01*
X-768634D02*
X-711179Y471493D01*
X-767313Y469512D02*
X-711179Y468851D01*
X-765332D02*
X-711179D01*
X-764011Y468191D02*
X-711179D01*
X-760049Y467530D02*
X-711179Y468191D01*
X-736274Y449039D02*
X-732972D01*
X-736274D02*
X-732972D01*
X-719764Y447718D02*
X-716462D01*
X-719764D02*
X-716462D01*
X-719764Y446398D02*
X-716462D01*
X-719764Y445077D02*
X-716462D01*
X-719764D02*
X-716462D01*
X-719764Y447718D02*
X-716462Y447058D01*
X-719764Y449039D02*
X-716462D01*
X-713821Y447058D02*
X-695990D01*
X-713821D02*
X-695990Y445737D01*
X-713821Y447058D02*
X-695990D01*
X-713821Y449039D02*
X-695990D01*
X-713821D02*
X-695990D01*
X-699292Y445077D02*
X-695990D01*
X-699292D02*
X-695990D01*
X-699292D02*
X-695990Y445737D01*
X-678819Y449039D02*
X-660989D01*
X-678819D02*
X-660989D01*
X-678819Y447718D02*
X-660328D01*
X-678819Y446398D02*
X-660328D01*
X-678819Y447718D02*
X-660328D01*
X-696650Y468191D02*
X-640516D01*
X-693348Y467530D02*
X-643818D01*
X-697971Y468851D02*
X-639195D01*
X-699292Y469512D02*
X-637875D01*
X-699292D02*
X-637875D01*
X-700613Y470832D02*
X-636554D01*
X-701273Y472153D02*
X-635893D01*
X-701273D02*
X-635893D01*
X-701933Y474134D02*
X-635233Y473474D01*
X-701933Y474134D02*
X-635233D01*
X-701933D02*
X-635233D01*
X-701273Y472153D02*
X-635233Y473474D01*
X-721085Y476116D02*
X-711179D01*
X-721085D02*
X-711179D01*
X-721085Y485361D02*
X-711179D01*
X-721085D02*
X-711179D01*
X-721085D02*
X-711179Y484701D01*
X-721085Y484040D02*
X-711179Y484701D01*
X-721085Y482720D02*
X-711179Y482059D01*
X-721085Y482720D02*
X-711179D01*
X-721085D02*
X-711179D01*
X-721085Y478097D02*
X-711179D01*
X-721085Y479418D02*
X-711179D01*
X-721085Y480738D02*
X-711179Y482059D01*
X-721085Y478097D02*
X-711179D01*
X-721085Y479418D02*
X-711179D01*
X-721085Y480738D02*
X-711179D01*
X-721085D02*
X-711179D01*
X-703254Y484701D02*
X-693348Y484040D01*
X-703254Y482720D02*
X-693348D01*
X-703254Y484701D02*
X-693348D01*
X-703254Y482720D02*
X-693348D01*
X-703254Y484701D02*
X-693348D01*
X-703254Y481399D02*
X-693348D01*
X-703254D02*
X-693348D01*
X-702594Y475455D02*
X-693348Y476116D01*
X-702594Y477436D02*
X-693348Y476116D01*
X-702594Y477436D02*
X-693348D01*
X-702594D02*
X-693348D01*
X-702594Y480078D02*
X-693348Y480738D01*
X-702594Y480078D02*
X-693348D01*
X-702594Y478757D02*
X-693348D01*
X-702594Y480078D02*
X-693348D01*
X-702594Y475455D02*
X-634573D01*
X-890808Y493946D02*
X-880902D01*
X-890808Y486022D02*
X-880902D01*
X-890808Y493946D02*
X-880902Y493286D01*
X-890808Y486022D02*
X-880902D01*
X-890808Y491965D02*
X-880902D01*
X-890808Y489324D02*
X-880902Y488663D01*
X-890808Y486022D02*
X-880902Y486682D01*
X-890808Y493946D02*
X-880902D01*
X-890808Y488003D02*
X-880902D01*
X-890808Y489324D02*
X-880902D01*
X-890808Y488003D02*
X-880902D01*
X-890808Y489324D02*
X-880902D01*
X-890808Y495267D02*
X-880902D01*
X-890808D02*
X-880902D01*
X-890808Y490644D02*
X-880902Y491305D01*
X-890808Y491965D02*
X-880902Y491305D01*
X-890808Y491965D02*
X-880902D01*
X-890808Y496588D02*
X-880902D01*
X-890808D02*
X-880902D01*
X-890808Y497909D02*
X-880902D01*
X-848542Y493946D02*
X-838636D01*
X-848542Y485361D02*
X-838636D01*
X-848542Y490644D02*
X-838636D01*
X-848542Y488003D02*
X-838636D01*
X-848542Y490644D02*
X-838636D01*
X-848542Y493946D02*
X-838636D01*
X-848542Y489324D02*
X-838636D01*
X-848542Y486682D02*
X-838636D01*
X-848542D02*
X-838636D01*
X-848542Y496588D02*
X-838636D01*
X-890808Y499230D02*
X-880902D01*
X-890808D02*
X-880902D01*
X-890808Y500550D02*
X-880902Y499890D01*
X-890808Y500550D02*
X-880902D01*
X-890808D02*
X-880902D01*
X-890808Y503852D02*
X-880902D01*
X-890808Y506494D02*
X-880902Y505834D01*
X-890808Y505173D02*
X-880902D01*
X-890808Y507815D02*
X-880902D01*
X-890808Y509136D02*
X-880902D01*
X-890808Y502532D02*
X-880902D01*
X-890808Y509136D02*
X-880902D01*
X-890808Y507815D02*
X-880902D01*
X-890808Y505173D02*
X-880902D01*
X-890808Y502532D02*
X-880902Y501871D01*
X-890808Y506494D02*
X-880902D01*
X-890808D02*
X-880902D01*
X-890808Y502532D02*
X-880902D01*
X-848542Y500550D02*
X-838636D01*
X-848542D02*
X-838636D01*
X-848542Y504513D02*
X-838636Y505834D01*
X-848542Y506494D02*
X-838636D01*
X-848542Y501871D02*
X-838636D01*
X-848542Y506494D02*
X-838636D01*
X-848542Y501871D02*
X-838636D01*
X-848542Y504513D02*
X-838636D01*
X-848542D02*
X-838636D01*
X-848542Y506494D02*
X-838636Y505834D01*
X-848542Y509136D02*
X-838636D01*
X-848542D02*
X-838636D01*
X-848542Y491965D02*
X-838636Y491305D01*
X-848542Y496588D02*
X-838636D01*
X-848542Y488003D02*
X-838636D01*
X-848542Y495267D02*
X-838636D01*
X-848542D02*
X-838636D01*
X-848542Y491965D02*
X-838636D01*
X-848542D02*
X-838636D01*
X-848542Y496588D02*
X-838636Y497248D01*
X-789767Y493286D02*
X-779861D01*
X-789767D02*
X-779861D01*
X-789767Y487342D02*
X-779861Y486682D01*
X-789767Y488663D02*
X-779861D01*
X-789767Y491965D02*
X-779861D01*
X-789767Y488663D02*
X-779861D01*
X-789767Y489984D02*
X-779861D01*
X-789767Y487342D02*
X-779861D01*
X-789767Y494607D02*
X-779861D01*
X-789767Y493286D02*
X-779861Y493946D01*
X-789767Y486022D02*
X-779861Y485361D01*
X-789767Y495928D02*
X-779861D01*
X-789767Y491965D02*
X-779861D01*
X-789767Y489984D02*
X-779861D01*
X-789767Y487342D02*
X-779861D01*
X-789767Y494607D02*
X-779861D01*
X-771936Y488003D02*
X-762030D01*
X-771936Y489984D02*
X-762030D01*
X-771936D02*
X-762030Y489324D01*
X-771936Y489984D02*
X-762030D01*
X-771936Y486682D02*
X-762030Y486022D01*
X-771936Y486682D02*
X-762030D01*
X-771936Y488003D02*
X-762030D01*
X-771936Y486682D02*
X-762030D01*
X-848542Y498569D02*
X-838636D01*
X-848542D02*
X-838636D01*
X-848542D02*
X-838636Y499230D01*
X-848542Y503192D02*
X-838636D01*
X-848542D02*
X-838636D01*
X-848542Y507815D02*
X-838636D01*
X-848542D02*
X-838636D01*
X-789767Y497248D02*
X-779861D01*
X-789767D02*
X-779861D01*
X-789767Y498569D02*
X-779861D01*
X-789767D02*
X-779861D01*
X-789767Y499890D02*
X-779861D01*
X-789767D02*
X-779861D01*
X-789767D02*
X-779861Y500550D01*
X-789767Y501871D02*
X-779861Y500550D01*
X-789767Y501871D02*
X-779861D01*
X-789767D02*
X-779861D01*
X-789767Y503852D02*
X-779861D01*
X-789767D02*
X-779861D01*
X-789767Y505173D02*
X-779861D01*
X-789767D02*
X-779861D01*
X-789767Y508475D02*
X-779861D01*
X-789767D02*
X-779861Y507815D01*
X-789767Y508475D02*
X-779861D01*
X-789767Y506494D02*
X-779861Y507815D01*
X-789767Y506494D02*
X-779861D01*
X-789767D02*
X-779861D01*
X-789767Y509796D02*
X-779861D01*
X-789767D02*
X-779861D01*
X-771936Y507815D02*
X-761369Y507154D01*
X-771936Y507815D02*
X-761369D01*
X-771936Y509796D02*
X-761369D01*
X-890808Y515079D02*
X-880902D01*
X-890808D02*
X-880902D01*
X-890808D02*
X-880902Y514419D01*
X-890808Y513758D02*
X-880902Y514419D01*
X-890808Y513758D02*
X-880902Y513098D01*
X-890808Y512438D02*
X-880902D01*
X-890808Y510456D02*
X-880902D01*
X-890808D02*
X-880902D01*
X-890808Y512438D02*
X-880902D01*
X-890808Y516400D02*
X-880902D01*
X-890808D02*
X-880902D01*
X-890808Y517721D02*
X-880902D01*
X-890808D02*
X-880902D01*
X-917884Y519042D02*
X-853825D01*
X-917884Y520362D02*
X-853825D01*
X-917884D02*
X-853825D01*
X-917884Y521683D02*
X-853825D01*
X-917884D02*
X-853825D01*
X-917884D02*
X-853825Y522344D01*
X-917884Y523664D02*
X-853825D01*
X-917884D02*
X-853825D01*
X-917884Y524985D02*
X-853825D01*
X-917884D02*
X-853825D01*
X-917884D02*
X-853825Y525646D01*
X-917884Y526306D02*
X-853825Y525646D01*
X-848542Y510456D02*
X-838636D01*
X-848542Y511777D02*
X-838636D01*
X-848542D02*
X-838636D01*
X-848542Y514419D02*
X-838636D01*
X-848542Y513098D02*
X-838636D01*
X-848542Y514419D02*
X-838636Y513758D01*
X-848542Y517721D02*
X-838636D01*
X-848542D02*
X-838636Y518381D01*
X-848542Y517721D02*
X-838636D01*
X-848542Y513098D02*
X-838636D01*
X-848542Y516400D02*
X-838636D01*
X-848542D02*
X-838636D01*
X-848542Y514419D02*
X-838636D01*
X-847882Y519042D02*
X-780521D01*
X-789767Y517721D02*
X-780521D01*
X-789767D02*
X-780521D01*
X-789767D02*
X-780521Y518381D01*
X-789767Y511117D02*
X-779861Y511777D01*
X-789767Y512438D02*
X-779861D01*
X-789767D02*
X-779861Y511777D01*
X-789767Y512438D02*
X-779861D01*
X-789767Y514419D02*
X-779861D01*
X-789767Y515740D02*
X-779861D01*
X-789767Y514419D02*
X-779861D01*
X-789767Y515740D02*
X-779861D01*
X-789767Y514419D02*
X-779861Y513758D01*
X-771936Y515079D02*
X-761369D01*
X-771936Y512438D02*
X-761369D01*
X-771936Y515079D02*
X-761369D01*
X-771936D02*
X-761369Y516400D01*
X-771936Y512438D02*
X-761369D01*
X-771936Y517060D02*
X-761369Y516400D01*
X-847882Y519042D02*
X-780521D01*
X-847221Y521683D02*
X-781181D01*
X-847221D02*
X-781181D01*
X-847882Y520362D02*
X-780521D01*
X-847882D02*
X-780521D01*
X-846561Y523004D02*
X-781842D01*
X-846561D02*
X-781842D01*
X-845240Y524325D02*
X-783163D01*
X-839957Y526306D02*
X-788446D01*
X-843919Y524985D02*
X-784483D01*
X-842599Y525646D02*
X-785804D01*
X-771275Y491305D02*
X-761369D01*
X-771275D02*
X-761369D01*
X-770615Y493286D02*
X-760709Y492626D01*
X-770615Y493286D02*
X-760049D01*
X-770615D02*
X-760049D01*
X-769955Y501871D02*
X-758067Y502532D01*
X-769955Y501871D02*
X-711179D01*
X-769294Y494607D02*
X-711179D01*
X-769294D02*
X-711179D01*
X-768634Y500550D02*
X-711179Y501211D01*
X-768634Y500550D02*
X-711179D01*
X-768634D02*
X-711179D01*
X-767313Y496588D02*
X-711179Y495928D01*
X-767313Y496588D02*
X-711179D01*
X-765992Y499230D02*
X-711179D01*
X-765332Y497248D02*
X-711179Y496588D01*
X-764671Y498569D02*
X-711179Y497909D01*
X-763351D02*
X-711179D01*
X-721085Y488003D02*
X-711179D01*
X-721085Y493286D02*
X-711179D01*
X-721085D02*
X-711179D01*
X-721085Y488003D02*
X-711179D01*
X-721085Y486682D02*
X-711179D01*
X-721085Y489984D02*
X-711179D01*
X-721085Y491305D02*
X-711179D01*
X-721085Y489984D02*
X-711179D01*
X-721085Y491305D02*
X-711179Y490644D01*
X-721085Y491305D02*
X-711179D01*
X-721085Y493286D02*
X-711179Y492626D01*
X-721085Y503192D02*
X-711179Y501871D01*
X-721085Y503192D02*
X-711179D01*
X-721085D02*
X-711179D01*
X-771936Y511117D02*
X-761369D01*
X-771936Y513758D02*
X-761369D01*
X-771936Y507815D02*
X-761369D01*
X-771936Y509796D02*
X-761369D01*
X-771936Y511117D02*
X-761369Y511777D01*
X-771936Y511117D02*
X-761369D01*
X-771275Y505834D02*
X-761369D01*
X-771936Y517060D02*
X-760709D01*
X-771936D02*
X-760709D01*
X-771275Y505834D02*
X-761369D01*
X-771275Y503852D02*
X-760709D01*
X-771275D02*
X-760709D01*
X-771275D02*
X-760709Y504513D01*
X-771275Y505834D02*
X-760709Y504513D01*
X-771275Y518381D02*
X-758067D01*
X-771275Y519702D02*
X-711179Y521023D01*
X-771275Y519702D02*
X-711179D01*
X-771275D02*
X-711179D01*
X-770615Y521683D02*
X-711179Y521023D01*
X-721085Y504513D02*
X-711179D01*
X-721085D02*
X-711179D01*
X-721085Y516400D02*
X-711179D01*
X-721085Y517721D02*
X-711179D01*
X-721085Y511777D02*
X-711179D01*
X-721085Y514419D02*
X-711179D01*
X-721085Y517721D02*
X-711179Y518381D01*
X-721085Y506494D02*
X-711179D01*
X-721085Y507815D02*
X-711179D01*
X-721085Y509136D02*
X-711179D01*
X-721085D02*
X-711179D01*
X-721085D02*
X-711179Y509796D01*
X-721085Y507815D02*
X-711179D01*
X-721085Y486682D02*
X-711179D01*
X-703254Y489324D02*
X-693348Y489984D01*
X-703254Y486022D02*
X-693348D01*
X-703254Y493946D02*
X-693348Y493286D01*
X-703254Y491965D02*
X-693348D01*
X-703254Y489324D02*
X-693348D01*
X-703254Y491965D02*
X-693348Y491305D01*
X-703254Y491965D02*
X-693348D01*
X-703254Y490644D02*
X-693348Y491305D01*
X-703254Y486022D02*
X-693348D01*
X-703254Y489324D02*
X-693348D01*
X-703254Y487342D02*
X-693348D01*
X-703254D02*
X-693348D01*
X-703254Y493946D02*
X-693348D01*
X-703254D02*
X-693348D01*
X-703254Y495928D02*
X-693348Y495267D01*
X-703254Y495928D02*
X-693348D01*
X-703254D02*
X-693348D01*
X-703254Y497248D02*
X-693348D01*
X-703254D02*
X-693348D01*
X-703254Y498569D02*
X-693348D01*
X-703254Y499890D02*
X-693348D01*
X-703254D02*
X-693348D01*
X-703254D02*
X-693348Y500550D01*
X-703254Y501871D02*
X-693348D01*
X-703254D02*
X-693348D01*
X-703254D02*
X-693348Y502532D01*
X-703254Y503852D02*
X-693348Y502532D01*
X-703254Y503852D02*
X-693348D01*
X-703254D02*
X-693348D01*
X-703254Y505834D02*
X-693348D01*
X-703254D02*
X-693348D01*
X-721085Y506494D02*
X-711179D01*
X-721085Y516400D02*
X-711179D01*
X-721085Y517721D02*
X-711179D01*
X-721085Y510456D02*
X-711179D01*
X-721085Y513098D02*
X-711179Y513758D01*
X-721085Y510456D02*
X-711179D01*
X-721085Y514419D02*
X-711179Y513758D01*
X-721085Y514419D02*
X-711179D01*
X-721085Y511777D02*
X-711179D01*
X-703254Y505834D02*
X-693348Y506494D01*
X-703254Y507815D02*
X-693348D01*
X-703254D02*
X-693348D01*
X-703254Y509136D02*
X-693348D01*
X-703254D02*
X-693348D01*
X-703254Y511777D02*
X-693348Y512438D01*
X-703254Y510456D02*
X-693348Y511117D01*
X-703254Y513098D02*
X-693348Y512438D01*
X-703254Y513098D02*
X-693348D01*
X-703254D02*
X-693348D01*
X-703254Y511777D02*
X-693348Y511117D01*
X-703254Y509136D02*
X-693348Y509796D01*
X-702594Y516400D02*
X-693348D01*
X-702594D02*
X-693348Y517060D01*
X-702594Y516400D02*
X-693348D01*
X-702594Y515079D02*
X-693348D01*
X-702594Y518381D02*
X-693348D01*
X-702594D02*
X-693348D01*
X-702594Y515079D02*
X-693348D01*
X-701933Y521023D02*
X-635893Y521683D01*
X-701933Y519702D02*
X-635233D01*
X-701933D02*
X-635233D01*
X-701933D02*
X-635233Y520362D01*
X-758067Y697350D02*
X-751463D01*
X-759388Y698010D02*
X-750143D01*
X-770615Y521683D02*
X-711179D01*
X-770615D02*
X-711179D01*
X-769294Y523664D02*
X-711179D01*
X-769294D02*
X-711179D01*
X-769294D02*
X-711179Y524985D01*
X-767313D02*
X-711179D01*
X-765992Y525646D02*
X-711179Y526306D01*
X-746841Y698670D02*
X-729010D01*
X-763351Y526306D02*
X-711179D01*
X-732972Y635932D02*
X-724392D01*
X-732972D02*
X-724392D01*
X-732972Y638574D02*
X-724387D01*
X-732972D02*
X-724387D01*
X-732972Y639895D02*
X-724387D01*
X-732972Y637253D02*
X-724387D01*
X-732972Y638574D02*
X-724387Y637914D01*
X-732972Y648480D02*
X-724387Y649140D01*
X-732972Y648480D02*
X-724387D01*
X-732972Y642536D02*
X-724387D01*
X-732972D02*
X-724387D01*
X-732972Y641216D02*
X-724387D01*
X-732972Y639895D02*
X-724387D01*
X-732972Y637253D02*
X-724387D01*
X-732972Y650461D02*
X-724387D01*
X-732972Y652442D02*
X-724387D01*
X-732972D02*
X-724387D01*
X-732972Y655084D02*
X-724387D01*
X-732972Y657726D02*
X-724387D01*
X-732972Y661028D02*
X-724387D01*
X-732972D02*
X-724387D01*
X-761369Y699331D02*
X-748822Y698670D01*
X-761369Y717162D02*
X-748822Y717822D01*
X-762690Y716501D02*
X-747501Y717162D01*
X-764671Y713199D02*
X-745520Y714520D01*
X-765332Y711878D02*
X-744199D01*
X-765992Y709897D02*
X-743539D01*
X-758067Y719143D02*
X-751463D01*
X-759388Y718482D02*
X-750143D01*
X-765992Y709897D02*
X-743539D01*
X-765992Y707916D02*
X-743539D01*
X-765332Y711878D02*
X-744199D01*
X-764671Y713199D02*
X-744859D01*
X-765992Y707916D02*
X-743539D01*
X-764671Y713199D02*
X-744859D01*
X-765992Y709897D02*
X-743539Y710558D01*
X-763351Y715180D02*
X-745520D01*
X-763351D02*
X-745520Y714520D01*
X-761369Y717162D02*
X-747501D01*
X-763351Y715180D02*
X-745520D01*
X-765992Y706595D02*
X-742878D01*
X-765992D02*
X-742878D01*
X-765992D02*
X-741557Y705935D01*
X-765332Y704614D02*
X-741557Y705935D01*
X-765332Y704614D02*
X-739576D01*
X-765332Y703954D02*
X-738255D01*
X-764671Y702633D02*
X-736274D01*
X-764671D02*
X-736274D01*
X-763351Y701312D02*
X-734293D01*
X-763351D02*
X-734293D01*
X-762690Y699991D02*
X-732972Y700652D01*
X-762690Y699991D02*
X-731651D01*
X-761369Y699331D02*
X-730331D01*
X-732972Y629328D02*
X-713821D01*
X-732972D02*
X-711839Y628668D01*
X-732972Y628008D02*
X-709858D01*
X-732972Y626687D02*
X-707877Y627347D01*
X-732972Y626687D02*
X-705235D01*
X-732972Y626026D02*
X-703254D01*
X-732972Y625366D02*
X-701273D01*
X-732972D02*
X-699292Y624706D01*
X-732972Y624045D02*
X-696650D01*
X-732972Y623385D02*
X-695329D01*
X-732972D02*
X-692688Y622724D01*
X-732972Y622064D02*
X-690707D01*
X-732972D02*
X-688725Y621404D01*
X-732972Y620083D02*
X-686744Y620743D01*
X-732972Y620083D02*
X-684103D01*
X-732972Y618762D02*
X-682782Y619422D01*
X-732972Y618762D02*
X-680140D01*
X-732312Y617441D02*
X-678159Y618102D01*
X-732312Y617441D02*
X-676178D01*
X-731651Y616120D02*
X-674197Y616781D01*
X-731651Y616120D02*
X-671555D01*
X-730991Y615460D02*
X-669574D01*
X-730991D02*
X-667593Y614800D01*
X-716092Y638122D02*
X-663365Y621610D01*
X-694009Y526306D02*
X-643158D01*
X-698631Y524985D02*
X-638535D01*
X-701273Y522344D02*
X-635893D01*
X-701273D02*
X-635893D01*
X-701273D02*
X-635893Y521683D01*
X-698631Y524985D02*
X-638535D01*
X-697311Y525646D02*
X-639856D01*
X-699952Y523664D02*
X-637214D01*
X-732972Y659046D02*
X-724387D01*
X-732972Y655084D02*
X-724387Y655744D01*
X-732972Y659046D02*
X-724387Y659707D01*
X-732972Y656405D02*
X-724387Y655744D01*
X-732972Y647159D02*
X-724387D01*
X-732972Y645838D02*
X-724387D01*
X-732972D02*
X-724387D01*
X-732972Y659046D02*
X-724387D01*
X-732972Y644518D02*
X-724387D01*
X-732972Y650461D02*
X-724387D01*
X-732972D02*
X-724387Y651122D01*
X-732972Y644518D02*
X-724387D01*
X-732972D02*
X-724387Y643197D01*
X-732972Y642536D02*
X-724387Y643197D01*
X-732972Y657726D02*
X-724387D01*
X-732972Y652442D02*
X-724387Y651122D01*
X-732972Y648480D02*
X-724387D01*
X-732972Y653763D02*
X-724387D01*
X-732972Y655084D02*
X-724387D01*
X-732972Y634612D02*
X-724292D01*
X-732972D02*
X-724292D01*
X-732972Y633291D02*
X-723066D01*
X-732972D02*
X-723066D01*
X-732972Y631970D02*
X-721085D01*
X-732972Y631310D02*
X-719764D01*
X-732972D02*
X-717783Y630649D01*
X-732972Y629989D02*
X-715802D01*
X-716092Y638122D02*
Y653755D01*
X-726368Y699331D02*
X-602213Y700652D01*
X-718443Y703954D02*
X-610138Y705274D01*
X-697971Y715841D02*
X-629950Y716501D01*
X-664291Y433850D02*
X-660328D01*
X-664291D02*
X-660328D01*
X-664291Y435831D02*
X-660328Y435171D01*
X-664291Y435831D02*
X-660328D01*
X-664291D02*
X-660328D01*
X-655045Y432529D02*
X-651743D01*
X-655045Y433850D02*
X-651743D01*
X-655045Y431208D02*
X-651743D01*
X-655045Y432529D02*
X-651743D01*
X-655045Y431208D02*
X-651743D01*
X-655045Y435171D02*
X-651743D01*
X-655045D02*
X-651743D01*
X-655045Y436492D02*
X-651743D01*
X-655045D02*
X-651743D01*
X-637214Y432529D02*
X-633912D01*
X-637214Y431208D02*
X-633912D01*
X-637214Y433850D02*
X-633912D01*
X-637214D02*
X-633912D01*
X-637214Y431208D02*
X-633912D01*
X-637214Y432529D02*
X-633912D01*
X-637214Y435831D02*
X-633912D01*
X-637214D02*
X-633912D01*
X-637214D02*
X-633912Y436492D01*
X-622685Y431208D02*
X-619383D01*
X-622685D02*
X-619383D01*
X-622685Y433850D02*
X-619383D01*
X-622685Y432529D02*
X-619383D01*
X-622685D02*
X-619383D01*
X-622685Y435171D02*
X-619383D01*
X-622685Y436492D02*
X-619383D01*
X-664291Y437152D02*
X-660328D01*
X-664291Y438473D02*
X-660328D01*
X-664291D02*
X-660328D01*
X-664291Y441775D02*
X-660328D01*
X-664291D02*
X-660328D01*
X-664291Y443096D02*
X-660328D01*
X-664291D02*
X-660328D01*
X-655045Y437812D02*
X-651743Y438473D01*
X-655045Y439133D02*
X-651743Y438473D01*
X-655045Y443756D02*
X-651743D01*
X-655045D02*
X-651743Y443096D01*
X-655045Y442435D02*
X-651743D01*
X-655045D02*
X-651743D01*
X-655045Y443756D02*
X-651743D01*
Y437152D02*
X-637214Y438473D01*
X-655045Y439133D02*
X-633912Y438473D01*
X-655045Y439794D02*
X-633912Y440454D01*
X-655045Y441114D02*
X-633912Y440454D01*
X-655045Y441114D02*
X-633912Y441775D01*
X-637214Y437152D02*
X-633912D01*
X-637214D02*
X-633912D01*
X-637214Y438473D02*
X-633912D01*
X-637214Y441775D02*
X-633912D01*
X-637214Y443096D02*
X-633912D01*
X-637214D02*
X-633912Y442435D01*
X-637214Y443096D02*
X-633912D01*
X-622685Y436492D02*
X-619383Y437152D01*
X-622685Y438473D02*
X-619383D01*
X-622685D02*
X-619383D01*
X-622685Y440454D02*
X-619383D01*
X-622685D02*
X-619383D01*
X-622685Y443756D02*
X-619383D01*
X-622685Y433850D02*
X-619383D01*
X-622685Y436492D02*
X-619383D01*
X-622685Y438473D02*
X-619383Y437152D01*
X-597590Y431869D02*
X-579099D01*
X-597590D02*
X-579099D01*
X-597590D02*
X-579099Y432529D01*
X-597590Y433190D02*
X-579099Y432529D01*
X-582401Y433850D02*
X-579099Y434510D01*
X-582401Y435171D02*
X-579099Y434510D01*
X-582401Y435171D02*
X-579099D01*
X-582401D02*
X-579099D01*
X-582401Y437152D02*
X-579099Y436492D01*
X-582401Y437152D02*
X-579099D01*
X-582401D02*
X-579099D01*
X-569853D02*
X-567212D01*
X-569853D02*
X-567212D01*
X-569193Y435831D02*
X-565891D01*
X-569193D02*
X-565891D01*
X-568533Y433850D02*
X-562589D01*
X-568533D02*
X-562589D01*
X-567872Y432529D02*
X-563249D01*
X-567872D02*
X-563249D01*
X-567212Y431208D02*
X-563910D01*
X-567212D02*
X-563910D01*
X-565231Y435171D02*
X-561929D01*
X-565231D02*
X-561929D01*
X-564570Y436492D02*
X-561268D01*
X-564570D02*
X-561268D01*
X-622685Y441775D02*
X-619383D01*
X-622685D02*
X-619383D01*
X-622685D02*
X-619383Y442435D01*
X-622685Y443756D02*
X-619383Y444416D01*
X-622685Y443756D02*
X-619383D01*
X-590986Y440454D02*
X-579099D01*
X-590986D02*
X-579099Y441114D01*
X-590986Y440454D02*
X-579099D01*
X-590986Y439133D02*
X-579099Y438473D01*
X-582401D02*
X-579099D01*
X-582401Y443096D02*
X-579099D01*
X-582401Y441775D02*
X-579099Y441114D01*
X-582401Y444416D02*
X-579099Y443756D01*
X-582401Y443096D02*
X-579099D01*
X-573816Y444416D02*
X-571174D01*
X-573816D02*
X-571174D01*
X-573155Y442435D02*
X-569853D01*
X-573155D02*
X-569853Y443096D01*
X-573155Y442435D02*
X-569853D01*
X-572495Y441114D02*
X-569193D01*
X-572495D02*
X-569193D01*
X-571835Y439794D02*
X-568533D01*
X-571835D02*
X-568533D01*
X-571174Y438473D02*
X-567872D01*
X-571174D02*
X-567872D01*
X-563249D02*
X-560608Y437812D01*
X-563249Y438473D02*
X-559947D01*
X-563249D02*
X-559947D01*
X-562589Y440454D02*
X-559287Y439794D01*
X-562589Y440454D02*
X-558627D01*
X-562589D02*
X-558627D01*
X-561929Y441775D02*
X-557966D01*
X-664291Y444416D02*
X-660328D01*
X-664291Y445737D02*
X-660328Y446398D01*
X-664291Y444416D02*
X-660328D01*
X-655045Y445077D02*
X-651743D01*
X-655045Y447058D02*
X-651743D01*
X-655045D02*
X-651743D01*
X-655045Y445077D02*
X-651743D01*
X-655045Y447058D02*
X-651743Y446398D01*
X-655045Y448379D02*
X-651743D01*
X-637214Y444416D02*
X-633912D01*
X-637214D02*
X-633912D01*
X-637214Y446398D02*
X-633912D01*
X-637214D02*
X-633912D01*
X-637214D02*
X-633912Y447058D01*
X-637214Y448379D02*
X-633912D01*
X-637214D02*
X-633912D01*
X-631931Y467530D02*
X-616081Y468191D01*
X-630610D02*
X-616081D01*
X-630610D02*
X-615421Y468851D01*
X-629289Y469512D02*
X-614100Y470172D01*
X-631271Y446398D02*
X-611459D01*
X-631271Y449039D02*
X-611459D01*
X-631271D02*
X-611459D01*
X-622685Y445737D02*
X-619383D01*
X-631271Y447718D02*
X-610798D01*
X-622685Y445737D02*
X-619383D01*
X-631271Y447718D02*
X-610798D01*
X-627969Y470832D02*
X-614100Y470172D01*
X-627969Y470832D02*
X-613440D01*
X-627969D02*
X-613440D01*
X-625327Y472814D02*
X-612119Y472153D01*
X-625327Y472814D02*
X-611459D01*
X-643818Y476116D02*
X-634573Y475455D01*
X-643818Y477436D02*
X-634573D01*
X-643818D02*
X-634573D01*
X-643818Y478757D02*
X-634573D01*
X-643818Y480078D02*
X-634573Y479418D01*
X-643818Y478757D02*
X-634573D01*
X-643818Y480078D02*
X-633912D01*
X-643818Y483380D02*
X-633912D01*
X-643818D02*
X-633912D01*
X-643818Y482059D02*
X-633912D01*
X-643818Y480078D02*
X-633912D01*
X-643818Y482059D02*
X-633912D01*
X-643818Y483380D02*
X-633912Y484040D01*
X-643818Y486022D02*
X-633912D01*
X-643818Y487342D02*
X-633912D01*
X-643818Y484701D02*
X-633912D01*
X-643818D02*
X-633912D01*
X-643818Y488663D02*
X-633912D01*
X-643818D02*
X-633912D01*
X-643818Y486022D02*
X-633912D01*
X-643818Y487342D02*
X-633912D01*
X-625327Y472814D02*
X-611459D01*
X-623346Y474795D02*
X-610138Y474134D01*
X-623346Y474795D02*
X-609477D01*
X-623346D02*
X-609477D01*
X-621365Y476116D02*
X-608157D01*
X-621365D02*
X-608157D01*
X-619383Y478097D02*
X-606175D01*
X-619383D02*
X-606175D01*
X-619383D02*
X-605515Y478757D01*
X-618063Y479418D02*
X-605515Y478757D01*
X-616742Y480078D02*
X-603534D01*
X-596930Y447718D02*
X-579099D01*
X-596930D02*
X-579099Y447058D01*
X-596930Y446398D02*
X-579099Y445737D01*
X-596930Y449039D02*
X-579099D01*
X-596930Y447718D02*
X-579099D01*
X-582401Y444416D02*
X-579099D01*
X-582401D02*
X-579099D01*
X-582401Y445737D02*
X-579099D01*
X-576457Y449039D02*
X-573155Y448379D01*
X-575797Y447718D02*
X-573155Y448379D01*
X-575797Y447718D02*
X-572495D01*
X-575797D02*
X-572495D01*
X-575137Y445737D02*
X-571835Y446398D01*
X-575137Y445737D02*
X-571174D01*
X-575137D02*
X-571174D01*
X-575797Y473474D02*
X-565891D01*
X-575797Y467530D02*
X-565891D01*
X-575797Y477436D02*
X-565891D01*
X-575797Y475455D02*
X-565891D01*
X-575797Y472153D02*
X-565891D01*
X-575797Y477436D02*
X-565891D01*
X-575797Y470832D02*
X-565891Y471493D01*
X-575797Y475455D02*
X-565891D01*
X-575797Y469512D02*
X-565891D01*
X-575797Y472153D02*
X-565891D01*
X-575797Y473474D02*
X-565891D01*
X-575797Y469512D02*
X-565891Y470172D01*
X-575797Y467530D02*
X-565891D01*
X-575797Y469512D02*
X-565891D01*
X-575797Y472153D02*
X-565891Y471493D01*
X-575797Y475455D02*
X-565891Y476116D01*
X-575797Y478757D02*
X-565891Y478097D01*
X-615421Y481399D02*
X-602213D01*
X-615421D02*
X-602213D01*
X-615421D02*
X-601553Y482059D01*
X-613440Y483380D02*
X-601553Y482059D01*
X-613440Y483380D02*
X-599571Y484040D01*
X-612119D02*
X-599571D01*
X-612119D02*
X-598911Y484701D01*
X-610138Y486022D02*
X-598911Y484701D01*
X-610138Y486022D02*
X-597590D01*
X-610138D02*
X-597590D01*
X-608817Y487342D02*
X-596269D01*
X-607496Y488003D02*
X-596269Y487342D01*
X-606175Y489324D02*
X-594288D01*
X-606175D02*
X-594288D01*
X-606175D02*
X-593628Y489984D01*
X-575797Y478757D02*
X-565891D01*
X-575797D02*
X-565891D01*
X-575797Y480078D02*
X-565891D01*
X-575797D02*
X-565891D01*
X-575797Y482059D02*
X-565891D01*
X-575797D02*
X-565891D01*
X-575797D02*
X-565891Y482720D01*
X-575797Y484040D02*
X-565891D01*
X-575797D02*
X-565891D01*
X-575797Y485361D02*
X-565891Y484701D01*
X-575797Y485361D02*
X-565891D01*
X-575797D02*
X-565891D01*
X-575797Y487342D02*
X-565891Y486682D01*
X-575797Y487342D02*
X-565891D01*
X-575797D02*
X-565891D01*
X-575797Y488663D02*
X-565891D01*
X-575797Y489984D02*
X-565891D01*
X-551362Y432529D02*
X-548060D01*
X-551362Y433850D02*
X-548060D01*
X-551362Y431208D02*
X-548060D01*
X-551362Y433850D02*
X-548060D01*
X-551362Y431208D02*
X-548060D01*
X-551362Y435171D02*
X-548060D01*
X-551362D02*
X-548060D01*
X-551362Y436492D02*
X-548060D01*
X-551362D02*
X-548060D01*
X-551362D02*
X-548060Y437152D01*
X-544758Y431208D02*
X-540135D01*
X-543437Y432529D02*
X-538815D01*
X-543437D02*
X-538815D01*
X-543437D02*
X-538154Y433190D01*
X-541456Y433850D02*
X-537494D01*
X-541456D02*
X-537494D01*
X-540135Y435171D02*
X-536173D01*
X-540135D02*
X-536173D01*
X-538154Y437152D02*
X-534852Y436492D01*
X-538154Y437152D02*
X-534192D01*
X-538154D02*
X-534192D01*
X-528248Y431869D02*
X-524946D01*
X-528248D02*
X-524946Y431208D01*
X-528248Y433850D02*
X-524946Y433190D01*
X-528248Y433850D02*
X-524946D01*
X-528248D02*
X-524946D01*
X-528248Y431869D02*
X-524946D01*
X-528248Y435831D02*
X-524946D01*
X-528248D02*
X-524946D01*
X-528248Y437152D02*
X-524946D01*
X-561929Y441775D02*
X-557966D01*
X-560608Y443096D02*
X-557306D01*
X-560608D02*
X-557306D01*
X-551362Y437812D02*
X-548060D01*
X-551362D02*
X-548060D01*
X-551362Y439794D02*
X-548060Y439133D01*
X-551362Y439794D02*
X-548060D01*
X-551362D02*
X-548060D01*
X-551362Y441775D02*
X-548060Y442435D01*
X-551362Y441775D02*
X-548060D01*
X-551362D02*
X-548060D01*
X-542777Y441114D02*
X-539475D01*
X-542777D02*
X-539475D01*
X-542777Y442435D02*
X-539475D01*
X-542777D02*
X-539475D01*
X-542777Y439794D02*
X-524946D01*
X-542777D02*
X-524946D01*
X-541456Y438473D02*
X-524946D01*
X-541456D02*
X-524946D01*
X-528248Y437152D02*
X-524946D01*
X-528248D02*
X-524946Y437812D01*
X-528248Y441114D02*
X-524946D01*
X-528248D02*
X-524946D01*
X-519663Y439133D02*
X-515701D01*
X-519663D02*
X-515701D01*
X-519663Y440454D02*
X-515701D01*
X-519663D02*
X-515701D01*
X-519003Y437152D02*
X-515701Y437812D01*
X-519003Y441775D02*
X-515701D01*
X-519003D02*
X-515701D01*
X-519003Y443096D02*
X-515701Y442435D01*
X-519003Y443096D02*
X-515701D01*
X-519003Y437152D02*
X-515701D01*
X-519003D02*
X-515701D01*
X-518342Y435171D02*
X-514380D01*
X-518342Y435831D02*
X-514380Y435171D01*
X-518342D02*
X-512399Y434510D01*
X-517021Y433850D02*
X-509757D01*
X-515701Y432529D02*
X-497870D01*
X-515701D02*
X-497870D01*
X-513719Y431869D02*
X-497870Y431208D01*
X-511078D02*
X-497870D01*
X-501172Y434510D02*
X-497870D01*
X-501172D02*
X-497870D01*
X-501172D02*
X-497870Y435831D01*
X-501172Y436492D02*
X-497870Y435831D01*
X-501172Y436492D02*
X-497870D01*
X-501172D02*
X-497870D01*
X-501172Y440454D02*
X-497870Y441114D01*
X-501172Y437812D02*
X-497870D01*
X-501172D02*
X-497870D01*
X-501172Y440454D02*
X-497870D01*
X-501172D02*
X-497870D01*
X-501172Y442435D02*
X-497870D01*
X-501172D02*
X-497870D01*
X-501172Y439133D02*
X-497870D01*
X-501172Y442435D02*
X-497870Y441114D01*
X-559947Y445077D02*
X-555985D01*
X-559947D02*
X-555985D01*
X-559287Y446398D02*
X-555985Y445737D01*
X-559287Y446398D02*
X-555325D01*
X-559287D02*
X-555325D01*
X-551362Y443756D02*
X-548060D01*
X-551362D02*
X-548060D01*
X-551362D02*
X-548060Y444416D01*
X-551362Y445737D02*
X-548060D01*
X-551362D02*
X-548060D01*
X-551362Y447058D02*
X-548060D01*
X-551362D02*
X-548060D01*
X-551362D02*
X-548060Y447718D01*
X-542777Y443756D02*
X-539475Y444416D01*
X-542777Y445077D02*
X-539475Y444416D01*
X-542777Y445077D02*
X-539475Y445737D01*
X-542777Y446398D02*
X-539475Y445737D01*
X-542777Y446398D02*
X-538154D01*
X-542777Y447058D02*
X-524946Y447718D01*
X-528248Y443096D02*
X-524946D01*
X-528248D02*
X-524946D01*
X-528248D02*
X-524946Y443756D01*
X-528248Y444416D02*
X-524946Y445077D01*
X-528248Y445737D02*
X-524946Y445077D01*
X-528248Y445737D02*
X-524946D01*
X-528248D02*
X-524946D01*
X-519003Y443096D02*
X-515701D01*
X-518342Y445077D02*
X-513719D01*
X-518342Y444416D02*
X-513719Y445077D01*
X-518342D02*
X-512399Y445737D01*
X-517021Y446398D02*
X-497870D01*
X-517021D02*
X-497870D01*
X-557966Y447718D02*
X-554664D01*
X-557966D02*
X-554664D01*
X-557306Y449039D02*
X-554004D01*
X-551362Y448379D02*
X-548060Y447718D01*
X-542117Y448379D02*
X-524946Y447718D01*
X-542117Y448379D02*
X-524946Y449039D01*
X-539475D02*
X-524946D01*
X-548060Y489324D02*
X-493247D01*
X-548060D02*
X-493247D01*
X-548060D02*
X-493247Y489984D01*
X-515701Y447718D02*
X-497870D01*
X-513719Y448379D02*
X-497870Y447718D01*
X-509097Y449039D02*
X-497870D01*
X-511738Y475455D02*
X-493247D01*
X-511738Y484040D02*
X-493247D01*
X-511738Y467530D02*
X-493247D01*
X-511738Y480078D02*
X-493247D01*
X-511738Y470832D02*
X-493247D01*
X-511738Y480078D02*
X-493247D01*
X-511738Y478097D02*
X-493247Y478757D01*
X-511738Y481399D02*
X-493247D01*
X-511738Y472814D02*
X-493247Y473474D01*
X-511738Y472814D02*
X-493247D01*
X-511738D02*
X-493247D01*
X-511738Y482720D02*
X-493247D01*
X-511738Y486022D02*
X-493247D01*
X-511738Y476776D02*
X-493247D01*
X-511738Y486022D02*
X-493247Y486682D01*
X-511738Y467530D02*
X-493247D01*
X-511738Y468851D02*
X-493247D01*
X-511738D02*
X-493247D01*
X-511738Y484040D02*
X-493247D01*
X-511738Y470832D02*
X-493247Y471493D01*
X-511738Y474134D02*
X-493247D01*
X-511738D02*
X-493247D01*
X-511738Y476776D02*
X-493247D01*
X-511738Y470832D02*
X-493247D01*
X-511738Y478097D02*
X-493247D01*
X-511738D02*
X-493247D01*
X-501172Y445077D02*
X-497870D01*
X-501172Y443756D02*
X-497870D01*
X-501172D02*
X-497870D01*
X-501172Y445077D02*
X-497870D01*
X-480699Y480738D02*
X-408716D01*
X-480039Y479418D02*
X-408716D01*
X-480039D02*
X-408716D01*
X-478718Y478097D02*
X-408716D01*
X-478718D02*
X-408716D01*
X-476737Y476116D02*
X-408716D01*
X-476737D02*
X-408716D01*
X-476737D02*
X-408716Y476776D01*
X-475416Y474795D02*
X-408716D01*
X-475416D02*
X-408716D01*
X-472775Y472814D02*
X-408716Y473474D01*
X-472775Y472814D02*
X-408716Y472153D01*
X-471454D02*
X-408716D01*
X-470133Y471493D02*
X-408716Y470832D01*
X-468812D02*
X-408716D01*
X-467491Y470172D02*
X-408716D01*
X-465510Y469512D02*
X-408716D01*
X-462869Y468851D02*
X-408716Y469512D01*
X-459567Y468191D02*
X-408716Y467530D01*
X-452963D02*
X-408716D01*
X-511738Y481399D02*
X-493247Y480738D01*
X-511738Y481399D02*
X-493247D01*
X-511738Y482720D02*
X-493247D01*
X-511738Y486022D02*
X-493247D01*
X-511738Y487342D02*
X-493247D01*
X-511738D02*
X-493247D01*
X-484662Y489984D02*
X-464850D01*
X-484001Y488003D02*
X-464189Y488663D01*
X-484001Y488003D02*
X-463529D01*
X-484001D02*
X-463529D01*
X-484001Y486682D02*
X-462208D01*
X-484001D02*
X-462208D01*
X-482681Y484701D02*
X-460887Y485361D01*
X-482681Y484701D02*
X-459567D01*
X-482020Y483380D02*
X-458246Y484040D01*
X-482020Y483380D02*
X-456265D01*
X-482020Y482720D02*
X-453623D01*
X-481360Y482059D02*
X-445698D01*
X-481360D02*
X-408716Y481399D01*
X-480699Y480738D02*
X-408716D01*
X-427207Y482059D02*
X-408716Y482720D01*
X-427207Y483380D02*
X-408716Y482720D01*
X-427207Y483380D02*
X-408716D01*
X-427207D02*
X-408716D01*
X-427207Y484701D02*
X-408716D01*
X-427207D02*
X-408716D01*
X-427207Y486682D02*
X-408716Y486022D01*
X-427207Y486682D02*
X-408716D01*
X-427207Y489324D02*
X-408716D01*
X-427207Y486682D02*
X-408716D01*
X-427207Y488003D02*
X-408716D01*
X-427207Y489324D02*
X-408716D01*
X-684103Y587063D02*
X-643818Y586402D01*
X-691367Y591025D02*
X-636554Y590365D01*
X-695990Y593667D02*
X-631931Y593006D01*
X-682121Y585742D02*
X-645139D01*
X-666932Y577157D02*
X-660328D01*
X-686744Y588384D02*
X-640516D01*
X-688065Y589044D02*
X-639195D01*
X-672876Y580459D02*
X-653724D01*
X-679480Y584421D02*
X-647120D01*
X-674857Y581780D02*
X-651743D01*
X-684103Y587063D02*
X-642497D01*
X-676178Y582440D02*
X-650422D01*
X-690046Y590365D02*
X-636554D01*
X-671555Y579798D02*
X-655045D01*
X-671555D02*
X-655045D01*
X-669574Y578478D02*
X-657026D01*
X-679480Y584421D02*
X-647120D01*
X-674857Y581780D02*
X-651743D01*
X-668253Y577817D02*
X-658347D01*
X-693348Y592346D02*
X-633252D01*
X-694669Y593006D02*
X-631931D01*
X-697971Y594988D02*
X-628629D01*
X-699952Y596308D02*
X-626648D01*
X-699952D02*
X-626648D01*
X-701273Y596969D02*
X-625327D01*
X-702594Y597629D02*
X-624006D01*
X-703915Y598290D02*
X-622685D01*
X-703915D02*
X-622685D01*
X-705896Y599610D02*
X-620704D01*
X-709198Y601592D02*
X-617402D01*
X-709198D02*
X-617402D01*
X-711839Y602912D02*
X-614761D01*
X-716462Y605554D02*
X-611459Y604894D01*
X-729010Y612818D02*
X-598911Y612158D01*
X-717783Y606214D02*
X-609477D01*
X-721085Y608196D02*
X-606175D01*
X-722406Y608856D02*
X-604855D01*
X-716092Y653755D02*
X-610992D01*
X-713821Y604233D02*
X-612779D01*
X-713821D02*
X-612779D01*
X-715141Y604894D02*
X-611459D01*
X-725047Y610837D02*
X-601553D01*
X-725047D02*
X-601553D01*
X-726368Y611498D02*
X-600232D01*
X-732972Y670273D02*
X-593628D01*
X-732972Y666971D02*
X-593628D01*
X-732972D02*
X-593628D01*
X-732972Y663669D02*
X-593628D01*
X-732972Y670273D02*
X-593628D01*
X-732972Y674236D02*
X-593628D01*
X-732972Y663669D02*
X-593628D01*
X-732972Y672915D02*
X-593628D01*
X-732972Y662348D02*
X-593628D01*
X-732972Y665650D02*
X-593628D01*
X-732972D02*
X-593628Y664990D01*
X-732972Y662348D02*
X-593628D01*
X-730331Y614139D02*
X-596269D01*
X-732972Y668952D02*
X-593628D01*
X-732972D02*
X-593628D01*
X-732972Y662348D02*
X-593628Y661688D01*
X-732972Y665650D02*
X-593628D01*
X-732972Y668952D02*
X-593628Y668292D01*
X-732972Y672915D02*
X-593628D01*
X-732972Y671594D02*
X-593628D01*
X-643818Y515740D02*
X-634573D01*
X-643818Y514419D02*
X-634573D01*
X-643818D02*
X-634573D01*
X-643818Y515740D02*
X-634573D01*
X-643818Y517721D02*
X-634573D01*
X-643818D02*
X-634573D01*
X-643818Y509136D02*
X-633912D01*
X-643818Y496588D02*
X-633912D01*
X-643818Y492626D02*
X-633912Y493286D01*
X-643818Y499230D02*
X-633912D01*
X-643818Y513098D02*
X-633912Y513758D01*
X-643818Y510456D02*
X-633912D01*
X-643818Y504513D02*
X-633912D01*
X-643818Y497909D02*
X-633912D01*
X-643818Y491305D02*
X-633912Y491965D01*
X-643818Y491305D02*
X-633912D01*
X-643818Y504513D02*
X-633912Y505173D01*
X-643818Y489984D02*
X-633912D01*
X-643818Y504513D02*
X-633912D01*
X-643818Y499230D02*
X-633912Y498569D01*
X-643818Y497909D02*
X-633912D01*
X-643818Y491305D02*
X-633912D01*
X-643818Y499230D02*
X-633912D01*
X-643818Y506494D02*
X-633912D01*
X-643818D02*
X-633912D01*
X-643818Y511777D02*
X-633912D01*
X-643818Y493946D02*
X-633912D01*
X-643818Y510456D02*
X-633912D01*
X-643818Y513098D02*
X-633912D01*
X-643818Y509136D02*
X-633912Y509796D01*
X-643818Y509136D02*
X-633912D01*
X-643818Y507815D02*
X-633912D01*
X-677499Y583100D02*
X-649101D01*
X-707217Y600271D02*
X-619383D01*
X-710519Y602252D02*
X-616081D01*
X-727689Y612158D02*
X-598911D01*
X-732972Y674236D02*
X-593628D01*
X-732972D02*
X-593628Y674896D01*
X-732972Y675556D02*
X-593628D01*
X-732972D02*
X-593628D01*
X-732972Y677538D02*
X-593628D01*
X-732972D02*
X-593628D01*
X-732972D02*
X-593628Y678198D01*
X-732972Y678858D02*
X-593628Y678198D01*
X-732972Y680179D02*
X-593628D01*
X-732972D02*
X-593628D01*
X-732972D02*
X-593628Y680840D01*
X-732972Y681500D02*
X-593628Y680840D01*
X-732972Y682821D02*
X-593628D01*
X-732972D02*
X-593628D01*
X-732972D02*
X-593628Y683481D01*
X-732972Y684142D02*
X-593628Y684802D01*
X-732972Y685462D02*
X-593628Y684802D01*
X-732972Y685462D02*
X-593628D01*
X-680801Y585082D02*
X-645139Y585742D01*
X-685423Y587723D02*
X-640516Y588384D01*
X-688065Y589044D02*
X-637875Y589704D01*
X-691367Y591025D02*
X-634573Y591686D01*
X-695990Y593667D02*
X-629950Y594327D01*
X-717783Y606214D02*
X-608157Y606875D01*
X-719764Y607535D02*
X-606175Y608196D01*
X-722406Y608856D02*
X-603534Y609516D01*
X-727689Y612158D02*
X-597590Y613479D01*
X-643818Y517721D02*
X-634573Y518381D01*
X-745520Y698010D02*
X-582401Y696689D01*
X-695990Y717162D02*
X-631931Y717822D01*
X-734293Y691406D02*
X-592967Y690746D01*
X-691367Y719803D02*
X-635893D01*
X-732972Y689425D02*
X-593628D01*
X-738255Y693387D02*
X-588345D01*
X-724387Y700652D02*
X-602213D01*
X-736935Y692727D02*
X-589665D01*
X-726368Y699331D02*
X-600232D01*
X-732972Y689425D02*
X-593628D01*
X-727689Y698670D02*
X-598911D01*
X-722406Y701972D02*
X-604194D01*
X-722406D02*
X-604194D01*
X-721085Y702633D02*
X-605515D01*
X-719764Y703293D02*
X-606836D01*
X-718443Y703954D02*
X-608157D01*
X-716462Y705274D02*
X-610138D01*
X-715141Y705935D02*
X-611459D01*
X-713160Y707256D02*
X-613440D01*
X-713160D02*
X-613440D01*
X-710519Y708576D02*
X-616081D01*
X-709198Y709237D02*
X-617402D01*
X-709198D02*
X-617402D01*
X-707217Y710558D02*
X-619383D01*
X-705896Y711218D02*
X-620704D01*
X-704575Y711878D02*
X-622025D01*
X-704575D02*
X-622025D01*
X-702594Y713199D02*
X-624006D01*
X-699952Y714520D02*
X-626648D01*
X-697971Y715841D02*
X-628629D01*
X-686744Y722445D02*
X-639856D01*
X-685423Y723105D02*
X-641177D01*
X-683442Y724426D02*
X-644479Y725086D01*
X-671555Y768673D02*
X-656366Y769994D01*
X-670895Y731690D02*
X-657026Y732351D01*
X-674857Y762069D02*
X-652403D01*
X-674857D02*
X-652403D01*
X-673536Y755465D02*
X-653724Y754804D01*
X-674857Y760088D02*
X-652403D01*
X-674857D02*
X-652403D01*
X-673536Y755465D02*
X-653724D01*
X-673536D02*
X-653724D01*
X-669574Y769994D02*
X-657687Y770654D01*
X-678819Y727068D02*
X-647781D01*
X-678819D02*
X-647781D01*
X-677499Y727728D02*
X-649101D01*
X-667593Y739615D02*
X-659007D01*
X-667593D02*
X-659007D01*
X-674197Y757446D02*
X-652403D01*
X-676178Y728388D02*
X-650422D01*
X-674197Y763390D02*
X-652403D01*
X-671555Y752823D02*
X-655045D01*
X-667593Y771314D02*
X-659007D01*
X-670234Y752163D02*
X-656366D01*
X-670234D02*
X-656366D01*
X-669574Y732351D02*
X-657026D01*
X-674197Y763390D02*
X-652403Y764050D01*
X-668253Y733011D02*
X-658347D01*
X-673536Y765371D02*
X-653064D01*
X-672876Y730370D02*
X-653724D01*
X-668253Y750842D02*
X-658347D01*
X-668253D02*
X-658347D01*
X-665611Y771975D02*
X-660989D01*
X-674197Y763390D02*
X-652403D01*
X-693348Y718482D02*
X-633252D01*
X-688065Y721784D02*
X-638535D01*
X-701273Y713860D02*
X-625327D01*
X-674857Y729049D02*
X-651743D01*
X-680801Y725747D02*
X-645799D01*
X-682121Y725086D02*
X-644479D01*
X-688065Y721784D02*
X-638535D01*
X-711839Y707916D02*
X-614761D01*
X-674857Y729049D02*
X-651743D01*
X-732972Y685462D02*
X-593628D01*
X-732972Y686783D02*
X-593628D01*
X-732972D02*
X-593628D01*
X-732972Y688104D02*
X-593628D01*
X-699952Y714520D02*
X-626648D01*
X-694669Y717822D02*
X-631931D01*
X-667593Y734332D02*
X-659007D01*
X-667593D02*
X-659007D01*
X-667593D02*
X-659007Y734992D01*
X-667593Y736313D02*
X-659007Y734992D01*
X-683442Y724426D02*
X-642497Y723766D01*
X-740897Y695368D02*
X-585043D01*
X-670895Y731690D02*
X-655045Y731030D01*
X-742218Y696029D02*
X-583722D01*
X-743539Y696689D02*
X-582401D01*
X-734293Y691406D02*
X-591647D01*
X-740897Y695368D02*
X-585043D01*
X-745520Y698010D02*
X-580420D01*
X-691367Y719803D02*
X-634573Y719143D01*
X-690046Y720464D02*
X-635893Y719803D01*
X-732972Y689425D02*
X-592967Y690746D01*
X-735614Y692066D02*
X-589665Y692727D01*
X-738255Y693387D02*
X-587024Y694048D01*
X-667593Y736313D02*
X-659007D01*
X-667593D02*
X-659007D01*
X-667593Y738294D02*
X-659007D01*
X-667593D02*
X-659007D01*
X-667593D02*
X-659007Y738955D01*
X-667593Y741596D02*
X-659007D01*
X-667593D02*
X-659007D01*
X-667593D02*
X-659007Y742257D01*
X-667593Y742917D02*
X-659007Y742257D01*
X-667593Y744238D02*
X-659007Y743578D01*
X-667593Y744238D02*
X-659007D01*
X-667593D02*
X-659007D01*
X-667593Y745559D02*
X-659007D01*
X-667593D02*
X-659007D01*
X-667593Y747540D02*
X-659007D01*
X-667593D02*
X-659007D01*
X-667593Y748861D02*
X-659007D01*
X-667593D02*
X-659007D01*
X-667593D02*
X-659007Y749521D01*
X-672215Y754144D02*
X-654385D01*
X-672215D02*
X-654385D01*
X-674197Y757446D02*
X-652403D01*
X-674197Y758767D02*
X-652403Y758106D01*
X-674197Y758767D02*
X-652403D01*
X-674197D02*
X-652403D01*
X-672876Y766692D02*
X-653724Y767352D01*
X-671555Y768673D02*
X-655045D01*
X-673536Y765371D02*
X-653064D01*
X-673536D02*
X-653064Y766031D01*
X-671555Y768673D02*
X-655045D01*
X-672876Y766692D02*
X-653064Y766031D01*
X-669574Y769994D02*
X-656366D01*
X-643818Y493946D02*
X-633912Y493286D01*
X-643818Y493946D02*
X-633912D01*
X-643818Y495267D02*
X-633912D01*
X-643818Y496588D02*
X-633912D01*
X-625987Y498569D02*
X-565891D01*
X-625987D02*
X-613440D01*
X-625987Y499230D02*
X-614761Y499890D01*
X-625987Y500550D02*
X-614761Y499890D01*
X-625987Y500550D02*
X-615421D01*
X-625987D02*
X-615421D01*
X-643818D02*
X-633912D01*
X-643818D02*
X-633912D01*
X-625987Y502532D02*
X-616081D01*
X-643818D02*
X-633912D01*
X-625987D02*
X-616081D01*
X-643818D02*
X-633912D01*
X-643818D02*
X-633912Y503192D01*
X-625987Y503852D02*
X-616081Y503192D01*
X-625987Y503852D02*
X-616081D01*
X-625987D02*
X-616081D01*
X-625987Y505834D02*
X-616081Y505173D01*
X-625987Y505834D02*
X-616081Y506494D01*
X-625987Y507154D02*
X-616081Y506494D01*
X-625987Y507154D02*
X-616081D01*
X-625987D02*
X-616081D01*
X-643818Y507815D02*
X-633912D01*
X-625987Y509136D02*
X-616081Y508475D01*
X-625987Y509136D02*
X-616081D01*
X-625987D02*
X-616081D01*
X-625987Y511117D02*
X-616081Y510456D01*
X-625987Y511117D02*
X-616081D01*
X-625987D02*
X-616081D01*
X-575797Y489984D02*
X-565891D01*
X-617402Y490644D02*
X-565891Y491305D01*
X-620044D02*
X-565891D01*
X-621365Y491965D02*
X-565891Y492626D01*
X-623346Y493286D02*
X-565891Y492626D01*
X-623346Y493286D02*
X-565891D01*
X-623346D02*
X-565891D01*
X-624667Y494607D02*
X-565891D01*
X-625327Y495928D02*
X-565891D01*
X-625327D02*
X-565891D01*
X-625327Y497248D02*
X-565891D01*
X-625327D02*
X-565891D01*
X-575797Y498569D02*
X-565891D01*
X-575797Y499890D02*
X-565891Y499230D01*
X-575797Y499890D02*
X-565891D01*
X-575797D02*
X-565891D01*
X-575797Y501871D02*
X-565891D01*
X-575797D02*
X-565891D01*
X-575797D02*
X-565891Y503192D01*
X-575797Y503852D02*
X-565891Y503192D01*
X-575797Y503852D02*
X-565891D01*
X-575797D02*
X-565891D01*
X-575797Y505173D02*
X-565891D01*
X-575797D02*
X-565891D01*
X-575797Y506494D02*
X-565891D01*
X-575797D02*
X-565891D01*
X-575797Y507815D02*
X-565891D01*
X-575797D02*
X-565891D01*
X-575797Y509136D02*
X-565891D01*
X-575797D02*
X-565891D01*
X-575797Y510456D02*
X-565891D01*
X-575797D02*
X-565891D01*
X-625987Y512438D02*
X-616081D01*
X-625987D02*
X-616081D01*
X-643818Y513098D02*
X-633912D01*
X-625987Y513758D02*
X-616081D01*
X-625987D02*
X-616081D01*
X-625987Y515740D02*
X-615421D01*
X-625987D02*
X-615421D01*
X-625987D02*
X-615421Y516400D01*
X-625987Y517721D02*
X-614761D01*
X-625987D02*
X-614761D01*
X-625987D02*
X-613440Y518381D01*
X-625987Y519042D02*
X-565891Y518381D01*
X-625987Y519042D02*
X-565891Y520362D01*
X-625327Y521023D02*
X-565891Y520362D01*
X-625327Y521023D02*
X-565891D01*
X-625327D02*
X-565891D01*
X-624667Y522344D02*
X-565891D01*
X-624667D02*
X-565891D01*
X-623346Y523664D02*
X-565891D01*
X-623346D02*
X-565891D01*
X-622025Y524985D02*
X-565891D01*
X-659007Y614800D02*
X-596269Y614139D01*
X-657026Y615460D02*
X-595609D01*
X-655045Y616120D02*
X-595609Y615460D01*
X-653064Y616781D02*
X-594949D01*
X-651083Y617441D02*
X-594288D01*
X-648441Y618102D02*
X-594288Y617441D01*
X-646460Y618762D02*
X-593628Y619422D01*
X-644479D02*
X-593628D01*
X-642497Y620083D02*
X-593628Y620743D01*
X-639856D02*
X-593628D01*
X-637875Y621404D02*
X-593628Y622064D01*
X-575797Y511777D02*
X-565891D01*
X-575797Y513098D02*
X-565891D01*
X-575797D02*
X-565891D01*
X-557966Y513758D02*
X-493247Y513098D01*
X-557966Y513758D02*
X-493247D01*
X-557966D02*
X-493247D01*
X-575797Y514419D02*
X-565891D01*
X-575797D02*
X-565891D01*
X-575797Y515740D02*
X-565891D01*
X-575797D02*
X-565891D01*
X-557966D02*
X-493247D01*
X-575797Y517060D02*
X-565891Y516400D01*
X-557966Y517060D02*
X-493247Y516400D01*
X-575797Y517060D02*
X-565891D01*
X-575797D02*
X-565891D01*
X-557966D02*
X-493247Y517721D01*
X-557966Y518381D02*
X-493247Y517721D01*
X-575797Y518381D02*
X-565891D01*
X-557966D02*
X-493247D01*
X-557966D02*
X-493247D01*
X-557966Y519702D02*
X-493247D01*
X-557966D02*
X-493247D01*
X-557966Y521683D02*
X-493247D01*
X-557966D02*
X-493247D01*
X-557966Y523004D02*
X-493247D01*
X-557966D02*
X-493247D01*
X-557966D02*
X-493247Y523664D01*
X-557966Y524985D02*
X-493247D01*
X-620704Y525646D02*
X-565891D01*
X-618063Y526306D02*
X-565891Y525646D01*
X-557966Y526306D02*
X-493247D01*
X-557966D02*
X-493247D01*
X-548060Y491305D02*
X-493247D01*
X-548060D02*
X-493247D01*
X-548060D02*
X-493247Y491965D01*
X-548060Y492626D02*
X-493247Y491965D01*
X-485322Y493286D02*
X-466171D01*
X-548060Y493946D02*
X-493247Y493286D01*
X-548060Y493946D02*
X-493247D01*
X-548060D02*
X-493247D01*
X-485322Y494607D02*
X-466171D01*
X-485322D02*
X-466171D01*
X-548060Y495267D02*
X-493247D01*
X-548060D02*
X-493247D01*
X-485322Y495928D02*
X-466171D01*
X-485322D02*
X-466171D01*
X-548060Y496588D02*
X-493247D01*
X-548060D02*
X-493247D01*
X-485322Y497248D02*
X-466171D01*
X-485322D02*
X-466171D01*
X-548060Y497909D02*
X-493247D01*
X-548060D02*
X-493247D01*
X-485322Y498569D02*
X-466171D01*
X-548060Y499230D02*
X-493247D01*
X-485322Y499890D02*
X-466171D01*
X-485322D02*
X-466171D01*
X-548060Y500550D02*
X-493247D01*
X-548060D02*
X-493247D01*
X-485322Y501211D02*
X-466171D01*
X-485322D02*
X-466171D01*
X-548060Y501871D02*
X-493247Y502532D01*
Y501211D02*
Y503192D01*
X-511738Y502532D02*
X-493247D01*
X-511738D02*
X-493247Y503192D01*
X-484662Y489984D02*
X-464850D01*
X-484662D02*
X-464850Y490644D01*
X-427207D02*
X-408716D01*
X-427207D02*
X-408716D01*
X-484662Y491965D02*
X-464850Y490644D01*
X-484662Y491965D02*
X-465510D01*
X-484662D02*
X-465510D01*
X-427207D02*
X-408716D01*
X-427207D02*
X-408716D01*
X-427207D02*
X-408716Y493286D01*
X-427207Y493946D02*
X-408716Y493286D01*
X-427207Y493946D02*
X-408716D01*
X-427207D02*
X-408716D01*
X-427207Y495267D02*
X-408716D01*
X-427207D02*
X-408716D01*
X-427207Y496588D02*
X-408716D01*
X-427207D02*
X-408716D01*
X-427207Y497909D02*
X-408716D01*
X-427207D02*
X-408716D01*
X-485322Y498569D02*
X-466171D01*
X-427207Y499890D02*
X-408716D01*
X-427207D02*
X-408716D01*
X-427207D02*
X-408716Y500550D01*
X-427207Y501211D02*
X-408716D01*
X-427207D02*
X-408716D01*
X-484662Y502532D02*
X-466171D01*
X-484662D02*
X-466171D01*
X-427207D02*
X-408716D01*
X-427207D02*
X-408716D01*
X-484662Y503852D02*
X-465510D01*
X-484662D02*
X-465510D01*
X-511738D02*
X-493247Y504513D01*
X-511738Y505173D02*
X-493247Y504513D01*
X-511738Y505173D02*
X-493247D01*
X-511738D02*
X-493247D01*
X-484662D02*
X-464850D01*
X-484662D02*
X-464850D01*
X-484001Y506494D02*
X-464850Y505834D01*
X-484001Y506494D02*
X-464189D01*
X-484001D02*
X-464189D01*
X-511738Y507154D02*
X-493247Y506494D01*
X-511738Y507154D02*
X-493247D01*
X-511738D02*
X-493247D01*
X-484001Y507815D02*
X-462869D01*
X-484001D02*
X-462869D01*
X-511738Y508475D02*
X-493247D01*
X-483341Y509136D02*
X-460887Y509796D01*
X-511738D02*
X-493247D01*
X-511738D02*
X-493247D01*
X-482681D02*
X-460887D01*
X-482681D02*
X-459567Y510456D01*
X-511738Y511117D02*
X-493247D01*
X-511738D02*
X-493247D01*
X-482681D02*
X-458246D01*
X-482681D02*
X-455604Y511777D01*
X-511738Y512438D02*
X-493247D01*
X-511738D02*
X-493247D01*
X-481360Y513098D02*
X-451642Y512438D01*
X-481360Y513098D02*
X-408716D01*
X-480039Y514419D02*
X-408716D01*
X-480039D02*
X-408716D01*
X-557966Y515740D02*
X-493247D01*
X-557966Y524985D02*
X-493247D01*
X-427207Y504513D02*
X-408716Y503852D01*
X-427207Y504513D02*
X-408716D01*
X-427207D02*
X-408716D01*
X-427207Y506494D02*
X-408716D01*
X-427207D02*
X-408716D01*
X-427207D02*
X-408716Y507154D01*
X-427207Y508475D02*
X-408716D01*
X-427207D02*
X-408716D01*
X-427207D02*
X-408716Y509136D01*
X-427207Y510456D02*
X-408716D01*
X-427207D02*
X-408716D01*
X-427207Y511777D02*
X-408716D01*
X-427207D02*
X-408716D01*
X-427207D02*
X-408716Y513098D01*
X-479379Y515740D02*
X-408716D01*
X-479379D02*
X-408716D01*
X-478058Y517060D02*
X-408716D01*
X-478058D02*
X-408716D01*
X-476737Y518381D02*
X-408716D01*
X-476737D02*
X-408716D01*
X-475416Y519702D02*
X-408716D01*
X-475416D02*
X-408716D01*
X-474095Y520362D02*
X-408716D01*
X-474095D02*
X-408716D01*
X-472114Y521683D02*
X-408716D01*
X-470793Y522344D02*
X-408716Y521683D01*
X-469473Y523004D02*
X-408716D01*
X-467491Y523664D02*
X-408716Y524325D01*
X-466171D02*
X-408716D01*
X-463529Y524985D02*
X-408716Y525646D01*
X-460887D02*
X-408716D01*
X-456265Y526306D02*
X-408716D01*
X-635893Y622064D02*
X-593628D01*
X-633912Y622724D02*
X-593628D01*
X-631931Y623385D02*
X-593628Y622724D01*
X-629950Y624045D02*
X-593628D01*
X-627308Y624706D02*
X-593628Y624045D01*
X-625327Y625366D02*
X-593628D01*
X-623346Y626026D02*
X-593628D01*
X-621365Y626687D02*
X-593628Y626026D01*
X-618723Y627347D02*
X-593628Y628008D01*
X-617402D02*
X-593628D01*
X-614761Y628668D02*
X-593628D01*
X-612779Y629328D02*
X-593628Y628668D01*
X-663365Y621610D02*
X-610992Y637884D01*
X-610798Y629989D02*
X-593628Y630649D01*
X-608817D02*
X-593628D01*
X-606836Y631310D02*
X-593628Y631970D01*
X-610992Y637884D02*
Y653755D01*
X-605515Y631970D02*
X-593628D01*
X-604194Y632630D02*
X-593628D01*
X-602873Y633951D02*
X-593628D01*
X-602873D02*
X-593628D01*
X-602873D02*
X-593628Y634612D01*
X-602873Y635272D02*
X-593628Y634612D01*
X-602873Y636593D02*
X-593628D01*
X-602873D02*
X-593628D01*
X-602873D02*
X-593628Y637253D01*
X-602873Y638574D02*
X-593628D01*
X-602873D02*
X-593628D01*
X-602873D02*
X-593628Y639895D01*
X-602873Y640555D02*
X-593628Y639895D01*
X-602873Y640555D02*
X-593628Y641216D01*
X-602873Y641876D02*
X-593628Y641216D01*
X-602873Y641876D02*
X-593628D01*
X-602873D02*
X-593628D01*
X-602873Y647159D02*
X-593628D01*
X-602873Y643857D02*
X-593628D01*
X-602873D02*
X-593628Y643197D01*
X-602873Y647159D02*
X-593628Y646499D01*
X-602873Y647159D02*
X-593628D01*
X-602873Y645838D02*
X-593628D01*
X-602873Y643857D02*
X-593628D01*
X-602873Y645838D02*
X-593628D01*
X-602873Y648480D02*
X-593628Y649140D01*
X-602873Y651122D02*
X-593628D01*
X-602873Y657065D02*
X-593628D01*
X-602873Y649801D02*
X-593628D01*
X-602873D02*
X-593628D01*
X-602873D02*
X-593628Y649140D01*
X-602873Y652442D02*
X-593628D01*
X-602873Y657065D02*
X-593628D01*
X-602873D02*
X-593628Y657726D01*
X-602873Y653763D02*
X-593628D01*
X-602873Y651122D02*
X-593628D01*
X-602873Y659046D02*
X-593628D01*
X-602873Y655084D02*
X-593628D01*
X-602873D02*
X-593628D01*
X-602873Y652442D02*
X-593628D01*
X-602873Y655084D02*
X-593628Y655744D01*
X-602873Y660367D02*
X-593628D01*
X-602873D02*
X-593628D01*
X-602873D02*
X-593628Y659707D01*
X-602873Y659046D02*
X-593628D01*
X-596930Y698670D02*
X-579099D01*
X-595609Y699331D02*
X-564570D01*
X-594288Y699991D02*
X-564570Y699331D01*
X-594288Y699991D02*
X-562589Y701312D01*
X-592307D02*
X-562589D01*
X-590986Y701972D02*
X-562589D01*
X-589005Y703293D02*
X-561929D01*
X-589005D02*
X-561929D01*
X-587684Y703954D02*
X-561268D01*
X-586363Y704614D02*
X-561268D01*
X-586363D02*
X-561268D01*
X-584382Y705935D02*
X-560608D01*
X-579099Y698670D02*
X-565231D01*
X-572495Y696689D02*
X-571174D01*
X-575797Y697350D02*
X-567872D01*
X-577118Y698010D02*
X-566551D01*
X-583061Y706595D02*
X-560608Y705935D01*
X-583061Y706595D02*
X-560608Y707256D01*
X-578439Y717162D02*
X-566551Y717822D01*
X-581741Y713860D02*
X-562589D01*
X-581741D02*
X-562589D01*
X-573816Y719143D02*
X-570514D01*
X-582401Y711878D02*
X-561929Y712539D01*
X-583061Y708576D02*
X-560608D01*
X-583061D02*
X-560608D01*
X-583061D02*
X-560608Y709237D01*
X-583061Y709897D02*
X-560608D01*
X-583061D02*
X-560608D01*
X-582401Y711878D02*
X-561268D01*
X-582401D02*
X-561268D01*
X-578439Y717162D02*
X-565231D01*
X-580420Y715180D02*
X-563249D01*
X-580420D02*
X-563249D01*
X-575797Y718482D02*
X-567872D01*
X-578439Y717162D02*
X-565231D01*
X-580420Y715180D02*
X-562589Y714520D01*
D74*
X-1114950Y517600D02*
D03*
X-43900Y368600D02*
D03*
X-1335000Y530500D02*
D03*
X-1315000Y520500D02*
D03*
X-1335000Y510500D02*
D03*
X-1315000Y500500D02*
D03*
X-1335000Y490500D02*
D03*
X-1315000Y480500D02*
D03*
X-1335000Y470500D02*
D03*
X-1315000Y460500D02*
D03*
X-1335000Y450500D02*
D03*
X-1315000Y440500D02*
D03*
X-1335000Y430500D02*
D03*
X-1315000Y400500D02*
D03*
X-1335000Y390500D02*
D03*
X-1315000Y380500D02*
D03*
X-1335000Y370500D02*
D03*
X-1315000Y360500D02*
D03*
X-1335000Y350500D02*
D03*
X-1315000Y340500D02*
D03*
X-1335000Y330500D02*
D03*
X-1315000Y320500D02*
D03*
X-1335000Y310500D02*
D03*
X-1315000Y300500D02*
D03*
X-1335000Y290500D02*
D03*
X-1315000Y280500D02*
D03*
X-1335000Y270500D02*
D03*
X-1315000Y260500D02*
D03*
X-1335000Y250500D02*
D03*
X-1315000Y240500D02*
D03*
X-1335000Y230500D02*
D03*
X-1315000Y220500D02*
D03*
X-1335000Y210500D02*
D03*
X-1315000Y200500D02*
D03*
X-1360000Y530500D02*
D03*
X-1380000Y520500D02*
D03*
X-1360000Y510500D02*
D03*
X-1380000Y500500D02*
D03*
X-1360000Y490500D02*
D03*
X-1380000Y480500D02*
D03*
X-1360000Y470500D02*
D03*
X-1380000Y460500D02*
D03*
X-1360000Y450500D02*
D03*
X-1380000Y440500D02*
D03*
X-1360000Y430500D02*
D03*
X-1380000Y400500D02*
D03*
X-1360000Y390500D02*
D03*
X-1380000Y380500D02*
D03*
X-1360000Y370500D02*
D03*
X-1380000Y360500D02*
D03*
X-1360000Y350500D02*
D03*
X-1380000Y340500D02*
D03*
X-1360000Y330500D02*
D03*
X-1380000Y320500D02*
D03*
X-1360000Y310500D02*
D03*
X-1380000Y300500D02*
D03*
X-1360000Y290500D02*
D03*
X-1380000Y280500D02*
D03*
X-1360000Y270500D02*
D03*
X-1380000Y260500D02*
D03*
X-1360000Y250500D02*
D03*
X-1380000Y240500D02*
D03*
X-1360000Y230500D02*
D03*
X-1380000Y220500D02*
D03*
X-1360000Y210500D02*
D03*
X-1380000Y200500D02*
D03*
D75*
X-1114950Y717600D02*
D03*
X-731900Y368600D02*
D03*
X-235500Y-21400D02*
D03*
D76*
X-1120850Y820700D02*
D03*
D77*
X-1195350D02*
D03*
D78*
X-998500Y768200D02*
D03*
X-779600Y958400D02*
D03*
Y933000D02*
D03*
X-998800Y932900D02*
D03*
Y882100D02*
D03*
Y907500D02*
D03*
Y958300D02*
D03*
X-760700Y161600D02*
D03*
X-779500Y907600D02*
D03*
Y882200D02*
D03*
D79*
X-973100Y768200D02*
D03*
X-947700D02*
D03*
X-805000Y958400D02*
D03*
X-830400D02*
D03*
X-855800D02*
D03*
X-805000Y933000D02*
D03*
X-830400D02*
D03*
X-855800D02*
D03*
X-973400Y932900D02*
D03*
X-948000D02*
D03*
X-973400Y882100D02*
D03*
X-948000D02*
D03*
X-973400Y907500D02*
D03*
X-948000D02*
D03*
X-973400Y958300D02*
D03*
X-948000D02*
D03*
X-786100Y161600D02*
D03*
X-811500D02*
D03*
X-804900Y907600D02*
D03*
X-830300D02*
D03*
X-855700D02*
D03*
X-804900Y882200D02*
D03*
X-830300D02*
D03*
X-855700D02*
D03*
D80*
X-690000Y87623D02*
D03*
D81*
X-720700Y60523D02*
D03*
X-589300D02*
D03*
X-720700Y117323D02*
D03*
X-589300D02*
D03*
X-1248700Y106300D02*
D03*
Y49500D02*
D03*
X-1117300Y106300D02*
D03*
Y49500D02*
D03*
D82*
X-705900Y938600D02*
D03*
X-69900D02*
D03*
D83*
X-1419000Y0D02*
D03*
X-1411971Y16971D02*
D03*
Y-16971D02*
D03*
X-1395000Y24000D02*
D03*
Y-24000D02*
D03*
X-1378029Y16971D02*
D03*
Y-16971D02*
D03*
X-1371000Y0D02*
D03*
X-1414000Y950000D02*
D03*
X-1406971Y966971D02*
D03*
Y933029D02*
D03*
X-1390000Y974000D02*
D03*
Y926000D02*
D03*
X-1373029Y966971D02*
D03*
Y933029D02*
D03*
X-1366000Y950000D02*
D03*
X-24000Y0D02*
D03*
X-16971Y16971D02*
D03*
Y-16971D02*
D03*
X0Y24000D02*
D03*
Y-24000D02*
D03*
X16971Y16971D02*
D03*
Y-16971D02*
D03*
X24000Y0D02*
D03*
X-24000Y950000D02*
D03*
X-16971Y966971D02*
D03*
Y933029D02*
D03*
X0Y974000D02*
D03*
Y926000D02*
D03*
X16971Y966971D02*
D03*
Y933029D02*
D03*
X24000Y950000D02*
D03*
D84*
X-1395000Y0D02*
D03*
X-1390000Y950000D02*
D03*
X0Y0D02*
D03*
Y950000D02*
D03*
D85*
X-1347500Y414000D02*
D03*
Y182500D02*
D03*
D86*
X-1218000Y69500D02*
D03*
D87*
X-1193000D02*
D03*
X-1173000D02*
D03*
X-1148000D02*
D03*
X-1143000Y84500D02*
D03*
X-1163000D02*
D03*
X-1183000D02*
D03*
X-1203000D02*
D03*
X-1223000D02*
D03*
X-1218000Y101500D02*
D03*
X-1193000D02*
D03*
X-1173000D02*
D03*
X-1148000D02*
D03*
X-1143000Y116500D02*
D03*
X-1163000D02*
D03*
X-1183000D02*
D03*
X-1203000D02*
D03*
X-1223000D02*
D03*
D88*
X-991050Y65100D02*
D03*
X-876750D02*
D03*
D89*
X-870650Y31300D02*
D03*
X-896050Y16100D02*
D03*
X-971750Y31300D02*
D03*
X-997150Y16100D02*
D03*
X-978350Y128600D02*
D03*
X-965650Y154000D02*
D03*
X-952950Y128600D02*
D03*
X-940250Y154000D02*
D03*
X-927550Y128600D02*
D03*
X-914850Y154000D02*
D03*
X-902150Y128600D02*
D03*
X-889450Y154000D02*
D03*
X-876750Y128600D02*
D03*
D90*
X-991050Y154000D02*
D03*
D91*
X-1011650Y95600D02*
D03*
X-856150D02*
D03*
D92*
X-1111950Y272800D02*
D03*
D93*
Y472800D02*
D03*
D94*
X-381800Y60450D02*
D03*
X-526800D02*
D03*
D95*
X-381800Y850D02*
D03*
X-526800D02*
D03*
D96*
X-235500Y71100D02*
D03*
D97*
Y11100D02*
D03*
D98*
X-188000Y6100D02*
D03*
Y53100D02*
D03*
X-283000Y6100D02*
D03*
Y52100D02*
D03*
D99*
X-135800Y18350D02*
D03*
X-78000D02*
D03*
D100*
X-150100Y23550D02*
D03*
X-63700D02*
D03*
D101*
X-150100Y-18450D02*
D03*
X-63700D02*
D03*
D102*
X-829200Y372800D02*
D03*
X-832200Y617600D02*
D03*
D103*
X-895500Y782900D02*
D03*
D104*
X-875500D02*
D03*
X-855500D02*
D03*
X-835500D02*
D03*
M02*
