G04*
G04 #@! TF.GenerationSoftware,Altium Limited,Altium Designer,25.0.2 (28)*
G04*
G04 Layer_Color=65535*
%FSLAX44Y44*%
%MOMM*%
G71*
G04*
G04 #@! TF.SameCoordinates,D3EEB5A3-CD8A-495B-8DC4-06CF7895C722*
G04*
G04*
G04 #@! TF.FilePolarity,Positive*
G04*
G01*
G75*
%ADD10C,0.2500*%
%ADD11C,0.2000*%
%ADD12C,0.3500*%
%ADD13C,0.2540*%
D10*
X214750Y175000D02*
G03*
X214750Y175000I-1250J0D01*
G01*
D11*
X180750Y157500D02*
Y158500D01*
X209250Y157500D02*
Y158500D01*
X180750Y173500D02*
Y174500D01*
X209250Y173500D02*
Y174500D01*
X180750Y157500D02*
X209250D01*
X180750Y174500D02*
X209250D01*
X272500Y109000D02*
X347500D01*
X272500Y209000D02*
X347500D01*
X272500Y109000D02*
Y209000D01*
X347500Y109000D02*
Y209000D01*
D12*
X51500Y233451D02*
X41343D01*
X36265Y238530D01*
X41343Y243608D01*
X51500D01*
X43882D01*
Y233451D01*
X51500Y248687D02*
X36265D01*
Y256304D01*
X38804Y258843D01*
X43882D01*
X46422Y256304D01*
Y248687D01*
Y253765D02*
X51500Y258843D01*
Y263922D02*
X36265D01*
X41343Y269000D01*
X36265Y274078D01*
X51500D01*
Y286774D02*
Y281696D01*
X48961Y279157D01*
X43882D01*
X41343Y281696D01*
Y286774D01*
X43882Y289314D01*
X46422D01*
Y279157D01*
X36265Y304548D02*
X51500D01*
Y296931D01*
X48961Y294392D01*
X43882D01*
X41343Y296931D01*
Y304548D01*
D13*
X12225Y234991D02*
X27460D01*
Y242608D01*
X24921Y245147D01*
X22381D01*
X19842Y242608D01*
Y234991D01*
Y242608D01*
X17303Y245147D01*
X14764D01*
X12225Y242608D01*
Y234991D01*
X27460Y252765D02*
Y257843D01*
X24921Y260382D01*
X19842D01*
X17303Y257843D01*
Y252765D01*
X19842Y250226D01*
X24921D01*
X27460Y252765D01*
Y268000D02*
Y273078D01*
X24921Y275618D01*
X19842D01*
X17303Y273078D01*
Y268000D01*
X19842Y265461D01*
X24921D01*
X27460Y268000D01*
Y280696D02*
Y288314D01*
X24921Y290853D01*
X22381Y288314D01*
Y283235D01*
X19842Y280696D01*
X17303Y283235D01*
Y290853D01*
X14764Y298470D02*
X17303D01*
Y295931D01*
Y301009D01*
Y298470D01*
X24921D01*
X27460Y301009D01*
X194843Y145618D02*
Y130382D01*
X202461D01*
X205000Y132922D01*
Y143078D01*
X202461Y145618D01*
X194843D01*
X210078Y130382D02*
X215157D01*
X212618D01*
Y145618D01*
X210078Y143078D01*
X296461Y245618D02*
X291383D01*
X293922D01*
Y232922D01*
X291383Y230382D01*
X288843D01*
X286304Y232922D01*
X311696Y230382D02*
X301539D01*
X311696Y240539D01*
Y243078D01*
X309157Y245618D01*
X304078D01*
X301539Y243078D01*
X11843Y41617D02*
Y28922D01*
X14382Y26383D01*
X19461D01*
X22000Y28922D01*
Y41617D01*
X27078Y26383D02*
X32157D01*
X29618D01*
Y41617D01*
X27078Y39078D01*
X296304Y44383D02*
Y59618D01*
X303922D01*
X306461Y57078D01*
Y52000D01*
X303922Y49461D01*
X296304D01*
X301383D02*
X306461Y44383D01*
X311539Y57078D02*
X314078Y59618D01*
X319157D01*
X321696Y57078D01*
Y54539D01*
X319157Y52000D01*
X316618D01*
X319157D01*
X321696Y49461D01*
Y46922D01*
X319157Y44383D01*
X314078D01*
X311539Y46922D01*
X201304Y87382D02*
Y102618D01*
X208922D01*
X211461Y100078D01*
Y95000D01*
X208922Y92461D01*
X201304D01*
X206383D02*
X211461Y87382D01*
X226696D02*
X216539D01*
X226696Y97539D01*
Y100078D01*
X224157Y102618D01*
X219078D01*
X216539Y100078D01*
X282843Y85382D02*
Y100618D01*
X290461D01*
X293000Y98078D01*
Y93000D01*
X290461Y90461D01*
X282843D01*
X287922D02*
X293000Y85382D01*
X298078D02*
X303157D01*
X300618D01*
Y100618D01*
X298078Y98078D01*
X32843Y207617D02*
Y192383D01*
X43000D01*
X48078D02*
X53157D01*
X50618D01*
Y207617D01*
X48078Y205078D01*
X20461Y138078D02*
X17922Y140618D01*
X12843D01*
X10304Y138078D01*
Y127922D01*
X12843Y125382D01*
X17922D01*
X20461Y127922D01*
X25539Y138078D02*
X28078Y140618D01*
X33157D01*
X35696Y138078D01*
Y135539D01*
X33157Y133000D01*
X30617D01*
X33157D01*
X35696Y130461D01*
Y127922D01*
X33157Y125382D01*
X28078D01*
X25539Y127922D01*
X216461Y48078D02*
X213922Y50618D01*
X208843D01*
X206304Y48078D01*
Y37922D01*
X208843Y35382D01*
X213922D01*
X216461Y37922D01*
X231696Y35382D02*
X221539D01*
X231696Y45539D01*
Y48078D01*
X229157Y50618D01*
X224078D01*
X221539Y48078D01*
X284000Y305078D02*
X281461Y307617D01*
X276383D01*
X273843Y305078D01*
Y294922D01*
X276383Y292383D01*
X281461D01*
X284000Y294922D01*
X289078Y292383D02*
X294157D01*
X291618D01*
Y307617D01*
X289078Y305078D01*
M02*
